<?xml version="1.0" encoding="utf-8"?>
<!-- Generator: Adobe Illustrator 26.5.2, SVG Export Plug-In . SVG Version: 6.00 Build 0)  -->
<svg version="1.1" id="Layer_1" xmlns="http://www.w3.org/2000/svg" xmlns:xlink="http://www.w3.org/1999/xlink" x="0px" y="0px"
	 viewBox="0 0 512 512" style="enable-background:new 0 0 512 512;" xml:space="preserve">
<style type="text/css">
	.st0{fill:#EF3B39;}
</style>
<path class="st0" d="M490.7,234.7c-11.8,0-21.3-9.6-21.3-21.3c-0.1-94.2-76.4-170.6-170.7-170.7c-11.8,0-21.3-9.6-21.3-21.3
	S286.9,0,298.7,0C416.4,0.1,511.9,95.6,512,213.3C512,225.1,502.4,234.7,490.7,234.7z M426.7,213.3c0-70.7-57.3-128-128-128
	c-11.8,0-21.3,9.6-21.3,21.3s9.6,21.3,21.3,21.3c47.1,0,85.3,38.2,85.3,85.3c0,11.8,9.6,21.3,21.3,21.3S426.7,225.1,426.7,213.3z
	 M473.2,472.8l19.4-22.4c25.7-25.8,25.7-67.6,0-93.4c-0.7-0.7-52-40.1-52-40.1c-25.6-24.4-65.8-24.3-91.3,0.1l-40.7,34.3
	c-67-27.7-120.3-81.1-147.9-148.1l34.1-40.5c24.4-25.5,24.5-65.8,0.1-91.3c0,0-39.5-51.3-40.2-51.9c-25.3-25.5-66.4-25.9-92.3-1
	L38.1,39.7C-106.9,207.9,205.2,517.6,378.9,512C414.4,512.2,448.4,498.1,473.2,472.8z"/>
</svg>
