<?xml version="1.0" encoding="utf-8"?>
<!-- Generator: Adobe Illustrator 26.4.1, SVG Export Plug-In . SVG Version: 6.00 Build 0)  -->
<svg version="1.1" id="Layer_1" xmlns="http://www.w3.org/2000/svg" xmlns:xlink="http://www.w3.org/1999/xlink" x="0px" y="0px"
	 viewBox="0 0 1366 768" style="enable-background:new 0 0 1366 768;" xml:space="preserve">
<style type="text/css">
	.st0{opacity:0.8;}
	.st1{fill:#22043A;}
	.st2{opacity:0.74;}
	.st3{fill:#BDCCD4;stroke:#000000;stroke-miterlimit:10;}
	.st4{fill:#BDCCD4;}
	.st5{fill:#FFFFFF;}
	.st6{fill:#F2F2F2;}
	.st7{fill:#630A11;}
	.st8{stroke:#000000;stroke-linecap:round;stroke-linejoin:round;stroke-miterlimit:10;}
	.st9{fill:none;stroke:#000000;stroke-width:2;stroke-miterlimit:10;}
	.st10{fill:none;stroke:#000000;stroke-width:4;stroke-linecap:round;stroke-miterlimit:10;}
	.st11{fill:none;stroke:#000000;stroke-width:2;stroke-linecap:round;stroke-miterlimit:10;}
	.st12{stroke:#000000;stroke-width:2;stroke-linecap:round;stroke-miterlimit:10;}
	.st13{fill:none;stroke:#000000;stroke-miterlimit:10;}
	.st14{stroke:#000000;stroke-miterlimit:10;}
	.st15{fill:#FFFFFF;stroke:#000000;stroke-width:0.75;stroke-miterlimit:10;}
	.st16{fill:#F2F2F2;stroke:#000000;stroke-width:4;stroke-miterlimit:10;}
	.st17{stroke:#000000;stroke-width:0.25;stroke-miterlimit:10;}
	.st18{fill:none;stroke:#000000;stroke-linecap:round;stroke-miterlimit:10;}
	.st19{stroke:#000000;stroke-width:0.75;stroke-linecap:round;stroke-miterlimit:10;}
	.st20{stroke:#000000;stroke-width:2;stroke-miterlimit:10;}
	.st21{fill:none;stroke:#000000;stroke-width:2;stroke-linecap:round;stroke-linejoin:round;stroke-miterlimit:10;}
	.st22{stroke:#000000;stroke-width:2;stroke-linecap:round;stroke-linejoin:round;stroke-miterlimit:10;}
	.st23{fill:none;stroke:#000000;stroke-linecap:round;stroke-linejoin:round;stroke-miterlimit:10;}
	.st24{stroke:#000000;stroke-width:0.25;stroke-linecap:round;stroke-linejoin:round;stroke-miterlimit:10;}
	.st25{fill:#FFFFFF;stroke:#000000;stroke-width:0.25;stroke-linecap:round;stroke-linejoin:round;stroke-miterlimit:10;}
	.st26{fill:#630A11;stroke:#000000;stroke-width:2;stroke-miterlimit:10;}
	.st27{fill:#FFFFFF;stroke:#000000;stroke-linecap:round;stroke-miterlimit:10;}
	.st28{stroke:#000000;stroke-linecap:round;stroke-miterlimit:10;}
	.st29{fill:#FFFFFF;stroke:#000000;stroke-width:0.75;stroke-linecap:round;stroke-miterlimit:10;}
	.st30{fill:none;stroke:#000000;stroke-width:0.75;stroke-linecap:round;stroke-miterlimit:10;}
	.st31{font-family:'BerlinSansFBDemi-Bold';}
	.st32{font-size:21.2697px;}
	.st33{font-size:20.8947px;}
	.st34{font-size:20.8932px;}
	.st35{font-size:21.8516px;}
	.st36{font-size:23.5643px;}
	.st37{font-size:21.7779px;}
	.st38{font-size:20.04px;}
	.st39{font-size:22.4175px;}
	.st40{font-size:18.2017px;}
	.st41{font-size:18.3287px;}
	.st42{fill:#630A11;stroke:#000000;stroke-width:0.5;stroke-miterlimit:10;}
	.st43{fill:#630A11;stroke:#630A11;stroke-linecap:round;stroke-miterlimit:10;}
	.st44{fill:none;stroke:#630A11;stroke-linecap:round;stroke-miterlimit:10;}
</style>
<g class="st0">
	<path class="st1" d="M81,0c0,9.38,0,55.47,0,121.92l22.15,12.29l94.38,52.37l-92.54,55.55L81,256.53c0,171.4,0,386.97,0,511.47h931
		V0C701.67,0,391.33,0,81,0z"/>
</g>
<g class="st2">
	<path class="st1" d="M128-1c0,9.38,0,55.47,0,121.92l21.03,12.29l89.61,52.37l-87.87,55.55L128,255.53c0,171.4,0,386.97,0,511.47
		h884V-1C717.33-1,422.67-1,128-1z"/>
</g>
<path class="st3" d="M551.5,400.5c0.69,0.08,1.59,0.31,2,1c0.67,1.13-0.41,2.71,0,3c0.42,0.29,1.61-1.26,3-2
	c1.39-0.74,3.76-1.08,8,1c0.12-0.51,0.39-1.28,1-2c1.7-1.99,5.28-2.62,7-1c0.3,0.28,0.8,0.87,1,2c0.47-0.27,1.15-0.63,2-1
	c2.05-0.89,3.08-1.33,4-1c1.77,0.64,1.99,3.78,2,4c-0.02-0.36-0.09-1.91,1-3c0.63-0.63,1.36-0.83,2-1c0.75-0.2,1.83-0.49,3,0
	c1.26,0.53,1.83,1.63,2,2c0.98-0.56,1.98-0.89,3-1c1.31-0.14,1.68,0.2,3,0c1.54-0.23,1.82-0.8,3-1c0.87-0.15,2.19-0.1,4,1
	c2.85-1.35,4.75-1.32,6-1c0.69,0.18,2.04,0.66,3,0c0.51-0.35,0.53-0.77,1-1c0.51-0.25,1.39-0.2,3,1c-4.33,4.33-8.67,8.67-13,13
	c-3,0.67-6,1.33-9,2c-1.33,0.67-2.67,1.33-4,2c-2-0.33-4-0.67-6-1c-1.67,0.67-3.33,1.33-5,2c-0.89-1.19-1.79-2.39-2.68-3.58
	c-0.11-0.14-0.21-0.28-0.32-0.42c-2,1.33-4,2.67-6,4c-1.67-1-3.33-2-5-3c-1.67,1.33-3.33,2.67-5,4c-1-0.67-2-1.33-3-2
	c-4.26,1.83-7,3-7,3c0,0-1.04-1.39-3-4C548.17,411.17,549.83,405.83,551.5,400.5z"/>
<path class="st4" d="M529.69,333.41c0.17-1.31-0.63-2.54-1.89-2.93c-1.91-0.58-4.05-1.61-5.8-3.48c-1.97-2.1-1.57-3.25-3-4
	c-0.51-0.27-3.22-2.37-11,1c-2.82,1.22-2.9,2.74-4,2c-0.97-0.65-0.65-0.98-2-2c-0.14-0.1-1.49-1.38-3-1c-4,1-7,6-8,6
	c-0.45,0-0.31-0.61-1-1c-0.93-0.52-1.79-0.08-3,0c-1.04,0.07-2.02-0.29-4-1c-2.02-0.73-3.03-1.1-4-2c-1.1-1.03-1.04-1.65-2-2
	c0,0-0.49-0.18-3,0c-0.19-1.35-0.59-1.85-1-2c-1.05-0.39-2.59,1.36-3,1c-0.21-0.19-0.61-2-1-2c-2,0-3,2-4,1
	c-0.71-0.71-0.27-1.52-1-2c-1.39-0.92-4,0-6,1c-0.14,0.07-0.91-0.41-1-1c-0.11-0.72,0.88-1.09,1-2c0.1-0.76-0.43-1.65-1-2
	c-2.2-1.36-7.43,3.64-8,3c-0.26-0.29,0.9-1.24,1-3c0.06-1.09-0.29-2.41-1-3c-1.37-1.14-4.82-0.23-8,3c0.04-0.18,0.51-2.56-1-4
	c-0.75-0.71-1.71-0.94-2-1c-0.3-0.07-1.16-0.26-2,0c-1.92,0.59-2.23,3.09-3,3c-0.86-0.1-0.44-2.2-2-3c-0.66-0.34-1.78-0.9-4,0
	c-1.14,0.46-3.35,1.42-6,2c-0.13,0.03-0.92,0.2-1,0c-0.17-0.4,3-1.5,3-3c0-0.84-0.98-1.74-2-2c-2.51-0.63-4.78,2.75-6,2
	c-0.84-0.52-0.06-2.31-1-3c-1.07-0.79-3.34,0.6-4,1c-1.62,0.99-4.73,3.37-7,9c-0.67-1.18-1.46-3.04-1-5c0.65-2.81,3.45-4.09,3-5
	c-0.35-0.7-2.39-0.68-4,0c-2.4,1.02-2.67,3.02-4,3c-1.8-0.02-2.07-3.7-4-4c-2.51-0.39-4.39,5.47-7,5c-1.02-0.18-1.1-1.14-4-3
	c-1.07-0.68-1.61-1.02-2-1c-2.4,0.13-3.06,5.98-5,6c-0.73,0.01-0.67-1.24-2-2c-1.14-0.65-2.91-0.77-4,0c-2.1,1.47-0.73,5.54-2,6
	c-1.3,0.47-3.83-2.81-7-3c-1.53-0.09-2.16-0.2-3,1c-1.64,2.35-0.11,5.64-1,6c-0.78,0.32-1.93-2.22-3-2c-1.96,0.41-3,8-3,10
	c0,0.83-1.19-0.5-3-1c-1.99-0.55-4.9-0.46-5,1c-0.56,7.94,4.2,3.43,4,6c-0.14,1.83-2.45,3.39-4,4c-2.05,0.8-3.02,0.04-4,1
	c-0.92,0.9-0.3,1.79-1,5c-0.49,2.26-0.92,2.38-1,4c-0.05,1.08-0.14,2.98,1,4c1.17,1.05,2.87,0.49,3,1c0.15,0.59-2.2,1.05-4,3
	c-1.24,1.34-2.78,3.98-2,6c0.83,2.14,3.65,2.01,4,4c0.23,1.31-0.95,1.59-1,3c-0.11,3.33,4,6,6,8c0.72,0.72-0.93,0.96-1,2
	c-0.13,2.08,3,4,5,6c1.71,1.71,0.71,3.18,2,4c1.37,0.87,2.51,0.05,4,1c1.3,0.84,0.91,1.78,2,3c2.32,2.61,6,3,8,3
	c1.86,0-0.11,2.6,1,4c1.69,2.14,4.93-0.02,9,2c3,1.49,2.38,3.23,5,4c3.42,1,5.96-1.55,8,0c1.28,0.97,0.74,2.33,2,3
	c2.05,1.1,4.67-1.85,6-1c1.7,1.1-1.28,9.28,0,8c5-5,23.69-9.99,23-17c-0.29-2.95-5-6-10-1c-0.69,0.69-0.84-2.74-2-3
	c-1.3-0.29-5,2-5-1c0-2.78-5-2-7-2c-2.41,0-5.73-2-8-2c-3.27,0-5.57-4-9-4c-3,0-3.49-2.8-6-5c-1.7-1.49-5-1.57-5-4c0-1-4-4-10-14
	c-1.18-1.96-1.86-5.63-2-8c-0.14-2.3,1.26-4.62,2-7c0.52-1.66,1.19-3.19,2-4.61c1.02-1.79,1.65-4.95,3-6.39c0.78-0.83,3.45,0.02,3-1
	c-4.03-9.23,3.23-3.37,5-4c2.3-0.82,3-7,4-6s4.43-2.74,5-3c1.64-0.75,5.35,1.58,7,1c1.85-0.66,2.15-1.46,4-1
	c4,1,10.3-0.66,15.4-0.76c1.37-0.03,3.27,1.72,4.6,1.76c1.12,0.03,1.69-1.66,2.77-1.58c0.92,0.06,1.48,2.08,2.23,1.58
	c3-2,4.11,0.69,6,1c2.23,0.37,4.62-2.38,6-1c1.33,1.33,2.05,3.75,3,4c1.1,0.29,4.07-2.28,5-2c2.39,0.71,2.94,1.63,4,2
	c5.3,1.86,9.31,2.63,13,4c1.28,0.48,6,1,6,1c1,3,4.59,0.59,6,2c1,1,1.89,4,3,5c0.98,0.89,4.84,1.65,9,2c3.17,0.27,3.68,0.93,7,0
	c4.05-1.14,8.03-0.43,16,1c6.92,1.24,12.23,3,15,4c4.18,1.51,9.35,3.72,15,7C527.9,347.14,528.79,340.27,529.69,333.41z"/>
<g>
	<path class="st5" d="M464,348c-6.58,4.46-16.02,12.07-24,24c-5.94,8.87-22.85,34.13-13,62c9.76,27.6,38.28,36.61,43,38
		c5.72,1.69,26.33,7.78,45-3c12.18-7.03,17.46-17.72,25-33c8.87-17.96,9.81-31.74,10-36c0.23-5.31,0.44-11.48-2-19
		c-3.52-10.83-10.24-17.41-14-21c-11.36-10.85-24.26-14.59-31-16c-10.67,0-21.33,0-32,0C468.67,345.33,466.33,346.67,464,348z"/>
	<path class="st6" d="M272,527c-6.32,4.08-18.86,13.5-25,30c-1.05,2.82-4.19,11.96-2,35c3.16,33.21,4.73,49.82,18,58
		c14.57,8.98,37.02,4.34,49-7c7.03-6.66,9.92-15.12,15-30c1.94-5.68,4.24-12.56,5-22c0.71-8.75-0.21-15.88-1-22
		c-0.98-7.62-1.35-11.45-3-16c-2.94-8.11-7.68-13.71-11-17c-6-2.57-11.13-4.56-15-6c-12.87-4.77-17.33-5.48-22-5
		C276.5,525.36,273.72,526.31,272,527z"/>
	<path class="st7" d="M259.5,634.5c-0.87-2.72-2.49-3.17-3.5-5.5c-1.47-3.39-2.3-8.55-3-12c-1.93-9.53-1.15-19.06-1.5-25.5
		c-0.47-8.67,1.81-16.17,2.5-22.5c1.71-15.76,3.94-24.47,5.5-27.5c2.92-5.68,8.44-16.07,17-17c2.73-0.3,3.19,0.65,14,3
		c10.41,2.26,10.25,1.45,15,3c9,2.94,9.83,5.96,15,6c3.99,0.03,7.38-2.31,14-7c7.33-5.19,9.16-7.82,20-17c3.97-3.36,7.2-5.95,11-9
		c8.57-6.87,9.08-6.96,14-11c8.87-7.27,8.52-8.06,17-15c6.6-5.4,9.9-8.11,15-11c5.93-3.36,11.28-6.4,19-8c6.36-1.32,10.11-0.79,11-3
		c0.95-2.35-2.68-4.4-6-11c-1.94-3.85-2.63-7.23-4-14c-1.03-5.08-2.02-9.71-2-16c0.02-4.62,0.56-8.14,1-11c0.19-1.24,1.01-6.36,3-13
		c0.86-2.85,1.95-6.45,4-11c2.17-4.81,4.36-8.36,6-11c1.55-2.49,2.95-4.53,4-6c-10.93,3.15-15.68,8.14-18,12
		c-3.99,6.61-2.13,12-8,21c-2.73,4.19-5.6,6.81-8,9c-6.51,5.94-12.16,8.44-19,12c-7.56,3.93-12.51,7.04-22,13
		c-12.48,7.84-12.49,9.28-31,22c-8.85,6.08-8.47,5.49-21,14c-2.83,1.92-11.49,7.82-23,16c-18.12,12.87-27.18,19.31-34,25
		c-12.52,10.44-20.69,17.25-29,29c-5.51,7.79-11.91,17.04-15,31c-3.94,17.82,0.05,31.87,1,35c2.12,7.01,4.76,15.72,13,23
		C243.49,633.32,255.25,634.34,259.5,634.5z"/>
	<path class="st8" d="M217.5,590.5c-0.01,0,1.33,6.18,5,14c3.49,7.43,6.89,11.67,8,13c1.25,1.5,3.5,4.19,7,7
		c4.79,3.84,9.04,5.6,15,8c8.82,3.56,14.99,4.67,17,5c9.31,1.54,12.35,0.14,14-1c2.6-1.8,3.73-4.34,4-5c1.74-4.2,1.37-8.06,1-9
		c0.22,0.24-0.44,0.59,0,1c0.63,0.6,1.1,2.64,1,3c-0.42,1.59,2.48,7.58,4,10c2,3.19,5.45,6.65,6,7c2.14,1.37,4.82,0.6,7,0
		c3.72-1.02,6.1-3.13,7-4c1.09-1.06,2.02-2.25,4-6c1.97-3.73,3.5-6.63,5-11c1.23-3.58,2.61-7.59,3-13c0.33-4.59,2-16,2-19
		c0,5,0.22,10.05,0,15c-0.17,3.74-2.06,16.74-4,21c-2.12,4.65-5.67,12.46-14,19c-4.93,3.87-9.77,5.92-13,7c-10.47,3.5-19.41,2-25,1
		c-12.92-2.32-21.61-8.28-24-10c-10.69-7.68-15.77-17.01-20-25C219.69,603.76,217.52,590.49,217.5,590.5z"/>
	<path class="st9" d="M528.5,355.5c-5.08-3.42-26.56-17.04-54-12c-27.23,5-49.66,26.41-58,55c-42,29.33-84,58.67-126,88
		c-5.54,3.76-13.63,9.48-23,17c-20.21,16.21-31.5,25.44-40,41c-2.94,5.39-8.62,16.03-10,31c-2.82,30.52,14.68,52.21,17,55
		c4.95,5.94,15.96,19.16,35,23c15.91,3.21,37.17-0.18,48.5-14.5c3.66-4.63,5.11-10.09,8-21c4.55-17.17,10.47-40.74,1-65
		c-2.15-5.51-4.55-9.67-6-12c25.67-21.33,51.33-42.67,77-64c3.87-3.92,12.17-11.25,25-15c9.11-2.66,17.01-2.51,22-2
		c2.49,1.95,6.18,4.56,11,7c6.01,3.05,25,11,51,5c27.85-6.43,35.69-38.26,39-49c2.98-9.67,9.13-29.64-1-49
		C540.11,364.65,533.17,358.78,528.5,355.5z"/>
	<g>
		<g>
			<path d="M426.47,410.06c-21.19,14.96-43.03,28.91-65.31,42.2c-5.57,3.32-11.09,6.73-16.43,10.42
				c-5.29,3.66-10.44,7.52-15.58,11.38c-9.3,6.98-18.62,13.97-27.45,21.56c-9.98,8.57-19.28,17.94-27,28.63
				c-1.13,1.57,1.47,3.07,2.59,1.51c13.67-18.94,32.4-33.35,50.9-47.26c10.07-7.57,20.17-15.02,30.96-21.54
				c10.96-6.62,21.95-13.16,32.74-20.05c12.21-7.8,24.24-15.89,36.08-24.25C429.55,411.54,428.05,408.94,426.47,410.06
				L426.47,410.06z"/>
		</g>
	</g>
	<g id="Pikat_nelt">
		<g>
			<g>
				<path d="M486.18,389.49c1.93,0,1.93-3,0-3C484.25,386.49,484.24,389.49,486.18,389.49L486.18,389.49z"/>
			</g>
		</g>
		<g>
			<g>
				<path d="M491.95,379.27c-0.17,0.43-0.34,0.87-0.51,1.3c-0.06,0.2-0.07,0.4-0.03,0.6c0.01,0.2,0.07,0.39,0.18,0.56
					c0.09,0.17,0.22,0.32,0.39,0.42c0.14,0.13,0.31,0.22,0.51,0.27c0.13,0.02,0.27,0.04,0.4,0.05c0.27,0,0.52-0.07,0.76-0.2
					c0.1-0.08,0.2-0.16,0.3-0.23c0.19-0.19,0.31-0.41,0.39-0.66c0.17-0.43,0.34-0.87,0.51-1.3c0.06-0.2,0.07-0.4,0.03-0.6
					c-0.01-0.2-0.07-0.39-0.18-0.56c-0.09-0.17-0.22-0.32-0.39-0.42c-0.14-0.13-0.31-0.22-0.51-0.27c-0.13-0.02-0.27-0.04-0.4-0.05
					c-0.27,0-0.52,0.07-0.76,0.2c-0.1,0.08-0.2,0.16-0.3,0.23C492.15,378.8,492.02,379.02,491.95,379.27L491.95,379.27z"/>
			</g>
		</g>
		<g>
			<g>
				<path d="M500.69,374.99c-0.09,0.09-0.17,0.17-0.26,0.26c-0.15,0.14-0.25,0.3-0.31,0.48c-0.09,0.18-0.14,0.37-0.13,0.58
					c-0.01,0.21,0.04,0.4,0.13,0.58c0.06,0.19,0.16,0.35,0.31,0.48c0.1,0.08,0.2,0.16,0.3,0.23c0.23,0.14,0.49,0.2,0.76,0.2
					c0.13-0.02,0.27-0.04,0.4-0.05c0.25-0.07,0.47-0.2,0.66-0.39c0.09-0.09,0.17-0.17,0.26-0.26c0.15-0.14,0.25-0.3,0.31-0.48
					c0.09-0.18,0.14-0.37,0.13-0.58c0.01-0.21-0.04-0.4-0.13-0.58c-0.06-0.19-0.16-0.35-0.31-0.48c-0.1-0.08-0.2-0.16-0.3-0.23
					c-0.23-0.14-0.49-0.2-0.76-0.2c-0.13,0.02-0.27,0.04-0.4,0.05C501.09,374.68,500.87,374.81,500.69,374.99L500.69,374.99z"/>
			</g>
		</g>
		<g>
			<g>
				<path d="M513.36,376.57c0-0.26,0-0.52,0-0.78c0.01-0.21-0.04-0.4-0.13-0.58c-0.06-0.19-0.16-0.35-0.31-0.48
					c-0.14-0.15-0.3-0.25-0.48-0.31c-0.18-0.09-0.37-0.14-0.58-0.13c-0.13,0.02-0.27,0.04-0.4,0.05c-0.25,0.07-0.47,0.2-0.66,0.39
					c-0.08,0.1-0.16,0.2-0.23,0.3c-0.14,0.23-0.2,0.49-0.2,0.76c0,0.26,0,0.52,0,0.78c-0.01,0.21,0.04,0.4,0.13,0.58
					c0.06,0.19,0.16,0.35,0.31,0.48c0.14,0.15,0.3,0.25,0.48,0.31c0.18,0.09,0.37,0.14,0.58,0.13c0.13-0.02,0.27-0.04,0.4-0.05
					c0.25-0.07,0.47-0.2,0.66-0.39c0.08-0.1,0.16-0.2,0.23-0.3C513.3,377.1,513.36,376.84,513.36,376.57L513.36,376.57z"/>
			</g>
		</g>
		<g>
			<g>
				<path d="M479.95,395.53c0,0.01-0.01,0.01-0.01,0.02c0.08-0.1,0.16-0.2,0.23-0.3c-0.02,0.03-0.05,0.05-0.07,0.07
					c0.1-0.08,0.2-0.16,0.3-0.23c-0.03,0.02-0.07,0.04-0.1,0.06c0.12-0.05,0.24-0.1,0.36-0.15c-0.04,0.02-0.09,0.03-0.14,0.04
					c0.13-0.02,0.27-0.04,0.4-0.05c-0.06,0.01-0.11,0.01-0.17,0c0.13,0.02,0.27,0.04,0.4,0.05c-0.06-0.01-0.12-0.02-0.17-0.05
					c0.12,0.05,0.24,0.1,0.36,0.15c-0.05-0.02-0.1-0.05-0.14-0.08c0.1,0.08,0.2,0.16,0.3,0.23c-0.03-0.03-0.07-0.06-0.09-0.09
					c0.08,0.1,0.16,0.2,0.23,0.3c-0.02-0.03-0.04-0.07-0.06-0.1c0.05,0.12,0.1,0.24,0.15,0.36c-0.01-0.04-0.02-0.07-0.03-0.11
					c0.02,0.13,0.04,0.27,0.05,0.4c0,0,0-0.01,0-0.01c0.01-0.21-0.04-0.4-0.13-0.58c-0.06-0.19-0.16-0.35-0.31-0.48
					c-0.14-0.15-0.3-0.25-0.48-0.31c-0.18-0.09-0.37-0.14-0.58-0.13c-0.13,0.02-0.27,0.04-0.4,0.05c-0.25,0.07-0.47,0.2-0.66,0.39
					c-0.08,0.1-0.16,0.2-0.23,0.3c-0.14,0.23-0.2,0.49-0.2,0.76c0.02,0.14,0.03,0.28,0.06,0.42c0,0.01,0,0.02,0.01,0.04
					c0.01,0.02,0.01,0.04,0.02,0.06c0.05,0.12,0.1,0.26,0.16,0.38c0.01,0.01,0.01,0.02,0.02,0.03c0.01,0.02,0.02,0.04,0.04,0.05
					c0.08,0.11,0.16,0.22,0.25,0.32c0.01,0.01,0.02,0.02,0.02,0.03c0.02,0.02,0.03,0.03,0.05,0.04c0.1,0.08,0.21,0.17,0.32,0.25
					c0.01,0.01,0.02,0.01,0.03,0.02c0.02,0.01,0.04,0.02,0.06,0.03c0.13,0.07,0.27,0.12,0.41,0.18c0.02,0.01,0.04,0.02,0.06,0.02
					c0.02,0.01,0.04,0.01,0.07,0.02c0.15,0.03,0.3,0.05,0.46,0.06c0.05,0,0.09,0,0.14,0c0.14-0.01,0.28-0.03,0.42-0.06
					c0.01,0,0.02,0,0.03-0.01c0.02,0,0.05-0.01,0.07-0.02c0.13-0.05,0.26-0.1,0.38-0.16c0.01,0,0.02-0.01,0.03-0.01
					c0.02-0.01,0.04-0.03,0.06-0.04c0.11-0.08,0.22-0.17,0.32-0.25c0.01-0.01,0.02-0.02,0.03-0.02c0.01-0.01,0.02-0.02,0.03-0.03
					c0.09-0.1,0.17-0.22,0.25-0.33c0.11-0.17,0.17-0.36,0.18-0.56c0.04-0.2,0.04-0.4-0.03-0.6c-0.05-0.2-0.14-0.37-0.27-0.51
					c-0.11-0.16-0.25-0.29-0.42-0.39c-0.12-0.05-0.24-0.1-0.36-0.15c-0.27-0.07-0.53-0.07-0.8,0c-0.12,0.05-0.24,0.1-0.36,0.15
					C480.26,395.13,480.08,395.31,479.95,395.53L479.95,395.53z"/>
			</g>
		</g>
		<g>
			<g>
				<path d="M478.02,406.31c0.03-0.01,0.06-0.01,0.09-0.02c-0.13,0.02-0.27,0.04-0.4,0.05c0.11-0.01,0.22-0.01,0.33,0
					c-0.13-0.02-0.27-0.04-0.4-0.05c0.11,0.02,0.22,0.05,0.32,0.09c-0.12-0.05-0.24-0.1-0.36-0.15c0.1,0.04,0.2,0.1,0.29,0.17
					c-0.1-0.08-0.2-0.16-0.3-0.23c0.08,0.06,0.15,0.13,0.21,0.21c-0.08-0.1-0.16-0.2-0.23-0.3c0.02,0.02,0.03,0.04,0.04,0.06
					c0.09,0.17,0.22,0.32,0.39,0.42c0.14,0.13,0.31,0.22,0.51,0.27c0.2,0.06,0.4,0.07,0.6,0.03c0.2-0.01,0.39-0.07,0.56-0.18
					c0.1-0.08,0.2-0.16,0.3-0.23c0.19-0.19,0.31-0.41,0.39-0.66c0.02-0.13,0.04-0.27,0.05-0.4c0-0.27-0.07-0.52-0.2-0.76
					c-0.14-0.2-0.29-0.42-0.49-0.57c-0.14-0.12-0.29-0.24-0.45-0.33c-0.16-0.09-0.34-0.16-0.52-0.23c-0.06-0.02-0.12-0.04-0.18-0.06
					c-0.19-0.05-0.38-0.06-0.57-0.08c-0.06-0.01-0.13-0.01-0.2,0c-0.2,0.01-0.39,0.04-0.58,0.08c-0.2,0.05-0.37,0.14-0.51,0.27
					c-0.16,0.11-0.29,0.25-0.39,0.42c-0.11,0.17-0.17,0.36-0.18,0.56c-0.04,0.2-0.04,0.4,0.03,0.6c0.05,0.12,0.1,0.24,0.15,0.36
					c0.13,0.23,0.31,0.4,0.54,0.54c0.12,0.05,0.24,0.1,0.36,0.15C477.48,406.38,477.75,406.38,478.02,406.31L478.02,406.31z"/>
			</g>
		</g>
		<g>
			<g>
				<path d="M475.28,416.21c0.35,0,0.69,0,1.04,0c0.21,0.01,0.4-0.04,0.58-0.13c0.19-0.06,0.35-0.16,0.48-0.31
					c0.15-0.14,0.25-0.3,0.31-0.48c0.09-0.18,0.14-0.37,0.13-0.58c-0.02-0.13-0.04-0.27-0.05-0.4c-0.07-0.25-0.2-0.47-0.39-0.66
					c-0.1-0.08-0.2-0.16-0.3-0.23c-0.23-0.14-0.49-0.2-0.76-0.2c-0.35,0-0.69,0-1.04,0c-0.21-0.01-0.4,0.04-0.58,0.13
					c-0.19,0.06-0.35,0.16-0.48,0.31c-0.15,0.14-0.25,0.3-0.31,0.48c-0.09,0.18-0.14,0.37-0.13,0.58c0.02,0.13,0.04,0.27,0.05,0.4
					c0.07,0.25,0.2,0.47,0.39,0.66c0.1,0.08,0.2,0.16,0.3,0.23C474.76,416.14,475.01,416.21,475.28,416.21L475.28,416.21z"/>
			</g>
		</g>
		<g>
			<g>
				<path d="M480.21,425.83c0,0,0.01,0,0.01,0c-0.13-0.02-0.27-0.04-0.4-0.05c0.01,0,0.03,0.01,0.04,0.01
					c-0.12-0.05-0.24-0.1-0.36-0.15c0.01,0.01,0.02,0.01,0.03,0.02c-0.1-0.08-0.2-0.16-0.3-0.23c0.01,0.01,0.02,0.02,0.03,0.03
					c-0.08-0.1-0.16-0.2-0.23-0.3c0.01,0.01,0.02,0.03,0.03,0.05c-0.05-0.12-0.1-0.24-0.15-0.36c0.01,0.02,0.01,0.04,0.02,0.07
					c-0.02-0.13-0.04-0.27-0.05-0.4c0,0.03,0,0.06,0,0.08c0.02-0.13,0.04-0.27,0.05-0.4c0,0.02-0.01,0.05-0.02,0.07
					c0.05-0.12,0.1-0.24,0.15-0.36c-0.01,0.02-0.02,0.03-0.03,0.05c0.08-0.1,0.16-0.2,0.23-0.3c-0.01,0.01-0.02,0.02-0.03,0.03
					c0.1-0.08,0.2-0.16,0.3-0.23c-0.01,0.01-0.02,0.01-0.03,0.02c0.12-0.05,0.24-0.1,0.36-0.15c-0.01,0.01-0.03,0.01-0.04,0.01
					c0.13-0.02,0.27-0.04,0.4-0.05c-0.01,0-0.01,0-0.02,0c-0.21-0.01-0.4,0.04-0.58,0.13c-0.19,0.06-0.35,0.16-0.48,0.31
					c-0.15,0.14-0.25,0.3-0.31,0.48c-0.09,0.18-0.14,0.37-0.13,0.58c0.02,0.13,0.04,0.27,0.05,0.4c0.07,0.25,0.2,0.47,0.39,0.66
					c0.1,0.08,0.2,0.16,0.3,0.23c0.23,0.14,0.49,0.2,0.76,0.2c0.14-0.01,0.29-0.03,0.43-0.06c0.01,0,0.01,0,0.02,0c0,0,0,0,0.01,0
					c0,0,0,0,0.01,0c0.12-0.05,0.24-0.1,0.36-0.15c0.01,0,0.02-0.01,0.03-0.01c0,0,0,0,0.01,0c0.04-0.03,0.26-0.2,0.31-0.24
					c0,0,0.01-0.01,0.01-0.01c0,0,0.01-0.01,0.01-0.01c0,0,0,0,0-0.01c0.04-0.05,0.2-0.25,0.24-0.31c0.01-0.01,0.01-0.02,0.02-0.03
					c0,0,0-0.01,0.01-0.01c0.03-0.07,0.12-0.29,0.15-0.36c0,0,0,0,0-0.01c0-0.01,0.01-0.02,0.01-0.03c0.04-0.15,0.06-0.31,0.06-0.46
					c0-0.01,0-0.02,0-0.03c0-0.01,0-0.01,0-0.02c-0.01-0.09-0.04-0.31-0.05-0.4c0,0,0-0.01,0-0.01c0-0.01,0-0.02-0.01-0.03
					c-0.04-0.13-0.11-0.28-0.16-0.39c0-0.01-0.01-0.02-0.01-0.03c0,0-0.01-0.01-0.01-0.01c0,0,0,0,0-0.01
					c-0.08-0.1-0.16-0.2-0.23-0.3c0,0,0,0,0,0c-0.01-0.01-0.02-0.02-0.02-0.02c-0.04-0.04-0.26-0.2-0.31-0.24c0,0-0.01,0-0.01-0.01
					c0,0-0.01-0.01-0.01-0.01c0,0,0,0-0.01,0c0,0,0,0-0.01,0c-0.12-0.05-0.24-0.1-0.36-0.15c-0.01,0-0.01,0-0.02-0.01
					c-0.14-0.04-0.29-0.05-0.43-0.06c-0.21-0.01-0.4,0.04-0.58,0.13c-0.19,0.06-0.35,0.16-0.48,0.31c-0.15,0.14-0.25,0.3-0.31,0.48
					c-0.09,0.18-0.14,0.37-0.13,0.58c0.02,0.13,0.04,0.27,0.05,0.4c0.07,0.25,0.2,0.47,0.39,0.66c0.1,0.08,0.2,0.16,0.3,0.23
					C479.69,425.76,479.94,425.83,480.21,425.83L480.21,425.83z"/>
			</g>
		</g>
		<g>
			<g>
				<path d="M483.12,432.1c0,0.26,0,0.52,0,0.78c-0.01,0.21,0.04,0.4,0.13,0.58c0.06,0.19,0.16,0.35,0.31,0.48
					c0.14,0.15,0.3,0.25,0.48,0.31c0.18,0.09,0.37,0.14,0.58,0.13c0.13-0.02,0.27-0.04,0.4-0.05c0.25-0.07,0.47-0.2,0.66-0.39
					c0.08-0.1,0.16-0.2,0.23-0.3c0.14-0.23,0.2-0.49,0.2-0.76c0-0.26,0-0.52,0-0.78c0.01-0.21-0.04-0.4-0.13-0.58
					c-0.06-0.19-0.16-0.35-0.31-0.48c-0.14-0.15-0.3-0.25-0.48-0.31c-0.18-0.09-0.37-0.14-0.58-0.13c-0.13,0.02-0.27,0.04-0.4,0.05
					c-0.25,0.07-0.47,0.2-0.66,0.39c-0.08,0.1-0.16,0.2-0.23,0.3C483.19,431.57,483.12,431.83,483.12,432.1L483.12,432.1z"/>
			</g>
		</g>
		<g>
			<g>
				<path d="M492.87,439.62c0-0.09,0-0.17,0-0.26c0.01-0.21-0.04-0.4-0.13-0.58c-0.06-0.19-0.16-0.35-0.31-0.48
					c-0.14-0.15-0.3-0.25-0.48-0.31c-0.18-0.09-0.37-0.14-0.58-0.13c-0.13,0.02-0.27,0.04-0.4,0.05c-0.25,0.07-0.47,0.2-0.66,0.39
					c-0.08,0.1-0.16,0.2-0.23,0.3c-0.14,0.23-0.2,0.49-0.2,0.76c0,0.09,0,0.17,0,0.26c-0.01,0.21,0.04,0.4,0.13,0.58
					c0.06,0.19,0.16,0.35,0.31,0.48c0.14,0.15,0.3,0.25,0.48,0.31c0.18,0.09,0.37,0.14,0.58,0.13c0.13-0.02,0.27-0.04,0.4-0.05
					c0.25-0.07,0.47-0.2,0.66-0.39c0.08-0.1,0.16-0.2,0.23-0.3C492.8,440.14,492.87,439.89,492.87,439.62L492.87,439.62z"/>
			</g>
		</g>
		<g>
			<g>
				<path d="M496.82,444.24c0.35,0,0.69,0,1.04,0c0.21,0.01,0.4-0.04,0.58-0.13c0.19-0.06,0.35-0.16,0.48-0.31
					c0.15-0.14,0.25-0.3,0.31-0.48c0.09-0.18,0.14-0.37,0.13-0.58c-0.02-0.13-0.04-0.27-0.05-0.4c-0.07-0.25-0.2-0.47-0.39-0.66
					c-0.1-0.08-0.2-0.16-0.3-0.23c-0.23-0.14-0.49-0.2-0.76-0.2c-0.35,0-0.69,0-1.04,0c-0.21-0.01-0.4,0.04-0.58,0.13
					c-0.19,0.06-0.35,0.16-0.48,0.31c-0.15,0.14-0.25,0.3-0.31,0.48c-0.09,0.18-0.14,0.37-0.13,0.58c0.02,0.13,0.04,0.27,0.05,0.4
					c0.07,0.25,0.2,0.47,0.39,0.66c0.1,0.08,0.2,0.16,0.3,0.23C496.29,444.17,496.55,444.23,496.82,444.24L496.82,444.24z"/>
			</g>
		</g>
		<g>
			<g>
				<path d="M505.17,443.72c0.26,0.18,0.51,0.36,0.77,0.53c0.17,0.11,0.36,0.17,0.56,0.18c0.2,0.04,0.4,0.04,0.6-0.03
					c0.2-0.05,0.37-0.14,0.51-0.27c0.16-0.11,0.29-0.25,0.39-0.42c0.05-0.12,0.1-0.24,0.15-0.36c0.07-0.27,0.07-0.53,0-0.8
					c-0.05-0.12-0.1-0.24-0.15-0.36c-0.13-0.23-0.31-0.4-0.54-0.54c-0.26-0.18-0.51-0.36-0.77-0.53c-0.17-0.11-0.36-0.17-0.56-0.18
					c-0.2-0.04-0.4-0.04-0.6,0.03c-0.2,0.05-0.37,0.14-0.51,0.27c-0.16,0.11-0.29,0.25-0.39,0.42c-0.05,0.12-0.1,0.24-0.15,0.36
					c-0.07,0.27-0.07,0.53,0,0.8c0.05,0.12,0.1,0.24,0.15,0.36C504.77,443.41,504.95,443.59,505.17,443.72L505.17,443.72z"/>
			</g>
		</g>
		<g>
			<g>
				<path d="M515.5,442.42c1.93,0,1.93-3,0-3C513.57,439.42,513.56,442.42,515.5,442.42L515.5,442.42z"/>
			</g>
		</g>
		<g>
			<g>
				<path d="M523.13,436.08c-0.06,0.02-0.11,0.03-0.17,0.04c0.13-0.02,0.27-0.04,0.4-0.05c-0.08,0.01-0.16,0.01-0.24,0
					c0.13,0.02,0.27,0.04,0.4,0.05c-0.09-0.01-0.17-0.04-0.25-0.07c0.12,0.05,0.24,0.1,0.36,0.15c-0.09-0.04-0.17-0.08-0.24-0.14
					c0.1,0.08,0.2,0.16,0.3,0.23c-0.07-0.05-0.13-0.11-0.18-0.18c0.08,0.1,0.16,0.2,0.23,0.3c-0.05-0.06-0.09-0.13-0.12-0.21
					c0.05,0.12,0.1,0.24,0.15,0.36c-0.03-0.07-0.05-0.13-0.06-0.2c-0.05-0.2-0.14-0.37-0.27-0.51c-0.11-0.16-0.25-0.29-0.42-0.39
					c-0.17-0.11-0.36-0.17-0.56-0.18c-0.2-0.04-0.4-0.04-0.6,0.03c-0.12,0.05-0.24,0.1-0.36,0.15c-0.23,0.13-0.4,0.31-0.54,0.54
					c-0.05,0.12-0.1,0.24-0.15,0.36c-0.07,0.27-0.07,0.53,0,0.8c0.03,0.19,0.13,0.39,0.21,0.56c0.03,0.06,0.06,0.13,0.1,0.18
					c0.11,0.15,0.23,0.33,0.38,0.46c0.14,0.13,0.3,0.25,0.47,0.36c0.03,0.02,0.06,0.04,0.09,0.05c0.15,0.07,0.3,0.13,0.45,0.19
					c0.13,0.05,0.27,0.06,0.4,0.08c0.14,0.02,0.27,0.04,0.41,0.03c0.16-0.01,0.33-0.03,0.49-0.07c0.04-0.01,0.07-0.02,0.11-0.03
					c0.2-0.05,0.37-0.14,0.51-0.27c0.16-0.11,0.29-0.25,0.39-0.42c0.11-0.17,0.17-0.36,0.18-0.56c0.04-0.2,0.04-0.4-0.03-0.6
					c-0.05-0.12-0.1-0.24-0.15-0.36c-0.13-0.23-0.31-0.4-0.54-0.54c-0.12-0.05-0.24-0.1-0.36-0.15
					C523.67,436.01,523.4,436.01,523.13,436.08L523.13,436.08z"/>
			</g>
		</g>
		<g>
			<g>
				<path d="M527.44,428.45c-0.35,0.26-0.69,0.52-1.04,0.78c-0.17,0.09-0.32,0.22-0.42,0.39c-0.13,0.14-0.22,0.31-0.27,0.51
					c-0.06,0.2-0.07,0.4-0.03,0.6c0.01,0.2,0.07,0.39,0.18,0.56c0.08,0.1,0.16,0.2,0.23,0.3c0.19,0.19,0.41,0.31,0.66,0.39
					c0.13,0.02,0.27,0.04,0.4,0.05c0.27,0,0.52-0.07,0.76-0.2c0.35-0.26,0.69-0.52,1.04-0.78c0.17-0.09,0.32-0.22,0.42-0.39
					c0.13-0.14,0.22-0.31,0.27-0.51c0.06-0.2,0.07-0.4,0.03-0.6c-0.01-0.2-0.07-0.39-0.18-0.56c-0.08-0.1-0.16-0.2-0.23-0.3
					c-0.19-0.19-0.41-0.31-0.66-0.39c-0.13-0.02-0.27-0.04-0.4-0.05C527.93,428.25,527.68,428.32,527.44,428.45L527.44,428.45z"/>
			</g>
		</g>
		<g>
			<g>
				<path d="M531.84,424.78c1.93,0,1.93-3,0-3C529.91,421.78,529.91,424.78,531.84,424.78L531.84,424.78z"/>
			</g>
		</g>
		<g>
			<g>
				<path d="M534.15,417.29c0.09-0.07,0.19-0.12,0.29-0.16c-0.12,0.05-0.24,0.1-0.36,0.15c0.13-0.05,0.27-0.09,0.41-0.11
					c-0.13,0.02-0.27,0.04-0.4,0.05c0.13-0.02,0.27-0.02,0.4,0c-0.13-0.02-0.27-0.04-0.4-0.05c0.07,0.01,0.14,0.02,0.21,0.04
					c0.2,0.06,0.4,0.07,0.6,0.03c0.2-0.01,0.39-0.07,0.56-0.18c0.17-0.09,0.32-0.22,0.42-0.39c0.13-0.14,0.22-0.31,0.27-0.51
					c0.02-0.13,0.04-0.27,0.05-0.4c0-0.27-0.07-0.52-0.2-0.76c-0.08-0.1-0.16-0.2-0.23-0.3c-0.19-0.19-0.41-0.31-0.66-0.39
					c-0.06-0.02-0.12-0.03-0.17-0.04c-0.18-0.03-0.37-0.06-0.56-0.07c-0.06,0-0.12,0-0.18,0c-0.19,0.01-0.37,0.04-0.56,0.07
					c-0.11,0.02-0.23,0.05-0.33,0.1c-0.23,0.09-0.46,0.18-0.66,0.32c-0.17,0.09-0.32,0.22-0.42,0.39c-0.13,0.14-0.22,0.31-0.27,0.51
					c-0.06,0.2-0.07,0.4-0.03,0.6c0.01,0.2,0.07,0.39,0.18,0.56c0.08,0.1,0.16,0.2,0.23,0.3c0.19,0.19,0.41,0.31,0.66,0.39
					c0.13,0.02,0.27,0.04,0.4,0.05C533.66,417.5,533.91,417.43,534.15,417.29L534.15,417.29z"/>
			</g>
		</g>
		<g>
			<g>
				<path d="M533.63,404.57c-0.02,0.02-0.03,0.04-0.05,0.05c-0.09,0.11-0.18,0.23-0.27,0.35c-0.03,0.04-0.06,0.08-0.08,0.13
					c-0.08,0.15-0.14,0.31-0.2,0.47c-0.02,0.05-0.03,0.1-0.04,0.14c-0.04,0.17-0.06,0.36-0.08,0.52c-0.01,0.05-0.01,0.1-0.01,0.14
					c0,0.18,0.04,0.37,0.06,0.53c0.01,0.05,0.02,0.1,0.03,0.15c0.05,0.2,0.14,0.37,0.27,0.51c0.11,0.16,0.25,0.29,0.42,0.39
					c0.17,0.11,0.36,0.17,0.56,0.18c0.2,0.04,0.4,0.04,0.6-0.03c0.12-0.05,0.24-0.1,0.36-0.15c0.23-0.13,0.4-0.31,0.54-0.54
					c0.05-0.12,0.1-0.24,0.15-0.36c0.07-0.27,0.07-0.53,0-0.8c-0.01-0.05-0.03-0.1-0.03-0.16c0.02,0.13,0.04,0.27,0.05,0.4
					c-0.01-0.1-0.01-0.19,0-0.29c-0.02,0.13-0.04,0.27-0.05,0.4c0.01-0.1,0.04-0.2,0.08-0.29c-0.05,0.12-0.1,0.24-0.15,0.36
					c0.04-0.08,0.08-0.16,0.13-0.23c-0.08,0.1-0.16,0.2-0.23,0.3c0.02-0.03,0.04-0.05,0.06-0.07c0.15-0.14,0.25-0.3,0.31-0.48
					c0.09-0.18,0.14-0.37,0.13-0.58c0.01-0.21-0.04-0.4-0.13-0.58c-0.06-0.19-0.16-0.35-0.31-0.48c-0.1-0.08-0.2-0.16-0.3-0.23
					c-0.23-0.14-0.49-0.2-0.76-0.2c-0.13,0.02-0.27,0.04-0.4,0.05C534.04,404.25,533.82,404.38,533.63,404.57L533.63,404.57z"/>
			</g>
		</g>
		<g>
			<g>
				<path d="M534.96,399.61c1.93,0,1.93-3,0-3C533.03,396.61,533.02,399.61,534.96,399.61L534.96,399.61z"/>
			</g>
		</g>
		<g>
			<g>
				<path d="M532.48,387.32c-0.24,0.03-0.46,0.14-0.68,0.24c-0.22,0.1-0.4,0.26-0.59,0.4c-0.09,0.07-0.17,0.15-0.24,0.24
					c-0.11,0.14-0.24,0.28-0.33,0.44c-0.09,0.16-0.16,0.34-0.22,0.51c-0.06,0.2-0.07,0.4-0.03,0.6c0.01,0.2,0.07,0.39,0.18,0.56
					c0.09,0.17,0.22,0.32,0.39,0.42c0.14,0.13,0.31,0.22,0.51,0.27c0.13,0.02,0.27,0.04,0.4,0.05c0.27,0,0.52-0.07,0.76-0.2
					c0.1-0.08,0.2-0.16,0.3-0.23c0.19-0.19,0.31-0.41,0.39-0.66c0,0,0-0.01,0.01-0.01c-0.05,0.12-0.1,0.24-0.15,0.36
					c0.04-0.1,0.1-0.19,0.16-0.27c-0.08,0.1-0.16,0.2-0.23,0.3c0.07-0.09,0.15-0.17,0.24-0.24c-0.1,0.08-0.2,0.16-0.3,0.23
					c0.09-0.07,0.19-0.13,0.3-0.17c-0.12,0.05-0.24,0.1-0.36,0.15c0.1-0.04,0.21-0.07,0.32-0.09c0.2-0.05,0.37-0.14,0.51-0.27
					c0.16-0.11,0.29-0.25,0.39-0.42c0.11-0.17,0.17-0.36,0.18-0.56c0.04-0.2,0.04-0.4-0.03-0.6c-0.05-0.12-0.1-0.24-0.15-0.36
					c-0.13-0.23-0.31-0.4-0.54-0.54c-0.12-0.05-0.24-0.1-0.36-0.15C533.01,387.24,532.75,387.24,532.48,387.32L532.48,387.32z"/>
			</g>
		</g>
		<g>
			<g>
				<path d="M524.54,383.85c0.26,0.34,0.53,0.69,0.79,1.03c0.09,0.17,0.22,0.32,0.39,0.42c0.14,0.13,0.31,0.22,0.51,0.27
					c0.2,0.06,0.4,0.07,0.6,0.03c0.2-0.01,0.39-0.07,0.56-0.18c0.1-0.08,0.2-0.16,0.3-0.23c0.19-0.19,0.31-0.41,0.39-0.66
					c0.02-0.13,0.04-0.27,0.05-0.4c0-0.27-0.07-0.52-0.2-0.76c-0.26-0.34-0.53-0.69-0.79-1.03c-0.09-0.17-0.22-0.32-0.39-0.42
					c-0.14-0.13-0.31-0.22-0.51-0.27c-0.2-0.06-0.4-0.07-0.6-0.03c-0.2,0.01-0.39,0.07-0.56,0.18c-0.1,0.08-0.2,0.16-0.3,0.23
					c-0.19,0.19-0.31,0.41-0.39,0.66c-0.02,0.13-0.04,0.27-0.05,0.4C524.34,383.36,524.4,383.61,524.54,383.85L524.54,383.85z"/>
			</g>
		</g>
		<g>
			<g>
				<path d="M518.26,378.01c-0.09,0.26-0.17,0.52-0.26,0.78c-0.06,0.2-0.07,0.4-0.03,0.6c0.01,0.2,0.07,0.39,0.18,0.56
					c0.09,0.17,0.22,0.32,0.39,0.42c0.14,0.13,0.31,0.22,0.51,0.27c0.13,0.02,0.27,0.04,0.4,0.05c0.27,0,0.52-0.07,0.76-0.2
					c0.1-0.08,0.2-0.16,0.3-0.23c0.19-0.19,0.31-0.41,0.39-0.66c0.09-0.26,0.17-0.52,0.26-0.78c0.06-0.2,0.07-0.4,0.03-0.6
					c-0.01-0.2-0.07-0.39-0.18-0.56c-0.09-0.17-0.22-0.32-0.39-0.42c-0.14-0.13-0.31-0.22-0.51-0.27c-0.13-0.02-0.27-0.04-0.4-0.05
					c-0.27,0-0.52,0.07-0.76,0.2c-0.1,0.08-0.2,0.16-0.3,0.23C518.46,377.54,518.33,377.76,518.26,378.01L518.26,378.01z"/>
			</g>
		</g>
		<g>
			<g>
				<path d="M511.81,387.21c0-0.26,0-0.52,0-0.78c0.01-0.21-0.04-0.4-0.13-0.58c-0.06-0.19-0.16-0.35-0.31-0.48
					c-0.14-0.15-0.3-0.25-0.48-0.31c-0.18-0.09-0.37-0.14-0.58-0.13c-0.13,0.02-0.27,0.04-0.4,0.05c-0.25,0.07-0.47,0.2-0.66,0.39
					c-0.08,0.1-0.16,0.2-0.23,0.3c-0.14,0.23-0.2,0.49-0.2,0.76c0,0.26,0,0.52,0,0.78c-0.01,0.21,0.04,0.4,0.13,0.58
					c0.06,0.19,0.16,0.35,0.31,0.48c0.14,0.15,0.3,0.25,0.48,0.31c0.18,0.09,0.37,0.14,0.58,0.13c0.13-0.02,0.27-0.04,0.4-0.05
					c0.25-0.07,0.47-0.2,0.66-0.39c0.08-0.1,0.16-0.2,0.23-0.3C511.74,387.73,511.81,387.48,511.81,387.21L511.81,387.21z"/>
			</g>
		</g>
		<g>
			<g>
				<path d="M500.99,389c-0.09-0.09-0.17-0.17-0.26-0.26c-0.14-0.15-0.3-0.25-0.48-0.31c-0.18-0.09-0.37-0.14-0.58-0.13
					c-0.21-0.01-0.4,0.04-0.58,0.13c-0.19,0.06-0.35,0.16-0.48,0.31c-0.08,0.1-0.16,0.2-0.23,0.3c-0.14,0.23-0.2,0.49-0.2,0.76
					c0.02,0.13,0.04,0.27,0.05,0.4c0.07,0.25,0.2,0.47,0.39,0.66c0.09,0.09,0.17,0.17,0.26,0.26c0.14,0.15,0.3,0.25,0.48,0.31
					c0.18,0.09,0.37,0.14,0.58,0.13c0.21,0.01,0.4-0.04,0.58-0.13c0.19-0.06,0.35-0.16,0.48-0.31c0.08-0.1,0.16-0.2,0.23-0.3
					c0.14-0.23,0.2-0.49,0.2-0.76c-0.02-0.13-0.04-0.27-0.05-0.4C501.3,389.41,501.18,389.19,500.99,389L500.99,389z"/>
			</g>
		</g>
		<g>
			<g>
				<path d="M493.39,397.07c0-0.26,0-0.52,0-0.78c0.01-0.21-0.04-0.4-0.13-0.58c-0.06-0.19-0.16-0.35-0.31-0.48
					c-0.14-0.15-0.3-0.25-0.48-0.31c-0.18-0.09-0.37-0.14-0.58-0.13c-0.13,0.02-0.27,0.04-0.4,0.05c-0.25,0.07-0.47,0.2-0.66,0.39
					c-0.08,0.1-0.16,0.2-0.23,0.3c-0.14,0.23-0.2,0.49-0.2,0.76c0,0.26,0,0.52,0,0.78c-0.01,0.21,0.04,0.4,0.13,0.58
					c0.06,0.19,0.16,0.35,0.31,0.48c0.14,0.15,0.3,0.25,0.48,0.31c0.18,0.09,0.37,0.14,0.58,0.13c0.13-0.02,0.27-0.04,0.4-0.05
					c0.25-0.07,0.47-0.2,0.66-0.39c0.08-0.1,0.16-0.2,0.23-0.3C493.32,397.59,493.39,397.34,493.39,397.07L493.39,397.07z"/>
			</g>
		</g>
		<g>
			<g>
				<path d="M487.44,407.16c0.17-0.09,0.35-0.17,0.52-0.26c0.17-0.09,0.32-0.22,0.42-0.39c0.13-0.14,0.22-0.31,0.27-0.51
					c0.06-0.2,0.07-0.4,0.03-0.6c-0.01-0.2-0.07-0.39-0.18-0.56c-0.08-0.1-0.16-0.2-0.23-0.3c-0.19-0.19-0.41-0.31-0.66-0.39
					c-0.13-0.02-0.27-0.04-0.4-0.05c-0.27,0-0.52,0.07-0.76,0.2c-0.17,0.09-0.35,0.17-0.52,0.26c-0.17,0.09-0.32,0.22-0.42,0.39
					c-0.13,0.14-0.22,0.31-0.27,0.51c-0.06,0.2-0.07,0.4-0.03,0.6c0.01,0.2,0.07,0.39,0.18,0.56c0.08,0.1,0.16,0.2,0.23,0.3
					c0.19,0.19,0.41,0.31,0.66,0.39c0.13,0.02,0.27,0.04,0.4,0.05C486.96,407.37,487.21,407.3,487.44,407.16L487.44,407.16z"/>
			</g>
		</g>
		<g>
			<g>
				<path d="M486.6,414.57c-0.01-0.05-0.02-0.1-0.03-0.15c0.02,0.13,0.04,0.27,0.05,0.4c-0.02-0.15-0.02-0.3,0-0.45
					c-0.02,0.13-0.04,0.27-0.05,0.4c0.02-0.15,0.06-0.29,0.12-0.43c-0.05,0.12-0.1,0.24-0.15,0.36c0.04-0.1,0.09-0.19,0.15-0.28
					c0.11-0.17,0.17-0.36,0.18-0.56c0.04-0.2,0.04-0.4-0.03-0.6c-0.05-0.2-0.14-0.37-0.27-0.51c-0.11-0.16-0.25-0.29-0.42-0.39
					c-0.12-0.05-0.24-0.1-0.36-0.15c-0.27-0.07-0.53-0.07-0.8,0c-0.12,0.05-0.24,0.1-0.36,0.15c-0.23,0.13-0.4,0.31-0.54,0.54
					c-0.13,0.2-0.22,0.43-0.31,0.65c-0.05,0.11-0.08,0.23-0.1,0.35c-0.03,0.18-0.06,0.36-0.07,0.55c-0.01,0.06-0.01,0.12-0.01,0.18
					c0.01,0.25,0.04,0.5,0.1,0.74c0.05,0.2,0.14,0.37,0.27,0.51c0.11,0.16,0.25,0.29,0.42,0.39c0.17,0.11,0.36,0.17,0.56,0.18
					c0.2,0.04,0.4,0.04,0.6-0.03c0.12-0.05,0.24-0.1,0.36-0.15c0.23-0.13,0.4-0.31,0.54-0.54c0.05-0.12,0.1-0.24,0.15-0.36
					C486.67,415.1,486.67,414.84,486.6,414.57L486.6,414.57z"/>
			</g>
		</g>
		<g>
			<g>
				<path d="M488.36,420.8c-0.09,0.35-0.17,0.69-0.26,1.04c-0.06,0.2-0.07,0.4-0.03,0.6c0.01,0.2,0.07,0.39,0.18,0.56
					c0.09,0.17,0.22,0.32,0.39,0.42c0.14,0.13,0.31,0.22,0.51,0.27c0.13,0.02,0.27,0.04,0.4,0.05c0.27,0,0.52-0.07,0.76-0.2
					c0.1-0.08,0.2-0.16,0.3-0.23c0.19-0.19,0.31-0.41,0.39-0.66c0.09-0.35,0.17-0.69,0.26-1.04c0.06-0.2,0.07-0.4,0.03-0.6
					c-0.01-0.2-0.07-0.39-0.18-0.56c-0.09-0.17-0.22-0.32-0.39-0.42c-0.14-0.13-0.31-0.22-0.51-0.27c-0.13-0.02-0.27-0.04-0.4-0.05
					c-0.27,0-0.52,0.07-0.76,0.2c-0.1,0.08-0.2,0.16-0.3,0.23C488.56,420.33,488.44,420.55,488.36,420.8L488.36,420.8z"/>
			</g>
		</g>
		<g>
			<g>
				<path d="M492.41,431c0.17,0,0.35,0,0.52,0c0.21,0.01,0.4-0.04,0.58-0.13c0.19-0.06,0.35-0.16,0.48-0.31
					c0.15-0.14,0.25-0.3,0.31-0.48c0.09-0.18,0.14-0.37,0.13-0.58c-0.02-0.13-0.04-0.27-0.05-0.4c-0.07-0.25-0.2-0.47-0.39-0.66
					c-0.1-0.08-0.2-0.16-0.3-0.23c-0.23-0.14-0.49-0.2-0.76-0.2c-0.17,0-0.35,0-0.52,0c-0.21-0.01-0.4,0.04-0.58,0.13
					c-0.19,0.06-0.35,0.16-0.48,0.31c-0.15,0.14-0.25,0.3-0.31,0.48c-0.09,0.18-0.14,0.37-0.13,0.58c0.02,0.13,0.04,0.27,0.05,0.4
					c0.07,0.25,0.2,0.47,0.39,0.66c0.1,0.08,0.2,0.16,0.3,0.23C491.88,430.93,492.13,431,492.41,431L492.41,431z"/>
			</g>
		</g>
		<g>
			<g>
				<path d="M500.19,430.6c-0.09,0-0.17,0-0.26,0c-0.21-0.01-0.4,0.04-0.58,0.13c-0.19,0.06-0.35,0.16-0.48,0.31
					c-0.15,0.14-0.25,0.3-0.31,0.48c-0.09,0.18-0.14,0.37-0.13,0.58c0.02,0.13,0.04,0.27,0.05,0.4c0.07,0.25,0.2,0.47,0.39,0.66
					c0.1,0.08,0.2,0.16,0.3,0.23c0.23,0.14,0.49,0.2,0.76,0.2c0.09,0,0.17,0,0.26,0c0.21,0.01,0.4-0.04,0.58-0.13
					c0.19-0.06,0.35-0.16,0.48-0.31c0.15-0.14,0.25-0.3,0.31-0.48c0.09-0.18,0.14-0.37,0.13-0.58c-0.02-0.13-0.04-0.27-0.05-0.4
					c-0.07-0.25-0.2-0.47-0.39-0.66c-0.1-0.08-0.2-0.16-0.3-0.23C500.71,430.67,500.46,430.6,500.19,430.6L500.19,430.6z"/>
			</g>
		</g>
		<g>
			<g>
				<path d="M506.42,436.71c0.43,0,0.86,0,1.3,0c0.21,0.01,0.4-0.04,0.58-0.13c0.19-0.06,0.35-0.16,0.48-0.31
					c0.15-0.14,0.25-0.3,0.31-0.48c0.09-0.18,0.14-0.37,0.13-0.58c-0.02-0.13-0.04-0.27-0.05-0.4c-0.07-0.25-0.2-0.47-0.39-0.66
					c-0.1-0.08-0.2-0.16-0.3-0.23c-0.23-0.14-0.49-0.2-0.76-0.2c-0.43,0-0.86,0-1.3,0c-0.21-0.01-0.4,0.04-0.58,0.13
					c-0.19,0.06-0.35,0.16-0.48,0.31c-0.15,0.14-0.25,0.3-0.31,0.48c-0.09,0.18-0.14,0.37-0.13,0.58c0.02,0.13,0.04,0.27,0.05,0.4
					c0.07,0.25,0.2,0.47,0.39,0.66c0.1,0.08,0.2,0.16,0.3,0.23C505.89,436.64,506.15,436.71,506.42,436.71L506.42,436.71z"/>
			</g>
		</g>
		<g>
			<g>
				<path d="M513.66,430.29c-0.09,0.17-0.17,0.35-0.26,0.52c-0.11,0.17-0.17,0.36-0.18,0.56c-0.04,0.2-0.04,0.4,0.03,0.6
					c0.05,0.2,0.14,0.37,0.27,0.51c0.11,0.16,0.25,0.29,0.42,0.39c0.12,0.05,0.24,0.1,0.36,0.15c0.27,0.07,0.53,0.07,0.8,0
					c0.12-0.05,0.24-0.1,0.36-0.15c0.23-0.13,0.4-0.31,0.54-0.54c0.09-0.17,0.17-0.35,0.26-0.52c0.11-0.17,0.17-0.36,0.18-0.56
					c0.04-0.2,0.04-0.4-0.03-0.6c-0.05-0.2-0.14-0.37-0.27-0.51c-0.11-0.16-0.25-0.29-0.42-0.39c-0.12-0.05-0.24-0.1-0.36-0.15
					c-0.27-0.07-0.53-0.07-0.8,0c-0.12,0.05-0.24,0.1-0.36,0.15C513.97,429.89,513.79,430.06,513.66,430.29L513.66,430.29z"/>
			</g>
		</g>
		<g>
			<g>
				<path d="M522.24,427.37c1.93,0,1.93-3,0-3C520.31,424.37,520.31,427.37,522.24,427.37L522.24,427.37z"/>
			</g>
		</g>
		<g>
			<g>
				<path d="M526.08,416.27c0-0.09,0-0.17,0-0.26c0.01-0.21-0.04-0.4-0.13-0.58c-0.06-0.19-0.16-0.35-0.31-0.48
					c-0.14-0.15-0.3-0.25-0.48-0.31c-0.18-0.09-0.37-0.14-0.58-0.13c-0.13,0.02-0.27,0.04-0.4,0.05c-0.25,0.07-0.47,0.2-0.66,0.39
					c-0.08,0.1-0.16,0.2-0.23,0.3c-0.14,0.23-0.2,0.49-0.2,0.76c0,0.09,0,0.17,0,0.26c-0.01,0.21,0.04,0.4,0.13,0.58
					c0.06,0.19,0.16,0.35,0.31,0.48c0.14,0.15,0.3,0.25,0.48,0.31c0.18,0.09,0.37,0.14,0.58,0.13c0.13-0.02,0.27-0.04,0.4-0.05
					c0.25-0.07,0.47-0.2,0.66-0.39c0.08-0.1,0.16-0.2,0.23-0.3C526.01,416.79,526.08,416.54,526.08,416.27L526.08,416.27z"/>
			</g>
		</g>
		<g>
			<g>
				<path d="M525.62,409.21c1.93,0,1.93-3,0-3C523.69,406.21,523.68,409.21,525.62,409.21L525.62,409.21z"/>
			</g>
		</g>
		<g>
			<g>
				<path d="M524.58,399.61c1.93,0,1.93-3,0-3C522.65,396.61,522.64,399.61,524.58,399.61L524.58,399.61z"/>
			</g>
		</g>
		<g>
			<g>
				<path d="M520.02,391.23c0.08-0.26,0.17-0.52,0.25-0.78c0.06-0.2,0.07-0.4,0.03-0.6c-0.01-0.2-0.07-0.39-0.18-0.56
					c-0.09-0.17-0.22-0.32-0.39-0.42c-0.14-0.13-0.31-0.22-0.51-0.27c-0.13-0.02-0.27-0.04-0.4-0.05c-0.27,0-0.52,0.07-0.76,0.2
					c-0.1,0.08-0.2,0.16-0.3,0.23c-0.19,0.19-0.31,0.41-0.39,0.66c-0.08,0.26-0.17,0.52-0.25,0.78c-0.06,0.2-0.07,0.4-0.03,0.6
					c0.01,0.2,0.07,0.39,0.18,0.56c0.09,0.17,0.22,0.32,0.39,0.42c0.14,0.13,0.31,0.22,0.51,0.27c0.13,0.02,0.27,0.04,0.4,0.05
					c0.27,0,0.52-0.07,0.76-0.2c0.1-0.08,0.2-0.16,0.3-0.23C519.82,391.7,519.95,391.48,520.02,391.23L520.02,391.23z"/>
			</g>
		</g>
		<g>
			<g>
				<path d="M515.24,400.5c-0.26,0-0.52,0-0.78,0c-0.21-0.01-0.4,0.04-0.58,0.13c-0.19,0.06-0.35,0.16-0.48,0.31
					c-0.15,0.14-0.25,0.3-0.31,0.48c-0.09,0.18-0.14,0.37-0.13,0.58c0.02,0.13,0.04,0.27,0.05,0.4c0.07,0.25,0.2,0.47,0.39,0.66
					c0.1,0.08,0.2,0.16,0.3,0.23c0.23,0.14,0.49,0.2,0.76,0.2c0.26,0,0.52,0,0.78,0c0.21,0.01,0.4-0.04,0.58-0.13
					c0.19-0.06,0.35-0.16,0.48-0.31c0.15-0.14,0.25-0.3,0.31-0.48c0.09-0.18,0.14-0.37,0.13-0.58c-0.02-0.13-0.04-0.27-0.05-0.4
					c-0.07-0.25-0.2-0.47-0.39-0.66c-0.1-0.08-0.2-0.16-0.3-0.23C515.76,400.57,515.51,400.5,515.24,400.5L515.24,400.5z"/>
			</g>
		</g>
		<g>
			<g>
				<path d="M517.47,411.53c0.22-0.07,0.43-0.16,0.64-0.26c0.1-0.04,0.19-0.09,0.29-0.15c0.28-0.16,0.55-0.37,0.79-0.59
					c0.25-0.22,0.45-0.48,0.64-0.75c0.13-0.17,0.24-0.36,0.33-0.56c0.11-0.17,0.17-0.36,0.18-0.56c0.04-0.2,0.04-0.4-0.03-0.6
					c-0.05-0.2-0.14-0.37-0.27-0.51c-0.11-0.16-0.25-0.29-0.42-0.39c-0.35-0.18-0.77-0.28-1.16-0.15c-0.12,0.05-0.24,0.1-0.36,0.15
					c-0.23,0.13-0.4,0.31-0.54,0.54c-0.1,0.21-0.22,0.41-0.36,0.6c0.08-0.1,0.16-0.2,0.23-0.3c-0.16,0.2-0.33,0.38-0.53,0.53
					c0.1-0.08,0.2-0.16,0.3-0.23c-0.2,0.15-0.42,0.28-0.65,0.38c0.12-0.05,0.24-0.1,0.36-0.15c-0.08,0.03-0.17,0.07-0.25,0.09
					c-0.37,0.12-0.7,0.35-0.9,0.69c-0.11,0.17-0.17,0.36-0.18,0.56c-0.04,0.2-0.04,0.4,0.03,0.6c0.12,0.36,0.34,0.71,0.69,0.9
					C516.66,411.56,517.08,411.65,517.47,411.53L517.47,411.53z"/>
			</g>
		</g>
		<g>
			<g>
				<path d="M515.74,416.02c-0.26,0.43-0.52,0.87-0.77,1.3c-0.11,0.17-0.17,0.36-0.18,0.56c-0.04,0.2-0.04,0.4,0.03,0.6
					c0.05,0.2,0.14,0.37,0.27,0.51c0.11,0.16,0.25,0.29,0.42,0.39c0.12,0.05,0.24,0.1,0.36,0.15c0.27,0.07,0.53,0.07,0.8,0
					c0.12-0.05,0.24-0.1,0.36-0.15c0.23-0.13,0.4-0.31,0.54-0.54c0.26-0.43,0.52-0.87,0.77-1.3c0.11-0.17,0.17-0.36,0.18-0.56
					c0.04-0.2,0.04-0.4-0.03-0.6c-0.05-0.2-0.14-0.37-0.27-0.51c-0.11-0.16-0.25-0.29-0.42-0.39c-0.12-0.05-0.24-0.1-0.36-0.15
					c-0.27-0.07-0.53-0.07-0.8,0c-0.12,0.05-0.24,0.1-0.36,0.15C516.05,415.62,515.87,415.8,515.74,416.02L515.74,416.02z"/>
			</g>
		</g>
		<g>
			<g>
				<path d="M509.14,422.1c-0.43,0.17-0.87,0.34-1.3,0.52c-0.2,0.05-0.37,0.14-0.51,0.27c-0.16,0.11-0.29,0.25-0.39,0.42
					c-0.11,0.17-0.17,0.36-0.18,0.56c-0.04,0.2-0.04,0.4,0.03,0.6c0.05,0.12,0.1,0.24,0.15,0.36c0.13,0.23,0.31,0.4,0.54,0.54
					c0.12,0.05,0.24,0.1,0.36,0.15c0.27,0.07,0.53,0.07,0.8,0c0.43-0.17,0.87-0.34,1.3-0.52c0.2-0.05,0.37-0.14,0.51-0.27
					c0.16-0.11,0.29-0.25,0.39-0.42c0.11-0.17,0.17-0.36,0.18-0.56c0.04-0.2,0.04-0.4-0.03-0.6c-0.05-0.12-0.1-0.24-0.15-0.36
					c-0.13-0.23-0.31-0.4-0.54-0.54c-0.12-0.05-0.24-0.1-0.36-0.15C509.67,422.03,509.4,422.03,509.14,422.1L509.14,422.1z"/>
			</g>
		</g>
		<g>
			<g>
				<path d="M499.41,421.92c0.17,0,0.35,0,0.52,0c0.21,0.01,0.4-0.04,0.58-0.13c0.19-0.06,0.35-0.16,0.48-0.31
					c0.15-0.14,0.25-0.3,0.31-0.48c0.09-0.18,0.14-0.37,0.13-0.58c-0.02-0.13-0.04-0.27-0.05-0.4c-0.07-0.25-0.2-0.47-0.39-0.66
					c-0.1-0.08-0.2-0.16-0.3-0.23c-0.23-0.14-0.49-0.2-0.76-0.2c-0.17,0-0.35,0-0.52,0c-0.21-0.01-0.4,0.04-0.58,0.13
					c-0.19,0.06-0.35,0.16-0.48,0.31c-0.15,0.14-0.25,0.3-0.31,0.48c-0.09,0.18-0.14,0.37-0.13,0.58c0.02,0.13,0.04,0.27,0.05,0.4
					c0.07,0.25,0.2,0.47,0.39,0.66c0.1,0.08,0.2,0.16,0.3,0.23C498.89,421.85,499.14,421.92,499.41,421.92L499.41,421.92z"/>
			</g>
		</g>
		<g>
			<g>
				<path d="M498.84,413.42c0-0.09,0-0.17,0-0.26c0.01-0.21-0.04-0.4-0.13-0.58c-0.06-0.19-0.16-0.35-0.31-0.48
					c-0.14-0.15-0.3-0.25-0.48-0.31c-0.18-0.09-0.37-0.14-0.58-0.13c-0.13,0.02-0.27,0.04-0.4,0.05c-0.25,0.07-0.47,0.2-0.66,0.39
					c-0.08,0.1-0.16,0.2-0.23,0.3c-0.14,0.23-0.2,0.49-0.2,0.76c0,0.09,0,0.17,0,0.26c-0.01,0.21,0.04,0.4,0.13,0.58
					c0.06,0.19,0.16,0.35,0.31,0.48c0.14,0.15,0.3,0.25,0.48,0.31c0.18,0.09,0.37,0.14,0.58,0.13c0.13-0.02,0.27-0.04,0.4-0.05
					c0.25-0.07,0.47-0.2,0.66-0.39c0.08-0.1,0.16-0.2,0.23-0.3C498.77,413.94,498.83,413.69,498.84,413.42L498.84,413.42z"/>
			</g>
		</g>
		<g>
			<g>
				<path d="M499.15,402.84c-0.09,0-0.17,0-0.26,0c-0.21-0.01-0.4,0.04-0.58,0.13c-0.19,0.06-0.35,0.16-0.48,0.31
					c-0.15,0.14-0.25,0.3-0.31,0.48c-0.09,0.18-0.14,0.37-0.13,0.58c0.02,0.13,0.04,0.27,0.05,0.4c0.07,0.25,0.2,0.47,0.39,0.66
					c0.1,0.08,0.2,0.16,0.3,0.23c0.23,0.14,0.49,0.2,0.76,0.2c0.09,0,0.17,0,0.26,0c0.21,0.01,0.4-0.04,0.58-0.13
					c0.19-0.06,0.35-0.16,0.48-0.31c0.15-0.14,0.25-0.3,0.31-0.48c0.09-0.18,0.14-0.37,0.13-0.58c-0.02-0.13-0.04-0.27-0.05-0.4
					c-0.07-0.25-0.2-0.47-0.39-0.66c-0.1-0.08-0.2-0.16-0.3-0.23C499.67,402.9,499.42,402.84,499.15,402.84L499.15,402.84z"/>
			</g>
		</g>
		<g>
			<g>
				<path d="M507.41,413.12c0.07-0.04,0.14-0.07,0.21-0.1c-0.12,0.05-0.24,0.1-0.36,0.15c0.16-0.07,0.32-0.11,0.49-0.14
					c-0.13,0.02-0.27,0.04-0.4,0.05c0.17-0.02,0.34-0.02,0.51,0c-0.13-0.02-0.27-0.04-0.4-0.05c0.11,0.02,0.22,0.04,0.32,0.07
					c-0.12-0.91-0.24-1.83-0.36-2.74c-0.24,0.16-0.48,0.32-0.73,0.48c-0.17,0.09-0.32,0.22-0.42,0.39
					c-0.13,0.14-0.22,0.31-0.27,0.51c-0.06,0.2-0.07,0.4-0.03,0.6c0.01,0.2,0.07,0.39,0.18,0.56c0.21,0.32,0.51,0.6,0.9,0.69
					c0.13,0.02,0.27,0.04,0.4,0.05c0.27,0,0.52-0.07,0.76-0.2c0.24-0.16,0.48-0.32,0.73-0.48c0.1-0.08,0.2-0.16,0.3-0.23
					c0.08-0.1,0.16-0.2,0.23-0.3c0.05-0.12,0.1-0.24,0.15-0.36c0.06-0.2,0.07-0.4,0.03-0.6c0-0.14-0.03-0.26-0.1-0.38
					c-0.04-0.13-0.1-0.24-0.19-0.33c-0.07-0.11-0.16-0.2-0.27-0.27c-0.14-0.13-0.31-0.22-0.51-0.27c-0.25-0.08-0.52-0.11-0.77-0.13
					c-0.14-0.01-0.28-0.01-0.42,0c-0.26,0.03-0.53,0.05-0.77,0.14c-0.18,0.06-0.35,0.14-0.53,0.21c-0.07,0.03-0.13,0.06-0.19,0.1
					c-0.17,0.09-0.32,0.22-0.42,0.39c-0.13,0.14-0.22,0.31-0.27,0.51c-0.06,0.2-0.07,0.4-0.03,0.6c0.01,0.2,0.07,0.39,0.18,0.56
					c0.21,0.32,0.51,0.6,0.9,0.69c0.13,0.02,0.27,0.04,0.4,0.05C506.93,413.32,507.18,413.25,507.41,413.12L507.41,413.12z"/>
			</g>
		</g>
		<g>
			<g>
				<path d="M508.49,400.94c0.17-0.35,0.35-0.69,0.52-1.04c0.11-0.17,0.17-0.36,0.18-0.56c0.04-0.2,0.04-0.4-0.03-0.6
					c-0.05-0.2-0.14-0.37-0.27-0.51c-0.11-0.16-0.25-0.29-0.42-0.39c-0.12-0.05-0.24-0.1-0.36-0.15c-0.27-0.07-0.53-0.07-0.8,0
					c-0.12,0.05-0.24,0.1-0.36,0.15c-0.23,0.13-0.4,0.31-0.54,0.54c-0.17,0.35-0.35,0.69-0.52,1.04c-0.11,0.17-0.17,0.36-0.18,0.56
					c-0.04,0.2-0.04,0.4,0.03,0.6c0.05,0.2,0.14,0.37,0.27,0.51c0.11,0.16,0.25,0.29,0.42,0.39c0.12,0.05,0.24,0.1,0.36,0.15
					c0.27,0.07,0.53,0.07,0.8,0c0.12-0.05,0.24-0.1,0.36-0.15C508.18,401.35,508.36,401.17,508.49,400.94L508.49,400.94z"/>
			</g>
		</g>
	</g>
	<path class="st10" d="M470.63,449.35C454,421,462,384,487,363c11-9,26-13,39-5c24,17,26,49,17,74c-1,2-2,4-3,7c-6,12-14,24-27,29
		c-13,4-27-1-36-10"/>
	<path class="st11" d="M466,346c-6.15,4.33-17.91,14.16-26,29c-2.7,4.95-10.95,21.25-10,43c0.41,9.41,0.8,18.34,7,27
		c7.01,9.79,17.42,13.59,24,16c8.97,3.28,16.89,3.94,22,4"/>
	<path class="st12" d="M424.23,435.24c0,1.05,1.4,7.02-0.93,14.84C420.6,459.14,415,464,414,465c-0.82,0.82,6.18-4.43,15-6
		c7.68-1.36,14.81,0.41,13.83-0.57c-0.93-0.93-5.87-3.05-11.16-9.27C426,442.49,424.23,433.39,424.23,435.24z"/>
	<path class="st8" d="M376.5,426.5c0.31,0.52,7.41-3.15,11-5c5.52-2.85,9.42-5.21,14-8c6.28-3.82,9.47-5.77,12-8
		c3.63-3.2,5.83-6.09,8-9c7.11-9.5,6.79-13.26,13-21c0.94-1.17,3.64-3.8,9-9c15.34-14.89,18.41-17.43,18-18
		c-0.7-0.96-10.98,4.34-20,12c-7.88,6.68-12.63,13.33-15,17c-4.44,6.87-6.49,12.55-7,14c-0.97,2.77-1.6,5.18-2,7
		c-1.82,1.48-4.55,3.61-8,6c-5.45,3.78-9,5.66-13,8C386.18,418.55,376.11,425.85,376.5,426.5z"/>
	<path class="st12" d="M435,442c0.4,1.41,1.53,4.27,2.51,6.83c0.57,1.5-1,2.92-2.44,2.21L432,450c1.08,2.11,3.91,4.9,7,7
		c2.88,1.95,5.5,2.39,8,3c7.7,1.87,7.31,3.61,15,6c6.66,2.07,17.85,5.55,26,3c1.12-0.35,4.24-1.46,6,0c0.89,0.74,1.38,2.09,1,3
		c-0.59,1.43-3.43,2.12-7,1c-4-0.67-8-1.33-12-2c-3.92-0.88-10.3-2.32-14.22-3.21L459,467c-3.67-1.67-7.33-3.33-11-5"/>
	<path class="st12" d="M452,458c0,1,0,2,0,3c-1.36,0-4.18-0.2-7-2c-5.14-3.29-5.9-9.13-6-10C443.33,452,447.67,455,452,458z"/>
	<path class="st13" d="M324.5,561.5c-1,2-0.94-13.94-10-23c-1-1-2.28-2.82-6-3c-5.48-0.27-9.61,4.29-12,7c-2.82,3.2-6.37,8.49-9,21
		c-1.08,5.15-2.99,16.22-2,31c0.83,12.4,2,23,2,23c0.96,8.76,1.64,12.78-1,16c-3.32,4.05-9.58,4.02-14,4c-1.9-0.01-6.37-0.19-19-5
		c-7.27-2.77-10.9-4.15-14-6c-9.58-5.71-15.41-14.06-18-19c-10.4-19.85-0.74-46.58,13-62c1.84-2.07,17.86-19.58,38-20
		c4.97-0.1,11.59,0.81,13,1c8.56,1.18,16.83,2.31,23,6C322.81,541.06,325.09,560.33,324.5,561.5z"/>
	<path class="st14" d="M324.5,560.5c-0.33,0.16-1.59-2.21-5-7c-3.44-4.83-5.21-7.24-7-8c-4.77-2.03-10.48,1.96-12,3
		c-5.93,4.09-7.89,10.76-9,15c-4.91,18.79-4.36,42.23-4,51c0.01,0.26-2.13-15.1-2-33c0.02-3.38,0.13-7.61,1-13
		c1.14-7.04,2.85-12.07,4-15c1.69-4.29,3.17-6.73,4-8c1.34-2.05,2.65-4.06,5-6c2.21-1.82,4.6-3.93,8-4c2.91-0.06,5.08,1.38,6,2
		c2.54,1.73,3.69,3.9,7,12C323.38,556.54,324.91,560.3,324.5,560.5z"/>
	<path class="st13" d="M272.5,525.5c-8.12,7.7-12.02,15.19-14,20c-2.43,5.91-3.29,12.61-5,26c-1.27,9.91-1.95,15.2-2,23
		c-0.03,4.39,0.11,13.53,2,25c0.93,5.62,2.04,10.37,3,14"/>
	<path class="st14" d="M253.5,619.5c1.88,9.26,4,12,4,12c0.78,1.38,1.54,2.41,2,3c-1-0.33-2-0.67-3-1c-0.98-4.28-1.7-7.6-2.2-10.07
		C254.13,622.55,253.5,619.5,253.5,619.5z"/>
	<path class="st8" d="M286.5,489.5c-8.26,6.25-15,11.78-20,16c-12.87,10.89-17.38,15.89-20,19c-5.77,6.84-12.11,15.99-11,17
		c0,0,2.16-0.12,10-6c-4,3-7.96,6.02-12,11c-9.59,11.82-13.92,23.95-16,32c0.31-5.89,1.4-14.43,5-24c2.12-5.64,6.09-14.2,16-26
		C254.17,509.86,272.84,497.24,286.5,489.5z"/>
	<path class="st14" d="M237.5,502.5"/>
	<g>
		<g>
			<g>
				<path d="M304.28,578.7c-0.13,0.22-0.23,0.47-0.32,0.71c-0.05,0.14-0.08,0.28-0.1,0.42c-0.04,0.26-0.08,0.52-0.07,0.79
					c0.01,0.19,0.04,0.39,0.07,0.58c0.01,0.07,0.03,0.15,0.04,0.22c0.05,0.2,0.14,0.37,0.27,0.51c0.11,0.16,0.25,0.29,0.42,0.39
					c0.17,0.11,0.36,0.17,0.56,0.18c0.2,0.04,0.4,0.04,0.6-0.03c0.12-0.05,0.24-0.1,0.36-0.15c0.23-0.13,0.4-0.31,0.54-0.54
					c0.05-0.12,0.1-0.24,0.15-0.36c0.07-0.27,0.07-0.53,0-0.8c-0.02-0.08-0.03-0.15-0.05-0.23c0.02,0.13,0.04,0.27,0.05,0.4
					c-0.02-0.18-0.02-0.37,0-0.55c-0.02,0.13-0.04,0.27-0.05,0.4c0.03-0.19,0.08-0.38,0.15-0.55c-0.05,0.12-0.1,0.24-0.15,0.36
					c0.03-0.08,0.07-0.16,0.12-0.23c0.11-0.17,0.17-0.36,0.18-0.56c0.04-0.2,0.04-0.4-0.03-0.6c-0.05-0.2-0.14-0.37-0.27-0.51
					c-0.11-0.16-0.25-0.29-0.42-0.39c-0.35-0.18-0.77-0.28-1.16-0.15C304.8,578.13,304.48,578.36,304.28,578.7L304.28,578.7z"/>
			</g>
		</g>
		<g>
			<g>
				<path d="M309.72,584.9c-0.26,0.26-0.52,0.52-0.78,0.78c-0.15,0.14-0.25,0.3-0.31,0.48c-0.09,0.18-0.14,0.37-0.13,0.58
					c-0.01,0.21,0.04,0.4,0.13,0.58c0.06,0.19,0.16,0.35,0.31,0.48c0.1,0.08,0.2,0.16,0.3,0.23c0.23,0.14,0.49,0.2,0.76,0.2
					c0.13-0.02,0.27-0.04,0.4-0.05c0.25-0.07,0.47-0.2,0.66-0.39c0.26-0.26,0.52-0.52,0.78-0.78c0.15-0.14,0.25-0.3,0.31-0.48
					c0.09-0.18,0.14-0.37,0.13-0.58c0.01-0.21-0.04-0.4-0.13-0.58c-0.06-0.19-0.16-0.35-0.31-0.48c-0.1-0.08-0.2-0.16-0.3-0.23
					c-0.23-0.14-0.49-0.2-0.76-0.2c-0.13,0.02-0.27,0.04-0.4,0.05C310.13,584.58,309.91,584.71,309.72,584.9L309.72,584.9z"/>
			</g>
		</g>
		<g>
			<g>
				<path d="M309.2,599.17c-0.17,0.17-0.35,0.35-0.52,0.52c-0.15,0.14-0.25,0.3-0.31,0.48c-0.09,0.18-0.14,0.37-0.13,0.58
					c-0.01,0.21,0.04,0.4,0.13,0.58c0.06,0.19,0.16,0.35,0.31,0.48c0.1,0.08,0.2,0.16,0.3,0.23c0.23,0.14,0.49,0.2,0.76,0.2
					c0.13-0.02,0.27-0.04,0.4-0.05c0.25-0.07,0.47-0.2,0.66-0.39c0.17-0.17,0.35-0.35,0.52-0.52c0.15-0.14,0.25-0.3,0.31-0.48
					c0.09-0.18,0.14-0.37,0.13-0.58c0.01-0.21-0.04-0.4-0.13-0.58c-0.06-0.19-0.16-0.35-0.31-0.48c-0.1-0.08-0.2-0.16-0.3-0.23
					c-0.23-0.14-0.49-0.2-0.76-0.2c-0.13,0.02-0.27,0.04-0.4,0.05C309.61,598.85,309.39,598.98,309.2,599.17L309.2,599.17z"/>
			</g>
		</g>
		<g>
			<g>
				<path d="M310.06,592.7c0,0.43,0,0.86,0,1.3c-0.01,0.21,0.04,0.4,0.13,0.58c0.06,0.19,0.16,0.35,0.31,0.48
					c0.14,0.15,0.3,0.25,0.48,0.31c0.18,0.09,0.37,0.14,0.58,0.13c0.13-0.02,0.27-0.04,0.4-0.05c0.25-0.07,0.47-0.2,0.66-0.39
					c0.08-0.1,0.16-0.2,0.23-0.3c0.14-0.23,0.2-0.49,0.2-0.76c0-0.43,0-0.86,0-1.3c0.01-0.21-0.04-0.4-0.13-0.58
					c-0.06-0.19-0.16-0.35-0.31-0.48c-0.14-0.15-0.3-0.25-0.48-0.31c-0.18-0.09-0.37-0.14-0.58-0.13c-0.13,0.02-0.27,0.04-0.4,0.05
					c-0.25,0.07-0.47,0.2-0.66,0.39c-0.08,0.1-0.16,0.2-0.23,0.3C310.13,592.18,310.06,592.43,310.06,592.7L310.06,592.7z"/>
			</g>
		</g>
		<g>
			<g>
				<path d="M299.83,581.95c-0.1,0.16-0.2,0.32-0.29,0.49c-0.07,0.13-0.13,0.27-0.19,0.41c-0.06,0.14-0.12,0.28-0.17,0.43
					c-0.06,0.2-0.07,0.42-0.1,0.62c-0.01,0.09-0.02,0.17-0.01,0.26c0,0.04,0.01,0.09,0.01,0.13c0.02,0.17,0.03,0.34,0.07,0.51
					c0.05,0.2,0.14,0.4,0.23,0.58c0.09,0.17,0.22,0.32,0.39,0.42c0.14,0.13,0.31,0.22,0.51,0.27c0.2,0.06,0.4,0.07,0.6,0.03
					c0.2-0.01,0.39-0.07,0.56-0.18c0.32-0.21,0.6-0.51,0.69-0.9c0.02-0.13,0.04-0.27,0.05-0.4c0-0.27-0.07-0.52-0.2-0.76
					c-0.01-0.02-0.02-0.04-0.03-0.06c0.05,0.12,0.1,0.24,0.15,0.36c-0.04-0.09-0.06-0.18-0.07-0.28c0.02,0.13,0.04,0.27,0.05,0.4
					c-0.02-0.13-0.01-0.26,0-0.39c-0.02,0.13-0.04,0.27-0.05,0.4c0.02-0.17,0.07-0.32,0.14-0.48c-0.05,0.12-0.1,0.24-0.15,0.36
					c0.11-0.25,0.26-0.49,0.4-0.72c0.11-0.17,0.17-0.36,0.18-0.56c0.04-0.2,0.04-0.4-0.03-0.6c-0.05-0.2-0.14-0.37-0.27-0.51
					c-0.11-0.16-0.25-0.29-0.42-0.39c-0.35-0.18-0.77-0.28-1.16-0.15C300.34,581.39,300.04,581.61,299.83,581.95L299.83,581.95z"/>
			</g>
		</g>
		<g>
			<g>
				<path d="M297.22,588.22c-0.07,0.21-0.12,0.43-0.16,0.65c-0.06,0.34-0.1,0.69-0.11,1.04c-0.01,0.21,0.04,0.4,0.13,0.58
					c0.06,0.19,0.16,0.35,0.31,0.48c0.14,0.15,0.3,0.25,0.48,0.31c0.18,0.09,0.37,0.14,0.58,0.13c0.13-0.02,0.27-0.04,0.4-0.05
					c0.25-0.07,0.47-0.2,0.66-0.39c0.08-0.1,0.16-0.2,0.23-0.3c0.14-0.23,0.2-0.49,0.2-0.76c0-0.18,0.01-0.36,0.04-0.53
					c-0.02,0.13-0.04,0.27-0.05,0.4c0.04-0.26,0.09-0.51,0.17-0.76c0.06-0.2,0.07-0.4,0.03-0.6c-0.01-0.2-0.07-0.39-0.18-0.56
					c-0.09-0.17-0.22-0.32-0.39-0.42c-0.14-0.13-0.31-0.22-0.51-0.27c-0.13-0.02-0.27-0.04-0.4-0.05c-0.27,0-0.52,0.07-0.76,0.2
					c-0.1,0.08-0.2,0.16-0.3,0.23C297.42,587.75,297.29,587.97,297.22,588.22L297.22,588.22z"/>
			</g>
		</g>
		<g>
			<g>
				<path d="M303.74,589.51c-0.07,0.47-0.13,0.94-0.12,1.41c0.01,0.47,0.07,0.95,0.16,1.41c0.05,0.2,0.14,0.37,0.27,0.51
					c0.11,0.16,0.25,0.29,0.42,0.39c0.17,0.11,0.36,0.17,0.56,0.18c0.2,0.04,0.4,0.04,0.6-0.03c0.36-0.12,0.71-0.34,0.9-0.69
					c0.05-0.12,0.1-0.24,0.15-0.36c0.07-0.27,0.07-0.53,0-0.8c-0.02-0.12-0.04-0.23-0.06-0.35c0.02,0.13,0.04,0.27,0.05,0.4
					c-0.07-0.52-0.07-1.04,0-1.56c-0.02,0.13-0.04,0.27-0.05,0.4c0.01-0.04,0.01-0.08,0.02-0.12c0.06-0.2,0.07-0.4,0.03-0.6
					c-0.01-0.2-0.07-0.39-0.18-0.56c-0.09-0.17-0.22-0.32-0.39-0.42c-0.14-0.13-0.31-0.22-0.51-0.27c-0.38-0.09-0.82-0.07-1.16,0.15
					c-0.1,0.08-0.2,0.16-0.3,0.23C303.94,589.04,303.81,589.26,303.74,589.51L303.74,589.51z"/>
			</g>
		</g>
		<g>
			<g>
				<path d="M299.7,596.98c0.05,0.05,0.1,0.11,0.15,0.17c-0.08-0.1-0.16-0.2-0.23-0.3c0.11,0.14,0.2,0.3,0.27,0.46
					c-0.05-0.12-0.1-0.24-0.15-0.36c0.07,0.17,0.12,0.36,0.15,0.54c-0.02-0.13-0.04-0.27-0.05-0.4c0.02,0.11,0.02,0.23,0.02,0.34
					c-0.01,0.21,0.04,0.4,0.13,0.58c0.06,0.19,0.16,0.35,0.31,0.48c0.14,0.15,0.3,0.25,0.48,0.31c0.18,0.09,0.37,0.14,0.58,0.13
					c0.13-0.02,0.27-0.04,0.4-0.05c0.25-0.07,0.47-0.2,0.66-0.39c0.08-0.1,0.16-0.2,0.23-0.3c0.14-0.23,0.2-0.49,0.2-0.76
					c0.01-0.27-0.04-0.54-0.08-0.8c-0.02-0.15-0.06-0.29-0.12-0.43c-0.1-0.24-0.19-0.5-0.33-0.72c-0.07-0.11-0.15-0.21-0.23-0.31
					c-0.08-0.11-0.17-0.22-0.26-0.32c-0.14-0.15-0.3-0.25-0.48-0.31c-0.18-0.09-0.37-0.14-0.58-0.13c-0.21-0.01-0.4,0.04-0.58,0.13
					c-0.19,0.06-0.35,0.16-0.48,0.31c-0.26,0.29-0.46,0.66-0.44,1.06c0.02,0.13,0.04,0.27,0.05,0.4
					C299.38,596.57,299.51,596.79,299.7,596.98L299.7,596.98z"/>
			</g>
		</g>
		<g>
			<g>
				<path d="M301.56,602.11c0.04,0.37,0.07,0.74,0.11,1.1c-0.01,0.21,0.04,0.4,0.13,0.58c0.06,0.19,0.16,0.35,0.31,0.48
					c0.14,0.15,0.3,0.25,0.48,0.31c0.18,0.09,0.37,0.14,0.58,0.13c0.13-0.02,0.27-0.04,0.4-0.05c0.25-0.07,0.47-0.2,0.66-0.39
					c0.08-0.1,0.16-0.2,0.23-0.3c0.14-0.23,0.2-0.49,0.2-0.76c-0.04-0.37-0.07-0.74-0.11-1.1c0.01-0.21-0.04-0.4-0.13-0.58
					c-0.06-0.19-0.16-0.35-0.31-0.48c-0.14-0.15-0.3-0.25-0.48-0.31c-0.18-0.09-0.37-0.14-0.58-0.13c-0.13,0.02-0.27,0.04-0.4,0.05
					c-0.25,0.07-0.47,0.2-0.66,0.39c-0.08,0.1-0.16,0.2-0.23,0.3C301.63,601.59,301.56,601.84,301.56,602.11L301.56,602.11z"/>
			</g>
		</g>
	</g>
	<path class="st13" d="M287.5,612.5c0.04,4.11,0.63,9.8,3,16c0.8,2.09,2.64,6.57,5,10c1.89,2.74,4.39,4.71,5,5
		c4.05,1.95,9.17-1.45,10-2c3.36-2.23,5.03-5.19,6-7c5.38-10.07,7.5-19.66,8-22c1.09-5.08,2.51-11.84,3-21c0.51-9.48,0.29-7.98,0-27
		c-0.04-2.9-1.07-6.37-2-11c-1.04-5.2-2.71-9.29-4-12"/>
	<path class="st15" d="M263.5,641.5c-0.29,0.48-0.17,1.51,2,4c4.32-0.02,7.92-0.05,11,0c0.75,0.01,2.44,0.04,4-1
		c1.22-0.81,2.37-2.3,2-3c-0.34-0.65-1.78-0.23-5,0c-3.63,0.25-6.85,0.07-8,0C265.53,641.27,263.97,640.73,263.5,641.5z"/>
	<path class="st7" d="M239.01,632.03c0.2-0.32,2.95,1.71,8.38,3.55c4.9,1.66,6.98,1.48,9.57,3.55c1.55,1.24,2.55,2.7,3.2,3.93
		c0.21,0.39-0.06,0.87-0.5,0.9c-0.75,0.06-1.67,0.06-2.7-0.1c-3.45-0.53-5.51-2.43-8.38-4.73
		C242.53,634.27,238.79,632.39,239.01,632.03z"/>
	<path class="st8" d="M272.5,525.5c-0.07,0.08-3.14,0.15-3.21,0.23c-1.27,1.36-2.97,3.3-4.79,5.77c-2.07,2.81-3.02,5.77-5,10
		c-2.3,4.91-3.86,14.28-4,15c-0.06,0.33,1.73-9.12,3-12c0.61-1.4,2.1-3.59,5-8c0,0,3.37-5.13,6-8c1.32-1.44,2.74-2.76,2.74-2.76
		C272.35,525.64,272.44,525.55,272.5,525.5"/>
	<path class="st8" d="M277.74,525.5c0.13,0,0.17,0.18,0.05,0.23c-1.96,0.66-6.58,2.8-9.29,4.77c-2.87,2.09-3.8,3.35-5,5
		c-0.07-0.91,1.9-2.9,3-5c1.22-2.34,2.15-3.5,2.84-3.91c0,0,0.08-0.05,0.16-0.09C270.47,525.96,272.33,525.54,277.74,525.5z"/>
	<path class="st8" d="M366.5,451.5c-8.47,5.72-20.57,14.07-34,24c-7.19,5.32-38.86,32.6-43,41c-1.23,2.5-2.04,5-1,7
		c0.77,1.49,2.24,2.05,5,3c7.59,2.62,13.98,4.42,16,5c6.13,1.76,5.63,1.88,7,2c6,0.53,10.81-2.16,14-4c6.85-3.95,18.92-14.87,22-17
		c0,0,4.61-3.18,9.15-6.69c5.03-3.88,36.85-29.31,36.85-29.31c0,0.8-7.95,7.28-11,10c-23.2,20.67-37.31,27.98-49,39
		c-4.47,4.22-10.44,6.99-14,12c-0.56,0.79-2.22,3.23-4,3c-1.25-0.16-3-3-7-5c-2.94-1.47-6.39-3.37-13-5c-5.34-1.32-6.36-1.31-13-3
		c-2.16-0.55-10.56-1.89-11-3c-0.99-2.47,3.74-6.26,9-11c11.39-10.26,8.53-9.9,18-18c7.04-6.02,7.12-4.94,19-14
		c11.5-8.77,12.48-10.59,20-16C347.71,461.75,355.68,456.55,366.5,451.5z"/>
	<path class="st8" d="M281.5,527.5"/>
	<path class="st16" d="M347,576c27.67-5,55.33-10,83-15"/>
	<path class="st16" d="M353,599c35.33-0.33,70.67-0.67,106-1"/>
	<path class="st16" d="M345,626c26.67,8.67,53.33,17.33,80,26"/>
	<path class="st5" d="M566,398"/>
	<path class="st13" d="M551,400c0.49,0.09,1.32,0.32,2,1c1.27,1.26,1.09,3.14,1,4c-0.34,3.45-3.33,5.55-4,6"/>
	<path class="st13" d="M553.5,420.5c3-5,6-10,9-15c0.25-0.14,2.18-1.19,2-2c-0.14-0.63-1.5-0.81-3-1c-2.07-0.26-3.54-0.44-5,0
		c-1.43,0.43-2.49,1.35-5,5c-4.1,5.97-6.15,8.96-5,11c0.72,1.27,2.4,1.81,3,2C551.36,421.09,552.94,420.68,553.5,420.5z"/>
	<path class="st13" d="M554.5,417.5c0.56,0.8,1.51,1.97,3,3c0.83,0.57,1.37,0.94,2,1c2.17,0.19,4.14-3.47,5-5
		c1.78-3.17,4.55-7.55,9-13c0.02-0.24,0.16-1.9-1-3c-1.48-1.4-4.06-0.37-5,0c-3.04,1.19-4.5,3.92-5,5"/>
	<path class="st13" d="M564.5,403.5"/>
	<path class="st13" d="M577.79,400.68c-0.81,0.22-3.58,1.01-6.29,2.82c-1.34,0.9-6.17,4.13-7,9c-0.25,1.49-0.06,2.67,0,3
		c0.14,0.75,0.58,3.17,2,4c2.31,1.35,5.42-1.94,8-4c1.87-1.5,4.31-4.5,6-8c0.41-0.86,0.69-4.6,0-6
		C579.71,399.88,577.9,400.65,577.79,400.68z"/>
	<path class="st13" d="M577.61,412.42c-1.73,1.14-2.22,3.5-1,5.17c0.24,0.33,0.53,0.64,0.89,0.92c1.65,1.29,3.64,1.05,4,1
		c4.87-0.68,7.34-8.14,8-12c0.35-2.01,0.91-5.33-1-7c-1.1-0.96-2.58-1-3-1c-0.18,0-0.35,0.01-0.51,0.03
		c-1.93,0.22-3.26,2.05-3.06,3.98c0.12,1.1,0.08,2.49-0.43,3.99C580.67,409.95,578.99,411.5,577.61,412.42z"/>
	<path class="st17" d="M588,400c0.04,0.39-0.01,1.89,0,3c0.01,2.41-0.52,5.71-1,7c-0.42,1.14-2.35,6.33-6,7
		c-1.87,0.34-4.74-0.59-5,0c-0.17,0.39,4.21,2.13,4.5,2.5c0,0,2.82-0.51,4-2c1.72-2.16,2.58-3.24,3-4c0.57-1.03,2.5-5.77,2.5-10.5
		C590,401,588.61,400.33,588,400z"/>
	<path class="st17" d="M590,402c-0.06-0.02,0.87-1,2-1c1,0,2.01-0.09,3,1c0.46,0.51,0.88,1.28,1,3c0.29,4.21-1.69,6.51-2,7
		c-0.85,1.37-3.16,5.09-6,5c-0.85-0.03-1.73-0.4-2,0c-0.29,0.42,0.24,1.46,1,2c1.3,0.93,3.14,0.3,4,0c0.58-0.2,2.73-0.91,4-3
		c0.31-0.52,1.59-6.15,2-9c0.24-1.66,0.36-2.7,0-4c-0.17-0.62-0.38-1.35-1-2c-1-1.05-2.76-1.57-4-1
		C590.41,400.73,590.08,402.03,590,402z"/>
	<path class="st17" d="M596,401c0.29-0.34,1.73-1.95,4-2c0.46-0.01,1.11-0.05,2,1c0.79,0.93,1.42,2.06,1,5c-0.23,1.59-0.78,5.4-1,9
		c-0.13,2.15-0.1,3.39-1,4c-0.82,0.55-1.92,0.27-3,0c-0.65-0.16-3.51-0.63-4-2c-0.05-0.14,0.74-0.71,1-1c0.32-0.36,1.03,0.1,2,0
		c0.85-0.09,1.44-0.55,2-1c0.23-0.19,1.42-1.16,2-3c0.6-1.91,0.7-5.09,1-8c0.18-1.8-0.87-1.94-1-2c-0.56-0.28-2.39-0.38-3,0
		c-0.6,0.37-1.61,1.97-2,2C595.67,403.03,596.33,401.63,596,401z"/>
	<path class="st13" d="M601.5,401.5c0.95-0.35,3.81-1.26,5.5-1.5c1.12-0.16,1.69-0.23,2,0c0.94,0.7,0.12,2.71,0,7
		c-0.02,0.88-0.01,1.58,0,2"/>
	<path class="st18" d="M609.5,401.5c0.17-0.37,0.74-1.47,2-2c1.2-0.5,2.31-0.19,3,0c0.93,0.26,1.6,0.7,2,1"/>
	<path class="st19" d="M548.5,418.5c0.14,0.26,0.44,0.73,1,1c0.75,0.36,1.49,0.15,2,0c0.87-0.26,2.4-0.7,4-2
		c-0.68,2.24-0.68,2.51-1,3c-1.02,1.59-4.26,2.26-6,2c-0.56-0.08-1.71-0.26-2-1C546.19,420.7,546.94,419.43,548.5,418.5z"/>
	<path class="st19" d="M556.5,415.5c-0.15,0.15-1.41,1.53-1,3c0.24,0.89,0.96,1.34,2,2c1.04,0.66,2,1.27,3,1c0.28-0.07,0.52-0.2,2-2
		c1.55-1.87,1.82-2.38,2-3c0.17-0.57,0.4-1.78,0-2c-0.39-0.21-0.05,0.7-2,2c-0.97,0.64-2.46,1.97-3,2
		C558.09,418.59,556.95,416.14,556.5,415.5z"/>
	<path class="st19" d="M565.5,414.5c-0.05,2.1,0.79,2.83,1,3c1.51,1.19,5.98,0.31,9-3c-0.17,0.51-1.47,1.23-2,2
		c-0.4,0.58-1.67,2.37-4,3c-0.81,0.22-1.89,0.51-3,0c-1.5-0.69-2.61-2.66-2-4C564.74,414.98,565.18,414.67,565.5,414.5z"/>
	<path class="st9" d="M403,407c0.88-2.88-0.02-6.66,2-8c0.26-0.17,0.76-0.43,1-1c0.42-0.98-0.07-2.46-1-3c-1.13-0.66-2.64,0.21-4,1
		c-2.81,1.62-4.36,3.92-5,5c-1.6,2.69-1.92,5.15-2,6c-0.16,1.68-0.51,5.21,1,6C396.84,413.96,401.77,411.04,403,407z"/>
	<path class="st9" d="M416,398c-0.3-0.68-1.24-2.62-3-3c-2.58-0.56-5.09,2.61-6,5c-1,2.65-0.31,5.09,0,6"/>
	<path class="st9" d="M406,398c-0.33,2.67-0.67,5.33-1,8"/>
	<path class="st9" d="M400,396c-0.06-0.68-0.33-3.02-2-4c-2.45-1.45-5.93,1.19-7,2c-3.06,2.32-5.7,6.58-5,11c0.17,1.07,0.7,4.44,3,5
		c1.66,0.41,3.75-0.78,5-3"/>
	<path class="st14" d="M381.5,405.5c-0.18-0.57-1.45-4.75,1-8c2.11-2.8,6.25-3.94,7-3c0.42,0.52-0.15,1.72-1,3
		c-0.87,0.19-2.48,0.67-4,2C381.95,401.74,381.57,404.74,381.5,405.5z"/>
	<path class="st14" d="M391.5,391.5c2.39,1.99-4-1.89-7-2c-5-0.19-8.77,4.5-9,5c-0.58,1.29-2.87,5.57-1,8.41
		c1.68,2.56,6.4,3.03,11,0c0.36,0.48,1.4,1.99,1,3.35c-0.6,2.07-4.05,2.2-5,2.23c-0.79,0.03-6.56,0.24-9-4.47
		c-2.2-4.23,0.78-7.81,3-10.53C379.26,388.91,385.5,386.5,391.5,391.5z"/>
	<path class="st9" d="M381.5,389.5c-0.38-0.67-1.97-3.32-5-4c-2.72-0.61-4.92,0.73-7,2c-2.46,1.5-5.69,3.47-6,7
		c-0.23,2.61,1.16,5.94,4,7c1.68,0.63,3.26,0.24,4,0"/>
	<path class="st20" d="M372,403c-0.73,0.18-3.95,0.89-7-1c-0.51-0.31-2.73-2.02-2-6c0.43-2.34,1.41-5.27,4-6
		c-0.33,0.4-4.14,4.81-3,8c0.62,1.74,2.19,2.79,4,4C369.57,403.05,371.02,402.66,372,403z"/>
	<path class="st9" d="M373,385c-0.27-0.81-1.26-3.52-4-5c-3.15-1.7-6.37-0.57-8,0c-1.62,0.57-5.6,1.96-7,6c-0.85,2.47-0.96,6.56,2,9
		c2.14,1.76,5.22,2.13,8,1"/>
	<path class="st9" d="M366,378c-0.38-0.67-1.96-3.25-5-4c-2.27-0.56-4.11,0.21-6,1c-1.63,0.68-5.17,2.16-7,6
		c-0.7,1.47-1.89,3.71-1,6c0.91,2.37,3.67,3.95,7,4"/>
	<path class="st9" d="M361,373c0.11-0.97,0.15-2.81-1-4c-1.95-2.02-5.9-0.7-8,0c-1.66,0.56-5.75,1.93-8,6c-0.75,1.35-2.37,4.31-1,7
		c1.07,2.09,3.32,2.81,4,3"/>
	<path class="st9" d="M357,367c-0.01-0.86-0.17-2.07-1-3c-0.9-1.01-2.36-1.41-7-1c-6.31,0.55-9.46,0.83-11,3
		c-1.5,2.12-1.07,4.61-1,5c0.53,2.81,2.85,5.13,6,6"/>
	<path class="st9" d="M354,363c0.27-0.93,0.68-2.85,0-5c-1.08-3.42-4.26-5.43-7-6c-5.54-1.15-9.67,3.5-11,5c-1,1.13-2.04,2.34-2,4
		c0.08,3.05,3.71,4.86,4,5"/>
	<path class="st11" d="M340,362c0.77-0.39,1.78-0.78,3-1c3.21-0.57,5.84,0.45,7,1"/>
	<path class="st11" d="M348,381c-0.19,0.45-0.25,4.07,1,7c1.16,2.71,2.99,1.28,3.5,1.5"/>
	<path class="st11" d="M340,353c-1.81-0.25-3.36-1.39-4-3c-0.82-2.07-0.03-4.6,2-6c4.62,1.35,8.39,2.34,11,3c3.06,0.78,4.94,1.2,5,2
		c0.09,1.13-3.5,2.3-6,3"/>
	<path class="st12" d="M354.4,349.36c0.24-0.14,0.54,0.05,0.5,0.33c-0.54,3.36-1.28,4.22-1.9,4.31c-1.12,0.17-3-2-3-2l0,0
		C350,352,351.7,350.98,354.4,349.36z"/>
	<path class="st11" d="M338.93,345.05c-0.64-0.04-1.21-0.41-1.51-0.98c-0.4-0.78-0.79-1.93-0.42-3.07c0.79-2.47,4.43-2.94,5-3
		c3.87-0.43,4.46,2.4,10,3c1.11,0.12,2.26,0.13,3,1c0.87,1.02,0.93,2.91,0,4c-0.49,0.57-1.24,0.9-3,1c-2.98,0.17-5.12-0.53-7-1
		C343.56,345.64,341.51,345.23,338.93,345.05z"/>
	<path class="st11" d="M355,350"/>
	<path class="st11" d="M355,349c0-1,0-2,0-3"/>
	<path class="st21" d="M349.65,328.05l-2.66-1.49c-0.62-0.35-1.37-0.35-1.99-0.02l-2.09,1.12c-0.67,0.36-1.09,1.06-1.09,1.82v0.46
		c0,0.59,0.26,1.16,0.7,1.55l5.15,4.54c0.15,0.13,0.31,0.24,0.48,0.32l5.29,2.5c0.86,0.4,1.87,0.18,2.48-0.55l0,0
		c0.63-0.76,0.63-1.85,0.02-2.61l-5.7-7.12C350.09,328.36,349.88,328.18,349.65,328.05z"/>
	<path class="st22" d="M345,334c-0.78,2.23-0.43,3.37,0,4c1.49,2.16,5.4,0.23,9,3c0.58,0.44,1.14,1,2,1c1.33,0,2.92-1.35,3-3
		c0.08-1.66-1.39-3.19-2-3c-0.64,0.2,0.04,2.17-1,3c-1.06,0.84-3.15-0.12-5-1C349.46,337.27,347.31,336.05,345,334z"/>
	<path class="st21" d="M352.94,318.56c-0.66-0.28-1.35,0.75-1.94,1.44c-1.84,2.17-1.21,5.05-1,6c0.18,0.84,0.49,1.63,2,4
		c2.82,4.43,4.23,6.64,6,7c1.83,0.37,4.1-0.43,5-2c0.73-1.28-4.61-8.78-5-10C356.59,320.53,354,319,352.94,318.56z"/>
	<path class="st21" d="M362,313c-1.13-0.82-2.89-0.67-4,0c-1.53,0.93-1.83,2.83-2,4c-0.64,4.48,1.74,9.09,5,12
		c1.8,1.61,4.42,3.96,7,3c2.28-0.85,3.81-4.02,3-6c-1.01-2.46-4.86-1.16-7-4C361.64,318.87,364.36,314.71,362,313z"/>
	<path class="st21" d="M373,310c-1.03-0.87-2.83-0.71-4,0c-1.67,1.01-1.89,3.05-2,4c-0.32,2.9,1.13,5.13,3,8
		c1.69,2.59,2.66,4.09,4,4c1.48-0.1,2.93-2.11,3-4c0.09-2.35-2.01-2.71-3-6C373.06,312.87,374.34,311.13,373,310z"/>
	<path class="st22" d="M364,314C364.84,314.08,364,314,364,314c3.33,2.1,5,8,6,10c0.78,1.55-2.31-0.36-4-2
		C363.93,319.99,361.71,317.14,364,314z"/>
	<path class="st21" d="M381,306c-1.87-0.54-5.29,3.06-6,7c-0.81,4.5,1.88,9.69,6,11c2.07,0.66,5.12,0.54,6-1
		c0.87-1.52-1.11-3.17-3-8C381.77,309.29,382.53,306.44,381,306z"/>
	<path class="st22" d="M383,307c1.33,1,2.67,2,4,3c-0.33,3-0.67,6-1,9C385,315,384,311,383,307z"/>
	<path class="st21" d="M393,305c-1.57-0.74-4.53,1.53-6,4c-3.11,5.25-0.89,13.78,3,15c2.01,0.63,4.73-0.62,5-2
		c0.31-1.58-2.76-2.38-3-5c-0.17-1.83,1.25-2.27,2-5C394.71,309.41,394.56,305.73,393,305z"/>
	<path class="st21" d="M405,306c-0.57-0.86-2.7-0.51-4,0c-2.87,1.12-4.1,3.94-5,6c-1.29,2.95-2.86,6.54-1,9c1.15,1.52,3.24,2.14,5,2
		c0.43-0.03,3.13-0.25,4-2c1.13-2.27-2.27-4.16-2-8C402.26,309.22,405.83,307.24,405,306z"/>
	<path class="st21" d="M414,306c-1.56-1.07-4.61,0.87-6,2c-4.73,3.86-6.98,12.12-4,15c1.87,1.81,5.89,1.6,7,0
		c0.78-1.13-0.43-2.16,0-5c0.3-1.99,1.21-3.6,2-5c1.16-2.06,1.9-2.56,2-4C415.01,308.8,415.13,306.77,414,306z"/>
	<path class="st21" d="M423,308c-0.74-1.33-5.13-1.18-8,1c-5.2,3.95-4.54,13.89-2,15c1.21,0.53,2.9-0.92,3-1c1.7-1.48,1.41-3.52,2-6
		C419.34,311.31,423.82,309.47,423,308z"/>
	<path class="st21" d="M395,307c1.3,0.18,2.27,0.73,2,1c-2,2-0.49,5.79-4,9C393.67,314,394.33,310,395,307z"/>
	<path class="st23" d="M430.5,309.5c-1.51-0.02-5.61,0.11-9,3c-4.34,3.7-5.87,10.51-4,12c1.61,1.28,5.66-1.43,8-3
		c2.29-1.53,7.71-5.16,7-9C432.25,311.15,431.32,310.15,430.5,309.5z"/>
	<path class="st23" d="M437.5,309.5c-2.61-0.44-4.78,4.15-8,8c-2.46,2.94-4.22,3.1-4,6c0.03,0.36,0.24,3.15,2,4
		c2.06,0.99,4.91-1.31,7-3c2.88-2.33,7.16-7.59,6-12C440.01,310.65,439.4,309.82,437.5,309.5z"/>
	<path class="st8" d="M426.5,310.5c-5.54,6.93-8.45,9.35-9,9c-0.56-0.35,1.16-3.59,2-5C421.68,310.86,426.03,310.53,426.5,310.5z"/>
	<path class="st8" d="M417.5,324.5c0.08,0.65,1.3,1.64,2,2c1.96,1.01,6.31-3.54,6-4c-0.18-0.26-2.03,0.57-3,1
		c-1.01,0.45-1.78,1.9-3,2C419.08,325.54,417.73,324.52,417.5,324.5z"/>
	<path class="st23" d="M433.5,325.5c0.05,0.62,0.31,2.79,2,4c2.16,1.54,5.08,0.37,6,0c4.86-1.96,6.41-7.4,8-13
		c0.51-1.8,0.74-3.19,0-4c-1.28-1.4-4.59-0.16-5,0c-1.75,0.67-2.84,1.79-4,3c-1.18,1.24-1.83,2.22-3,4
		C436.65,320.78,435.29,322.84,433.5,325.5z"/>
	<path class="st8" d="M435.5,324.5c-1.44,0.19-1.63-0.07-2,1c-0.53,1.54,0.79,3.27,2,4c2.88,1.74,8.12-0.18,10-3c2-3,4-9,4-9
		c-0.28-0.16-1.83,5.66-6,8c-0.94,0.53-4.27,3.4-6,2C436.53,326.72,435.47,325.25,435.5,324.5z"/>
	<path class="st8" d="M448.5,319.5c1-2,7.43-4.25,8-4c1.08,0.49,1.2,0.63,1,2c-0.1,0.65-3.32,4.5-5,7c-0.47,0.7-4.06,4.89-5,5
		c-1.34,0.15-2.46-0.58-3-1c-0.19,0.01-1.62,0.13-2,1c-0.43,1.01,0.79,2.46,2,3c1.96,0.88,4.19-0.5,5-1c1.28-0.79,2.05-1.72,3-3
		c2.09-2.82,3.47-4.68,5-8c1.88-4.1,1.11-4.77,0-6c-1.18-1.31-3.31-0.24-4,0C450.65,315.48,449.08,318.6,448.5,319.5z"/>
	<path class="st23" d="M449.5,331.5c1.88,1.01,4.46,2.07,6,1c1.59-1.1,0.4-3.31,2-6c2.2-3.7,6.86-3.52,7-6c0.05-0.84-0.44-1.62-1-2
		c-1.29-0.89-3.75-0.2-6,2"/>
	<path class="st23" d="M456.5,331.5c-0.17,0.45-1.07,3,0,4c1.17,1.1,4.37-0.01,6-2c1.76-2.14,0.29-3.57,2-6c1.71-2.42,4.12-2.33,5-5
		c0.14-0.41,0.48-1.45,0-2c-0.65-0.74-2.59-0.33-5,1"/>
	<path class="st8" d="M464.5,321.5c-1.4,1.32-3.26,3.29-5,6c-1.87,2.9-2.63,5.12-3,5c-0.38-0.13-0.07-2.7,1-5
		c0.78-1.68,1.75-2.73,2-3C461.3,322.59,463.38,321.82,464.5,321.5z"/>
	<path class="st23" d="M463.5,331.5c-0.91,0.76-1.3,2.94-1,4c0.4,1.41,1.93,2.27,3,2c0.65-0.16,1.09-0.72,2-3
		c1.67-4.17,1.02-4.4,2-6c1.44-2.35,3.16-2.4,4-5c0.45-1.39,0.11-1.86,0-2c-0.49-0.58-2.68,0.41-4,1"/>
	<path class="st8" d="M462.5,334.5c-0.24,0.76-0.46,1.9,0,3c0.51,1.22,1.5,1.5,4,3c3.52,2.11,3.44,2.67,5,3c2.41,0.51,4.96-0.33,5-1
		c0.02-0.41-1.32-0.95-4-2c-2.67-1.05-3.38-1.14-4-2c-0.93-1.29-0.72-3-1-3c-0.26,0-0.13,1.42-1,2c-0.77,0.51-1.84,0.07-2,0
		C462.82,336.81,462.52,334.66,462.5,334.5z"/>
	<path class="st8" d="M467.5,334.5c0,0.83,0,1.67,0,2.5"/>
	<path class="st8" d="M456.5,332.5c0.18,1.34,0.63,1.81,1,2c0.38,0.19,0.67,0.08,2,0c1.31-0.08,1.97-0.12,2,0
		c0.07,0.28-2.45,2.03-4,1C456.68,334.96,456.31,333.77,456.5,332.5z"/>
	<path class="st23" d="M473.5,324.5c0.3-1.03,1.07-1.82,2-2c1.45-0.29,2.92,0.94,3,2c0.1,1.27-1.88,1.55-4,4
		c-1.74,2.01-2.4,4.12-3,6c-0.71,2.25-0.96,4.32-1,6"/>
	<path class="st23" d="M474.5,341.5c-0.32-1.23-0.7-3.45,0-6c0.86-3.12,2.85-4.96,4-6c1.87-1.68,3.77-2.55,5-3
		c-1.67-0.67-3.33-1.33-5-2"/>
	<path class="st23" d="M477.5,342.5c-0.1-0.49-0.53-2.97,1-5c1.07-1.42,2.52-1.86,3-2c0.47-0.14,0.79-0.17,1,0
		c0.32,0.27,0.16,0.86,0,2c-0.22,1.63-0.33,2.45,0,3c0.15,0.25,0.6,0.83,2,1"/>
	<path class="st23" d="M482.5,326.5c1.87,0.34,3.82,0.93,4,2c0.08,0.47-0.25,0.6-1,2c-1.08,2.02-0.91,2.74-2,4
		c-0.61,0.7-0.76,0.6-1,1c-0.52,0.88-0.47,2.55,2,6"/>
	<g>
		<g>
			<path d="M481.72,336.18c0,0.8,0,1.61-0.01,2.41c0,0.47,0.03,0.92,0.11,1.38c0.07,0.39,0.18,0.76,0.24,1.15
				c-0.02-0.13-0.04-0.27-0.05-0.4c0.03,0.23,0.04,0.46,0.04,0.69c-0.01,0.78,0.69,1.54,1.5,1.5c0.82-0.04,1.49-0.66,1.5-1.5
				c0.01-0.8-0.22-1.55-0.34-2.33c0.02,0.13,0.04,0.27,0.05,0.4c-0.07-0.53-0.04-1.07-0.04-1.6c0-0.56,0-1.13,0-1.69
				c0-0.78-0.69-1.54-1.5-1.5C482.41,334.72,481.72,335.34,481.72,336.18L481.72,336.18z"/>
		</g>
	</g>
	<g>
		<g>
			<path d="M482.55,334.38c-0.11,0.13-0.23,0.27-0.32,0.42c-0.02,0.03-0.03,0.06-0.04,0.08c-0.06,0.13-0.12,0.27-0.17,0.4
				c-0.08,0.22-0.09,0.47-0.11,0.7c-0.02,0.24,0.01,0.49-0.02,0.74c0.02-0.13,0.04-0.27,0.05-0.4c-0.01,0.08-0.03,0.16-0.05,0.24
				c-0.06,0.2-0.07,0.4-0.03,0.6c0.01,0.2,0.07,0.39,0.18,0.56c0.09,0.17,0.22,0.32,0.39,0.42c0.14,0.13,0.31,0.22,0.51,0.27
				c0.13,0.02,0.27,0.04,0.4,0.05c0.27,0,0.52-0.07,0.76-0.2c0.1-0.08,0.2-0.16,0.3-0.23c0.19-0.19,0.31-0.41,0.39-0.66
				c0.07-0.2,0.09-0.44,0.11-0.65c0.01-0.09,0.01-0.19,0.01-0.28c0-0.18-0.01-0.36,0.01-0.53c-0.02,0.13-0.04,0.27-0.05,0.4
				c0.01-0.09,0.03-0.17,0.06-0.25c-0.05,0.12-0.1,0.24-0.15,0.36c0.02-0.06,0.05-0.11,0.09-0.16c-0.08,0.1-0.16,0.2-0.23,0.3
				c0.01-0.01,0.02-0.02,0.03-0.04c0.15-0.14,0.25-0.3,0.31-0.48c0.09-0.18,0.14-0.37,0.13-0.58c0.01-0.21-0.04-0.4-0.13-0.58
				c-0.06-0.19-0.16-0.35-0.31-0.48c-0.29-0.26-0.66-0.46-1.06-0.44c-0.13,0.02-0.27,0.04-0.4,0.05
				C482.96,334.07,482.74,334.2,482.55,334.38L482.55,334.38z"/>
		</g>
	</g>
	<g>
		<g>
			<path d="M482.1,335.55c0.1,2.11,0.16,4.23,0.49,6.32c0.05,0.35,0.4,0.73,0.69,0.9c0.32,0.19,0.8,0.27,1.16,0.15
				c0.36-0.12,0.71-0.34,0.9-0.69c0.2-0.38,0.22-0.74,0.15-1.16c-0.01-0.04-0.07-0.49-0.04-0.26c0.03,0.23-0.02-0.15-0.02-0.2
				c-0.03-0.25-0.05-0.5-0.08-0.75c-0.04-0.48-0.07-0.96-0.1-1.44c-0.05-0.96-0.1-1.92-0.14-2.88c-0.04-0.78-0.66-1.54-1.5-1.5
				C482.82,334.08,482.06,334.71,482.1,335.55L482.1,335.55z"/>
		</g>
	</g>
	<path class="st23" d="M486.5,328.5c0.91-0.32,2.56-0.72,4,0c0.26,0.13,1,0.5,1,1c0,0.46-0.63,0.73-1,1c-1.57,1.14-1.27,4.26-1,7
		c0.12,1.22,0.38,2.95,1,5"/>
	<path class="st23" d="M491.5,328.5c0.78-1.08,2.06-2.61,4-4c1.97-1.41,3.37-2.42,5-2c1.75,0.45,3.23,2.42,3,4
		c-0.17,1.16-1.15,1.44-4,4c-1.72,1.55-2.59,2.32-3,3c-1.88,3.1,0.78,8,2,10"/>
	<path class="st8" d="M503.5,327.5c-0.69,0.22-4.46,2.18-6,5c-0.27,0.5-1.02,2-1,4c0.01,0.99,0.34,2,1,4c0.12,0.36,0.39,1.15,1,2
		c0.14,0.19,0.79,1.1,1,1c0.28-0.14-0.81-1.83-1-4c-0.18-2.04,0.55-3.69,2-7C501.23,330.84,502.94,328.49,503.5,327.5z"/>
	<path class="st23" d="M503.5,326.5c0.7-0.56,1.71-1.28,3-2c1.09-0.6,2.78-1.54,5-2c1.58-0.33,5.23-1.09,8,1c0.4,0.3,2.32,1.74,2,3
		c-0.39,1.56-3.73,0.93-8,3c-1.2,0.58-4.19,2.03-6,5c-2.42,3.97-1.41,8.48-1,10"/>
	<path class="st23" d="M516.5,328.5"/>
	<path class="st8" d="M520.5,327.5c-5.05,2.25-8.22,5.11-10,7c-2.09,2.22-4.66,5.04-4,8c0.2,0.88,0.64,1.55,1,2
		c-0.48-1.14-1.21-3.29-1-6c0,0,0.17-2.13,1-4C509.15,330.79,514.24,328.01,520.5,327.5z"/>
	<path class="st8" d="M520.5,327.5c1.47,0.44,4.13,0.48,6,3c2.4,3.25,2.13,7.12,2,9c-0.38,5.54-3.1,8.2-2,13
		c0.11,0.47,0.45,1.98,1,2c0.44,0.02,0.9-0.93,2-5c1.1-4.07,1.65-6.11,2-9c0.42-3.48,0.62-5.25,0-7c-1.04-2.91-3.27-4.49-4-5
		C524.58,326.48,521.57,327.46,520.5,327.5z"/>
	<path class="st24" d="M511,346c0.23-2.49,0.64-4.52,1-6c0.64-2.62,0.98-3.94,2-5c1.74-1.8,4.16-1.95,5-2c0.69-0.04,4.44-0.27,6,2
		c0.57,0.83,0.37,1.3,0,6c-0.34,4.31-0.4,6.69-2,9c-0.48,0.69-0.75,0.88-1,1c-1.77,0.84-5.05-0.96-7-3c-0.64-0.67-1.53-1.79-3-2
		C511.59,345.94,511.24,345.97,511,346z"/>
	<path class="st25" d="M518.5,334.5c-0.93,0.49-2.36,2.18-3.5,4.5c-0.92,1.86-1.88,5.55,0,7c1.08,0.83,2.33,0.21,3.5-0.5
		c1.4-0.85,1.19-3.87,1.5-5.5C520.17,339.11,518.76,334.7,518.5,334.5z"/>
	<path class="st14" d="M888.72,475.72c-1.51-1.51-4.1-0.4-4.05,1.73c0.29,12.37,0.11,22.89-0.17,31.04c-0.78,21.97-2.4,28.29-5,34
		c-4.72,10.34-11.94,19.09-17,23c8-6,13.85-10.85,16-13c6.02-6.02,8.17-10.69,8.94-13.76c0.04-0.16,0.06-0.33,0.07-0.5
		c0.65-20.24,1.31-40.48,1.96-60.72c0.02-0.66-0.23-1.29-0.69-1.75C888.76,475.76,888.74,475.74,888.72,475.72z"/>
	<g>
		<g>
			<path d="M884.28,473.41c0.03,0.12,0.05,0.24,0.08,0.36c0.02,0.11,0.01,0.07-0.02-0.14c0.01,0.05,0.01,0.11,0.02,0.16
				c0.02,0.23,0.03,0.46,0.03,0.69c0.01,0.45,0.01,0.9,0.01,1.35c0,0.92-0.01,1.84-0.06,2.76c-0.04,0.78,0.72,1.54,1.5,1.5
				c0.85-0.04,1.46-0.66,1.5-1.5c0.05-0.95,0.06-1.91,0.06-2.87c0-1.04,0.04-2.1-0.22-3.11c-0.2-0.76-1.08-1.29-1.85-1.05
				C884.55,471.82,884.07,472.6,884.28,473.41L884.28,473.41z"/>
		</g>
	</g>
	<g>
		<g>
			<path d="M884.46,474.23c0.01,0.01,0.03,0.02,0.04,0.04c-0.08-0.1-0.16-0.2-0.23-0.3c0.03,0.03,0.04,0.06,0.06,0.1
				c-0.05-0.12-0.1-0.24-0.15-0.36c0.01,0.04,0.02,0.08,0.03,0.12c-0.02-0.13-0.04-0.27-0.05-0.4c0.09,0.7,0.08,1.42,0.09,2.12
				c0.01,0.73,0,1.45-0.02,2.18c-0.03,0.79,0.71,1.54,1.5,1.5c0.84-0.04,1.47-0.66,1.5-1.5c0.03-0.84,0.03-1.69,0.01-2.53
				c-0.01-0.41-0.03-0.83-0.05-1.24c-0.03-0.65-0.07-1.37-0.6-1.83c-0.3-0.26-0.65-0.44-1.06-0.44c-0.37,0-0.81,0.16-1.06,0.44
				C883.94,472.67,883.83,473.68,884.46,474.23L884.46,474.23z"/>
		</g>
	</g>
	<path class="st19" d="M854.5,452.5c2.58,1.14,5.26,2.46,8,4c9.39,5.27,16.62,11.44,22,17c0.33-0.67,0.67-1.33,1-2
		c-7.67-6-15.33-12-23-18c-2-2-4-4-6-6C855.83,449.17,855.17,450.83,854.5,452.5z"/>
	<path class="st26" d="M751,328c-11.94-0.44-30.49,0.34-51,8c-19.55,7.3-33.03,19.2-60,43c-21.62,19.09-44.8,39.54-55,59
		c-1.1,2.1-4.04,7.98-10,14c-9.11,9.2-19.24,12.62-23,14c-18.39,6.77-46.15,24.6-57,44c-3.71,6.64-12.44,25.96,0,61
		c8.06,8.25,19.15,19.06,33,31c11.02,9.51,25.72,22.18,44,34c15.71,10.16,39.55,23.23,72,33c6.36,3.25,15.94,7.03,28,8
		c3.82,0.31,21.21,1.39,40-8c4.34-2.17,7.73-4.39,10-6c51.33-35.67,102.67-71.33,154-107c3.67-11,7.33-22,11-33
		c0.33-15.33,0.67-30.67,1-46c-2.67-3.33-5.33-6.67-8-10c-8-5.67-16-11.33-24-17c1-12.33,2-24.67,3-37c-0.67-9-1.33-18-2-27
		c-1-3-2-6-3-9c-3.67-4.33-7.33-8.67-11-13c-11-5.33-22-10.67-33-16c-11-4.33-22-8.67-33-13c-5-1.67-10-3.33-15-5
		C758.33,329.33,754.67,328.67,751,328z"/>
	<path class="st9" d="M889.4,478.72c-0.64,20.17-1.28,40.34-1.92,60.51c-2.69,4.94-4.95,9.09-7.64,14.03
		c-55.45,38.41-110.89,76.82-166.34,115.24c-5.22,3.78-19.9,13.33-31.5,10.5c-86-21-113-38-184-104c-9.99-9.28-10.67-31.72-9-61
		c2.5-4.5,9-12.49,14-16c24-16.83,48.5-30.67,72.5-47.5c24.72-34.67,54.39-63.71,73.5-79.5c34.5-28.5,54-41,86-44
		c9.26-0.87,17.37,0.12,36.5,5.5C813,348,842.83,357.9,854,378c15,27,5.98,55.63,1.5,68.5c10.52,8.97,21.03,17.94,31.55,26.91
		C888.6,474.73,889.46,476.69,889.4,478.72z"/>
	<path class="st20" d="M699,650c-0.13,0.01-0.06,1.47-0.06,1.47c0.21,4.45-1.73,8.19-2.94,10.53c-4.26,8.22-12.19,11.66-13,12
		c-7.46,3.11-13.94,1.38-14,2c-0.07,0.77,10.13,4.3,22,3c18.78-2.05,31.53-15.06,31-16c-0.34-0.6-6.28,3.52-14,2
		c-1.76-0.35-3.43-0.68-5-2C698.25,659,699.24,649.98,699,650z"/>
	<path class="st14" d="M618.5,660.5c7.27,3.79,15.96,7.67,26,11c13.95,4.63,26.63,6.9,37,8"/>
	<path class="st14" d="M525.5,483.5c-9.24,7.28-16.16,13.95-21,19c-4.31,4.5-6.92,7.66-7,12c-0.07,4.04,2.04,9.16,6,12
		c4.06,2.92,8.75,2.5,10,6c0.08,0.23,0.53,1.49,0,2c-0.85,0.82-3.41-1.06-8-3c-4.19-1.77-6.29-2.66-8-2c-0.96,0.37-2.94,1.62-4,9
		c-1.66,11.54,1.35,21.04,2,23c3.36,10.21,7.91,15.3,7,16c-0.92,0.7-6.81-3.5-10-10c-0.75-1.53-1.69-3.87-3-17
		c-0.53-5.29-0.79-7.94-1-12c-0.51-10-0.73-15.3,1-22c0.75-2.91,1.36-5.24,3-8c3.46-5.81,8.41-8.33,13-11
		C510.56,494.56,517.45,490.12,525.5,483.5z"/>
	<path class="st14" d="M886.5,486.5c-5.93,4.85-15.24,12.3-27,21c-8.26,6.12-14.16,10.2-48,33c-27.52,18.54-32.52,21.83-39,26
		c-23.28,14.98-33.54,20.6-38,23c-12.67,6.81-23.49,11.76-31,15c-0.36,0.72-0.77,1.74-1,3c-0.3,1.67-0.17,3.08,0,4
		c0.43,1.43,0.26,2.38,0,3c-0.37,0.89-0.93,1.16-1,2c-0.07,0.85,0.41,1.91,1,2c0.86,0.13,1.54-1.86,3-4c1.11-1.63,2.41-2.76,5-5
		c3.27-2.83,10.32-7.69,20-13c10-6.33,20-12.67,30-19c26.67-15.67,53.33-31.33,80-47c15.33-9.33,30.67-18.67,46-28
		C886.5,497.17,886.5,491.83,886.5,486.5z"/>
	<path d="M575.11,452.25c-2.97,3.9-7.27,9.16-12.96,14.92c-9.16,9.27-13.75,13.91-20.93,17.9c-4.37,2.42-9.42,6.3-16.95,11.93
		c-3.99,2.98-3.38,5.27-2.99,5.97c0.68,1.22,3.14,1.05,3.99,0.99c17.01-1.15,58.82-58.67,58.82-58.67
		c6.05-8.33,15.68-21.48,27.91-37.79"/>
	<path class="st27" d="M802.5,392.5c0.45-1.88-2.76-3.88-3-4c-4-2-12.21-1.18-13,2c-0.34,1.36,0.82,2.77,1,3c0.3,0.37,1.47,1.69,5,2
		C795.83,395.8,801.84,395.25,802.5,392.5z"/>
	<path class="st28" d="M791.5,395.5c1.24,0.68,2.94,1.91,4,4c1.36,2.68,1.44,6.32,0,9c-0.65,1.21-1.51,2.04-2,4
		c-0.27,1.06-0.54,2.15,0,3c0.93,1.45,3.61,1.15,5,1c2.12-0.24,5.83-1.21,6-3c0.07-0.7-0.43-1.31-1-2c-1.05-1.28-2.36-1.8-3-2
		c0.33-5,0.67-10,1-15c-1.34,0.41-3.03,0.81-5,1C794.57,395.69,792.87,395.63,791.5,395.5z"/>
	<path class="st28" d="M784.5,409.5c-0.81,0.12-1.84,0.39-2,1c-0.27,1.03,2.05,2.43,3,3c1.92,1.16,5.13,2.63,10,3
		c0.02-1.95-0.51-2.69-1-3c-0.93-0.59-1.83,0.26-4,0c-0.3-0.04-1.61-0.21-3-1C785.91,411.6,784.99,410.33,784.5,409.5z"/>
	<path class="st28" d="M785.5,391.5"/>
	<path class="st28" d="M786.5,391.5"/>
	<path class="st29" d="M763.5,433.5c-0.51,8.09-3.45,16.45-10,28c-10.11,17.84-25.62,26.27-38,33c-10.74,5.84-20,10-33,12
		c-23.48,3.61-41.1-7.47-49-12c-8.03-4.61-14.47-8.3-20-16c-13.97-19.45-7.38-43.87-6-49c5.58-20.69,19.49-32.48,26-38
		c20.3-17.21,42.59-20.29,51-21c11.99-1.02,34-1,53,12c11.02,7.54,18.24,18.25,22,28C763.54,420.97,763.29,430.89,763.5,433.5z"/>
	<path class="st19" d="M786.5,411.5h-2v-18.71c0-0.16,0.13-0.29,0.29-0.29h1.71V411.5z"/>
	<path class="st19" d="M762.5,331.5c-6.37,0.54-11.46,1.86-15,3c-6.58,2.12-11.16,3.6-15,8c-1.08,1.23-4.44,5.19-5,11
		c-0.63,6.54,2.34,11.81,5,15c10,12,22.35,17.46,30,20c4.83,1.6,12.35,3.58,22,4c-16.25-1.94-29.18-8.06-35-12
		c-7.25-4.91-16.61-11.26-17-21c-0.24-6.13,4.17-11.88,5-13c0.87-1.18,5.62-4.97,17-8c13.78-3.67,24.84-1.03,25-2
		C779.59,335.98,776.48,334.72,762.5,331.5z"/>
	<path class="st19" d="M856.5,384.5c-9.66,7.01-8.58,6.87-24,18c-18,13-49.76,40.22-72,66c-20.94,24.27-37.08,48.47-44,60
		c-7.2,11.99-5.03,11.66-11,18c-3.8,4.04-10.85,17.43-14,22c-0.44,0.63-1.52,3.2-1,4c0.54,0.84,1.66,0.59,3,0
		c3.51-1.53,5.37-7.52,6-10c0.8-3.18,1.66-7.05,12-21c7.38-9.96,12.53-21.1,20-31c21.03-27.85,17.96-22.9,29-37
		c14.85-18.98,25.88-26.78,33-34c0,0,7.56-7.66,28-22c4.98-3.49,13.55-8.18,21-8c1.96,0.05,4.8-0.78,9,4c3.58,4.08,4.39,11.39,4,22
		c-0.21,5.68-1.22,12.94-1.32,13.66c-0.26,1.87-0.28,1.7-0.68,4.34c-1.81,11.93-1.72,16.2-1,20c0.72,3.82,1.72,5.24,3,6
		c1.7,1.01,3.28,2.08,4,1c1.06-1.58-1.88-5-4-11c-1.58-4.47-1.87-8.78-1-14c0.63-3.81,1.52-6.49,2-8c3.51-11.09,4.47-21.35,5-27
		c0.66-7.09,1.22-13.06,0-21C860.38,392.22,858.24,388.42,856.5,384.5z"/>
	<path class="st19" d="M818.5,351.5c0.03-0.06,6.28,2.47,10,7c1.03,1.25,4.14,5.41,4,11c-0.17,6.93-5.22,11.49-8,14
		c-8.16,7.37-23,8-22,8c0.5,0.14,0,1,0,1c1.17,0.25,4.38-0.08,6,0c10.51,0.51,24.45-5.3,28-17c0.6-1.99,1.93-7.5-1-15
		C822.69,354.18,818.48,351.55,818.5,351.5z"/>
	<path class="st19" d="M777.5,336.5c8.02,2.01,17.17,4.87,27,9c8.37,3.52,15.71,7.32,22,11"/>
	<path class="st30" d="M646.5,382.5c-5.01,2.65-22.59,12.25-33,33c-3.78,7.55-12.23,24.38-6,43c6.05,18.09,22.1,26.42,29,30
		c25.33,13.15,50.93,6.19,58,4c0.33-8,0.67-16,1-24c0.33-1.33,0.67-2.67,1-4c1.33-0.33,2.67-0.67,4-1c4.67,7.67,9.33,15.33,14,23
		c5.48-2.24,12.18-5.67,19-11c14.32-11.19,21-24.74,25-33c2.26-4.66,3.39-6.99,4-10c2.98-14.6-5.93-27.55-9-32
		C735.97,375.08,684.2,362.6,646.5,382.5z"/>
	<path class="st19" d="M594.14,491.1c-1.72-0.4-3.53-0.28-5.19,0.35c-18.34,6.94-32.15,14.93-41.46,21.05
		c-17.44,11.46-21.72,18.1-24,23c-1.08,2.33-5,15-1,29c1.26,4.41,5.01,8.37,7,10c21.11,17.35,31.53,26.27,37,29
		c16,8,19.98,10.76,53,17c2.15,0.41,17.95,2.07,21,0c5.06-3.44,1.94-10.28,6-14c3.27-3,10-4,33,3c9.7,2.95,15.65,4.29,17,2
		c0.93-1.59-0.96-4.18-3-5c-5-2-7.76-2.74-18-5c-8.58-1.89-11.63-6.18-21-8c-5.63-1.09-10.12,3.24-9,1c2-4,5.82-10.99,7-13
		c10-17,11.48-40.68,11-46C661.8,516.49,631.8,499.86,594.14,491.1z"/>
	<g id="numrat">
		<g>
			<path class="st19" d="M748.5,426.18c-5.88-1.09-10.2,3.12-11,3.9c-0.92,0.9-3.98,3.98-4,8.78c0,0.75,0.06,6.16,4,8.78
				c4.92,3.27,12.3-0.21,16-3.9c1.28-1.28,4.47-4.46,4-8.78C757.01,430.45,752.8,426.98,748.5,426.18z"/>
			<path class="st29" d="M750.27,432.35c-4.68-0.83-7.28-1.29-10.13,0c-2.61,1.18-5.14,3.7-5.63,7.11
				c-0.42,2.93,0.68,6.34,3.38,8.13c5.01,3.32,13.54-0.25,16.89-5.08c1.41-2.04,1.85-4.84,0-7.11
				C753.81,434.22,753.37,432.9,750.27,432.35z"/>
			<text transform="matrix(0.5951 0.3585 -0.5349 0.8449 737.0517 447.1954)" class="st31 st32">1</text>
			<path class="st5" d="M741.5,430.08c-0.23-1.1,1.5-2.44,3-2.93c1.73-0.56,3.75-0.17,5,0.98c0.54,0.5,1.28,1.46,1,1.95
				c-0.32,0.56-0.39,0.89-1.5,0.49c-1.23-0.45-2.3-0.99-3-0.98c-1.37,0.02-2.39,1.61-3.5,1.46
				C742.01,430.99,741.59,430.52,741.5,430.08z"/>
		</g>
		<g>
			<path class="st19" d="M747.49,401.18c-5.53-1.09-9.59,3.11-10.35,3.9c-0.86,0.89-5.63,3.98-5.64,8.77c0,0.75,1.94,6.15,5.64,8.77
				c4.63,3.26,11.57-0.21,15.05-3.9c1.21-1.28,4.2-4.45,3.76-8.77C755.5,405.45,751.54,401.98,747.49,401.18z"/>
			<path class="st29" d="M749.15,407.34c-4.4-0.83-6.85-1.29-9.53,0c-2.46,1.18-4.83,3.69-5.29,7.1c-0.4,2.93,0.64,6.33,3.18,8.12
				c4.71,3.31,12.74-0.25,15.88-5.07c1.33-2.04,1.74-4.83,0-7.1C752.49,409.2,752.07,407.89,749.15,407.34z"/>
			<text transform="matrix(0.5698 0.3644 -0.5121 0.8589 735.7267 419.1861)" class="st31 st33">2</text>
			<path class="st5" d="M740.91,405.08c-0.22-1.1,1.41-2.44,2.82-2.92c1.63-0.56,3.53-0.17,4.7,0.97c0.51,0.5,1.21,1.46,0.94,1.95
				c-0.3,0.56-0.37,0.89-1.41,0.49c-1.16-0.45-2.16-0.99-2.82-0.97c-1.29,0.02-2.25,1.61-3.29,1.46
				C741.38,405.99,740.99,405.51,740.91,405.08z"/>
		</g>
		<g>
			<path class="st19" d="M729.22,383.17c-6.35-1.03-11.02,2.93-11.89,3.67c-0.99,0.84-4.31,3.74-4.32,8.25
				c0,0.71,0.07,5.79,4.32,8.25c5.32,3.07,13.3-0.2,17.3-3.67c1.39-1.2,4.83-4.19,4.32-8.25
				C738.42,387.18,733.87,383.92,729.22,383.17z"/>
			<path class="st29" d="M731.13,388.97c-5.06-0.78-7.87-1.21-10.95,0c-2.83,1.11-5.55,3.48-6.09,6.68
				c-0.46,2.75,0.74,5.96,3.65,7.64c5.41,3.12,14.64-0.24,18.26-4.77c1.53-1.92,2-4.54,0-6.68
				C734.96,390.72,734.48,389.48,731.13,388.97z"/>
			<text transform="matrix(0.655 0.343 -0.5887 0.8083 716.8373 401.0428)" class="st31 st34">3</text>
			<path class="st5" d="M721.65,386.84c-0.25-1.03,1.62-2.29,3.24-2.75c1.88-0.53,4.06-0.16,5.41,0.92
				c0.59,0.47,1.39,1.37,1.08,1.83c-0.35,0.52-0.42,0.84-1.62,0.46c-1.33-0.42-2.49-0.93-3.24-0.92c-1.48,0.02-2.58,1.51-3.78,1.38
				C722.2,387.69,721.75,387.24,721.65,386.84z"/>
		</g>
		<g>
			<path class="st19" d="M658.56,469.5c-6.49-1.12-11.26,3.2-12.14,4c-1.01,0.92-4.4,4.08-4.42,9c0,0.77,0.07,6.32,4.42,9
				c5.43,3.35,13.58-0.22,17.66-4c1.41-1.31,4.93-4.57,4.42-9C667.96,473.88,663.31,470.32,658.56,469.5z"/>
			<path class="st29" d="M660.51,475.82c-5.17-0.85-8.03-1.32-11.18,0c-2.88,1.21-5.67,3.79-6.21,7.29
				c-0.47,3.01,0.75,6.5,3.73,8.33c5.53,3.4,14.95-0.26,18.64-5.21c1.56-2.09,2.04-4.96,0-7.29
				C664.42,477.74,663.93,476.39,660.51,475.82z"/>
			<text transform="matrix(0.719 0.1982 -0.3185 0.9479 648.2031 489.8118)" class="st31 st35">0</text>
			<path class="st5" d="M650.83,473.5c-0.26-1.13,1.65-2.5,3.31-3c1.92-0.57,4.14-0.17,5.52,1c0.6,0.51,1.42,1.5,1.1,2
				c-0.36,0.57-0.43,0.91-1.66,0.5c-1.36-0.46-2.54-1.01-3.31-1c-1.51,0.02-2.64,1.65-3.86,1.5
				C651.39,474.43,650.93,473.95,650.83,473.5z"/>
		</g>
		<path class="st19" d="M635.03,454.2c-6.47-1.21-11.24,3.46-12.12,4.33c-1.01,0.99-4.39,4.42-4.41,9.75c0,0.83,0.07,6.84,4.41,9.75
			c5.42,3.63,13.55-0.23,17.63-4.33c1.41-1.42,4.92-4.95,4.41-9.75C644.41,458.94,639.77,455.09,635.03,454.2z"/>
		<path class="st29" d="M636.98,461.05c-5.16-0.92-8.02-1.43-11.16,0c-2.88,1.31-5.66,4.11-6.2,7.9c-0.47,3.25,0.75,7.04,3.72,9.02
			c5.52,3.68,14.92-0.28,18.61-5.64c1.56-2.26,2.04-5.37,0-7.9C640.88,463.12,640.4,461.66,636.98,461.05z"/>
		<text transform="matrix(0.5919 0.3593 -0.532 0.8467 622.3297 475.3629)" class="st31 st36">9</text>
		<path class="st5" d="M627.32,458.53c-0.26-1.22,1.65-2.71,3.31-3.25c1.91-0.62,4.14-0.19,5.51,1.08c0.6,0.56,1.42,1.62,1.1,2.17
			c-0.35,0.62-0.43,0.99-1.65,0.54c-1.36-0.5-2.53-1.1-3.31-1.08c-1.51,0.03-2.63,1.79-3.86,1.62
			C627.88,459.54,627.42,459.01,627.32,458.53z"/>
		<g>
			<path class="st19" d="M626.47,434.17c-6.84-1.05-11.87,3-12.81,3.75c-1.07,0.86-4.64,3.83-4.66,8.44c0,0.72,0.07,5.93,4.66,8.44
				c5.73,3.14,14.32-0.2,18.63-3.75c1.49-1.23,5.2-4.29,4.66-8.44C636.38,438.28,631.48,434.94,626.47,434.17z"/>
			<path class="st29" d="M628.53,440.11c-5.45-0.8-8.47-1.24-11.8,0c-3.04,1.14-5.98,3.56-6.55,6.84c-0.49,2.82,0.79,6.1,3.93,7.82
				c5.83,3.19,15.77-0.24,19.66-4.89c1.65-1.96,2.15-4.65,0-6.84C632.65,441.9,632.14,440.64,628.53,440.11z"/>
			<text transform="matrix(0.6768 0.3368 -0.6083 0.7937 613.0574 452.4889)" class="st31 st37">8</text>
			<path class="st5" d="M618.32,438.32c-0.27-0.62,1.74-1.38,3.49-1.65c2.02-0.32,4.37-0.1,5.82,0.55c0.63,0.28,1.5,0.83,1.16,1.1
				c-0.37,0.31-0.46,0.5-1.75,0.28c-1.44-0.25-2.68-0.56-3.49-0.55c-1.6,0.01-2.78,0.91-4.08,0.83
				C618.91,438.83,618.42,438.56,618.32,438.32z"/>
		</g>
		<path class="st19" d="M649.5,390.16c-5.88-0.97-10.2,2.76-11,3.46c-0.92,0.79-3.98,3.53-4,7.78c0,0.67,0.06,5.46,4,7.78
			c4.92,2.9,12.3-0.19,16-3.46c1.28-1.13,4.47-3.95,4-7.78C658.01,393.95,653.8,390.87,649.5,390.16z"/>
		<path class="st29" d="M651.27,395.63c-4.68-0.74-7.28-1.14-10.13,0c-2.61,1.05-5.14,3.28-5.63,6.3c-0.42,2.6,0.68,5.62,3.38,7.21
			c5.01,2.94,13.54-0.23,16.89-4.5c1.41-1.81,1.85-4.29,0-6.3C654.81,397.28,654.37,396.12,651.27,395.63z"/>
		<text transform="matrix(0.5597 0.4217 -0.7097 0.7045 637.5222 406.0034)" class="st31 st38">6</text>
		<path class="st5" d="M642.5,393.62c-0.23-0.98,1.5-2.16,3-2.59c1.73-0.5,3.75-0.15,5,0.86c0.54,0.44,1.28,1.29,1,1.73
			c-0.32,0.49-0.39,0.79-1.5,0.43c-1.23-0.4-2.3-0.88-3-0.86c-1.37,0.02-2.39,1.43-3.5,1.3C643.01,394.43,642.59,394,642.5,393.62z"
			/>
		<g>
			<path class="st19" d="M632.84,408.5c-6.6-1.12-11.45,3.2-12.35,4c-1.03,0.92-4.47,4.08-4.49,9c0,0.77,0.07,6.32,4.49,9
				c5.53,3.35,13.81-0.22,17.97-4c1.44-1.31,5.02-4.57,4.49-9C642.4,412.88,637.67,409.32,632.84,408.5z"/>
			<path class="st29" d="M634.83,414.82c-5.25-0.85-8.17-1.32-11.38,0c-2.93,1.21-5.77,3.79-6.32,7.29
				c-0.47,3.01,0.76,6.5,3.79,8.33c5.62,3.4,15.2-0.26,18.96-5.21c1.59-2.09,2.07-4.96,0-7.29
				C638.81,416.74,638.31,415.39,634.83,414.82z"/>
			<text transform="matrix(0.634 0.3487 -0.5698 0.8218 619.9648 429.052)" class="st31 st39">7</text>
			<path class="st5" d="M624.98,412.5c-0.26-1.13,1.68-2.5,3.37-3c1.95-0.57,4.21-0.17,5.61,1c0.61,0.51,1.44,1.5,1.12,2
				c-0.36,0.57-0.44,0.91-1.68,0.5c-1.38-0.46-2.58-1.01-3.37-1c-1.54,0.02-2.68,1.65-3.93,1.5
				C625.55,413.43,625.09,412.95,624.98,412.5z"/>
		</g>
		<g>
			<path class="st19" d="M673.5,375.17c-5.88-1.05-10.2,2.99-11,3.74c-0.92,0.86-3.98,3.81-4,8.41c0,0.72,0.06,5.9,4,8.41
				c4.92,3.13,12.3-0.2,16-3.74c1.28-1.22,4.47-4.27,4-8.41C682.01,379.27,677.8,375.94,673.5,375.17z"/>
			<path class="st29" d="M675.27,381.08c-4.68-0.8-7.28-1.24-10.13,0c-2.61,1.13-5.14,3.54-5.63,6.81
				c-0.42,2.81,0.68,6.07,3.38,7.79c5.01,3.18,13.54-0.24,16.89-4.87c1.41-1.95,1.85-4.63,0-6.81
				C678.81,382.87,678.37,381.61,675.27,381.08z"/>
			<text transform="matrix(0.5205 0.4535 -0.7062 0.708 661.7069 392.2752)" class="st31 st40">5</text>
			<path class="st5" d="M666.5,378.91c-0.23-1.05,1.5-2.34,3-2.8c1.73-0.54,3.75-0.16,5,0.93c0.54,0.48,1.28,1.4,1,1.87
				c-0.32,0.53-0.39,0.85-1.5,0.47c-1.23-0.43-2.3-0.95-3-0.93c-1.37,0.02-2.39,1.54-3.5,1.4
				C667.01,379.78,666.59,379.33,666.5,378.91z"/>
		</g>
		<g>
			<path class="st19" d="M704.5,374.17c-5.88-1.01-10.2,2.87-11,3.59c-0.92,0.82-3.98,3.67-4,8.08c0,0.69,0.06,5.68,4,8.08
				c4.92,3.01,12.3-0.19,16-3.59c1.28-1.18,4.47-4.1,4-8.08C713.01,378.1,708.8,374.9,704.5,374.17z"/>
			<path class="st29" d="M706.27,379.85c-4.68-0.76-7.28-1.19-10.13,0c-2.61,1.09-5.14,3.41-5.63,6.55
				c-0.42,2.7,0.68,5.84,3.38,7.48c5.01,3.06,13.54-0.23,16.89-4.68c1.41-1.88,1.85-4.45,0-6.55
				C709.81,381.56,709.37,380.35,706.27,379.85z"/>
			<text transform="matrix(0.6303 0.3496 -0.5665 0.8241 691.776 391.0769)" class="st31 st41">4</text>
			<path class="st5" d="M697.49,377.92c-0.17-0.83,1.08-1.85,2.15-2.22c1.25-0.42,2.69-0.13,3.59,0.74c0.39,0.38,0.92,1.1,0.72,1.48
				c-0.23,0.42-0.28,0.67-1.08,0.37c-0.89-0.34-1.65-0.75-2.15-0.74c-0.99,0.02-1.71,1.22-2.51,1.11
				C697.86,378.61,697.56,378.25,697.49,377.92z"/>
		</g>
	</g>
	<path class="st13" d="M697,397c-10.98-1.36-19.6,1.49-24,3c-5.39,1.85-15.28,5.38-23,15c-2.62,3.26-7.04,8.77-8,17
		c-1.37,11.81,5.37,20.82,7,23c9.25,12.36,27.22,17.5,46,14c0-1.33,0-2.67,0-4c1.33-0.33,2.67-0.67,4-1c1.33,0.67,2.67,1.33,4,2
		c2.27-0.45,5.46-1.3,9-3c2.48-1.19,11.56-5.71,17-16c1-1.89,4.5-21.5,1.5-28.5C723.88,403.05,701.67,397.58,697,397z"/>
	<path class="st19" d="M653.61,414.57l-2.08-1.31l-2.82,4.49l2.08,1.31c0.94,0.59,2.17,0.31,2.76-0.63l0.69-1.1
		C654.83,416.39,654.54,415.16,653.61,414.57z"/>
	<path class="st19" d="M723.78,450.61l2.15,1.18l2.55-4.64l-2.15-1.18c-0.97-0.53-2.18-0.18-2.72,0.79l-0.63,1.14
		C722.46,448.86,722.81,450.07,723.78,450.61z"/>
	<path class="st30" d="M695.5,465c0,0.83,0,1.67,0,2.5"/>
	<path class="st19" d="M697.5,493.44c-0.67,2.64-1.33,5.29-2,7.93c-0.64,0.59-1.63,1.36-3,1.98c-1.61,0.73-3.06,0.93-4,0.99
		c0.38,2.3,1.31,3.4,2,3.97c0,0,5.56,4.56,27.92-9.86c0.02-0.01,0.04-0.03,0.08-0.06c0.65-0.6-0.28-2.53-0.78-3.54
		c-0.11-0.22-0.16-0.34-0.22-0.42c-0.72-1.01-2.29-1.03-3-0.99c0-2.31,0-4.63,0-6.94c-1.84,1.29-4.17,2.71-7,3.97
		C703.69,492.15,700.21,493,697.5,493.44z"/>
	<path class="st19" d="M695.5,468.5c0.67,8.33,1.33,16.67,2,25"/>
	<path class="st19" d="M694.5,505c0-4.17,0-8.33,0-12.5"/>
	<path class="st30" d="M762.5,432.5c-1.61,7.33-5.55,20.66-16,34c-11.51,14.7-25.03,21.88-32,25"/>
	<path class="st30" d="M694.5,499.5c-3.87,0.83-9.37,1.75-16,2c-6.72,0.25-23.07,0.86-39-7c-21.24-10.48-30.32-32.39-33-39"/>
	<g>
		<path class="st42" d="M523,560c-0.13-2.11,0.28-6.57,15-19c8.96-7.57,15.64-11.68,26-18c9.15-5.58,11.79-6.58,15-7
			c2.65-0.35,6.86-0.45,20,5c8.78,3.64,9.47,4.75,32,18c3.31,1.95,8.71,5.9,11.5,12.5c0.52,1.22,2.06,14.41,2,17
			c-0.5,20.5,0,37-8.5,44.5c-1.83,1.62-4.71,1.54-10,2c-11.08,0.96-20.04-1.26-26-3c-17.33-5.07-30.21-12.29-42-19
			c0,0-14.59-8.29-30-24C525.93,566.89,523.25,564.03,523,560z"/>
		<path class="st7" d="M552.5,527.37c-0.37,0.28-0.62-2.03-0.45-2.45c1.82-4.65,6.33-13.88,16.45-21.09
			c10.68-7.61,21.55-8.64,25.86-8.82c0.1,0,0.18,0,0.27,0.01c1.4,0.15,3.85,0.45,6.86,0.97c10.9,1.87,44.16,8.85,56,32.52
			c2,4,2.72,6.26,3,7.69c3.04,15.57-5.45,28.96-9.82,34.77c-0.68,0.91-2.01,1.07-2.9,0.34c-0.48-0.39-0.93-0.92-1.28-1.77
			c-1.41-3.42-0.88-12.64-1-13.73c-1-8.83-5.05-11.75-9-16.67c-6.3-7.85-15.28-10.89-22-14.71c-15.11-8.6-27.83-9.8-30.89-9.8
			c-0.08,0-0.15-0.01-0.23,0C565.5,516.58,557.98,523.28,552.5,527.37z"/>
		<path class="st19" d="M579.5,522.5c-1,2-2,4-3,6c-3.67,3-7.33,6-11,9c-2,1.33-4,2.67-6,4c2.33,0.33,4.67,0.67,7,1
			c16.33,9.33,32.67,18.67,49,28c4.67-6.67,9.33-13.33,14-20C612.83,541.17,596.17,531.83,579.5,522.5z"/>
		<path class="st30" d="M573.5,551.5c-4.33-3.33-8.67-6.67-13-10"/>
		<path class="st30" d="M605.5,570.5c3.33,2,6.67,4,10,6c-0.67-2.33-1.33-4.67-2-7"/>
		<path class="st19" d="M615.5,574.5c0-2,0-2,0-4c-0.67-0.33-1.33-0.67-2-1C614.17,571.83,615.5,579.5,615.5,574.5z"/>
		<path class="st19" d="M629.5,550.5c1.33,0.33,2.67,0.67,4,1c-0.67,0.67-1.33,1.33-2,2c-1.33,0-2.67,0-4,0
			C628.17,552.5,628.83,551.5,629.5,550.5z"/>
		<path class="st29" d="M584.5,531.5c-4.33,3.33-8.67,6.67-13,10c13.33,8,26.67,16,40,24c4-4.33,8-8.67,12-13
			C610.5,545.5,597.5,538.5,584.5,531.5z"/>
		<path class="st28" d="M632.5,552.5c-2,2.67-4,5.33-6,8"/>
		<path class="st43" d="M580,529c-4.33,3.67-8.67,7.33-13,11"/>
		<path class="st44" d="M587,530c3.32,1.22,7.05,2.84,11,5c3.01,1.65,5.68,3.35,8,5"/>
	</g>
</g>
</svg>
