<?xml version="1.0" encoding="utf-8"?>
<!-- Generator: Adobe Illustrator 26.4.1, SVG Export Plug-In . SVG Version: 6.00 Build 0)  -->
<svg version="1.1" id="Layer_1" xmlns="http://www.w3.org/2000/svg" xmlns:xlink="http://www.w3.org/1999/xlink" x="0px" y="0px"
	 viewBox="0 0 1366 768" style="enable-background:new 0 0 1366 768;" xml:space="preserve">
<style type="text/css">
	.st0{fill:#FFFFFF;}
	.st1{fill:#F2F2F2;}
	.st2{fill:#630A11;}
	.st3{stroke:#000000;stroke-linecap:round;stroke-linejoin:round;stroke-miterlimit:10;}
	.st4{fill:none;stroke:#000000;stroke-width:2;stroke-miterlimit:10;}
	.st5{fill:none;stroke:#000000;stroke-width:4;stroke-linecap:round;stroke-miterlimit:10;}
	.st6{fill:none;stroke:#000000;stroke-width:2;stroke-linecap:round;stroke-miterlimit:10;}
	.st7{stroke:#000000;stroke-width:2;stroke-linecap:round;stroke-miterlimit:10;}
	.st8{fill:none;stroke:#000000;stroke-miterlimit:10;}
	.st9{stroke:#000000;stroke-miterlimit:10;}
	.st10{fill:#FFFFFF;stroke:#000000;stroke-width:0.75;stroke-miterlimit:10;}
	.st11{fill:#F2F2F2;stroke:#000000;stroke-width:4;stroke-miterlimit:10;}
	.st12{stroke:#000000;stroke-width:0.25;stroke-miterlimit:10;}
	.st13{fill:none;stroke:#000000;stroke-linecap:round;stroke-miterlimit:10;}
	.st14{stroke:#000000;stroke-width:0.75;stroke-linecap:round;stroke-miterlimit:10;}
	.st15{stroke:#000000;stroke-width:2;stroke-miterlimit:10;}
	.st16{fill:none;stroke:#000000;stroke-width:2;stroke-linecap:round;stroke-linejoin:round;stroke-miterlimit:10;}
	.st17{stroke:#000000;stroke-width:2;stroke-linecap:round;stroke-linejoin:round;stroke-miterlimit:10;}
	.st18{fill:none;stroke:#000000;stroke-linecap:round;stroke-linejoin:round;stroke-miterlimit:10;}
	.st19{stroke:#000000;stroke-width:0.25;stroke-linecap:round;stroke-linejoin:round;stroke-miterlimit:10;}
	.st20{fill:#FFFFFF;stroke:#000000;stroke-width:0.25;stroke-linecap:round;stroke-linejoin:round;stroke-miterlimit:10;}
	.st21{fill:#630A11;stroke:#000000;stroke-width:2;stroke-miterlimit:10;}
	.st22{fill:#FFFFFF;stroke:#000000;stroke-linecap:round;stroke-miterlimit:10;}
	.st23{stroke:#000000;stroke-linecap:round;stroke-miterlimit:10;}
	.st24{fill:#FFFFFF;stroke:#000000;stroke-width:0.75;stroke-linecap:round;stroke-miterlimit:10;}
	.st25{fill:none;stroke:#000000;stroke-width:0.75;stroke-linecap:round;stroke-miterlimit:10;}
	.st26{font-family:'BerlinSansFBDemi-Bold';}
	.st27{font-size:21.2697px;}
	.st28{font-size:20.8947px;}
	.st29{font-size:20.8932px;}
	.st30{font-size:21.8516px;}
	.st31{font-size:23.5643px;}
	.st32{font-size:21.7779px;}
	.st33{font-size:20.04px;}
	.st34{font-size:22.4175px;}
	.st35{font-size:18.2017px;}
	.st36{font-size:18.3287px;}
	.st37{fill:#630A11;stroke:#000000;stroke-width:0.5;stroke-miterlimit:10;}
	.st38{fill:#630A11;stroke:#630A11;stroke-linecap:round;stroke-miterlimit:10;}
	.st39{fill:none;stroke:#630A11;stroke-linecap:round;stroke-miterlimit:10;}
</style>
<g>
	<path class="st0" d="M482,294c-6.58,4.46-16.02,12.07-24,24c-5.94,8.87-22.85,34.13-13,62c9.76,27.6,38.28,36.61,43,38
		c5.72,1.69,26.33,7.78,45-3c12.18-7.03,17.46-17.72,25-33c8.87-17.96,9.81-31.74,10-36c0.23-5.31,0.44-11.48-2-19
		c-3.52-10.83-10.24-17.41-14-21c-11.36-10.85-24.26-14.59-31-16c-10.67,0-21.33,0-32,0C486.67,291.33,484.33,292.67,482,294z"/>
	<path class="st1" d="M290,473c-6.32,4.08-18.86,13.5-25,30c-1.05,2.82-4.19,11.96-2,35c3.16,33.21,4.73,49.82,18,58
		c14.57,8.98,37.02,4.34,49-7c7.03-6.66,9.92-15.12,15-30c1.94-5.68,4.24-12.56,5-22c0.71-8.75-0.21-15.88-1-22
		c-0.98-7.62-1.35-11.45-3-16c-2.94-8.11-7.68-13.71-11-17c-6-2.57-11.13-4.56-15-6c-12.87-4.77-17.33-5.48-22-5
		C294.5,471.36,291.72,472.31,290,473z"/>
	<path class="st2" d="M277.5,580.5c-0.87-2.72-2.49-3.17-3.5-5.5c-1.47-3.39-2.3-8.55-3-12c-1.93-9.53-1.15-19.06-1.5-25.5
		c-0.47-8.67,1.81-16.17,2.5-22.5c1.71-15.76,3.94-24.47,5.5-27.5c2.92-5.68,8.44-16.07,17-17c2.73-0.3,3.19,0.65,14,3
		c10.41,2.26,10.25,1.45,15,3c9,2.94,9.83,5.96,15,6c3.99,0.03,7.38-2.31,14-7c7.33-5.19,9.16-7.82,20-17c3.97-3.36,7.2-5.95,11-9
		c8.57-6.87,9.08-6.96,14-11c8.87-7.27,8.52-8.06,17-15c6.6-5.4,9.9-8.11,15-11c5.93-3.36,11.28-6.4,19-8c6.36-1.32,10.11-0.79,11-3
		c0.95-2.35-2.68-4.4-6-11c-1.94-3.85-2.63-7.23-4-14c-1.03-5.08-2.02-9.71-2-16c0.02-4.62,0.56-8.14,1-11c0.19-1.24,1.01-6.36,3-13
		c0.86-2.85,1.95-6.45,4-11c2.17-4.81,4.36-8.36,6-11c1.55-2.49,2.95-4.53,4-6c-10.93,3.15-15.68,8.14-18,12
		c-3.99,6.61-2.13,12-8,21c-2.73,4.19-5.6,6.81-8,9c-6.51,5.94-12.16,8.44-19,12c-7.56,3.93-12.51,7.04-22,13
		c-12.48,7.84-12.49,9.28-31,22c-8.85,6.08-8.47,5.49-21,14c-2.83,1.92-11.49,7.82-23,16c-18.12,12.87-27.18,19.31-34,25
		c-12.52,10.44-20.69,17.25-29,29c-5.51,7.79-11.91,17.04-15,31c-3.94,17.82,0.05,31.87,1,35c2.12,7.01,4.76,15.72,13,23
		C261.49,579.32,273.25,580.34,277.5,580.5z"/>
	<path class="st3" d="M235.5,536.5c-0.01,0,1.33,6.18,5,14c3.49,7.43,6.89,11.67,8,13c1.25,1.5,3.5,4.19,7,7
		c4.79,3.84,9.04,5.6,15,8c8.82,3.56,14.99,4.67,17,5c9.31,1.54,12.35,0.14,14-1c2.6-1.8,3.73-4.34,4-5c1.74-4.2,1.37-8.06,1-9
		c0.22,0.24-0.44,0.59,0,1c0.63,0.6,1.1,2.64,1,3c-0.42,1.59,2.48,7.58,4,10c2,3.19,5.45,6.65,6,7c2.14,1.37,4.82,0.6,7,0
		c3.72-1.02,6.1-3.13,7-4c1.09-1.06,2.02-2.25,4-6c1.97-3.73,3.5-6.63,5-11c1.23-3.58,2.61-7.59,3-13c0.33-4.59,2-16,2-19
		c0,5,0.22,10.05,0,15c-0.17,3.74-2.06,16.74-4,21c-2.12,4.65-5.67,12.46-14,19c-4.93,3.87-9.77,5.92-13,7c-10.47,3.5-19.41,2-25,1
		c-12.92-2.32-21.61-8.28-24-10c-10.69-7.68-15.77-17.01-20-25C237.69,549.76,235.52,536.49,235.5,536.5z"/>
	<path class="st4" d="M546.5,301.5c-5.08-3.42-26.56-17.04-54-12c-27.23,5-49.66,26.41-58,55c-42,29.33-84,58.67-126,88
		c-5.54,3.76-13.63,9.48-23,17c-20.21,16.21-31.5,25.44-40,41c-2.94,5.39-8.62,16.03-10,31c-2.82,30.52,14.68,52.21,17,55
		c4.95,5.94,15.96,19.16,35,23c15.91,3.21,37.17-0.18,48.5-14.5c3.66-4.63,5.11-10.09,8-21c4.55-17.17,10.47-40.74,1-65
		c-2.15-5.51-4.55-9.67-6-12c25.67-21.33,51.33-42.67,77-64c3.87-3.92,12.17-11.25,25-15c9.11-2.66,17.01-2.51,22-2
		c2.49,1.95,6.18,4.56,11,7c6.01,3.05,25,11,51,5c27.85-6.43,35.69-38.26,39-49c2.98-9.67,9.13-29.64-1-49
		C558.11,310.65,551.17,304.78,546.5,301.5z"/>
	<g>
		<g>
			<path d="M444.47,356.06c-21.19,14.96-43.03,28.91-65.31,42.2c-5.57,3.32-11.09,6.73-16.43,10.42
				c-5.29,3.66-10.44,7.52-15.58,11.38c-9.3,6.98-18.62,13.97-27.45,21.56c-9.98,8.57-19.28,17.94-27,28.63
				c-1.13,1.57,1.47,3.07,2.59,1.51c13.67-18.94,32.4-33.35,50.9-47.26c10.07-7.57,20.17-15.02,30.96-21.54
				c10.96-6.62,21.95-13.16,32.74-20.05c12.21-7.8,24.24-15.89,36.08-24.25C447.55,357.54,446.05,354.94,444.47,356.06
				L444.47,356.06z"/>
		</g>
	</g>
	<g id="Pikat_nelt">
		<g>
			<g>
				<path d="M504.18,335.49c1.93,0,1.93-3,0-3C502.25,332.49,502.24,335.49,504.18,335.49L504.18,335.49z"/>
			</g>
		</g>
		<g>
			<g>
				<path d="M509.95,325.27c-0.17,0.43-0.34,0.87-0.51,1.3c-0.06,0.2-0.07,0.4-0.03,0.6c0.01,0.2,0.07,0.39,0.18,0.56
					c0.09,0.17,0.22,0.32,0.39,0.42c0.14,0.13,0.31,0.22,0.51,0.27c0.13,0.02,0.27,0.04,0.4,0.05c0.27,0,0.52-0.07,0.76-0.2
					c0.1-0.08,0.2-0.16,0.3-0.23c0.19-0.19,0.31-0.41,0.39-0.66c0.17-0.43,0.34-0.87,0.51-1.3c0.06-0.2,0.07-0.4,0.03-0.6
					c-0.01-0.2-0.07-0.39-0.18-0.56c-0.09-0.17-0.22-0.32-0.39-0.42c-0.14-0.13-0.31-0.22-0.51-0.27c-0.13-0.02-0.27-0.04-0.4-0.05
					c-0.27,0-0.52,0.07-0.76,0.2c-0.1,0.08-0.2,0.16-0.3,0.23C510.15,324.8,510.02,325.02,509.95,325.27L509.95,325.27z"/>
			</g>
		</g>
		<g>
			<g>
				<path d="M518.69,320.99c-0.09,0.09-0.17,0.17-0.26,0.26c-0.15,0.14-0.25,0.3-0.31,0.48c-0.09,0.18-0.14,0.37-0.13,0.58
					c-0.01,0.21,0.04,0.4,0.13,0.58c0.06,0.19,0.16,0.35,0.31,0.48c0.1,0.08,0.2,0.16,0.3,0.23c0.23,0.14,0.49,0.2,0.76,0.2
					c0.13-0.02,0.27-0.04,0.4-0.05c0.25-0.07,0.47-0.2,0.66-0.39c0.09-0.09,0.17-0.17,0.26-0.26c0.15-0.14,0.25-0.3,0.31-0.48
					c0.09-0.18,0.14-0.37,0.13-0.58c0.01-0.21-0.04-0.4-0.13-0.58c-0.06-0.19-0.16-0.35-0.31-0.48c-0.1-0.08-0.2-0.16-0.3-0.23
					c-0.23-0.14-0.49-0.2-0.76-0.2c-0.13,0.02-0.27,0.04-0.4,0.05C519.09,320.68,518.87,320.81,518.69,320.99L518.69,320.99z"/>
			</g>
		</g>
		<g>
			<g>
				<path d="M531.36,322.57c0-0.26,0-0.52,0-0.78c0.01-0.21-0.04-0.4-0.13-0.58c-0.06-0.19-0.16-0.35-0.31-0.48
					c-0.14-0.15-0.3-0.25-0.48-0.31c-0.18-0.09-0.37-0.14-0.58-0.13c-0.13,0.02-0.27,0.04-0.4,0.05c-0.25,0.07-0.47,0.2-0.66,0.39
					c-0.08,0.1-0.16,0.2-0.23,0.3c-0.14,0.23-0.2,0.49-0.2,0.76c0,0.26,0,0.52,0,0.78c-0.01,0.21,0.04,0.4,0.13,0.58
					c0.06,0.19,0.16,0.35,0.31,0.48c0.14,0.15,0.3,0.25,0.48,0.31c0.18,0.09,0.37,0.14,0.58,0.13c0.13-0.02,0.27-0.04,0.4-0.05
					c0.25-0.07,0.47-0.2,0.66-0.39c0.08-0.1,0.16-0.2,0.23-0.3C531.3,323.1,531.36,322.84,531.36,322.57L531.36,322.57z"/>
			</g>
		</g>
		<g>
			<g>
				<path d="M497.95,341.53c0,0.01-0.01,0.01-0.01,0.02c0.08-0.1,0.16-0.2,0.23-0.3c-0.02,0.03-0.05,0.05-0.07,0.07
					c0.1-0.08,0.2-0.16,0.3-0.23c-0.03,0.02-0.07,0.04-0.1,0.06c0.12-0.05,0.24-0.1,0.36-0.15c-0.04,0.02-0.09,0.03-0.14,0.04
					c0.13-0.02,0.27-0.04,0.4-0.05c-0.06,0.01-0.11,0.01-0.17,0c0.13,0.02,0.27,0.04,0.4,0.05c-0.06-0.01-0.12-0.02-0.17-0.05
					c0.12,0.05,0.24,0.1,0.36,0.15c-0.05-0.02-0.1-0.05-0.14-0.08c0.1,0.08,0.2,0.16,0.3,0.23c-0.03-0.03-0.07-0.06-0.09-0.09
					c0.08,0.1,0.16,0.2,0.23,0.3c-0.02-0.03-0.04-0.07-0.06-0.1c0.05,0.12,0.1,0.24,0.15,0.36c-0.01-0.04-0.02-0.07-0.03-0.11
					c0.02,0.13,0.04,0.27,0.05,0.4c0,0,0-0.01,0-0.01c0.01-0.21-0.04-0.4-0.13-0.58c-0.06-0.19-0.16-0.35-0.31-0.48
					c-0.14-0.15-0.3-0.25-0.48-0.31c-0.18-0.09-0.37-0.14-0.58-0.13c-0.13,0.02-0.27,0.04-0.4,0.05c-0.25,0.07-0.47,0.2-0.66,0.39
					c-0.08,0.1-0.16,0.2-0.23,0.3c-0.14,0.23-0.2,0.49-0.2,0.76c0.02,0.14,0.03,0.28,0.06,0.42c0,0.01,0,0.02,0.01,0.04
					c0.01,0.02,0.01,0.04,0.02,0.06c0.05,0.12,0.1,0.26,0.16,0.38c0.01,0.01,0.01,0.02,0.02,0.03c0.01,0.02,0.02,0.04,0.04,0.05
					c0.08,0.11,0.16,0.22,0.25,0.32c0.01,0.01,0.02,0.02,0.02,0.03c0.02,0.02,0.03,0.03,0.05,0.04c0.1,0.08,0.21,0.17,0.32,0.25
					c0.01,0.01,0.02,0.01,0.03,0.02c0.02,0.01,0.04,0.02,0.06,0.03c0.13,0.07,0.27,0.12,0.41,0.18c0.02,0.01,0.04,0.02,0.06,0.02
					c0.02,0.01,0.04,0.01,0.07,0.02c0.15,0.03,0.3,0.05,0.46,0.06c0.05,0,0.09,0,0.14,0c0.14-0.01,0.28-0.03,0.42-0.06
					c0.01,0,0.02,0,0.03-0.01c0.02,0,0.05-0.01,0.07-0.02c0.13-0.05,0.26-0.1,0.38-0.16c0.01,0,0.02-0.01,0.03-0.01
					c0.02-0.01,0.04-0.03,0.06-0.04c0.11-0.08,0.22-0.17,0.32-0.25c0.01-0.01,0.02-0.02,0.03-0.02c0.01-0.01,0.02-0.02,0.03-0.03
					c0.09-0.1,0.17-0.22,0.25-0.33c0.11-0.17,0.17-0.36,0.18-0.56c0.04-0.2,0.04-0.4-0.03-0.6c-0.05-0.2-0.14-0.37-0.27-0.51
					c-0.11-0.16-0.25-0.29-0.42-0.39c-0.12-0.05-0.24-0.1-0.36-0.15c-0.27-0.07-0.53-0.07-0.8,0c-0.12,0.05-0.24,0.1-0.36,0.15
					C498.26,341.13,498.08,341.31,497.95,341.53L497.95,341.53z"/>
			</g>
		</g>
		<g>
			<g>
				<path d="M496.02,352.31c0.03-0.01,0.06-0.01,0.09-0.02c-0.13,0.02-0.27,0.04-0.4,0.05c0.11-0.01,0.22-0.01,0.33,0
					c-0.13-0.02-0.27-0.04-0.4-0.05c0.11,0.02,0.22,0.05,0.32,0.09c-0.12-0.05-0.24-0.1-0.36-0.15c0.1,0.04,0.2,0.1,0.29,0.17
					c-0.1-0.08-0.2-0.16-0.3-0.23c0.08,0.06,0.15,0.13,0.21,0.21c-0.08-0.1-0.16-0.2-0.23-0.3c0.02,0.02,0.03,0.04,0.04,0.06
					c0.09,0.17,0.22,0.32,0.39,0.42c0.14,0.13,0.31,0.22,0.51,0.27c0.2,0.06,0.4,0.07,0.6,0.03c0.2-0.01,0.39-0.07,0.56-0.18
					c0.1-0.08,0.2-0.16,0.3-0.23c0.19-0.19,0.31-0.41,0.39-0.66c0.02-0.13,0.04-0.27,0.05-0.4c0-0.27-0.07-0.52-0.2-0.76
					c-0.14-0.2-0.29-0.42-0.49-0.57c-0.14-0.12-0.29-0.24-0.45-0.33c-0.16-0.09-0.34-0.16-0.52-0.23c-0.06-0.02-0.12-0.04-0.18-0.06
					c-0.19-0.05-0.38-0.06-0.57-0.08c-0.06-0.01-0.13-0.01-0.2,0c-0.2,0.01-0.39,0.04-0.58,0.08c-0.2,0.05-0.37,0.14-0.51,0.27
					c-0.16,0.11-0.29,0.25-0.39,0.42c-0.11,0.17-0.17,0.36-0.18,0.56c-0.04,0.2-0.04,0.4,0.03,0.6c0.05,0.12,0.1,0.24,0.15,0.36
					c0.13,0.23,0.31,0.4,0.54,0.54c0.12,0.05,0.24,0.1,0.36,0.15C495.48,352.38,495.75,352.38,496.02,352.31L496.02,352.31z"/>
			</g>
		</g>
		<g>
			<g>
				<path d="M493.28,362.21c0.35,0,0.69,0,1.04,0c0.21,0.01,0.4-0.04,0.58-0.13c0.19-0.06,0.35-0.16,0.48-0.31
					c0.15-0.14,0.25-0.3,0.31-0.48c0.09-0.18,0.14-0.37,0.13-0.58c-0.02-0.13-0.04-0.27-0.05-0.4c-0.07-0.25-0.2-0.47-0.39-0.66
					c-0.1-0.08-0.2-0.16-0.3-0.23c-0.23-0.14-0.49-0.2-0.76-0.2c-0.35,0-0.69,0-1.04,0c-0.21-0.01-0.4,0.04-0.58,0.13
					c-0.19,0.06-0.35,0.16-0.48,0.31c-0.15,0.14-0.25,0.3-0.31,0.48c-0.09,0.18-0.14,0.37-0.13,0.58c0.02,0.13,0.04,0.27,0.05,0.4
					c0.07,0.25,0.2,0.47,0.39,0.66c0.1,0.08,0.2,0.16,0.3,0.23C492.76,362.14,493.01,362.21,493.28,362.21L493.28,362.21z"/>
			</g>
		</g>
		<g>
			<g>
				<path d="M498.21,371.83c0,0,0.01,0,0.01,0c-0.13-0.02-0.27-0.04-0.4-0.05c0.01,0,0.03,0.01,0.04,0.01
					c-0.12-0.05-0.24-0.1-0.36-0.15c0.01,0.01,0.02,0.01,0.03,0.02c-0.1-0.08-0.2-0.16-0.3-0.23c0.01,0.01,0.02,0.02,0.03,0.03
					c-0.08-0.1-0.16-0.2-0.23-0.3c0.01,0.01,0.02,0.03,0.03,0.05c-0.05-0.12-0.1-0.24-0.15-0.36c0.01,0.02,0.01,0.04,0.02,0.07
					c-0.02-0.13-0.04-0.27-0.05-0.4c0,0.03,0,0.06,0,0.08c0.02-0.13,0.04-0.27,0.05-0.4c0,0.02-0.01,0.05-0.02,0.07
					c0.05-0.12,0.1-0.24,0.15-0.36c-0.01,0.02-0.02,0.03-0.03,0.05c0.08-0.1,0.16-0.2,0.23-0.3c-0.01,0.01-0.02,0.02-0.03,0.03
					c0.1-0.08,0.2-0.16,0.3-0.23c-0.01,0.01-0.02,0.01-0.03,0.02c0.12-0.05,0.24-0.1,0.36-0.15c-0.01,0.01-0.03,0.01-0.04,0.01
					c0.13-0.02,0.27-0.04,0.4-0.05c-0.01,0-0.01,0-0.02,0c-0.21-0.01-0.4,0.04-0.58,0.13c-0.19,0.06-0.35,0.16-0.48,0.31
					c-0.15,0.14-0.25,0.3-0.31,0.48c-0.09,0.18-0.14,0.37-0.13,0.58c0.02,0.13,0.04,0.27,0.05,0.4c0.07,0.25,0.2,0.47,0.39,0.66
					c0.1,0.08,0.2,0.16,0.3,0.23c0.23,0.14,0.49,0.2,0.76,0.2c0.14-0.01,0.29-0.03,0.43-0.06c0.01,0,0.01,0,0.02,0c0,0,0,0,0.01,0
					c0,0,0,0,0.01,0c0.12-0.05,0.24-0.1,0.36-0.15c0.01,0,0.02-0.01,0.03-0.01c0,0,0,0,0.01,0c0.04-0.03,0.26-0.2,0.31-0.24
					c0,0,0.01-0.01,0.01-0.01c0,0,0.01-0.01,0.01-0.01c0,0,0,0,0-0.01c0.04-0.05,0.2-0.25,0.24-0.31c0.01-0.01,0.01-0.02,0.02-0.03
					c0,0,0-0.01,0.01-0.01c0.03-0.07,0.12-0.29,0.15-0.36c0,0,0,0,0-0.01c0-0.01,0.01-0.02,0.01-0.03c0.04-0.15,0.06-0.31,0.06-0.46
					c0-0.01,0-0.02,0-0.03c0-0.01,0-0.01,0-0.02c-0.01-0.09-0.04-0.31-0.05-0.4c0,0,0-0.01,0-0.01c0-0.01,0-0.02-0.01-0.03
					c-0.04-0.13-0.11-0.28-0.16-0.39c0-0.01-0.01-0.02-0.01-0.03c0,0-0.01-0.01-0.01-0.01c0,0,0,0,0-0.01
					c-0.08-0.1-0.16-0.2-0.23-0.3c0,0,0,0,0,0c-0.01-0.01-0.02-0.02-0.02-0.02c-0.04-0.04-0.26-0.2-0.31-0.24c0,0-0.01,0-0.01-0.01
					c0,0-0.01-0.01-0.01-0.01c0,0,0,0-0.01,0c0,0,0,0-0.01,0c-0.12-0.05-0.24-0.1-0.36-0.15c-0.01,0-0.01,0-0.02-0.01
					c-0.14-0.04-0.29-0.05-0.43-0.06c-0.21-0.01-0.4,0.04-0.58,0.13c-0.19,0.06-0.35,0.16-0.48,0.31c-0.15,0.14-0.25,0.3-0.31,0.48
					c-0.09,0.18-0.14,0.37-0.13,0.58c0.02,0.13,0.04,0.27,0.05,0.4c0.07,0.25,0.2,0.47,0.39,0.66c0.1,0.08,0.2,0.16,0.3,0.23
					C497.69,371.76,497.94,371.83,498.21,371.83L498.21,371.83z"/>
			</g>
		</g>
		<g>
			<g>
				<path d="M501.12,378.1c0,0.26,0,0.52,0,0.78c-0.01,0.21,0.04,0.4,0.13,0.58c0.06,0.19,0.16,0.35,0.31,0.48
					c0.14,0.15,0.3,0.25,0.48,0.31c0.18,0.09,0.37,0.14,0.58,0.13c0.13-0.02,0.27-0.04,0.4-0.05c0.25-0.07,0.47-0.2,0.66-0.39
					c0.08-0.1,0.16-0.2,0.23-0.3c0.14-0.23,0.2-0.49,0.2-0.76c0-0.26,0-0.52,0-0.78c0.01-0.21-0.04-0.4-0.13-0.58
					c-0.06-0.19-0.16-0.35-0.31-0.48c-0.14-0.15-0.3-0.25-0.48-0.31c-0.18-0.09-0.37-0.14-0.58-0.13c-0.13,0.02-0.27,0.04-0.4,0.05
					c-0.25,0.07-0.47,0.2-0.66,0.39c-0.08,0.1-0.16,0.2-0.23,0.3C501.19,377.57,501.12,377.83,501.12,378.1L501.12,378.1z"/>
			</g>
		</g>
		<g>
			<g>
				<path d="M510.87,385.62c0-0.09,0-0.17,0-0.26c0.01-0.21-0.04-0.4-0.13-0.58c-0.06-0.19-0.16-0.35-0.31-0.48
					c-0.14-0.15-0.3-0.25-0.48-0.31c-0.18-0.09-0.37-0.14-0.58-0.13c-0.13,0.02-0.27,0.04-0.4,0.05c-0.25,0.07-0.47,0.2-0.66,0.39
					c-0.08,0.1-0.16,0.2-0.23,0.3c-0.14,0.23-0.2,0.49-0.2,0.76c0,0.09,0,0.17,0,0.26c-0.01,0.21,0.04,0.4,0.13,0.58
					c0.06,0.19,0.16,0.35,0.31,0.48c0.14,0.15,0.3,0.25,0.48,0.31c0.18,0.09,0.37,0.14,0.58,0.13c0.13-0.02,0.27-0.04,0.4-0.05
					c0.25-0.07,0.47-0.2,0.66-0.39c0.08-0.1,0.16-0.2,0.23-0.3C510.8,386.14,510.87,385.89,510.87,385.62L510.87,385.62z"/>
			</g>
		</g>
		<g>
			<g>
				<path d="M514.82,390.24c0.35,0,0.69,0,1.04,0c0.21,0.01,0.4-0.04,0.58-0.13c0.19-0.06,0.35-0.16,0.48-0.31
					c0.15-0.14,0.25-0.3,0.31-0.48c0.09-0.18,0.14-0.37,0.13-0.58c-0.02-0.13-0.04-0.27-0.05-0.4c-0.07-0.25-0.2-0.47-0.39-0.66
					c-0.1-0.08-0.2-0.16-0.3-0.23c-0.23-0.14-0.49-0.2-0.76-0.2c-0.35,0-0.69,0-1.04,0c-0.21-0.01-0.4,0.04-0.58,0.13
					c-0.19,0.06-0.35,0.16-0.48,0.31c-0.15,0.14-0.25,0.3-0.31,0.48c-0.09,0.18-0.14,0.37-0.13,0.58c0.02,0.13,0.04,0.27,0.05,0.4
					c0.07,0.25,0.2,0.47,0.39,0.66c0.1,0.08,0.2,0.16,0.3,0.23C514.29,390.17,514.55,390.23,514.82,390.24L514.82,390.24z"/>
			</g>
		</g>
		<g>
			<g>
				<path d="M523.17,389.72c0.26,0.18,0.51,0.36,0.77,0.53c0.17,0.11,0.36,0.17,0.56,0.18c0.2,0.04,0.4,0.04,0.6-0.03
					c0.2-0.05,0.37-0.14,0.51-0.27c0.16-0.11,0.29-0.25,0.39-0.42c0.05-0.12,0.1-0.24,0.15-0.36c0.07-0.27,0.07-0.53,0-0.8
					c-0.05-0.12-0.1-0.24-0.15-0.36c-0.13-0.23-0.31-0.4-0.54-0.54c-0.26-0.18-0.51-0.36-0.77-0.53c-0.17-0.11-0.36-0.17-0.56-0.18
					c-0.2-0.04-0.4-0.04-0.6,0.03c-0.2,0.05-0.37,0.14-0.51,0.27c-0.16,0.11-0.29,0.25-0.39,0.42c-0.05,0.12-0.1,0.24-0.15,0.36
					c-0.07,0.27-0.07,0.53,0,0.8c0.05,0.12,0.1,0.24,0.15,0.36C522.77,389.41,522.95,389.59,523.17,389.72L523.17,389.72z"/>
			</g>
		</g>
		<g>
			<g>
				<path d="M533.5,388.42c1.93,0,1.93-3,0-3C531.57,385.42,531.56,388.42,533.5,388.42L533.5,388.42z"/>
			</g>
		</g>
		<g>
			<g>
				<path d="M541.13,382.08c-0.06,0.02-0.11,0.03-0.17,0.04c0.13-0.02,0.27-0.04,0.4-0.05c-0.08,0.01-0.16,0.01-0.24,0
					c0.13,0.02,0.27,0.04,0.4,0.05c-0.09-0.01-0.17-0.04-0.25-0.07c0.12,0.05,0.24,0.1,0.36,0.15c-0.09-0.04-0.17-0.08-0.24-0.14
					c0.1,0.08,0.2,0.16,0.3,0.23c-0.07-0.05-0.13-0.11-0.18-0.18c0.08,0.1,0.16,0.2,0.23,0.3c-0.05-0.06-0.09-0.13-0.12-0.21
					c0.05,0.12,0.1,0.24,0.15,0.36c-0.03-0.07-0.05-0.13-0.06-0.2c-0.05-0.2-0.14-0.37-0.27-0.51c-0.11-0.16-0.25-0.29-0.42-0.39
					c-0.17-0.11-0.36-0.17-0.56-0.18c-0.2-0.04-0.4-0.04-0.6,0.03c-0.12,0.05-0.24,0.1-0.36,0.15c-0.23,0.13-0.4,0.31-0.54,0.54
					c-0.05,0.12-0.1,0.24-0.15,0.36c-0.07,0.27-0.07,0.53,0,0.8c0.03,0.19,0.13,0.39,0.21,0.56c0.03,0.06,0.06,0.13,0.1,0.18
					c0.11,0.15,0.23,0.33,0.38,0.46c0.14,0.13,0.3,0.25,0.47,0.36c0.03,0.02,0.06,0.04,0.09,0.05c0.15,0.07,0.3,0.13,0.45,0.19
					c0.13,0.05,0.27,0.06,0.4,0.08c0.14,0.02,0.27,0.04,0.41,0.03c0.16-0.01,0.33-0.03,0.49-0.07c0.04-0.01,0.07-0.02,0.11-0.03
					c0.2-0.05,0.37-0.14,0.51-0.27c0.16-0.11,0.29-0.25,0.39-0.42c0.11-0.17,0.17-0.36,0.18-0.56c0.04-0.2,0.04-0.4-0.03-0.6
					c-0.05-0.12-0.1-0.24-0.15-0.36c-0.13-0.23-0.31-0.4-0.54-0.54c-0.12-0.05-0.24-0.1-0.36-0.15
					C541.67,382.01,541.4,382.01,541.13,382.08L541.13,382.08z"/>
			</g>
		</g>
		<g>
			<g>
				<path d="M545.44,374.45c-0.35,0.26-0.69,0.52-1.04,0.78c-0.17,0.09-0.32,0.22-0.42,0.39c-0.13,0.14-0.22,0.31-0.27,0.51
					c-0.06,0.2-0.07,0.4-0.03,0.6c0.01,0.2,0.07,0.39,0.18,0.56c0.08,0.1,0.16,0.2,0.23,0.3c0.19,0.19,0.41,0.31,0.66,0.39
					c0.13,0.02,0.27,0.04,0.4,0.05c0.27,0,0.52-0.07,0.76-0.2c0.35-0.26,0.69-0.52,1.04-0.78c0.17-0.09,0.32-0.22,0.42-0.39
					c0.13-0.14,0.22-0.31,0.27-0.51c0.06-0.2,0.07-0.4,0.03-0.6c-0.01-0.2-0.07-0.39-0.18-0.56c-0.08-0.1-0.16-0.2-0.23-0.3
					c-0.19-0.19-0.41-0.31-0.66-0.39c-0.13-0.02-0.27-0.04-0.4-0.05C545.93,374.25,545.68,374.32,545.44,374.45L545.44,374.45z"/>
			</g>
		</g>
		<g>
			<g>
				<path d="M549.84,370.78c1.93,0,1.93-3,0-3C547.91,367.78,547.91,370.78,549.84,370.78L549.84,370.78z"/>
			</g>
		</g>
		<g>
			<g>
				<path d="M552.15,363.29c0.09-0.07,0.19-0.12,0.29-0.16c-0.12,0.05-0.24,0.1-0.36,0.15c0.13-0.05,0.27-0.09,0.41-0.11
					c-0.13,0.02-0.27,0.04-0.4,0.05c0.13-0.02,0.27-0.02,0.4,0c-0.13-0.02-0.27-0.04-0.4-0.05c0.07,0.01,0.14,0.02,0.21,0.04
					c0.2,0.06,0.4,0.07,0.6,0.03c0.2-0.01,0.39-0.07,0.56-0.18c0.17-0.09,0.32-0.22,0.42-0.39c0.13-0.14,0.22-0.31,0.27-0.51
					c0.02-0.13,0.04-0.27,0.05-0.4c0-0.27-0.07-0.52-0.2-0.76c-0.08-0.1-0.16-0.2-0.23-0.3c-0.19-0.19-0.41-0.31-0.66-0.39
					c-0.06-0.02-0.12-0.03-0.17-0.04c-0.18-0.03-0.37-0.06-0.56-0.07c-0.06,0-0.12,0-0.18,0c-0.19,0.01-0.37,0.04-0.56,0.07
					c-0.11,0.02-0.23,0.05-0.33,0.1c-0.23,0.09-0.46,0.18-0.66,0.32c-0.17,0.09-0.32,0.22-0.42,0.39c-0.13,0.14-0.22,0.31-0.27,0.51
					c-0.06,0.2-0.07,0.4-0.03,0.6c0.01,0.2,0.07,0.39,0.18,0.56c0.08,0.1,0.16,0.2,0.23,0.3c0.19,0.19,0.41,0.31,0.66,0.39
					c0.13,0.02,0.27,0.04,0.4,0.05C551.66,363.5,551.91,363.43,552.15,363.29L552.15,363.29z"/>
			</g>
		</g>
		<g>
			<g>
				<path d="M551.63,350.57c-0.02,0.02-0.03,0.04-0.05,0.05c-0.09,0.11-0.18,0.23-0.27,0.35c-0.03,0.04-0.06,0.08-0.08,0.13
					c-0.08,0.15-0.14,0.31-0.2,0.47c-0.02,0.05-0.03,0.1-0.04,0.14c-0.04,0.17-0.06,0.36-0.08,0.52c-0.01,0.05-0.01,0.1-0.01,0.14
					c0,0.18,0.04,0.37,0.06,0.53c0.01,0.05,0.02,0.1,0.03,0.15c0.05,0.2,0.14,0.37,0.27,0.51c0.11,0.16,0.25,0.29,0.42,0.39
					c0.17,0.11,0.36,0.17,0.56,0.18c0.2,0.04,0.4,0.04,0.6-0.03c0.12-0.05,0.24-0.1,0.36-0.15c0.23-0.13,0.4-0.31,0.54-0.54
					c0.05-0.12,0.1-0.24,0.15-0.36c0.07-0.27,0.07-0.53,0-0.8c-0.01-0.05-0.03-0.1-0.03-0.16c0.02,0.13,0.04,0.27,0.05,0.4
					c-0.01-0.1-0.01-0.19,0-0.29c-0.02,0.13-0.04,0.27-0.05,0.4c0.01-0.1,0.04-0.2,0.08-0.29c-0.05,0.12-0.1,0.24-0.15,0.36
					c0.04-0.08,0.08-0.16,0.13-0.23c-0.08,0.1-0.16,0.2-0.23,0.3c0.02-0.03,0.04-0.05,0.06-0.07c0.15-0.14,0.25-0.3,0.31-0.48
					c0.09-0.18,0.14-0.37,0.13-0.58c0.01-0.21-0.04-0.4-0.13-0.58c-0.06-0.19-0.16-0.35-0.31-0.48c-0.1-0.08-0.2-0.16-0.3-0.23
					c-0.23-0.14-0.49-0.2-0.76-0.2c-0.13,0.02-0.27,0.04-0.4,0.05C552.04,350.25,551.82,350.38,551.63,350.57L551.63,350.57z"/>
			</g>
		</g>
		<g>
			<g>
				<path d="M552.96,345.61c1.93,0,1.93-3,0-3C551.03,342.61,551.02,345.61,552.96,345.61L552.96,345.61z"/>
			</g>
		</g>
		<g>
			<g>
				<path d="M550.48,333.32c-0.24,0.03-0.46,0.14-0.68,0.24c-0.22,0.1-0.4,0.26-0.59,0.4c-0.09,0.07-0.17,0.15-0.24,0.24
					c-0.11,0.14-0.24,0.28-0.33,0.44c-0.09,0.16-0.16,0.34-0.22,0.51c-0.06,0.2-0.07,0.4-0.03,0.6c0.01,0.2,0.07,0.39,0.18,0.56
					c0.09,0.17,0.22,0.32,0.39,0.42c0.14,0.13,0.31,0.22,0.51,0.27c0.13,0.02,0.27,0.04,0.4,0.05c0.27,0,0.52-0.07,0.76-0.2
					c0.1-0.08,0.2-0.16,0.3-0.23c0.19-0.19,0.31-0.41,0.39-0.66c0,0,0-0.01,0.01-0.01c-0.05,0.12-0.1,0.24-0.15,0.36
					c0.04-0.1,0.1-0.19,0.16-0.27c-0.08,0.1-0.16,0.2-0.23,0.3c0.07-0.09,0.15-0.17,0.24-0.24c-0.1,0.08-0.2,0.16-0.3,0.23
					c0.09-0.07,0.19-0.13,0.3-0.17c-0.12,0.05-0.24,0.1-0.36,0.15c0.1-0.04,0.21-0.07,0.32-0.09c0.2-0.05,0.37-0.14,0.51-0.27
					c0.16-0.11,0.29-0.25,0.39-0.42c0.11-0.17,0.17-0.36,0.18-0.56c0.04-0.2,0.04-0.4-0.03-0.6c-0.05-0.12-0.1-0.24-0.15-0.36
					c-0.13-0.23-0.31-0.4-0.54-0.54c-0.12-0.05-0.24-0.1-0.36-0.15C551.01,333.24,550.75,333.24,550.48,333.32L550.48,333.32z"/>
			</g>
		</g>
		<g>
			<g>
				<path d="M542.54,329.85c0.26,0.34,0.53,0.69,0.79,1.03c0.09,0.17,0.22,0.32,0.39,0.42c0.14,0.13,0.31,0.22,0.51,0.27
					c0.2,0.06,0.4,0.07,0.6,0.03c0.2-0.01,0.39-0.07,0.56-0.18c0.1-0.08,0.2-0.16,0.3-0.23c0.19-0.19,0.31-0.41,0.39-0.66
					c0.02-0.13,0.04-0.27,0.05-0.4c0-0.27-0.07-0.52-0.2-0.76c-0.26-0.34-0.53-0.69-0.79-1.03c-0.09-0.17-0.22-0.32-0.39-0.42
					c-0.14-0.13-0.31-0.22-0.51-0.27c-0.2-0.06-0.4-0.07-0.6-0.03c-0.2,0.01-0.39,0.07-0.56,0.18c-0.1,0.08-0.2,0.16-0.3,0.23
					c-0.19,0.19-0.31,0.41-0.39,0.66c-0.02,0.13-0.04,0.27-0.05,0.4C542.34,329.36,542.4,329.61,542.54,329.85L542.54,329.85z"/>
			</g>
		</g>
		<g>
			<g>
				<path d="M536.26,324.01c-0.09,0.26-0.17,0.52-0.26,0.78c-0.06,0.2-0.07,0.4-0.03,0.6c0.01,0.2,0.07,0.39,0.18,0.56
					c0.09,0.17,0.22,0.32,0.39,0.42c0.14,0.13,0.31,0.22,0.51,0.27c0.13,0.02,0.27,0.04,0.4,0.05c0.27,0,0.52-0.07,0.76-0.2
					c0.1-0.08,0.2-0.16,0.3-0.23c0.19-0.19,0.31-0.41,0.39-0.66c0.09-0.26,0.17-0.52,0.26-0.78c0.06-0.2,0.07-0.4,0.03-0.6
					c-0.01-0.2-0.07-0.39-0.18-0.56c-0.09-0.17-0.22-0.32-0.39-0.42c-0.14-0.13-0.31-0.22-0.51-0.27c-0.13-0.02-0.27-0.04-0.4-0.05
					c-0.27,0-0.52,0.07-0.76,0.2c-0.1,0.08-0.2,0.16-0.3,0.23C536.46,323.54,536.33,323.76,536.26,324.01L536.26,324.01z"/>
			</g>
		</g>
		<g>
			<g>
				<path d="M529.81,333.21c0-0.26,0-0.52,0-0.78c0.01-0.21-0.04-0.4-0.13-0.58c-0.06-0.19-0.16-0.35-0.31-0.48
					c-0.14-0.15-0.3-0.25-0.48-0.31c-0.18-0.09-0.37-0.14-0.58-0.13c-0.13,0.02-0.27,0.04-0.4,0.05c-0.25,0.07-0.47,0.2-0.66,0.39
					c-0.08,0.1-0.16,0.2-0.23,0.3c-0.14,0.23-0.2,0.49-0.2,0.76c0,0.26,0,0.52,0,0.78c-0.01,0.21,0.04,0.4,0.13,0.58
					c0.06,0.19,0.16,0.35,0.31,0.48c0.14,0.15,0.3,0.25,0.48,0.31c0.18,0.09,0.37,0.14,0.58,0.13c0.13-0.02,0.27-0.04,0.4-0.05
					c0.25-0.07,0.47-0.2,0.66-0.39c0.08-0.1,0.16-0.2,0.23-0.3C529.74,333.73,529.81,333.48,529.81,333.21L529.81,333.21z"/>
			</g>
		</g>
		<g>
			<g>
				<path d="M518.99,335c-0.09-0.09-0.17-0.17-0.26-0.26c-0.14-0.15-0.3-0.25-0.48-0.31c-0.18-0.09-0.37-0.14-0.58-0.13
					c-0.21-0.01-0.4,0.04-0.58,0.13c-0.19,0.06-0.35,0.16-0.48,0.31c-0.08,0.1-0.16,0.2-0.23,0.3c-0.14,0.23-0.2,0.49-0.2,0.76
					c0.02,0.13,0.04,0.27,0.05,0.4c0.07,0.25,0.2,0.47,0.39,0.66c0.09,0.09,0.17,0.17,0.26,0.26c0.14,0.15,0.3,0.25,0.48,0.31
					c0.18,0.09,0.37,0.14,0.58,0.13c0.21,0.01,0.4-0.04,0.58-0.13c0.19-0.06,0.35-0.16,0.48-0.31c0.08-0.1,0.16-0.2,0.23-0.3
					c0.14-0.23,0.2-0.49,0.2-0.76c-0.02-0.13-0.04-0.27-0.05-0.4C519.3,335.41,519.18,335.19,518.99,335L518.99,335z"/>
			</g>
		</g>
		<g>
			<g>
				<path d="M511.39,343.07c0-0.26,0-0.52,0-0.78c0.01-0.21-0.04-0.4-0.13-0.58c-0.06-0.19-0.16-0.35-0.31-0.48
					c-0.14-0.15-0.3-0.25-0.48-0.31c-0.18-0.09-0.37-0.14-0.58-0.13c-0.13,0.02-0.27,0.04-0.4,0.05c-0.25,0.07-0.47,0.2-0.66,0.39
					c-0.08,0.1-0.16,0.2-0.23,0.3c-0.14,0.23-0.2,0.49-0.2,0.76c0,0.26,0,0.52,0,0.78c-0.01,0.21,0.04,0.4,0.13,0.58
					c0.06,0.19,0.16,0.35,0.31,0.48c0.14,0.15,0.3,0.25,0.48,0.31c0.18,0.09,0.37,0.14,0.58,0.13c0.13-0.02,0.27-0.04,0.4-0.05
					c0.25-0.07,0.47-0.2,0.66-0.39c0.08-0.1,0.16-0.2,0.23-0.3C511.32,343.59,511.39,343.34,511.39,343.07L511.39,343.07z"/>
			</g>
		</g>
		<g>
			<g>
				<path d="M505.44,353.16c0.17-0.09,0.35-0.17,0.52-0.26c0.17-0.09,0.32-0.22,0.42-0.39c0.13-0.14,0.22-0.31,0.27-0.51
					c0.06-0.2,0.07-0.4,0.03-0.6c-0.01-0.2-0.07-0.39-0.18-0.56c-0.08-0.1-0.16-0.2-0.23-0.3c-0.19-0.19-0.41-0.31-0.66-0.39
					c-0.13-0.02-0.27-0.04-0.4-0.05c-0.27,0-0.52,0.07-0.76,0.2c-0.17,0.09-0.35,0.17-0.52,0.26c-0.17,0.09-0.32,0.22-0.42,0.39
					c-0.13,0.14-0.22,0.31-0.27,0.51c-0.06,0.2-0.07,0.4-0.03,0.6c0.01,0.2,0.07,0.39,0.18,0.56c0.08,0.1,0.16,0.2,0.23,0.3
					c0.19,0.19,0.41,0.31,0.66,0.39c0.13,0.02,0.27,0.04,0.4,0.05C504.96,353.37,505.21,353.3,505.44,353.16L505.44,353.16z"/>
			</g>
		</g>
		<g>
			<g>
				<path d="M504.6,360.57c-0.01-0.05-0.02-0.1-0.03-0.15c0.02,0.13,0.04,0.27,0.05,0.4c-0.02-0.15-0.02-0.3,0-0.45
					c-0.02,0.13-0.04,0.27-0.05,0.4c0.02-0.15,0.06-0.29,0.12-0.43c-0.05,0.12-0.1,0.24-0.15,0.36c0.04-0.1,0.09-0.19,0.15-0.28
					c0.11-0.17,0.17-0.36,0.18-0.56c0.04-0.2,0.04-0.4-0.03-0.6c-0.05-0.2-0.14-0.37-0.27-0.51c-0.11-0.16-0.25-0.29-0.42-0.39
					c-0.12-0.05-0.24-0.1-0.36-0.15c-0.27-0.07-0.53-0.07-0.8,0c-0.12,0.05-0.24,0.1-0.36,0.15c-0.23,0.13-0.4,0.31-0.54,0.54
					c-0.13,0.2-0.22,0.43-0.31,0.65c-0.05,0.11-0.08,0.23-0.1,0.35c-0.03,0.18-0.06,0.36-0.07,0.55c-0.01,0.06-0.01,0.12-0.01,0.18
					c0.01,0.25,0.04,0.5,0.1,0.74c0.05,0.2,0.14,0.37,0.27,0.51c0.11,0.16,0.25,0.29,0.42,0.39c0.17,0.11,0.36,0.17,0.56,0.18
					c0.2,0.04,0.4,0.04,0.6-0.03c0.12-0.05,0.24-0.1,0.36-0.15c0.23-0.13,0.4-0.31,0.54-0.54c0.05-0.12,0.1-0.24,0.15-0.36
					C504.67,361.1,504.67,360.84,504.6,360.57L504.6,360.57z"/>
			</g>
		</g>
		<g>
			<g>
				<path d="M506.36,366.8c-0.09,0.35-0.17,0.69-0.26,1.04c-0.06,0.2-0.07,0.4-0.03,0.6c0.01,0.2,0.07,0.39,0.18,0.56
					c0.09,0.17,0.22,0.32,0.39,0.42c0.14,0.13,0.31,0.22,0.51,0.27c0.13,0.02,0.27,0.04,0.4,0.05c0.27,0,0.52-0.07,0.76-0.2
					c0.1-0.08,0.2-0.16,0.3-0.23c0.19-0.19,0.31-0.41,0.39-0.66c0.09-0.35,0.17-0.69,0.26-1.04c0.06-0.2,0.07-0.4,0.03-0.6
					c-0.01-0.2-0.07-0.39-0.18-0.56c-0.09-0.17-0.22-0.32-0.39-0.42c-0.14-0.13-0.31-0.22-0.51-0.27c-0.13-0.02-0.27-0.04-0.4-0.05
					c-0.27,0-0.52,0.07-0.76,0.2c-0.1,0.08-0.2,0.16-0.3,0.23C506.56,366.33,506.44,366.55,506.36,366.8L506.36,366.8z"/>
			</g>
		</g>
		<g>
			<g>
				<path d="M510.41,377c0.17,0,0.35,0,0.52,0c0.21,0.01,0.4-0.04,0.58-0.13c0.19-0.06,0.35-0.16,0.48-0.31
					c0.15-0.14,0.25-0.3,0.31-0.48c0.09-0.18,0.14-0.37,0.13-0.58c-0.02-0.13-0.04-0.27-0.05-0.4c-0.07-0.25-0.2-0.47-0.39-0.66
					c-0.1-0.08-0.2-0.16-0.3-0.23c-0.23-0.14-0.49-0.2-0.76-0.2c-0.17,0-0.35,0-0.52,0c-0.21-0.01-0.4,0.04-0.58,0.13
					c-0.19,0.06-0.35,0.16-0.48,0.31c-0.15,0.14-0.25,0.3-0.31,0.48c-0.09,0.18-0.14,0.37-0.13,0.58c0.02,0.13,0.04,0.27,0.05,0.4
					c0.07,0.25,0.2,0.47,0.39,0.66c0.1,0.08,0.2,0.16,0.3,0.23C509.88,376.93,510.13,377,510.41,377L510.41,377z"/>
			</g>
		</g>
		<g>
			<g>
				<path d="M518.19,376.6c-0.09,0-0.17,0-0.26,0c-0.21-0.01-0.4,0.04-0.58,0.13c-0.19,0.06-0.35,0.16-0.48,0.31
					c-0.15,0.14-0.25,0.3-0.31,0.48c-0.09,0.18-0.14,0.37-0.13,0.58c0.02,0.13,0.04,0.27,0.05,0.4c0.07,0.25,0.2,0.47,0.39,0.66
					c0.1,0.08,0.2,0.16,0.3,0.23c0.23,0.14,0.49,0.2,0.76,0.2c0.09,0,0.17,0,0.26,0c0.21,0.01,0.4-0.04,0.58-0.13
					c0.19-0.06,0.35-0.16,0.48-0.31c0.15-0.14,0.25-0.3,0.31-0.48c0.09-0.18,0.14-0.37,0.13-0.58c-0.02-0.13-0.04-0.27-0.05-0.4
					c-0.07-0.25-0.2-0.47-0.39-0.66c-0.1-0.08-0.2-0.16-0.3-0.23C518.71,376.67,518.46,376.6,518.19,376.6L518.19,376.6z"/>
			</g>
		</g>
		<g>
			<g>
				<path d="M524.42,382.71c0.43,0,0.86,0,1.3,0c0.21,0.01,0.4-0.04,0.58-0.13c0.19-0.06,0.35-0.16,0.48-0.31
					c0.15-0.14,0.25-0.3,0.31-0.48c0.09-0.18,0.14-0.37,0.13-0.58c-0.02-0.13-0.04-0.27-0.05-0.4c-0.07-0.25-0.2-0.47-0.39-0.66
					c-0.1-0.08-0.2-0.16-0.3-0.23c-0.23-0.14-0.49-0.2-0.76-0.2c-0.43,0-0.86,0-1.3,0c-0.21-0.01-0.4,0.04-0.58,0.13
					c-0.19,0.06-0.35,0.16-0.48,0.31c-0.15,0.14-0.25,0.3-0.31,0.48c-0.09,0.18-0.14,0.37-0.13,0.58c0.02,0.13,0.04,0.27,0.05,0.4
					c0.07,0.25,0.2,0.47,0.39,0.66c0.1,0.08,0.2,0.16,0.3,0.23C523.89,382.64,524.15,382.71,524.42,382.71L524.42,382.71z"/>
			</g>
		</g>
		<g>
			<g>
				<path d="M531.66,376.29c-0.09,0.17-0.17,0.35-0.26,0.52c-0.11,0.17-0.17,0.36-0.18,0.56c-0.04,0.2-0.04,0.4,0.03,0.6
					c0.05,0.2,0.14,0.37,0.27,0.51c0.11,0.16,0.25,0.29,0.42,0.39c0.12,0.05,0.24,0.1,0.36,0.15c0.27,0.07,0.53,0.07,0.8,0
					c0.12-0.05,0.24-0.1,0.36-0.15c0.23-0.13,0.4-0.31,0.54-0.54c0.09-0.17,0.17-0.35,0.26-0.52c0.11-0.17,0.17-0.36,0.18-0.56
					c0.04-0.2,0.04-0.4-0.03-0.6c-0.05-0.2-0.14-0.37-0.27-0.51c-0.11-0.16-0.25-0.29-0.42-0.39c-0.12-0.05-0.24-0.1-0.36-0.15
					c-0.27-0.07-0.53-0.07-0.8,0c-0.12,0.05-0.24,0.1-0.36,0.15C531.97,375.89,531.79,376.06,531.66,376.29L531.66,376.29z"/>
			</g>
		</g>
		<g>
			<g>
				<path d="M540.24,373.37c1.93,0,1.93-3,0-3C538.31,370.37,538.31,373.37,540.24,373.37L540.24,373.37z"/>
			</g>
		</g>
		<g>
			<g>
				<path d="M544.08,362.27c0-0.09,0-0.17,0-0.26c0.01-0.21-0.04-0.4-0.13-0.58c-0.06-0.19-0.16-0.35-0.31-0.48
					c-0.14-0.15-0.3-0.25-0.48-0.31c-0.18-0.09-0.37-0.14-0.58-0.13c-0.13,0.02-0.27,0.04-0.4,0.05c-0.25,0.07-0.47,0.2-0.66,0.39
					c-0.08,0.1-0.16,0.2-0.23,0.3c-0.14,0.23-0.2,0.49-0.2,0.76c0,0.09,0,0.17,0,0.26c-0.01,0.21,0.04,0.4,0.13,0.58
					c0.06,0.19,0.16,0.35,0.31,0.48c0.14,0.15,0.3,0.25,0.48,0.31c0.18,0.09,0.37,0.14,0.58,0.13c0.13-0.02,0.27-0.04,0.4-0.05
					c0.25-0.07,0.47-0.2,0.66-0.39c0.08-0.1,0.16-0.2,0.23-0.3C544.01,362.79,544.08,362.54,544.08,362.27L544.08,362.27z"/>
			</g>
		</g>
		<g>
			<g>
				<path d="M543.62,355.21c1.93,0,1.93-3,0-3C541.69,352.21,541.68,355.21,543.62,355.21L543.62,355.21z"/>
			</g>
		</g>
		<g>
			<g>
				<path d="M542.58,345.61c1.93,0,1.93-3,0-3C540.65,342.61,540.64,345.61,542.58,345.61L542.58,345.61z"/>
			</g>
		</g>
		<g>
			<g>
				<path d="M538.02,337.23c0.08-0.26,0.17-0.52,0.25-0.78c0.06-0.2,0.07-0.4,0.03-0.6c-0.01-0.2-0.07-0.39-0.18-0.56
					c-0.09-0.17-0.22-0.32-0.39-0.42c-0.14-0.13-0.31-0.22-0.51-0.27c-0.13-0.02-0.27-0.04-0.4-0.05c-0.27,0-0.52,0.07-0.76,0.2
					c-0.1,0.08-0.2,0.16-0.3,0.23c-0.19,0.19-0.31,0.41-0.39,0.66c-0.08,0.26-0.17,0.52-0.25,0.78c-0.06,0.2-0.07,0.4-0.03,0.6
					c0.01,0.2,0.07,0.39,0.18,0.56c0.09,0.17,0.22,0.32,0.39,0.42c0.14,0.13,0.31,0.22,0.51,0.27c0.13,0.02,0.27,0.04,0.4,0.05
					c0.27,0,0.52-0.07,0.76-0.2c0.1-0.08,0.2-0.16,0.3-0.23C537.82,337.7,537.95,337.48,538.02,337.23L538.02,337.23z"/>
			</g>
		</g>
		<g>
			<g>
				<path d="M533.24,346.5c-0.26,0-0.52,0-0.78,0c-0.21-0.01-0.4,0.04-0.58,0.13c-0.19,0.06-0.35,0.16-0.48,0.31
					c-0.15,0.14-0.25,0.3-0.31,0.48c-0.09,0.18-0.14,0.37-0.13,0.58c0.02,0.13,0.04,0.27,0.05,0.4c0.07,0.25,0.2,0.47,0.39,0.66
					c0.1,0.08,0.2,0.16,0.3,0.23c0.23,0.14,0.49,0.2,0.76,0.2c0.26,0,0.52,0,0.78,0c0.21,0.01,0.4-0.04,0.58-0.13
					c0.19-0.06,0.35-0.16,0.48-0.31c0.15-0.14,0.25-0.3,0.31-0.48c0.09-0.18,0.14-0.37,0.13-0.58c-0.02-0.13-0.04-0.27-0.05-0.4
					c-0.07-0.25-0.2-0.47-0.39-0.66c-0.1-0.08-0.2-0.16-0.3-0.23C533.76,346.57,533.51,346.5,533.24,346.5L533.24,346.5z"/>
			</g>
		</g>
		<g>
			<g>
				<path d="M535.47,357.53c0.22-0.07,0.43-0.16,0.64-0.26c0.1-0.04,0.19-0.09,0.29-0.15c0.28-0.16,0.55-0.37,0.79-0.59
					c0.25-0.22,0.45-0.48,0.64-0.75c0.13-0.17,0.24-0.36,0.33-0.56c0.11-0.17,0.17-0.36,0.18-0.56c0.04-0.2,0.04-0.4-0.03-0.6
					c-0.05-0.2-0.14-0.37-0.27-0.51c-0.11-0.16-0.25-0.29-0.42-0.39c-0.35-0.18-0.77-0.28-1.16-0.15c-0.12,0.05-0.24,0.1-0.36,0.15
					c-0.23,0.13-0.4,0.31-0.54,0.54c-0.1,0.21-0.22,0.41-0.36,0.6c0.08-0.1,0.16-0.2,0.23-0.3c-0.16,0.2-0.33,0.38-0.53,0.53
					c0.1-0.08,0.2-0.16,0.3-0.23c-0.2,0.15-0.42,0.28-0.65,0.38c0.12-0.05,0.24-0.1,0.36-0.15c-0.08,0.03-0.17,0.07-0.25,0.09
					c-0.37,0.12-0.7,0.35-0.9,0.69c-0.11,0.17-0.17,0.36-0.18,0.56c-0.04,0.2-0.04,0.4,0.03,0.6c0.12,0.36,0.34,0.71,0.69,0.9
					C534.66,357.56,535.08,357.65,535.47,357.53L535.47,357.53z"/>
			</g>
		</g>
		<g>
			<g>
				<path d="M533.74,362.02c-0.26,0.43-0.52,0.87-0.77,1.3c-0.11,0.17-0.17,0.36-0.18,0.56c-0.04,0.2-0.04,0.4,0.03,0.6
					c0.05,0.2,0.14,0.37,0.27,0.51c0.11,0.16,0.25,0.29,0.42,0.39c0.12,0.05,0.24,0.1,0.36,0.15c0.27,0.07,0.53,0.07,0.8,0
					c0.12-0.05,0.24-0.1,0.36-0.15c0.23-0.13,0.4-0.31,0.54-0.54c0.26-0.43,0.52-0.87,0.77-1.3c0.11-0.17,0.17-0.36,0.18-0.56
					c0.04-0.2,0.04-0.4-0.03-0.6c-0.05-0.2-0.14-0.37-0.27-0.51c-0.11-0.16-0.25-0.29-0.42-0.39c-0.12-0.05-0.24-0.1-0.36-0.15
					c-0.27-0.07-0.53-0.07-0.8,0c-0.12,0.05-0.24,0.1-0.36,0.15C534.05,361.62,533.87,361.8,533.74,362.02L533.74,362.02z"/>
			</g>
		</g>
		<g>
			<g>
				<path d="M527.14,368.1c-0.43,0.17-0.87,0.34-1.3,0.52c-0.2,0.05-0.37,0.14-0.51,0.27c-0.16,0.11-0.29,0.25-0.39,0.42
					c-0.11,0.17-0.17,0.36-0.18,0.56c-0.04,0.2-0.04,0.4,0.03,0.6c0.05,0.12,0.1,0.24,0.15,0.36c0.13,0.23,0.31,0.4,0.54,0.54
					c0.12,0.05,0.24,0.1,0.36,0.15c0.27,0.07,0.53,0.07,0.8,0c0.43-0.17,0.87-0.34,1.3-0.52c0.2-0.05,0.37-0.14,0.51-0.27
					c0.16-0.11,0.29-0.25,0.39-0.42c0.11-0.17,0.17-0.36,0.18-0.56c0.04-0.2,0.04-0.4-0.03-0.6c-0.05-0.12-0.1-0.24-0.15-0.36
					c-0.13-0.23-0.31-0.4-0.54-0.54c-0.12-0.05-0.24-0.1-0.36-0.15C527.67,368.03,527.4,368.03,527.14,368.1L527.14,368.1z"/>
			</g>
		</g>
		<g>
			<g>
				<path d="M517.41,367.92c0.17,0,0.35,0,0.52,0c0.21,0.01,0.4-0.04,0.58-0.13c0.19-0.06,0.35-0.16,0.48-0.31
					c0.15-0.14,0.25-0.3,0.31-0.48c0.09-0.18,0.14-0.37,0.13-0.58c-0.02-0.13-0.04-0.27-0.05-0.4c-0.07-0.25-0.2-0.47-0.39-0.66
					c-0.1-0.08-0.2-0.16-0.3-0.23c-0.23-0.14-0.49-0.2-0.76-0.2c-0.17,0-0.35,0-0.52,0c-0.21-0.01-0.4,0.04-0.58,0.13
					c-0.19,0.06-0.35,0.16-0.48,0.31c-0.15,0.14-0.25,0.3-0.31,0.48c-0.09,0.18-0.14,0.37-0.13,0.58c0.02,0.13,0.04,0.27,0.05,0.4
					c0.07,0.25,0.2,0.47,0.39,0.66c0.1,0.08,0.2,0.16,0.3,0.23C516.89,367.85,517.14,367.92,517.41,367.92L517.41,367.92z"/>
			</g>
		</g>
		<g>
			<g>
				<path d="M516.84,359.42c0-0.09,0-0.17,0-0.26c0.01-0.21-0.04-0.4-0.13-0.58c-0.06-0.19-0.16-0.35-0.31-0.48
					c-0.14-0.15-0.3-0.25-0.48-0.31c-0.18-0.09-0.37-0.14-0.58-0.13c-0.13,0.02-0.27,0.04-0.4,0.05c-0.25,0.07-0.47,0.2-0.66,0.39
					c-0.08,0.1-0.16,0.2-0.23,0.3c-0.14,0.23-0.2,0.49-0.2,0.76c0,0.09,0,0.17,0,0.26c-0.01,0.21,0.04,0.4,0.13,0.58
					c0.06,0.19,0.16,0.35,0.31,0.48c0.14,0.15,0.3,0.25,0.48,0.31c0.18,0.09,0.37,0.14,0.58,0.13c0.13-0.02,0.27-0.04,0.4-0.05
					c0.25-0.07,0.47-0.2,0.66-0.39c0.08-0.1,0.16-0.2,0.23-0.3C516.77,359.94,516.83,359.69,516.84,359.42L516.84,359.42z"/>
			</g>
		</g>
		<g>
			<g>
				<path d="M517.15,348.84c-0.09,0-0.17,0-0.26,0c-0.21-0.01-0.4,0.04-0.58,0.13c-0.19,0.06-0.35,0.16-0.48,0.31
					c-0.15,0.14-0.25,0.3-0.31,0.48c-0.09,0.18-0.14,0.37-0.13,0.58c0.02,0.13,0.04,0.27,0.05,0.4c0.07,0.25,0.2,0.47,0.39,0.66
					c0.1,0.08,0.2,0.16,0.3,0.23c0.23,0.14,0.49,0.2,0.76,0.2c0.09,0,0.17,0,0.26,0c0.21,0.01,0.4-0.04,0.58-0.13
					c0.19-0.06,0.35-0.16,0.48-0.31c0.15-0.14,0.25-0.3,0.31-0.48c0.09-0.18,0.14-0.37,0.13-0.58c-0.02-0.13-0.04-0.27-0.05-0.4
					c-0.07-0.25-0.2-0.47-0.39-0.66c-0.1-0.08-0.2-0.16-0.3-0.23C517.67,348.9,517.42,348.84,517.15,348.84L517.15,348.84z"/>
			</g>
		</g>
		<g>
			<g>
				<path d="M525.41,359.12c0.07-0.04,0.14-0.07,0.21-0.1c-0.12,0.05-0.24,0.1-0.36,0.15c0.16-0.07,0.32-0.11,0.49-0.14
					c-0.13,0.02-0.27,0.04-0.4,0.05c0.17-0.02,0.34-0.02,0.51,0c-0.13-0.02-0.27-0.04-0.4-0.05c0.11,0.02,0.22,0.04,0.32,0.07
					c-0.12-0.91-0.24-1.83-0.36-2.74c-0.24,0.16-0.48,0.32-0.73,0.48c-0.17,0.09-0.32,0.22-0.42,0.39
					c-0.13,0.14-0.22,0.31-0.27,0.51c-0.06,0.2-0.07,0.4-0.03,0.6c0.01,0.2,0.07,0.39,0.18,0.56c0.21,0.32,0.51,0.6,0.9,0.69
					c0.13,0.02,0.27,0.04,0.4,0.05c0.27,0,0.52-0.07,0.76-0.2c0.24-0.16,0.48-0.32,0.73-0.48c0.1-0.08,0.2-0.16,0.3-0.23
					c0.08-0.1,0.16-0.2,0.23-0.3c0.05-0.12,0.1-0.24,0.15-0.36c0.06-0.2,0.07-0.4,0.03-0.6c0-0.14-0.03-0.26-0.1-0.38
					c-0.04-0.13-0.1-0.24-0.19-0.33c-0.07-0.11-0.16-0.2-0.27-0.27c-0.14-0.13-0.31-0.22-0.51-0.27c-0.25-0.08-0.52-0.11-0.77-0.13
					c-0.14-0.01-0.28-0.01-0.42,0c-0.26,0.03-0.53,0.05-0.77,0.14c-0.18,0.06-0.35,0.14-0.53,0.21c-0.07,0.03-0.13,0.06-0.19,0.1
					c-0.17,0.09-0.32,0.22-0.42,0.39c-0.13,0.14-0.22,0.31-0.27,0.51c-0.06,0.2-0.07,0.4-0.03,0.6c0.01,0.2,0.07,0.39,0.18,0.56
					c0.21,0.32,0.51,0.6,0.9,0.69c0.13,0.02,0.27,0.04,0.4,0.05C524.93,359.32,525.18,359.25,525.41,359.12L525.41,359.12z"/>
			</g>
		</g>
		<g>
			<g>
				<path d="M526.49,346.94c0.17-0.35,0.35-0.69,0.52-1.04c0.11-0.17,0.17-0.36,0.18-0.56c0.04-0.2,0.04-0.4-0.03-0.6
					c-0.05-0.2-0.14-0.37-0.27-0.51c-0.11-0.16-0.25-0.29-0.42-0.39c-0.12-0.05-0.24-0.1-0.36-0.15c-0.27-0.07-0.53-0.07-0.8,0
					c-0.12,0.05-0.24,0.1-0.36,0.15c-0.23,0.13-0.4,0.31-0.54,0.54c-0.17,0.35-0.35,0.69-0.52,1.04c-0.11,0.17-0.17,0.36-0.18,0.56
					c-0.04,0.2-0.04,0.4,0.03,0.6c0.05,0.2,0.14,0.37,0.27,0.51c0.11,0.16,0.25,0.29,0.42,0.39c0.12,0.05,0.24,0.1,0.36,0.15
					c0.27,0.07,0.53,0.07,0.8,0c0.12-0.05,0.24-0.1,0.36-0.15C526.18,347.35,526.36,347.17,526.49,346.94L526.49,346.94z"/>
			</g>
		</g>
	</g>
	<path class="st5" d="M488.63,395.35C472,367,480,330,505,309c11-9,26-13,39-5c24,17,26,49,17,74c-1,2-2,4-3,7c-6,12-14,24-27,29
		c-13,4-27-1-36-10"/>
	<path class="st6" d="M484,292c-6.15,4.33-17.91,14.16-26,29c-2.7,4.95-10.95,21.25-10,43c0.41,9.41,0.8,18.34,7,27
		c7.01,9.79,17.42,13.59,24,16c8.97,3.28,16.89,3.94,22,4"/>
	<path class="st7" d="M442.23,381.24c0,1.05,1.4,7.02-0.93,14.84C438.6,405.14,433,410,432,411c-0.82,0.82,6.18-4.43,15-6
		c7.68-1.36,14.81,0.41,13.83-0.57c-0.93-0.93-5.87-3.05-11.16-9.27C444,388.49,442.23,379.39,442.23,381.24z"/>
	<path class="st3" d="M394.5,372.5c0.31,0.52,7.41-3.15,11-5c5.52-2.85,9.42-5.21,14-8c6.28-3.82,9.47-5.77,12-8
		c3.63-3.2,5.83-6.09,8-9c7.11-9.5,6.79-13.26,13-21c0.94-1.17,3.64-3.8,9-9c15.34-14.89,18.41-17.43,18-18
		c-0.7-0.96-10.98,4.34-20,12c-7.88,6.68-12.63,13.33-15,17c-4.44,6.87-6.49,12.55-7,14c-0.97,2.77-1.6,5.18-2,7
		c-1.82,1.48-4.55,3.61-8,6c-5.45,3.78-9,5.66-13,8C404.18,364.55,394.11,371.85,394.5,372.5z"/>
	<path class="st7" d="M453,388c0.4,1.41,1.53,4.27,2.51,6.83c0.57,1.5-1,2.92-2.44,2.21L450,396c1.08,2.11,3.91,4.9,7,7
		c2.88,1.95,5.5,2.39,8,3c7.7,1.87,7.31,3.61,15,6c6.66,2.07,17.85,5.55,26,3c1.12-0.35,4.24-1.46,6,0c0.89,0.74,1.38,2.09,1,3
		c-0.59,1.43-3.43,2.12-7,1c-4-0.67-8-1.33-12-2c-3.92-0.88-10.3-2.32-14.22-3.21L477,413c-3.67-1.67-7.33-3.33-11-5"/>
	<path class="st7" d="M470,404c0,1,0,2,0,3c-1.36,0-4.18-0.2-7-2c-5.14-3.29-5.9-9.13-6-10C461.33,398,465.67,401,470,404z"/>
	<path class="st8" d="M342.5,507.5c-1,2-0.94-13.94-10-23c-1-1-2.28-2.82-6-3c-5.48-0.27-9.61,4.29-12,7c-2.82,3.2-6.37,8.49-9,21
		c-1.08,5.15-2.99,16.22-2,31c0.83,12.4,2,23,2,23c0.96,8.76,1.64,12.78-1,16c-3.32,4.05-9.58,4.02-14,4c-1.9-0.01-6.37-0.19-19-5
		c-7.27-2.77-10.9-4.15-14-6c-9.58-5.71-15.41-14.06-18-19c-10.4-19.85-0.74-46.58,13-62c1.84-2.07,17.86-19.58,38-20
		c4.97-0.1,11.59,0.81,13,1c8.56,1.18,16.83,2.31,23,6C340.81,487.06,343.09,506.33,342.5,507.5z"/>
	<path class="st9" d="M342.5,506.5c-0.33,0.16-1.59-2.21-5-7c-3.44-4.83-5.21-7.24-7-8c-4.77-2.03-10.48,1.96-12,3
		c-5.93,4.09-7.89,10.76-9,15c-4.91,18.79-4.36,42.23-4,51c0.01,0.26-2.13-15.1-2-33c0.02-3.38,0.13-7.61,1-13
		c1.14-7.04,2.85-12.07,4-15c1.69-4.29,3.17-6.73,4-8c1.34-2.05,2.65-4.06,5-6c2.21-1.82,4.6-3.93,8-4c2.91-0.06,5.08,1.38,6,2
		c2.54,1.73,3.69,3.9,7,12C341.38,502.54,342.91,506.3,342.5,506.5z"/>
	<path class="st8" d="M290.5,471.5c-8.12,7.7-12.02,15.19-14,20c-2.43,5.91-3.29,12.61-5,26c-1.27,9.91-1.95,15.2-2,23
		c-0.03,4.39,0.11,13.53,2,25c0.93,5.62,2.04,10.37,3,14"/>
	<path class="st9" d="M271.5,565.5c1.88,9.26,4,12,4,12c0.78,1.38,1.54,2.41,2,3c-1-0.33-2-0.67-3-1c-0.98-4.28-1.7-7.6-2.2-10.07
		C272.13,568.55,271.5,565.5,271.5,565.5z"/>
	<path class="st3" d="M304.5,435.5c-8.26,6.25-15,11.78-20,16c-12.87,10.89-17.38,15.89-20,19c-5.77,6.84-12.11,15.99-11,17
		c0,0,2.16-0.12,10-6c-4,3-7.96,6.02-12,11c-9.59,11.82-13.92,23.95-16,32c0.31-5.89,1.4-14.43,5-24c2.12-5.64,6.09-14.2,16-26
		C272.17,455.86,290.84,443.24,304.5,435.5z"/>
	<path class="st9" d="M255.5,448.5"/>
	<g>
		<g>
			<g>
				<path d="M322.28,524.7c-0.13,0.22-0.23,0.47-0.32,0.71c-0.05,0.14-0.08,0.28-0.1,0.42c-0.04,0.26-0.08,0.52-0.07,0.79
					c0.01,0.19,0.04,0.39,0.07,0.58c0.01,0.07,0.03,0.15,0.04,0.22c0.05,0.2,0.14,0.37,0.27,0.51c0.11,0.16,0.25,0.29,0.42,0.39
					c0.17,0.11,0.36,0.17,0.56,0.18c0.2,0.04,0.4,0.04,0.6-0.03c0.12-0.05,0.24-0.1,0.36-0.15c0.23-0.13,0.4-0.31,0.54-0.54
					c0.05-0.12,0.1-0.24,0.15-0.36c0.07-0.27,0.07-0.53,0-0.8c-0.02-0.08-0.03-0.15-0.05-0.23c0.02,0.13,0.04,0.27,0.05,0.4
					c-0.02-0.18-0.02-0.37,0-0.55c-0.02,0.13-0.04,0.27-0.05,0.4c0.03-0.19,0.08-0.38,0.15-0.55c-0.05,0.12-0.1,0.24-0.15,0.36
					c0.03-0.08,0.07-0.16,0.12-0.23c0.11-0.17,0.17-0.36,0.18-0.56c0.04-0.2,0.04-0.4-0.03-0.6c-0.05-0.2-0.14-0.37-0.27-0.51
					c-0.11-0.16-0.25-0.29-0.42-0.39c-0.35-0.18-0.77-0.28-1.16-0.15C322.8,524.13,322.48,524.36,322.28,524.7L322.28,524.7z"/>
			</g>
		</g>
		<g>
			<g>
				<path d="M327.72,530.9c-0.26,0.26-0.52,0.52-0.78,0.78c-0.15,0.14-0.25,0.3-0.31,0.48c-0.09,0.18-0.14,0.37-0.13,0.58
					c-0.01,0.21,0.04,0.4,0.13,0.58c0.06,0.19,0.16,0.35,0.31,0.48c0.1,0.08,0.2,0.16,0.3,0.23c0.23,0.14,0.49,0.2,0.76,0.2
					c0.13-0.02,0.27-0.04,0.4-0.05c0.25-0.07,0.47-0.2,0.66-0.39c0.26-0.26,0.52-0.52,0.78-0.78c0.15-0.14,0.25-0.3,0.31-0.48
					c0.09-0.18,0.14-0.37,0.13-0.58c0.01-0.21-0.04-0.4-0.13-0.58c-0.06-0.19-0.16-0.35-0.31-0.48c-0.1-0.08-0.2-0.16-0.3-0.23
					c-0.23-0.14-0.49-0.2-0.76-0.2c-0.13,0.02-0.27,0.04-0.4,0.05C328.13,530.58,327.91,530.71,327.72,530.9L327.72,530.9z"/>
			</g>
		</g>
		<g>
			<g>
				<path d="M327.2,545.17c-0.17,0.17-0.35,0.35-0.52,0.52c-0.15,0.14-0.25,0.3-0.31,0.48c-0.09,0.18-0.14,0.37-0.13,0.58
					c-0.01,0.21,0.04,0.4,0.13,0.58c0.06,0.19,0.16,0.35,0.31,0.48c0.1,0.08,0.2,0.16,0.3,0.23c0.23,0.14,0.49,0.2,0.76,0.2
					c0.13-0.02,0.27-0.04,0.4-0.05c0.25-0.07,0.47-0.2,0.66-0.39c0.17-0.17,0.35-0.35,0.52-0.52c0.15-0.14,0.25-0.3,0.31-0.48
					c0.09-0.18,0.14-0.37,0.13-0.58c0.01-0.21-0.04-0.4-0.13-0.58c-0.06-0.19-0.16-0.35-0.31-0.48c-0.1-0.08-0.2-0.16-0.3-0.23
					c-0.23-0.14-0.49-0.2-0.76-0.2c-0.13,0.02-0.27,0.04-0.4,0.05C327.61,544.85,327.39,544.98,327.2,545.17L327.2,545.17z"/>
			</g>
		</g>
		<g>
			<g>
				<path d="M328.06,538.7c0,0.43,0,0.86,0,1.3c-0.01,0.21,0.04,0.4,0.13,0.58c0.06,0.19,0.16,0.35,0.31,0.48
					c0.14,0.15,0.3,0.25,0.48,0.31c0.18,0.09,0.37,0.14,0.58,0.13c0.13-0.02,0.27-0.04,0.4-0.05c0.25-0.07,0.47-0.2,0.66-0.39
					c0.08-0.1,0.16-0.2,0.23-0.3c0.14-0.23,0.2-0.49,0.2-0.76c0-0.43,0-0.86,0-1.3c0.01-0.21-0.04-0.4-0.13-0.58
					c-0.06-0.19-0.16-0.35-0.31-0.48c-0.14-0.15-0.3-0.25-0.48-0.31c-0.18-0.09-0.37-0.14-0.58-0.13c-0.13,0.02-0.27,0.04-0.4,0.05
					c-0.25,0.07-0.47,0.2-0.66,0.39c-0.08,0.1-0.16,0.2-0.23,0.3C328.13,538.18,328.06,538.43,328.06,538.7L328.06,538.7z"/>
			</g>
		</g>
		<g>
			<g>
				<path d="M317.83,527.95c-0.1,0.16-0.2,0.32-0.29,0.49c-0.07,0.13-0.13,0.27-0.19,0.41c-0.06,0.14-0.12,0.28-0.17,0.43
					c-0.06,0.2-0.07,0.42-0.1,0.62c-0.01,0.09-0.02,0.17-0.01,0.26c0,0.04,0.01,0.09,0.01,0.13c0.02,0.17,0.03,0.34,0.07,0.51
					c0.05,0.2,0.14,0.4,0.23,0.58c0.09,0.17,0.22,0.32,0.39,0.42c0.14,0.13,0.31,0.22,0.51,0.27c0.2,0.06,0.4,0.07,0.6,0.03
					c0.2-0.01,0.39-0.07,0.56-0.18c0.32-0.21,0.6-0.51,0.69-0.9c0.02-0.13,0.04-0.27,0.05-0.4c0-0.27-0.07-0.52-0.2-0.76
					c-0.01-0.02-0.02-0.04-0.03-0.06c0.05,0.12,0.1,0.24,0.15,0.36c-0.04-0.09-0.06-0.18-0.07-0.28c0.02,0.13,0.04,0.27,0.05,0.4
					c-0.02-0.13-0.01-0.26,0-0.39c-0.02,0.13-0.04,0.27-0.05,0.4c0.02-0.17,0.07-0.32,0.14-0.48c-0.05,0.12-0.1,0.24-0.15,0.36
					c0.11-0.25,0.26-0.49,0.4-0.72c0.11-0.17,0.17-0.36,0.18-0.56c0.04-0.2,0.04-0.4-0.03-0.6c-0.05-0.2-0.14-0.37-0.27-0.51
					c-0.11-0.16-0.25-0.29-0.42-0.39c-0.35-0.18-0.77-0.28-1.16-0.15C318.34,527.39,318.04,527.61,317.83,527.95L317.83,527.95z"/>
			</g>
		</g>
		<g>
			<g>
				<path d="M315.22,534.22c-0.07,0.21-0.12,0.43-0.16,0.65c-0.06,0.34-0.1,0.69-0.11,1.04c-0.01,0.21,0.04,0.4,0.13,0.58
					c0.06,0.19,0.16,0.35,0.31,0.48c0.14,0.15,0.3,0.25,0.48,0.31c0.18,0.09,0.37,0.14,0.58,0.13c0.13-0.02,0.27-0.04,0.4-0.05
					c0.25-0.07,0.47-0.2,0.66-0.39c0.08-0.1,0.16-0.2,0.23-0.3c0.14-0.23,0.2-0.49,0.2-0.76c0-0.18,0.01-0.36,0.04-0.53
					c-0.02,0.13-0.04,0.27-0.05,0.4c0.04-0.26,0.09-0.51,0.17-0.76c0.06-0.2,0.07-0.4,0.03-0.6c-0.01-0.2-0.07-0.39-0.18-0.56
					c-0.09-0.17-0.22-0.32-0.39-0.42c-0.14-0.13-0.31-0.22-0.51-0.27c-0.13-0.02-0.27-0.04-0.4-0.05c-0.27,0-0.52,0.07-0.76,0.2
					c-0.1,0.08-0.2,0.16-0.3,0.23C315.42,533.75,315.29,533.97,315.22,534.22L315.22,534.22z"/>
			</g>
		</g>
		<g>
			<g>
				<path d="M321.74,535.51c-0.07,0.47-0.13,0.94-0.12,1.41c0.01,0.47,0.07,0.95,0.16,1.41c0.05,0.2,0.14,0.37,0.27,0.51
					c0.11,0.16,0.25,0.29,0.42,0.39c0.17,0.11,0.36,0.17,0.56,0.18c0.2,0.04,0.4,0.04,0.6-0.03c0.36-0.12,0.71-0.34,0.9-0.69
					c0.05-0.12,0.1-0.24,0.15-0.36c0.07-0.27,0.07-0.53,0-0.8c-0.02-0.12-0.04-0.23-0.06-0.35c0.02,0.13,0.04,0.27,0.05,0.4
					c-0.07-0.52-0.07-1.04,0-1.56c-0.02,0.13-0.04,0.27-0.05,0.4c0.01-0.04,0.01-0.08,0.02-0.12c0.06-0.2,0.07-0.4,0.03-0.6
					c-0.01-0.2-0.07-0.39-0.18-0.56c-0.09-0.17-0.22-0.32-0.39-0.42c-0.14-0.13-0.31-0.22-0.51-0.27c-0.38-0.09-0.82-0.07-1.16,0.15
					c-0.1,0.08-0.2,0.16-0.3,0.23C321.94,535.04,321.81,535.26,321.74,535.51L321.74,535.51z"/>
			</g>
		</g>
		<g>
			<g>
				<path d="M317.7,542.98c0.05,0.05,0.1,0.11,0.15,0.17c-0.08-0.1-0.16-0.2-0.23-0.3c0.11,0.14,0.2,0.3,0.27,0.46
					c-0.05-0.12-0.1-0.24-0.15-0.36c0.07,0.17,0.12,0.36,0.15,0.54c-0.02-0.13-0.04-0.27-0.05-0.4c0.02,0.11,0.02,0.23,0.02,0.34
					c-0.01,0.21,0.04,0.4,0.13,0.58c0.06,0.19,0.16,0.35,0.31,0.48c0.14,0.15,0.3,0.25,0.48,0.31c0.18,0.09,0.37,0.14,0.58,0.13
					c0.13-0.02,0.27-0.04,0.4-0.05c0.25-0.07,0.47-0.2,0.66-0.39c0.08-0.1,0.16-0.2,0.23-0.3c0.14-0.23,0.2-0.49,0.2-0.76
					c0.01-0.27-0.04-0.54-0.08-0.8c-0.02-0.15-0.06-0.29-0.12-0.43c-0.1-0.24-0.19-0.5-0.33-0.72c-0.07-0.11-0.15-0.21-0.23-0.31
					c-0.08-0.11-0.17-0.22-0.26-0.32c-0.14-0.15-0.3-0.25-0.48-0.31c-0.18-0.09-0.37-0.14-0.58-0.13c-0.21-0.01-0.4,0.04-0.58,0.13
					c-0.19,0.06-0.35,0.16-0.48,0.31c-0.26,0.29-0.46,0.66-0.44,1.06c0.02,0.13,0.04,0.27,0.05,0.4
					C317.38,542.57,317.51,542.79,317.7,542.98L317.7,542.98z"/>
			</g>
		</g>
		<g>
			<g>
				<path d="M319.56,548.11c0.04,0.37,0.07,0.74,0.11,1.1c-0.01,0.21,0.04,0.4,0.13,0.58c0.06,0.19,0.16,0.35,0.31,0.48
					c0.14,0.15,0.3,0.25,0.48,0.31c0.18,0.09,0.37,0.14,0.58,0.13c0.13-0.02,0.27-0.04,0.4-0.05c0.25-0.07,0.47-0.2,0.66-0.39
					c0.08-0.1,0.16-0.2,0.23-0.3c0.14-0.23,0.2-0.49,0.2-0.76c-0.04-0.37-0.07-0.74-0.11-1.1c0.01-0.21-0.04-0.4-0.13-0.58
					c-0.06-0.19-0.16-0.35-0.31-0.48c-0.14-0.15-0.3-0.25-0.48-0.31c-0.18-0.09-0.37-0.14-0.58-0.13c-0.13,0.02-0.27,0.04-0.4,0.05
					c-0.25,0.07-0.47,0.2-0.66,0.39c-0.08,0.1-0.16,0.2-0.23,0.3C319.63,547.59,319.56,547.84,319.56,548.11L319.56,548.11z"/>
			</g>
		</g>
	</g>
	<path class="st8" d="M305.5,558.5c0.04,4.11,0.63,9.8,3,16c0.8,2.09,2.64,6.57,5,10c1.89,2.74,4.39,4.71,5,5
		c4.05,1.95,9.17-1.45,10-2c3.36-2.23,5.03-5.19,6-7c5.38-10.07,7.5-19.66,8-22c1.09-5.08,2.51-11.84,3-21c0.51-9.48,0.29-7.98,0-27
		c-0.04-2.9-1.07-6.37-2-11c-1.04-5.2-2.71-9.29-4-12"/>
	<path class="st10" d="M281.5,587.5c-0.29,0.48-0.17,1.51,2,4c4.32-0.02,7.92-0.05,11,0c0.75,0.01,2.44,0.04,4-1
		c1.22-0.81,2.37-2.3,2-3c-0.34-0.65-1.78-0.23-5,0c-3.63,0.25-6.85,0.07-8,0C283.53,587.27,281.97,586.73,281.5,587.5z"/>
	<path class="st2" d="M257.01,578.03c0.2-0.32,2.95,1.71,8.38,3.55c4.9,1.66,6.98,1.48,9.57,3.55c1.55,1.24,2.55,2.7,3.2,3.93
		c0.21,0.39-0.06,0.87-0.5,0.9c-0.75,0.06-1.67,0.06-2.7-0.1c-3.45-0.53-5.51-2.43-8.38-4.73
		C260.53,580.27,256.79,578.39,257.01,578.03z"/>
	<path class="st3" d="M290.5,471.5c-0.07,0.08-3.14,0.15-3.21,0.23c-1.27,1.36-2.97,3.3-4.79,5.77c-2.07,2.81-3.02,5.77-5,10
		c-2.3,4.91-3.86,14.28-4,15c-0.06,0.33,1.73-9.12,3-12c0.61-1.4,2.1-3.59,5-8c0,0,3.37-5.13,6-8c1.32-1.44,2.74-2.76,2.74-2.76
		C290.35,471.64,290.44,471.55,290.5,471.5"/>
	<path class="st3" d="M295.74,471.5c0.13,0,0.17,0.18,0.05,0.23c-1.96,0.66-6.58,2.8-9.29,4.77c-2.87,2.09-3.8,3.35-5,5
		c-0.07-0.91,1.9-2.9,3-5c1.22-2.34,2.15-3.5,2.84-3.91c0,0,0.08-0.05,0.16-0.09C288.47,471.96,290.33,471.54,295.74,471.5z"/>
	<path class="st3" d="M384.5,397.5c-8.47,5.72-20.57,14.07-34,24c-7.19,5.32-38.86,32.6-43,41c-1.23,2.5-2.04,5-1,7
		c0.77,1.49,2.24,2.05,5,3c7.59,2.62,13.98,4.42,16,5c6.13,1.76,5.63,1.88,7,2c6,0.53,10.81-2.16,14-4c6.85-3.95,18.92-14.87,22-17
		c0,0,4.61-3.18,9.15-6.69c5.03-3.88,36.85-29.31,36.85-29.31c0,0.8-7.95,7.28-11,10c-23.2,20.67-37.31,27.98-49,39
		c-4.47,4.22-10.44,6.99-14,12c-0.56,0.79-2.22,3.23-4,3c-1.25-0.16-3-3-7-5c-2.94-1.47-6.39-3.37-13-5c-5.34-1.32-6.36-1.31-13-3
		c-2.16-0.55-10.56-1.89-11-3c-0.99-2.47,3.74-6.26,9-11c11.39-10.26,8.53-9.9,18-18c7.04-6.02,7.12-4.94,19-14
		c11.5-8.77,12.48-10.59,20-16C365.71,407.75,373.68,402.55,384.5,397.5z"/>
	<path class="st3" d="M299.5,473.5"/>
	<path class="st11" d="M365,522c27.67-5,55.33-10,83-15"/>
	<path class="st11" d="M371,545c35.33-0.33,70.67-0.67,106-1"/>
	<path class="st11" d="M363,572c26.67,8.67,53.33,17.33,80,26"/>
	<path class="st0" d="M584,344"/>
	<path class="st8" d="M569,346c0.49,0.09,1.32,0.32,2,1c1.27,1.26,1.09,3.14,1,4c-0.34,3.45-3.33,5.55-4,6"/>
	<path class="st8" d="M571.5,366.5c3-5,6-10,9-15c0.25-0.14,2.18-1.19,2-2c-0.14-0.63-1.5-0.81-3-1c-2.07-0.26-3.54-0.44-5,0
		c-1.43,0.43-2.49,1.35-5,5c-4.1,5.97-6.15,8.96-5,11c0.72,1.27,2.4,1.81,3,2C569.36,367.09,570.94,366.68,571.5,366.5z"/>
	<path class="st8" d="M572.5,363.5c0.56,0.8,1.51,1.97,3,3c0.83,0.57,1.37,0.94,2,1c2.17,0.19,4.14-3.47,5-5
		c1.78-3.17,4.55-7.55,9-13c0.02-0.24,0.16-1.9-1-3c-1.48-1.4-4.06-0.37-5,0c-3.04,1.19-4.5,3.92-5,5"/>
	<path class="st8" d="M582.5,349.5"/>
	<path class="st8" d="M595.79,346.68c-0.81,0.22-3.58,1.01-6.29,2.82c-1.34,0.9-6.17,4.13-7,9c-0.25,1.49-0.06,2.67,0,3
		c0.14,0.75,0.58,3.17,2,4c2.31,1.35,5.42-1.94,8-4c1.87-1.5,4.31-4.5,6-8c0.41-0.86,0.69-4.6,0-6
		C597.71,345.88,595.9,346.65,595.79,346.68z"/>
	<path class="st8" d="M595.61,358.42c-1.73,1.14-2.22,3.5-1,5.17c0.24,0.33,0.53,0.64,0.89,0.92c1.65,1.29,3.64,1.05,4,1
		c4.87-0.68,7.34-8.14,8-12c0.35-2.01,0.91-5.33-1-7c-1.1-0.96-2.58-1-3-1c-0.18,0-0.35,0.01-0.51,0.03
		c-1.93,0.22-3.26,2.05-3.06,3.98c0.12,1.1,0.08,2.49-0.43,3.99C598.67,355.95,596.99,357.5,595.61,358.42z"/>
	<path class="st12" d="M606,346c0.04,0.39-0.01,1.89,0,3c0.01,2.41-0.52,5.71-1,7c-0.42,1.14-2.35,6.33-6,7
		c-1.87,0.34-4.74-0.59-5,0c-0.17,0.39,4.21,2.13,4.5,2.5c0,0,2.82-0.51,4-2c1.72-2.16,2.58-3.24,3-4c0.57-1.03,2.5-5.77,2.5-10.5
		C608,347,606.61,346.33,606,346z"/>
	<path class="st12" d="M608,348c-0.06-0.02,0.87-1,2-1c1,0,2.01-0.09,3,1c0.46,0.51,0.88,1.28,1,3c0.29,4.21-1.69,6.51-2,7
		c-0.85,1.37-3.16,5.09-6,5c-0.85-0.03-1.73-0.4-2,0c-0.29,0.42,0.24,1.46,1,2c1.3,0.93,3.14,0.3,4,0c0.58-0.2,2.73-0.91,4-3
		c0.31-0.52,1.59-6.15,2-9c0.24-1.66,0.36-2.7,0-4c-0.17-0.62-0.38-1.35-1-2c-1-1.05-2.76-1.57-4-1
		C608.41,346.73,608.08,348.03,608,348z"/>
	<path class="st12" d="M614,347c0.29-0.34,1.73-1.95,4-2c0.46-0.01,1.11-0.05,2,1c0.79,0.93,1.42,2.06,1,5c-0.23,1.59-0.78,5.4-1,9
		c-0.13,2.15-0.1,3.39-1,4c-0.82,0.55-1.92,0.27-3,0c-0.65-0.16-3.51-0.63-4-2c-0.05-0.14,0.74-0.71,1-1c0.32-0.36,1.03,0.1,2,0
		c0.85-0.09,1.44-0.55,2-1c0.23-0.19,1.42-1.16,2-3c0.6-1.91,0.7-5.09,1-8c0.18-1.8-0.87-1.94-1-2c-0.56-0.28-2.39-0.38-3,0
		c-0.6,0.37-1.61,1.97-2,2C613.67,349.03,614.33,347.63,614,347z"/>
	<path class="st8" d="M619.5,347.5c0.95-0.35,3.81-1.26,5.5-1.5c1.12-0.16,1.69-0.23,2,0c0.94,0.7,0.12,2.71,0,7
		c-0.02,0.88-0.01,1.58,0,2"/>
	<path class="st13" d="M627.5,347.5c0.17-0.37,0.74-1.47,2-2c1.2-0.5,2.31-0.19,3,0c0.93,0.26,1.6,0.7,2,1"/>
	<path class="st14" d="M566.5,364.5c0.14,0.26,0.44,0.73,1,1c0.75,0.36,1.49,0.15,2,0c0.87-0.26,2.4-0.7,4-2
		c-0.68,2.24-0.68,2.51-1,3c-1.02,1.59-4.26,2.26-6,2c-0.56-0.08-1.71-0.26-2-1C564.19,366.7,564.94,365.43,566.5,364.5z"/>
	<path class="st14" d="M574.5,361.5c-0.15,0.15-1.41,1.53-1,3c0.24,0.89,0.96,1.34,2,2c1.04,0.66,2,1.27,3,1c0.28-0.07,0.52-0.2,2-2
		c1.55-1.87,1.82-2.38,2-3c0.17-0.57,0.4-1.78,0-2c-0.39-0.21-0.05,0.7-2,2c-0.97,0.64-2.46,1.97-3,2
		C576.09,364.59,574.95,362.14,574.5,361.5z"/>
	<path class="st14" d="M583.5,360.5c-0.05,2.1,0.79,2.83,1,3c1.51,1.19,5.98,0.31,9-3c-0.17,0.51-1.47,1.23-2,2
		c-0.4,0.58-1.67,2.37-4,3c-0.81,0.22-1.89,0.51-3,0c-1.5-0.69-2.61-2.66-2-4C582.74,360.98,583.18,360.67,583.5,360.5z"/>
	<path class="st4" d="M421,353c0.88-2.88-0.02-6.66,2-8c0.26-0.17,0.76-0.43,1-1c0.42-0.98-0.07-2.46-1-3c-1.13-0.66-2.64,0.21-4,1
		c-2.81,1.62-4.36,3.92-5,5c-1.6,2.69-1.92,5.15-2,6c-0.16,1.68-0.51,5.21,1,6C414.84,359.96,419.77,357.04,421,353z"/>
	<path class="st4" d="M434,344c-0.3-0.68-1.24-2.62-3-3c-2.58-0.56-5.09,2.61-6,5c-1,2.65-0.31,5.09,0,6"/>
	<path class="st4" d="M424,344c-0.33,2.67-0.67,5.33-1,8"/>
	<path class="st4" d="M418,342c-0.06-0.68-0.33-3.02-2-4c-2.45-1.45-5.93,1.19-7,2c-3.06,2.32-5.7,6.58-5,11c0.17,1.07,0.7,4.44,3,5
		c1.66,0.41,3.75-0.78,5-3"/>
	<path class="st9" d="M399.5,351.5c-0.18-0.57-1.45-4.75,1-8c2.11-2.8,6.25-3.94,7-3c0.42,0.52-0.15,1.72-1,3
		c-0.87,0.19-2.48,0.67-4,2C399.95,347.74,399.57,350.74,399.5,351.5z"/>
	<path class="st9" d="M409.5,337.5c2.39,1.99-4-1.89-7-2c-5-0.19-8.77,4.5-9,5c-0.58,1.29-2.87,5.57-1,8.41c1.68,2.56,6.4,3.03,11,0
		c0.36,0.48,1.4,1.99,1,3.35c-0.6,2.07-4.05,2.2-5,2.23c-0.79,0.03-6.56,0.24-9-4.47c-2.2-4.23,0.78-7.81,3-10.53
		C397.26,334.91,403.5,332.5,409.5,337.5z"/>
	<path class="st4" d="M399.5,335.5c-0.38-0.67-1.97-3.32-5-4c-2.72-0.61-4.92,0.73-7,2c-2.46,1.5-5.69,3.47-6,7
		c-0.23,2.61,1.16,5.94,4,7c1.68,0.63,3.26,0.24,4,0"/>
	<path class="st15" d="M390,349c-0.73,0.18-3.95,0.89-7-1c-0.51-0.31-2.73-2.02-2-6c0.43-2.34,1.41-5.27,4-6
		c-0.33,0.4-4.14,4.81-3,8c0.62,1.74,2.19,2.79,4,4C387.57,349.05,389.02,348.66,390,349z"/>
	<path class="st4" d="M391,331c-0.27-0.81-1.26-3.52-4-5c-3.15-1.7-6.37-0.57-8,0c-1.62,0.57-5.6,1.96-7,6c-0.85,2.47-0.96,6.56,2,9
		c2.14,1.76,5.22,2.13,8,1"/>
	<path class="st4" d="M384,324c-0.38-0.67-1.96-3.25-5-4c-2.27-0.56-4.11,0.21-6,1c-1.63,0.68-5.17,2.16-7,6
		c-0.7,1.47-1.89,3.71-1,6c0.91,2.37,3.67,3.95,7,4"/>
	<path class="st4" d="M379,319c0.11-0.97,0.15-2.81-1-4c-1.95-2.02-5.9-0.7-8,0c-1.66,0.56-5.75,1.93-8,6c-0.75,1.35-2.37,4.31-1,7
		c1.07,2.09,3.32,2.81,4,3"/>
	<path class="st4" d="M375,313c-0.01-0.86-0.17-2.07-1-3c-0.9-1.01-2.36-1.41-7-1c-6.31,0.55-9.46,0.83-11,3
		c-1.5,2.12-1.07,4.61-1,5c0.53,2.81,2.85,5.13,6,6"/>
	<path class="st4" d="M372,309c0.27-0.93,0.68-2.85,0-5c-1.08-3.42-4.26-5.43-7-6c-5.54-1.15-9.67,3.5-11,5c-1,1.13-2.04,2.34-2,4
		c0.08,3.05,3.71,4.86,4,5"/>
	<path class="st6" d="M358,308c0.77-0.39,1.78-0.78,3-1c3.21-0.57,5.84,0.45,7,1"/>
	<path class="st6" d="M366,327c-0.19,0.45-0.25,4.07,1,7c1.16,2.71,2.99,1.28,3.5,1.5"/>
	<path class="st6" d="M358,299c-1.81-0.25-3.36-1.39-4-3c-0.82-2.07-0.03-4.6,2-6c4.62,1.35,8.39,2.34,11,3c3.06,0.78,4.94,1.2,5,2
		c0.09,1.13-3.5,2.3-6,3"/>
	<path class="st7" d="M372.4,295.36c0.24-0.14,0.54,0.05,0.5,0.33c-0.54,3.36-1.28,4.22-1.9,4.31c-1.12,0.17-3-2-3-2l0,0
		C368,298,369.7,296.98,372.4,295.36z"/>
	<path class="st6" d="M356.93,291.05c-0.64-0.04-1.21-0.41-1.51-0.98c-0.4-0.78-0.79-1.93-0.42-3.07c0.79-2.47,4.43-2.94,5-3
		c3.87-0.43,4.46,2.4,10,3c1.11,0.12,2.26,0.13,3,1c0.87,1.02,0.93,2.91,0,4c-0.49,0.57-1.24,0.9-3,1c-2.98,0.17-5.12-0.53-7-1
		C361.56,291.64,359.51,291.23,356.93,291.05z"/>
	<path class="st6" d="M373,296"/>
	<path class="st6" d="M373,295c0-1,0-2,0-3"/>
	<path class="st16" d="M367.65,274.05l-2.66-1.49c-0.62-0.35-1.37-0.35-1.99-0.02l-2.09,1.12c-0.67,0.36-1.09,1.06-1.09,1.82v0.46
		c0,0.59,0.26,1.16,0.7,1.55l5.15,4.54c0.15,0.13,0.31,0.24,0.48,0.32l5.29,2.5c0.86,0.4,1.87,0.18,2.48-0.55l0,0
		c0.63-0.76,0.63-1.85,0.02-2.61l-5.7-7.12C368.09,274.36,367.88,274.18,367.65,274.05z"/>
	<path class="st17" d="M363,280c-0.78,2.23-0.43,3.37,0,4c1.49,2.16,5.4,0.23,9,3c0.58,0.44,1.14,1,2,1c1.33,0,2.92-1.35,3-3
		c0.08-1.66-1.39-3.19-2-3c-0.64,0.2,0.04,2.17-1,3c-1.06,0.84-3.15-0.12-5-1C367.46,283.27,365.31,282.05,363,280z"/>
	<path class="st16" d="M370.94,264.56c-0.66-0.28-1.35,0.75-1.94,1.44c-1.84,2.17-1.21,5.05-1,6c0.18,0.84,0.49,1.63,2,4
		c2.82,4.43,4.23,6.64,6,7c1.83,0.37,4.1-0.43,5-2c0.73-1.28-4.61-8.78-5-10C374.59,266.53,372,265,370.94,264.56z"/>
	<path class="st16" d="M380,259c-1.13-0.82-2.89-0.67-4,0c-1.53,0.93-1.83,2.83-2,4c-0.64,4.48,1.74,9.09,5,12
		c1.8,1.61,4.42,3.96,7,3c2.28-0.85,3.81-4.02,3-6c-1.01-2.46-4.86-1.16-7-4C379.64,264.87,382.36,260.71,380,259z"/>
	<path class="st16" d="M391,256c-1.03-0.87-2.83-0.71-4,0c-1.67,1.01-1.89,3.05-2,4c-0.32,2.9,1.13,5.13,3,8
		c1.69,2.59,2.66,4.09,4,4c1.48-0.1,2.93-2.11,3-4c0.09-2.35-2.01-2.71-3-6C391.06,258.87,392.34,257.13,391,256z"/>
	<path class="st17" d="M382,260C382.84,260.08,382,260,382,260c3.33,2.1,5,8,6,10c0.78,1.55-2.31-0.36-4-2
		C381.93,265.99,379.71,263.14,382,260z"/>
	<path class="st16" d="M399,252c-1.87-0.54-5.29,3.06-6,7c-0.81,4.5,1.88,9.69,6,11c2.07,0.66,5.12,0.54,6-1
		c0.87-1.52-1.11-3.17-3-8C399.77,255.29,400.53,252.44,399,252z"/>
	<path class="st17" d="M401,253c1.33,1,2.67,2,4,3c-0.33,3-0.67,6-1,9C403,261,402,257,401,253z"/>
	<path class="st16" d="M411,251c-1.57-0.74-4.53,1.53-6,4c-3.11,5.25-0.89,13.78,3,15c2.01,0.63,4.73-0.62,5-2
		c0.31-1.58-2.76-2.38-3-5c-0.17-1.83,1.25-2.27,2-5C412.71,255.41,412.56,251.73,411,251z"/>
	<path class="st16" d="M423,252c-0.57-0.86-2.7-0.51-4,0c-2.87,1.12-4.1,3.94-5,6c-1.29,2.95-2.86,6.54-1,9c1.15,1.52,3.24,2.14,5,2
		c0.43-0.03,3.13-0.25,4-2c1.13-2.27-2.27-4.16-2-8C420.26,255.22,423.83,253.24,423,252z"/>
	<path class="st16" d="M432,252c-1.56-1.07-4.61,0.87-6,2c-4.73,3.86-6.98,12.12-4,15c1.87,1.81,5.89,1.6,7,0
		c0.78-1.13-0.43-2.16,0-5c0.3-1.99,1.21-3.6,2-5c1.16-2.06,1.9-2.56,2-4C433.01,254.8,433.13,252.77,432,252z"/>
	<path class="st16" d="M441,254c-0.74-1.33-5.13-1.18-8,1c-5.2,3.95-4.54,13.89-2,15c1.21,0.53,2.9-0.92,3-1c1.7-1.48,1.41-3.52,2-6
		C437.34,257.31,441.82,255.47,441,254z"/>
	<path class="st16" d="M413,253c1.3,0.18,2.27,0.73,2,1c-2,2-0.49,5.79-4,9C411.67,260,412.33,256,413,253z"/>
	<path class="st18" d="M448.5,255.5c-1.51-0.02-5.61,0.11-9,3c-4.34,3.7-5.87,10.51-4,12c1.61,1.28,5.66-1.43,8-3
		c2.29-1.53,7.71-5.16,7-9C450.25,257.15,449.32,256.15,448.5,255.5z"/>
	<path class="st18" d="M455.5,255.5c-2.61-0.44-4.78,4.15-8,8c-2.46,2.94-4.22,3.1-4,6c0.03,0.36,0.24,3.15,2,4
		c2.06,0.99,4.91-1.31,7-3c2.88-2.33,7.16-7.59,6-12C458.01,256.65,457.4,255.82,455.5,255.5z"/>
	<path class="st3" d="M444.5,256.5c-5.54,6.93-8.45,9.35-9,9c-0.56-0.35,1.16-3.59,2-5C439.68,256.86,444.03,256.53,444.5,256.5z"/>
	<path class="st3" d="M435.5,270.5c0.08,0.65,1.3,1.64,2,2c1.96,1.01,6.31-3.54,6-4c-0.18-0.26-2.03,0.57-3,1
		c-1.01,0.45-1.78,1.9-3,2C437.08,271.54,435.73,270.52,435.5,270.5z"/>
	<path class="st18" d="M451.5,271.5c0.05,0.62,0.31,2.79,2,4c2.16,1.54,5.08,0.37,6,0c4.86-1.96,6.41-7.4,8-13
		c0.51-1.8,0.74-3.19,0-4c-1.28-1.4-4.59-0.16-5,0c-1.75,0.67-2.84,1.79-4,3c-1.18,1.24-1.83,2.22-3,4
		C454.65,266.78,453.29,268.84,451.5,271.5z"/>
	<path class="st3" d="M453.5,270.5c-1.44,0.19-1.63-0.07-2,1c-0.53,1.54,0.79,3.27,2,4c2.88,1.74,8.12-0.18,10-3c2-3,4-9,4-9
		c-0.28-0.16-1.83,5.66-6,8c-0.94,0.53-4.27,3.4-6,2C454.53,272.72,453.47,271.25,453.5,270.5z"/>
	<path class="st3" d="M466.5,265.5c1-2,7.43-4.25,8-4c1.08,0.49,1.2,0.63,1,2c-0.1,0.65-3.32,4.5-5,7c-0.47,0.7-4.06,4.89-5,5
		c-1.34,0.15-2.46-0.58-3-1c-0.19,0.01-1.62,0.13-2,1c-0.43,1.01,0.79,2.46,2,3c1.96,0.88,4.19-0.5,5-1c1.28-0.79,2.05-1.72,3-3
		c2.09-2.82,3.47-4.68,5-8c1.88-4.1,1.11-4.77,0-6c-1.18-1.31-3.31-0.24-4,0C468.65,261.48,467.08,264.6,466.5,265.5z"/>
	<path class="st18" d="M467.5,277.5c1.88,1.01,4.46,2.07,6,1c1.59-1.1,0.4-3.31,2-6c2.2-3.7,6.86-3.52,7-6c0.05-0.84-0.44-1.62-1-2
		c-1.29-0.89-3.75-0.2-6,2"/>
	<path class="st18" d="M474.5,277.5c-0.17,0.45-1.07,3,0,4c1.17,1.1,4.37-0.01,6-2c1.76-2.14,0.29-3.57,2-6c1.71-2.42,4.12-2.33,5-5
		c0.14-0.41,0.48-1.45,0-2c-0.65-0.74-2.59-0.33-5,1"/>
	<path class="st3" d="M482.5,267.5c-1.4,1.32-3.26,3.29-5,6c-1.87,2.9-2.63,5.12-3,5c-0.38-0.13-0.07-2.7,1-5
		c0.78-1.68,1.75-2.73,2-3C479.3,268.59,481.38,267.82,482.5,267.5z"/>
	<path class="st18" d="M481.5,277.5c-0.91,0.76-1.3,2.94-1,4c0.4,1.41,1.93,2.27,3,2c0.65-0.16,1.09-0.72,2-3
		c1.67-4.17,1.02-4.4,2-6c1.44-2.35,3.16-2.4,4-5c0.45-1.39,0.11-1.86,0-2c-0.49-0.58-2.68,0.41-4,1"/>
	<path class="st3" d="M480.5,280.5c-0.24,0.76-0.46,1.9,0,3c0.51,1.22,1.5,1.5,4,3c3.52,2.11,3.44,2.67,5,3c2.41,0.51,4.96-0.33,5-1
		c0.02-0.41-1.32-0.95-4-2c-2.67-1.05-3.38-1.14-4-2c-0.93-1.29-0.72-3-1-3c-0.26,0-0.13,1.42-1,2c-0.77,0.51-1.84,0.07-2,0
		C480.82,282.81,480.52,280.66,480.5,280.5z"/>
	<path class="st3" d="M485.5,280.5c0,0.83,0,1.67,0,2.5"/>
	<path class="st3" d="M474.5,278.5c0.18,1.34,0.63,1.81,1,2c0.38,0.19,0.67,0.08,2,0c1.31-0.08,1.97-0.12,2,0
		c0.07,0.28-2.45,2.03-4,1C474.68,280.96,474.31,279.77,474.5,278.5z"/>
	<path class="st18" d="M491.5,270.5c0.3-1.03,1.07-1.82,2-2c1.45-0.29,2.92,0.94,3,2c0.1,1.27-1.88,1.55-4,4
		c-1.74,2.01-2.4,4.12-3,6c-0.71,2.25-0.96,4.32-1,6"/>
	<path class="st18" d="M492.5,287.5c-0.32-1.23-0.7-3.45,0-6c0.86-3.12,2.85-4.96,4-6c1.87-1.68,3.77-2.55,5-3
		c-1.67-0.67-3.33-1.33-5-2"/>
	<path class="st18" d="M495.5,288.5c-0.1-0.49-0.53-2.97,1-5c1.07-1.42,2.52-1.86,3-2c0.47-0.14,0.79-0.17,1,0
		c0.32,0.27,0.16,0.86,0,2c-0.22,1.63-0.33,2.45,0,3c0.15,0.25,0.6,0.83,2,1"/>
	<path class="st18" d="M500.5,272.5c1.87,0.34,3.82,0.93,4,2c0.08,0.47-0.25,0.6-1,2c-1.08,2.02-0.91,2.74-2,4
		c-0.61,0.7-0.76,0.6-1,1c-0.52,0.88-0.47,2.55,2,6"/>
	<g>
		<g>
			<path d="M499.72,282.18c0,0.8,0,1.61-0.01,2.41c0,0.47,0.03,0.92,0.11,1.38c0.07,0.39,0.18,0.76,0.24,1.15
				c-0.02-0.13-0.04-0.27-0.05-0.4c0.03,0.23,0.04,0.46,0.04,0.69c-0.01,0.78,0.69,1.54,1.5,1.5c0.82-0.04,1.49-0.66,1.5-1.5
				c0.01-0.8-0.22-1.55-0.34-2.33c0.02,0.13,0.04,0.27,0.05,0.4c-0.07-0.53-0.04-1.07-0.04-1.6c0-0.56,0-1.13,0-1.69
				c0-0.78-0.69-1.54-1.5-1.5C500.41,280.72,499.72,281.34,499.72,282.18L499.72,282.18z"/>
		</g>
	</g>
	<g>
		<g>
			<path d="M500.55,280.38c-0.11,0.13-0.23,0.27-0.32,0.42c-0.02,0.03-0.03,0.06-0.04,0.08c-0.06,0.13-0.12,0.27-0.17,0.4
				c-0.08,0.22-0.09,0.47-0.11,0.7c-0.02,0.24,0.01,0.49-0.02,0.74c0.02-0.13,0.04-0.27,0.05-0.4c-0.01,0.08-0.03,0.16-0.05,0.24
				c-0.06,0.2-0.07,0.4-0.03,0.6c0.01,0.2,0.07,0.39,0.18,0.56c0.09,0.17,0.22,0.32,0.39,0.42c0.14,0.13,0.31,0.22,0.51,0.27
				c0.13,0.02,0.27,0.04,0.4,0.05c0.27,0,0.52-0.07,0.76-0.2c0.1-0.08,0.2-0.16,0.3-0.23c0.19-0.19,0.31-0.41,0.39-0.66
				c0.07-0.2,0.09-0.44,0.11-0.65c0.01-0.09,0.01-0.19,0.01-0.28c0-0.18-0.01-0.36,0.01-0.53c-0.02,0.13-0.04,0.27-0.05,0.4
				c0.01-0.09,0.03-0.17,0.06-0.25c-0.05,0.12-0.1,0.24-0.15,0.36c0.02-0.06,0.05-0.11,0.09-0.16c-0.08,0.1-0.16,0.2-0.23,0.3
				c0.01-0.01,0.02-0.02,0.03-0.04c0.15-0.14,0.25-0.3,0.31-0.48c0.09-0.18,0.14-0.37,0.13-0.58c0.01-0.21-0.04-0.4-0.13-0.58
				c-0.06-0.19-0.16-0.35-0.31-0.48c-0.29-0.26-0.66-0.46-1.06-0.44c-0.13,0.02-0.27,0.04-0.4,0.05
				C500.96,280.07,500.74,280.2,500.55,280.38L500.55,280.38z"/>
		</g>
	</g>
	<g>
		<g>
			<path d="M500.1,281.55c0.1,2.11,0.16,4.23,0.49,6.32c0.05,0.35,0.4,0.73,0.69,0.9c0.32,0.19,0.8,0.27,1.16,0.15
				c0.36-0.12,0.71-0.34,0.9-0.69c0.2-0.38,0.22-0.74,0.15-1.16c-0.01-0.04-0.07-0.49-0.04-0.26c0.03,0.23-0.02-0.15-0.02-0.2
				c-0.03-0.25-0.05-0.5-0.08-0.75c-0.04-0.48-0.07-0.96-0.1-1.44c-0.05-0.96-0.1-1.92-0.14-2.88c-0.04-0.78-0.66-1.54-1.5-1.5
				C500.82,280.08,500.06,280.71,500.1,281.55L500.1,281.55z"/>
		</g>
	</g>
	<path class="st18" d="M504.5,274.5c0.91-0.32,2.56-0.72,4,0c0.26,0.13,1,0.5,1,1c0,0.46-0.63,0.73-1,1c-1.57,1.14-1.27,4.26-1,7
		c0.12,1.22,0.38,2.95,1,5"/>
	<path class="st18" d="M509.5,274.5c0.78-1.08,2.06-2.61,4-4c1.97-1.41,3.37-2.42,5-2c1.75,0.45,3.23,2.42,3,4
		c-0.17,1.16-1.15,1.44-4,4c-1.72,1.55-2.59,2.32-3,3c-1.88,3.1,0.78,8,2,10"/>
	<path class="st3" d="M521.5,273.5c-0.69,0.22-4.46,2.18-6,5c-0.27,0.5-1.02,2-1,4c0.01,0.99,0.34,2,1,4c0.12,0.36,0.39,1.15,1,2
		c0.14,0.19,0.79,1.1,1,1c0.28-0.14-0.81-1.83-1-4c-0.18-2.04,0.55-3.69,2-7C519.23,276.84,520.94,274.49,521.5,273.5z"/>
	<path class="st18" d="M521.5,272.5c0.7-0.56,1.71-1.28,3-2c1.09-0.6,2.78-1.54,5-2c1.58-0.33,5.23-1.09,8,1c0.4,0.3,2.32,1.74,2,3
		c-0.39,1.56-3.73,0.93-8,3c-1.2,0.58-4.19,2.03-6,5c-2.42,3.97-1.41,8.48-1,10"/>
	<path class="st18" d="M534.5,274.5"/>
	<path class="st3" d="M538.5,273.5c-5.05,2.25-8.22,5.11-10,7c-2.09,2.22-4.66,5.04-4,8c0.2,0.88,0.64,1.55,1,2
		c-0.48-1.14-1.21-3.29-1-6c0,0,0.17-2.13,1-4C527.15,276.79,532.24,274.01,538.5,273.5z"/>
	<path class="st3" d="M538.5,273.5c1.47,0.44,4.13,0.48,6,3c2.4,3.25,2.13,7.12,2,9c-0.38,5.54-3.1,8.2-2,13
		c0.11,0.47,0.45,1.98,1,2c0.44,0.02,0.9-0.93,2-5c1.1-4.07,1.65-6.11,2-9c0.42-3.48,0.62-5.25,0-7c-1.04-2.91-3.27-4.49-4-5
		C542.58,272.48,539.57,273.46,538.5,273.5z"/>
	<path class="st19" d="M529,292c0.23-2.49,0.64-4.52,1-6c0.64-2.62,0.98-3.94,2-5c1.74-1.8,4.16-1.95,5-2c0.69-0.04,4.44-0.27,6,2
		c0.57,0.83,0.37,1.3,0,6c-0.34,4.31-0.4,6.69-2,9c-0.48,0.69-0.75,0.88-1,1c-1.77,0.84-5.05-0.96-7-3c-0.64-0.67-1.53-1.79-3-2
		C529.59,291.94,529.24,291.97,529,292z"/>
	<path class="st20" d="M536.5,280.5c-0.93,0.49-2.36,2.18-3.5,4.5c-0.92,1.86-1.88,5.55,0,7c1.08,0.83,2.33,0.21,3.5-0.5
		c1.4-0.85,1.19-3.87,1.5-5.5C538.17,285.11,536.76,280.7,536.5,280.5z"/>
	<path class="st9" d="M906.72,421.72c-1.51-1.51-4.1-0.4-4.05,1.73c0.29,12.37,0.11,22.89-0.17,31.04c-0.78,21.97-2.4,28.29-5,34
		c-4.72,10.34-11.94,19.09-17,23c8-6,13.85-10.85,16-13c6.02-6.02,8.17-10.69,8.94-13.76c0.04-0.16,0.06-0.33,0.07-0.5
		c0.65-20.24,1.31-40.48,1.96-60.72c0.02-0.66-0.23-1.29-0.69-1.75C906.76,421.76,906.74,421.74,906.72,421.72z"/>
	<g>
		<g>
			<path d="M902.28,419.41c0.03,0.12,0.05,0.24,0.08,0.36c0.02,0.11,0.01,0.07-0.02-0.14c0.01,0.05,0.01,0.11,0.02,0.16
				c0.02,0.23,0.03,0.46,0.03,0.69c0.01,0.45,0.01,0.9,0.01,1.35c0,0.92-0.01,1.84-0.06,2.76c-0.04,0.78,0.72,1.54,1.5,1.5
				c0.85-0.04,1.46-0.66,1.5-1.5c0.05-0.95,0.06-1.91,0.06-2.87c0-1.04,0.04-2.1-0.22-3.11c-0.2-0.76-1.08-1.29-1.85-1.05
				C902.55,417.82,902.07,418.6,902.28,419.41L902.28,419.41z"/>
		</g>
	</g>
	<g>
		<g>
			<path d="M902.46,420.23c0.01,0.01,0.03,0.02,0.04,0.04c-0.08-0.1-0.16-0.2-0.23-0.3c0.03,0.03,0.04,0.06,0.06,0.1
				c-0.05-0.12-0.1-0.24-0.15-0.36c0.01,0.04,0.02,0.08,0.03,0.12c-0.02-0.13-0.04-0.27-0.05-0.4c0.09,0.7,0.08,1.42,0.09,2.12
				c0.01,0.73,0,1.45-0.02,2.18c-0.03,0.79,0.71,1.54,1.5,1.5c0.84-0.04,1.47-0.66,1.5-1.5c0.03-0.84,0.03-1.69,0.01-2.53
				c-0.01-0.41-0.03-0.83-0.05-1.24c-0.03-0.65-0.07-1.37-0.6-1.83c-0.3-0.26-0.65-0.44-1.06-0.44c-0.37,0-0.81,0.16-1.06,0.44
				C901.94,418.67,901.83,419.68,902.46,420.23L902.46,420.23z"/>
		</g>
	</g>
	<path class="st14" d="M872.5,398.5c2.58,1.14,5.26,2.46,8,4c9.39,5.27,16.62,11.44,22,17c0.33-0.67,0.67-1.33,1-2
		c-7.67-6-15.33-12-23-18c-2-2-4-4-6-6C873.83,395.17,873.17,396.83,872.5,398.5z"/>
	<path class="st21" d="M769,274c-11.94-0.44-30.49,0.34-51,8c-19.55,7.3-33.03,19.2-60,43c-21.62,19.09-44.8,39.54-55,59
		c-1.1,2.1-4.04,7.98-10,14c-9.11,9.2-19.24,12.62-23,14c-18.39,6.77-46.15,24.6-57,44c-3.71,6.64-12.44,25.96,0,61
		c8.06,8.25,19.15,19.06,33,31c11.02,9.51,25.72,22.18,44,34c15.71,10.16,39.55,23.23,72,33c6.36,3.25,15.94,7.03,28,8
		c3.82,0.31,21.21,1.39,40-8c4.34-2.17,7.73-4.39,10-6c51.33-35.67,102.67-71.33,154-107c3.67-11,7.33-22,11-33
		c0.33-15.33,0.67-30.67,1-46c-2.67-3.33-5.33-6.67-8-10c-8-5.67-16-11.33-24-17c1-12.33,2-24.67,3-37c-0.67-9-1.33-18-2-27
		c-1-3-2-6-3-9c-3.67-4.33-7.33-8.67-11-13c-11-5.33-22-10.67-33-16c-11-4.33-22-8.67-33-13c-5-1.67-10-3.33-15-5
		C776.33,275.33,772.67,274.67,769,274z"/>
	<path class="st4" d="M907.4,424.72c-0.64,20.17-1.28,40.34-1.92,60.51c-2.69,4.94-4.95,9.09-7.64,14.03
		c-55.45,38.41-110.89,76.82-166.34,115.24c-5.22,3.78-19.9,13.33-31.5,10.5c-86-21-113-38-184-104c-9.99-9.28-10.67-31.72-9-61
		c2.5-4.5,9-12.49,14-16c24-16.83,48.5-30.67,72.5-47.5c24.72-34.67,54.39-63.71,73.5-79.5c34.5-28.5,54-41,86-44
		c9.26-0.87,17.37,0.12,36.5,5.5C831,294,860.83,303.9,872,324c15,27,5.98,55.63,1.5,68.5c10.52,8.97,21.03,17.94,31.55,26.91
		C906.6,420.73,907.46,422.69,907.4,424.72z"/>
	<path class="st15" d="M717,596c-0.13,0.01-0.06,1.47-0.06,1.47c0.21,4.45-1.73,8.19-2.94,10.53c-4.26,8.22-12.19,11.66-13,12
		c-7.46,3.11-13.94,1.38-14,2c-0.07,0.77,10.13,4.3,22,3c18.78-2.05,31.53-15.06,31-16c-0.34-0.6-6.28,3.52-14,2
		c-1.76-0.35-3.43-0.68-5-2C716.25,605,717.24,595.98,717,596z"/>
	<path class="st9" d="M636.5,606.5c7.27,3.79,15.96,7.67,26,11c13.95,4.63,26.63,6.9,37,8"/>
	<path class="st9" d="M543.5,429.5c-9.24,7.28-16.16,13.95-21,19c-4.31,4.5-6.92,7.66-7,12c-0.07,4.04,2.04,9.16,6,12
		c4.06,2.92,8.75,2.5,10,6c0.08,0.23,0.53,1.49,0,2c-0.85,0.82-3.41-1.06-8-3c-4.19-1.77-6.29-2.66-8-2c-0.96,0.37-2.94,1.62-4,9
		c-1.66,11.54,1.35,21.04,2,23c3.36,10.21,7.91,15.3,7,16c-0.92,0.7-6.81-3.5-10-10c-0.75-1.53-1.69-3.87-3-17
		c-0.53-5.29-0.79-7.94-1-12c-0.51-10-0.73-15.3,1-22c0.75-2.91,1.36-5.24,3-8c3.46-5.81,8.41-8.33,13-11
		C528.56,440.56,535.45,436.12,543.5,429.5z"/>
	<path class="st9" d="M904.5,432.5c-5.93,4.85-15.24,12.3-27,21c-8.26,6.12-14.16,10.2-48,33c-27.52,18.54-32.52,21.83-39,26
		c-23.28,14.98-33.54,20.6-38,23c-12.67,6.81-23.49,11.76-31,15c-0.36,0.72-0.77,1.74-1,3c-0.3,1.67-0.17,3.08,0,4
		c0.43,1.43,0.26,2.38,0,3c-0.37,0.89-0.93,1.16-1,2c-0.07,0.85,0.41,1.91,1,2c0.86,0.13,1.54-1.86,3-4c1.11-1.63,2.41-2.76,5-5
		c3.27-2.83,10.32-7.69,20-13c10-6.33,20-12.67,30-19c26.67-15.67,53.33-31.33,80-47c15.33-9.33,30.67-18.67,46-28
		C904.5,443.17,904.5,437.83,904.5,432.5z"/>
	<path d="M593.11,398.25c-2.97,3.9-7.27,9.16-12.96,14.92c-9.16,9.27-13.75,13.91-20.93,17.9c-4.37,2.42-9.42,6.3-16.95,11.93
		c-3.99,2.98-3.38,5.27-2.99,5.97c0.68,1.22,3.14,1.05,3.99,0.99c17.01-1.15,58.82-58.67,58.82-58.67
		c6.05-8.33,15.68-21.48,27.91-37.79"/>
	<path class="st22" d="M820.5,338.5c0.45-1.88-2.76-3.88-3-4c-4-2-12.21-1.18-13,2c-0.34,1.36,0.82,2.77,1,3c0.3,0.37,1.47,1.69,5,2
		C813.83,341.8,819.84,341.25,820.5,338.5z"/>
	<path class="st23" d="M809.5,341.5c1.24,0.68,2.94,1.91,4,4c1.36,2.68,1.44,6.32,0,9c-0.65,1.21-1.51,2.04-2,4
		c-0.27,1.06-0.54,2.15,0,3c0.93,1.45,3.61,1.15,5,1c2.12-0.24,5.83-1.21,6-3c0.07-0.7-0.43-1.31-1-2c-1.05-1.28-2.36-1.8-3-2
		c0.33-5,0.67-10,1-15c-1.34,0.41-3.03,0.81-5,1C812.57,341.69,810.87,341.63,809.5,341.5z"/>
	<path class="st23" d="M802.5,355.5c-0.81,0.12-1.84,0.39-2,1c-0.27,1.03,2.05,2.43,3,3c1.92,1.16,5.13,2.63,10,3
		c0.02-1.95-0.51-2.69-1-3c-0.93-0.59-1.83,0.26-4,0c-0.3-0.04-1.61-0.21-3-1C803.91,357.6,802.99,356.33,802.5,355.5z"/>
	<path class="st23" d="M803.5,337.5"/>
	<path class="st23" d="M804.5,337.5"/>
	<path class="st24" d="M781.5,379.5c-0.51,8.09-3.45,16.45-10,28c-10.11,17.84-25.62,26.27-38,33c-10.74,5.84-20,10-33,12
		c-23.48,3.61-41.1-7.47-49-12c-8.03-4.61-14.47-8.3-20-16c-13.97-19.45-7.38-43.87-6-49c5.58-20.69,19.49-32.48,26-38
		c20.3-17.21,42.59-20.29,51-21c11.99-1.02,34-1,53,12c11.02,7.54,18.24,18.25,22,28C781.54,366.97,781.29,376.89,781.5,379.5z"/>
	<path class="st14" d="M804.5,357.5h-2v-18.71c0-0.16,0.13-0.29,0.29-0.29h1.71V357.5z"/>
	<path class="st14" d="M780.5,277.5c-6.37,0.54-11.46,1.86-15,3c-6.58,2.12-11.16,3.6-15,8c-1.08,1.23-4.44,5.19-5,11
		c-0.63,6.54,2.34,11.81,5,15c10,12,22.35,17.46,30,20c4.83,1.6,12.35,3.58,22,4c-16.25-1.94-29.18-8.06-35-12
		c-7.25-4.91-16.61-11.26-17-21c-0.24-6.13,4.17-11.88,5-13c0.87-1.18,5.62-4.97,17-8c13.78-3.67,24.84-1.03,25-2
		C797.59,281.98,794.48,280.72,780.5,277.5z"/>
	<path class="st14" d="M874.5,330.5c-9.66,7.01-8.58,6.87-24,18c-18,13-49.76,40.22-72,66c-20.94,24.27-37.08,48.47-44,60
		c-7.2,11.99-5.03,11.66-11,18c-3.8,4.04-10.85,17.43-14,22c-0.44,0.63-1.52,3.2-1,4c0.54,0.84,1.66,0.59,3,0
		c3.51-1.53,5.37-7.52,6-10c0.8-3.18,1.66-7.05,12-21c7.38-9.96,12.53-21.1,20-31c21.03-27.85,17.96-22.9,29-37
		c14.85-18.98,25.88-26.78,33-34c0,0,7.56-7.66,28-22c4.98-3.49,13.55-8.18,21-8c1.96,0.05,4.8-0.78,9,4c3.58,4.08,4.39,11.39,4,22
		c-0.21,5.68-1.22,12.94-1.32,13.66c-0.26,1.87-0.28,1.7-0.68,4.34c-1.81,11.93-1.72,16.2-1,20c0.72,3.82,1.72,5.24,3,6
		c1.7,1.01,3.28,2.08,4,1c1.06-1.58-1.88-5-4-11c-1.58-4.47-1.87-8.78-1-14c0.63-3.81,1.52-6.49,2-8c3.51-11.09,4.47-21.35,5-27
		c0.66-7.09,1.22-13.06,0-21C878.38,338.22,876.24,334.42,874.5,330.5z"/>
	<path class="st14" d="M836.5,297.5c0.03-0.06,6.28,2.47,10,7c1.03,1.25,4.14,5.41,4,11c-0.17,6.93-5.22,11.49-8,14
		c-8.16,7.37-23,8-22,8c0.5,0.14,0,1,0,1c1.17,0.25,4.38-0.08,6,0c10.51,0.51,24.45-5.3,28-17c0.6-1.99,1.93-7.5-1-15
		C840.69,300.18,836.48,297.55,836.5,297.5z"/>
	<path class="st14" d="M795.5,282.5c8.02,2.01,17.17,4.87,27,9c8.37,3.52,15.71,7.32,22,11"/>
	<path class="st25" d="M664.5,328.5c-5.01,2.65-22.59,12.25-33,33c-3.78,7.55-12.23,24.38-6,43c6.05,18.09,22.1,26.42,29,30
		c25.33,13.15,50.93,6.19,58,4c0.33-8,0.67-16,1-24c0.33-1.33,0.67-2.67,1-4c1.33-0.33,2.67-0.67,4-1c4.67,7.67,9.33,15.33,14,23
		c5.48-2.24,12.18-5.67,19-11c14.32-11.19,21-24.74,25-33c2.26-4.66,3.39-6.99,4-10c2.98-14.6-5.93-27.55-9-32
		C753.97,321.08,702.2,308.6,664.5,328.5z"/>
	<path class="st14" d="M612.14,437.1c-1.72-0.4-3.53-0.28-5.19,0.35c-18.34,6.94-32.15,14.93-41.46,21.05
		c-17.44,11.46-21.72,18.1-24,23c-1.08,2.33-5,15-1,29c1.26,4.41,5.01,8.37,7,10c21.11,17.35,31.53,26.27,37,29
		c16,8,19.98,10.76,53,17c2.15,0.41,17.95,2.07,21,0c5.06-3.44,1.94-10.28,6-14c3.27-3,10-4,33,3c9.7,2.95,15.65,4.29,17,2
		c0.93-1.59-0.96-4.18-3-5c-5-2-7.76-2.74-18-5c-8.58-1.89-11.63-6.18-21-8c-5.63-1.09-10.12,3.24-9,1c2-4,5.82-10.99,7-13
		c10-17,11.48-40.68,11-46C679.8,462.49,649.8,445.86,612.14,437.1z"/>
	<g id="numrat">
		<g>
			<path class="st14" d="M766.5,372.18c-5.88-1.09-10.2,3.12-11,3.9c-0.92,0.9-3.98,3.98-4,8.78c0,0.75,0.06,6.16,4,8.78
				c4.92,3.27,12.3-0.21,16-3.9c1.28-1.28,4.47-4.46,4-8.78C775.01,376.45,770.8,372.98,766.5,372.18z"/>
			<path class="st24" d="M768.27,378.35c-4.68-0.83-7.28-1.29-10.13,0c-2.61,1.18-5.14,3.7-5.63,7.11
				c-0.42,2.93,0.68,6.34,3.38,8.13c5.01,3.32,13.54-0.25,16.89-5.08c1.41-2.04,1.85-4.84,0-7.11
				C771.81,380.22,771.37,378.9,768.27,378.35z"/>
			<text transform="matrix(0.5951 0.3585 -0.5349 0.8449 755.0151 393.1657)" class="st26 st27">1</text>
			<path class="st0" d="M759.5,376.08c-0.23-1.1,1.5-2.44,3-2.93c1.73-0.56,3.75-0.17,5,0.98c0.54,0.5,1.28,1.46,1,1.95
				c-0.32,0.56-0.39,0.89-1.5,0.49c-1.23-0.45-2.3-0.99-3-0.98c-1.37,0.02-2.39,1.61-3.5,1.46
				C760.01,376.99,759.59,376.52,759.5,376.08z"/>
		</g>
		<g>
			<path class="st14" d="M765.49,347.18c-5.53-1.09-9.59,3.11-10.35,3.9c-0.86,0.89-5.63,3.98-5.64,8.77c0,0.75,1.94,6.15,5.64,8.77
				c4.63,3.26,11.57-0.21,15.05-3.9c1.21-1.28,4.2-4.45,3.76-8.77C773.5,351.45,769.54,347.98,765.49,347.18z"/>
			<path class="st24" d="M767.15,353.34c-4.4-0.83-6.85-1.29-9.53,0c-2.46,1.18-4.83,3.69-5.29,7.1c-0.4,2.93,0.64,6.33,3.18,8.12
				c4.71,3.31,12.74-0.25,15.88-5.07c1.33-2.04,1.74-4.83,0-7.1C770.49,355.2,770.07,353.89,767.15,353.34z"/>
			<text transform="matrix(0.5698 0.3644 -0.5121 0.8589 753.7458 365.2128)" class="st26 st28">2</text>
			<path class="st0" d="M758.91,351.08c-0.22-1.1,1.41-2.44,2.82-2.92c1.63-0.56,3.53-0.17,4.7,0.97c0.51,0.5,1.21,1.46,0.94,1.95
				c-0.3,0.56-0.37,0.89-1.41,0.49c-1.16-0.45-2.16-0.99-2.82-0.97c-1.29,0.02-2.25,1.61-3.29,1.46
				C759.38,351.99,758.99,351.51,758.91,351.08z"/>
		</g>
		<g>
			<path class="st14" d="M747.22,329.17c-6.35-1.03-11.02,2.93-11.89,3.67c-0.99,0.84-4.31,3.74-4.32,8.25
				c0,0.71,0.07,5.79,4.32,8.25c5.32,3.07,13.3-0.2,17.3-3.67c1.39-1.2,4.83-4.19,4.32-8.25
				C756.42,333.18,751.87,329.92,747.22,329.17z"/>
			<path class="st24" d="M749.13,334.97c-5.06-0.78-7.87-1.21-10.95,0c-2.83,1.11-5.55,3.48-6.09,6.68
				c-0.46,2.75,0.74,5.96,3.65,7.64c5.41,3.12,14.64-0.24,18.26-4.77c1.53-1.92,2-4.54,0-6.68
				C752.96,336.72,752.48,335.48,749.13,334.97z"/>
			<text transform="matrix(0.655 0.343 -0.5887 0.8083 734.7985 347.0553)" class="st26 st29">3</text>
			<path class="st0" d="M739.65,332.84c-0.25-1.03,1.62-2.29,3.24-2.75c1.88-0.53,4.06-0.16,5.41,0.92
				c0.59,0.47,1.39,1.37,1.08,1.83c-0.35,0.52-0.42,0.84-1.62,0.46c-1.33-0.42-2.49-0.93-3.24-0.92c-1.48,0.02-2.58,1.51-3.78,1.38
				C740.2,333.69,739.75,333.24,739.65,332.84z"/>
		</g>
		<g>
			<path class="st14" d="M676.56,415.5c-6.49-1.12-11.26,3.2-12.14,4c-1.01,0.92-4.4,4.08-4.42,9c0,0.77,0.07,6.32,4.42,9
				c5.43,3.35,13.58-0.22,17.66-4c1.41-1.31,4.93-4.57,4.42-9C685.96,419.88,681.31,416.32,676.56,415.5z"/>
			<path class="st24" d="M678.51,421.82c-5.17-0.85-8.03-1.32-11.18,0c-2.88,1.21-5.67,3.79-6.21,7.29
				c-0.47,3.01,0.75,6.5,3.73,8.33c5.53,3.4,14.95-0.26,18.64-5.21c1.56-2.09,2.04-4.96,0-7.29
				C682.42,423.74,681.93,422.39,678.51,421.82z"/>
			<text transform="matrix(0.719 0.1982 -0.3185 0.9479 666.222 435.839)" class="st26 st30">0</text>
			<path class="st0" d="M668.83,419.5c-0.26-1.13,1.65-2.5,3.31-3c1.92-0.57,4.14-0.17,5.52,1c0.6,0.51,1.42,1.5,1.1,2
				c-0.36,0.57-0.43,0.91-1.66,0.5c-1.36-0.46-2.54-1.01-3.31-1c-1.51,0.02-2.64,1.65-3.86,1.5
				C669.39,420.43,668.93,419.95,668.83,419.5z"/>
		</g>
		<path class="st14" d="M653.03,400.2c-6.47-1.21-11.24,3.46-12.12,4.33c-1.01,0.99-4.39,4.42-4.41,9.75c0,0.83,0.07,6.84,4.41,9.75
			c5.42,3.63,13.55-0.23,17.63-4.33c1.41-1.42,4.92-4.95,4.41-9.75C662.41,404.94,657.77,401.09,653.03,400.2z"/>
		<path class="st24" d="M654.98,407.05c-5.16-0.92-8.02-1.43-11.16,0c-2.88,1.31-5.66,4.11-6.2,7.9c-0.47,3.25,0.75,7.04,3.72,9.02
			c5.52,3.68,14.92-0.28,18.61-5.64c1.56-2.26,2.04-5.37,0-7.9C658.88,409.12,658.4,407.66,654.98,407.05z"/>
		<text transform="matrix(0.5919 0.3593 -0.532 0.8467 640.3725 421.3316)" class="st26 st31">9</text>
		<path class="st0" d="M645.32,404.53c-0.26-1.22,1.65-2.71,3.31-3.25c1.91-0.62,4.14-0.19,5.51,1.08c0.6,0.56,1.42,1.62,1.1,2.17
			c-0.35,0.62-0.43,0.99-1.65,0.54c-1.36-0.5-2.53-1.1-3.31-1.08c-1.51,0.03-2.63,1.79-3.86,1.62
			C645.88,405.54,645.42,405.01,645.32,404.53z"/>
		<g>
			<path class="st14" d="M644.47,380.17c-6.84-1.05-11.87,3-12.81,3.75c-1.07,0.86-4.64,3.83-4.66,8.44c0,0.72,0.07,5.93,4.66,8.44
				c5.73,3.14,14.32-0.2,18.63-3.75c1.49-1.23,5.2-4.29,4.66-8.44C654.38,384.28,649.48,380.94,644.47,380.17z"/>
			<path class="st24" d="M646.53,386.11c-5.45-0.8-8.47-1.24-11.8,0c-3.04,1.14-5.98,3.56-6.55,6.84c-0.49,2.82,0.79,6.1,3.93,7.82
				c5.83,3.19,15.77-0.24,19.66-4.89c1.65-1.96,2.15-4.65,0-6.84C650.65,387.9,650.14,386.64,646.53,386.11z"/>
			<text transform="matrix(0.6768 0.3368 -0.6083 0.7937 631.0916 398.4802)" class="st26 st32">8</text>
			<path class="st0" d="M636.32,384.32c-0.27-0.62,1.74-1.38,3.49-1.65c2.02-0.32,4.37-0.1,5.82,0.55c0.63,0.28,1.5,0.83,1.16,1.1
				c-0.37,0.31-0.46,0.5-1.75,0.28c-1.44-0.25-2.68-0.56-3.49-0.55c-1.6,0.01-2.78,0.91-4.08,0.83
				C636.91,384.83,636.42,384.56,636.32,384.32z"/>
		</g>
		<path class="st14" d="M667.5,336.16c-5.88-0.97-10.2,2.76-11,3.46c-0.92,0.79-3.98,3.53-4,7.78c0,0.67,0.06,5.46,4,7.78
			c4.92,2.9,12.3-0.19,16-3.46c1.28-1.13,4.47-3.95,4-7.78C676.01,339.95,671.8,336.87,667.5,336.16z"/>
		<path class="st24" d="M669.27,341.63c-4.68-0.74-7.28-1.14-10.13,0c-2.61,1.05-5.14,3.28-5.63,6.3c-0.42,2.6,0.68,5.62,3.38,7.21
			c5.01,2.94,13.54-0.23,16.89-4.5c1.41-1.81,1.85-4.29,0-6.3C672.81,343.28,672.37,342.12,669.27,341.63z"/>
		<text transform="matrix(0.5597 0.4217 -0.7097 0.7045 655.506 351.9847)" class="st26 st33">6</text>
		<path class="st0" d="M660.5,339.62c-0.23-0.98,1.5-2.16,3-2.59c1.73-0.5,3.75-0.15,5,0.86c0.54,0.44,1.28,1.29,1,1.73
			c-0.32,0.49-0.39,0.79-1.5,0.43c-1.23-0.4-2.3-0.88-3-0.86c-1.37,0.02-2.39,1.43-3.5,1.3C661.01,340.43,660.59,340,660.5,339.62z"
			/>
		<g>
			<path class="st14" d="M650.84,354.5c-6.6-1.12-11.45,3.2-12.35,4c-1.03,0.92-4.47,4.08-4.49,9c0,0.77,0.07,6.32,4.49,9
				c5.53,3.35,13.81-0.22,17.97-4c1.44-1.31,5.02-4.57,4.49-9C660.4,358.88,655.67,355.32,650.84,354.5z"/>
			<path class="st24" d="M652.83,360.82c-5.25-0.85-8.17-1.32-11.38,0c-2.93,1.21-5.77,3.79-6.32,7.29
				c-0.47,3.01,0.76,6.5,3.79,8.33c5.62,3.4,15.2-0.26,18.96-5.21c1.59-2.09,2.07-4.96,0-7.29
				C656.81,362.74,656.31,361.39,652.83,360.82z"/>
			<text transform="matrix(0.634 0.3487 -0.5698 0.8218 637.9445 375.0107)" class="st26 st34">7</text>
			<path class="st0" d="M642.98,358.5c-0.26-1.13,1.68-2.5,3.37-3c1.95-0.57,4.21-0.17,5.61,1c0.61,0.51,1.44,1.5,1.12,2
				c-0.36,0.57-0.44,0.91-1.68,0.5c-1.38-0.46-2.58-1.01-3.37-1c-1.54,0.02-2.68,1.65-3.93,1.5
				C643.55,359.43,643.09,358.95,642.98,358.5z"/>
		</g>
		<g>
			<path class="st14" d="M691.5,321.17c-5.88-1.05-10.2,2.99-11,3.74c-0.92,0.86-3.98,3.81-4,8.41c0,0.72,0.06,5.9,4,8.41
				c4.92,3.13,12.3-0.2,16-3.74c1.28-1.22,4.47-4.27,4-8.41C700.01,325.27,695.8,321.94,691.5,321.17z"/>
			<path class="st24" d="M693.27,327.08c-4.68-0.8-7.28-1.24-10.13,0c-2.61,1.13-5.14,3.54-5.63,6.81
				c-0.42,2.81,0.68,6.07,3.38,7.79c5.01,3.18,13.54-0.24,16.89-4.87c1.41-1.95,1.85-4.63,0-6.81
				C696.81,328.87,696.37,327.61,693.27,327.08z"/>
			<text transform="matrix(0.5205 0.4535 -0.7062 0.708 679.7031 338.2508)" class="st26 st35">5</text>
			<path class="st0" d="M684.5,324.91c-0.23-1.05,1.5-2.34,3-2.8c1.73-0.54,3.75-0.16,5,0.93c0.54,0.48,1.28,1.4,1,1.87
				c-0.32,0.53-0.39,0.85-1.5,0.47c-1.23-0.43-2.3-0.95-3-0.93c-1.37,0.02-2.39,1.54-3.5,1.4
				C685.01,325.78,684.59,325.33,684.5,324.91z"/>
		</g>
		<g>
			<path class="st14" d="M722.5,320.17c-5.88-1.01-10.2,2.87-11,3.59c-0.92,0.82-3.98,3.67-4,8.08c0,0.69,0.06,5.68,4,8.08
				c4.92,3.01,12.3-0.19,16-3.59c1.28-1.18,4.47-4.1,4-8.08C731.01,324.1,726.8,320.9,722.5,320.17z"/>
			<path class="st24" d="M724.27,325.85c-4.68-0.76-7.28-1.19-10.13,0c-2.61,1.09-5.14,3.41-5.63,6.55
				c-0.42,2.7,0.68,5.84,3.38,7.48c5.01,3.06,13.54-0.23,16.89-4.68c1.41-1.88,1.85-4.45,0-6.55
				C727.81,327.56,727.37,326.35,724.27,325.85z"/>
			<text transform="matrix(0.6303 0.3497 -0.5665 0.8241 709.8113 337.0898)" class="st26 st36">4</text>
			<path class="st0" d="M715.49,323.92c-0.17-0.83,1.08-1.85,2.15-2.22c1.25-0.42,2.69-0.13,3.59,0.74c0.39,0.38,0.92,1.1,0.72,1.48
				c-0.23,0.42-0.28,0.67-1.08,0.37c-0.89-0.34-1.65-0.75-2.15-0.74c-0.99,0.02-1.71,1.22-2.51,1.11
				C715.86,324.61,715.56,324.25,715.49,323.92z"/>
		</g>
	</g>
	<path class="st8" d="M715,343c-10.98-1.36-19.6,1.49-24,3c-5.39,1.85-15.28,5.38-23,15c-2.62,3.26-7.04,8.77-8,17
		c-1.37,11.81,5.37,20.82,7,23c9.25,12.36,27.22,17.5,46,14c0-1.33,0-2.67,0-4c1.33-0.33,2.67-0.67,4-1c1.33,0.67,2.67,1.33,4,2
		c2.27-0.45,5.46-1.3,9-3c2.48-1.19,11.56-5.71,17-16c1-1.89,4.5-21.5,1.5-28.5C741.88,349.05,719.67,343.58,715,343z"/>
	<path class="st14" d="M671.61,360.57l-2.08-1.31l-2.82,4.49l2.08,1.31c0.94,0.59,2.17,0.31,2.76-0.63l0.69-1.1
		C672.83,362.39,672.54,361.16,671.61,360.57z"/>
	<path class="st14" d="M741.78,396.61l2.15,1.18l2.55-4.64l-2.15-1.18c-0.97-0.53-2.18-0.18-2.72,0.79l-0.63,1.14
		C740.46,394.86,740.81,396.07,741.78,396.61z"/>
	<path class="st25" d="M713.5,411c0,0.83,0,1.67,0,2.5"/>
	<path class="st14" d="M715.5,439.44c-0.67,2.64-1.33,5.29-2,7.93c-0.64,0.59-1.63,1.36-3,1.98c-1.61,0.73-3.06,0.93-4,0.99
		c0.38,2.3,1.31,3.4,2,3.97c0,0,5.56,4.56,27.92-9.86c0.02-0.01,0.04-0.03,0.08-0.06c0.65-0.6-0.28-2.53-0.78-3.54
		c-0.11-0.22-0.16-0.34-0.22-0.42c-0.72-1.01-2.29-1.03-3-0.99c0-2.31,0-4.63,0-6.94c-1.84,1.29-4.17,2.71-7,3.97
		C721.69,438.15,718.21,439,715.5,439.44z"/>
	<path class="st14" d="M713.5,414.5c0.67,8.33,1.33,16.67,2,25"/>
	<path class="st14" d="M712.5,451c0-4.17,0-8.33,0-12.5"/>
	<path class="st25" d="M780.5,378.5c-1.61,7.33-5.55,20.66-16,34c-11.51,14.7-25.03,21.88-32,25"/>
	<path class="st25" d="M712.5,445.5c-3.87,0.83-9.37,1.75-16,2c-6.72,0.25-23.07,0.86-39-7c-21.24-10.48-30.32-32.39-33-39"/>
	<g>
		<path class="st37" d="M541,506c-0.13-2.11,0.28-6.57,15-19c8.96-7.57,15.64-11.68,26-18c9.15-5.58,11.79-6.58,15-7
			c2.65-0.35,6.86-0.45,20,5c8.78,3.64,9.47,4.75,32,18c3.31,1.95,8.71,5.9,11.5,12.5c0.52,1.22,2.06,14.41,2,17
			c-0.5,20.5,0,37-8.5,44.5c-1.83,1.62-4.71,1.54-10,2c-11.08,0.96-20.04-1.26-26-3c-17.33-5.07-30.21-12.29-42-19
			c0,0-14.59-8.29-30-24C543.93,512.89,541.25,510.03,541,506z"/>
		<path class="st2" d="M570.5,473.37c-0.37,0.28-0.62-2.03-0.45-2.45c1.82-4.65,6.33-13.88,16.45-21.09
			c10.68-7.61,21.55-8.64,25.86-8.82c0.1,0,0.18,0,0.27,0.01c1.4,0.15,3.85,0.45,6.86,0.97c10.9,1.87,44.16,8.85,56,32.52
			c2,4,2.72,6.26,3,7.69c3.04,15.57-5.45,28.96-9.82,34.77c-0.68,0.91-2.01,1.07-2.9,0.34c-0.48-0.39-0.93-0.92-1.28-1.77
			c-1.41-3.42-0.88-12.64-1-13.73c-1-8.83-5.05-11.75-9-16.68c-6.3-7.85-15.28-10.89-22-14.71c-15.11-8.6-27.83-9.8-30.89-9.8
			c-0.08,0-0.15-0.01-0.23,0C583.5,462.58,575.98,469.28,570.5,473.37z"/>
		<path class="st14" d="M597.5,468.5c-1,2-2,4-3,6c-3.67,3-7.33,6-11,9c-2,1.33-4,2.67-6,4c2.33,0.33,4.67,0.67,7,1
			c16.33,9.33,32.67,18.67,49,28c4.67-6.67,9.33-13.33,14-20C630.83,487.17,614.17,477.83,597.5,468.5z"/>
		<path class="st25" d="M591.5,497.5c-4.33-3.33-8.67-6.67-13-10"/>
		<path class="st25" d="M623.5,516.5c3.33,2,6.67,4,10,6c-0.67-2.33-1.33-4.67-2-7"/>
		<path class="st14" d="M633.5,520.5c0-2,0-2,0-4c-0.67-0.33-1.33-0.67-2-1C632.17,517.83,633.5,525.5,633.5,520.5z"/>
		<path class="st14" d="M647.5,496.5c1.33,0.33,2.67,0.67,4,1c-0.67,0.67-1.33,1.33-2,2c-1.33,0-2.67,0-4,0
			C646.17,498.5,646.83,497.5,647.5,496.5z"/>
		<path class="st24" d="M602.5,477.5c-4.33,3.33-8.67,6.67-13,10c13.33,8,26.67,16,40,24c4-4.33,8-8.67,12-13
			C628.5,491.5,615.5,484.5,602.5,477.5z"/>
		<path class="st23" d="M650.5,498.5c-2,2.67-4,5.33-6,8"/>
		<path class="st38" d="M598,475c-4.33,3.67-8.67,7.33-13,11"/>
		<path class="st39" d="M605,476c3.32,1.22,7.05,2.84,11,5c3.01,1.65,5.68,3.35,8,5"/>
	</g>
</g>
</svg>
