<?xml version="1.0" encoding="utf-8"?>
<!-- Generator: Adobe Illustrator 26.4.1, SVG Export Plug-In . SVG Version: 6.00 Build 0)  -->
<svg version="1.1" id="Layer_1" xmlns="http://www.w3.org/2000/svg" xmlns:xlink="http://www.w3.org/1999/xlink" x="0px" y="0px"
	 viewBox="0 0 1366 768" style="enable-background:new 0 0 1366 768;" xml:space="preserve">
<style type="text/css">
	.st0{fill:#072147;}
	.st1{fill:#DBDFE5;}
	.st2{stroke:#000000;stroke-width:2;stroke-miterlimit:10;}
	.st3{stroke:#000000;stroke-miterlimit:10;}
	.st4{fill:none;stroke:#000000;stroke-miterlimit:10;}
	.st5{stroke:#000000;stroke-linecap:round;stroke-linejoin:round;stroke-miterlimit:10;}
	.st6{fill:#FFFFFF;stroke:#000000;stroke-width:0.75;stroke-miterlimit:10;}
	.st7{fill:#630A11;}
	.st8{fill:#BDCCD4;stroke:#000000;stroke-miterlimit:10;}
	.st9{fill:#BDCCD4;}
	.st10{fill:#FFFFFF;}
	.st11{fill:#F2F2F2;}
	.st12{fill:#AF0D12;}
	.st13{fill:none;stroke:#000000;stroke-width:2;stroke-miterlimit:10;}
	.st14{fill:none;stroke:#000000;stroke-width:4;stroke-linecap:round;stroke-miterlimit:10;}
	.st15{fill:none;stroke:#000000;stroke-width:2;stroke-linecap:round;stroke-miterlimit:10;}
	.st16{stroke:#000000;stroke-width:2;stroke-linecap:round;stroke-miterlimit:10;}
	.st17{fill:#F2F2F2;stroke:#000000;stroke-width:4;stroke-miterlimit:10;}
	.st18{stroke:#000000;stroke-width:0.25;stroke-miterlimit:10;}
	.st19{fill:none;stroke:#000000;stroke-linecap:round;stroke-miterlimit:10;}
	.st20{stroke:#000000;stroke-width:0.75;stroke-linecap:round;stroke-miterlimit:10;}
	.st21{fill:none;stroke:#000000;stroke-width:2;stroke-linecap:round;stroke-linejoin:round;stroke-miterlimit:10;}
	.st22{stroke:#000000;stroke-width:2;stroke-linecap:round;stroke-linejoin:round;stroke-miterlimit:10;}
	.st23{fill:none;stroke:#000000;stroke-linecap:round;stroke-linejoin:round;stroke-miterlimit:10;}
	.st24{stroke:#000000;stroke-width:0.25;stroke-linecap:round;stroke-linejoin:round;stroke-miterlimit:10;}
	.st25{fill:#FFFFFF;stroke:#000000;stroke-width:0.25;stroke-linecap:round;stroke-linejoin:round;stroke-miterlimit:10;}
	.st26{fill:#AF0D12;stroke:#000000;stroke-width:2;stroke-miterlimit:10;}
	.st27{fill:#FFFFFF;stroke:#000000;stroke-linecap:round;stroke-miterlimit:10;}
	.st28{stroke:#000000;stroke-linecap:round;stroke-miterlimit:10;}
	.st29{fill:#FFFFFF;stroke:#000000;stroke-width:0.75;stroke-linecap:round;stroke-miterlimit:10;}
	.st30{fill:none;stroke:#000000;stroke-width:0.75;stroke-linecap:round;stroke-miterlimit:10;}
	.st31{font-family:'BerlinSansFBDemi-Bold';}
	.st32{font-size:21.2697px;}
	.st33{font-size:20.8947px;}
	.st34{font-size:20.8923px;}
	.st35{font-size:21.8516px;}
	.st36{font-size:23.5634px;}
	.st37{font-size:21.7779px;}
	.st38{font-size:20.04px;}
	.st39{font-size:22.4175px;}
	.st40{font-size:18.2017px;}
	.st41{font-size:18.3293px;}
	.st42{fill:#AF0D12;stroke:#000000;stroke-width:0.5;stroke-miterlimit:10;}
	.st43{fill:#630A11;stroke:#630A11;stroke-linecap:round;stroke-miterlimit:10;}
	.st44{fill:none;stroke:#630A11;stroke-linecap:round;stroke-miterlimit:10;}
</style>
<g>
	<path class="st0" d="M162.1,2.7c0,9.4,0,55.4,0,121.7v134.3c0,171,0,386.2,0,510.4H412V2.7C328.7,2.7,245.4,2.7,162.1,2.7z"/>
</g>
<g>
	<path class="st1" d="M248.2,2c0,9.4,0,55.4,0,121.7l25.5,12.3l108.5,52.3l-106.4,55.4L248.2,258c0,171,0,386.2,0,510.4h1070.2V2
		C961.6,2,604.9,2,248.2,2z"/>
</g>
<g>
	<path class="st2" d="M777.7,677.7c-0.1,0-0.1,1.5-0.1,1.5c0.2,4.5-1.7,8.2-2.9,10.5c-4.3,8.2-12.2,11.7-13,12
		c-7.5,3.1-13.9,1.4-14,2c-0.1,0.8,10.1,4.3,22,3c18.8-2,31.5-15.1,31-16c-0.3-0.6-6.3,3.5-14,2c-1.8-0.3-3.4-0.7-5-2
		C776.9,686.7,777.9,677.7,777.7,677.7z"/>
	<path class="st3" d="M697.2,688.2c7.3,3.8,16,7.7,26,11c14,4.6,26.6,6.9,37,8"/>
	<g>
		<path class="st4" d="M351.2,553.2c-8.1,7.7-12,15.2-14,20c-2.4,5.9-3.3,12.6-5,26c-1.3,9.9-2,15.2-2,23c0,4.4,0.1,13.5,2,25
			c0.9,5.6,2,10.4,3,14"/>
		<path class="st3" d="M332.2,647.2c1.9,9.3,4,12,4,12c0.8,1.4,1.5,2.4,2,3c-1-0.3-2-0.7-3-1c-1-4.3-1.7-7.6-2.2-10.1
			C332.8,650.3,332.2,647.2,332.2,647.2z"/>
		<path class="st5" d="M365.2,517.2c-8.3,6.2-15,11.8-20,16c-12.9,10.9-17.4,15.9-20,19c-5.8,6.8-12.1,16-11,17c0,0,2.2-0.1,10-6
			c-4,3-8,6-12,11c-9.6,11.8-13.9,24-16,32c0.3-5.9,1.4-14.4,5-24c2.1-5.6,6.1-14.2,16-26C332.8,537.6,351.5,524.9,365.2,517.2z"/>
		<path class="st3" d="M316.2,530.2"/>
		<path class="st6" d="M342.2,669.2c-0.3,0.5-0.2,1.5,2,4c4.3,0,7.9,0,11,0c0.8,0,2.4,0,4-1c1.2-0.8,2.4-2.3,2-3
			c-0.3-0.7-1.8-0.2-5,0c-3.6,0.2-6.9,0.1-8,0C344.2,669,342.6,668.4,342.2,669.2z"/>
		<path class="st7" d="M317.7,659.7c0.2-0.3,3,1.7,8.4,3.5c4.9,1.7,7,1.5,9.6,3.5c1.5,1.2,2.5,2.7,3.2,3.9c0.2,0.4-0.1,0.9-0.5,0.9
			c-0.8,0.1-1.7,0.1-2.7-0.1c-3.5-0.5-5.5-2.4-8.4-4.7C321.2,662,317.4,660.1,317.7,659.7z"/>
		<path class="st5" d="M351.2,553.2c-0.1,0.1-3.1,0.2-3.2,0.2c-1.3,1.4-3,3.3-4.8,5.8c-2.1,2.8-3,5.8-5,10c-2.3,4.9-3.9,14.3-4,15
			c-0.1,0.3,1.7-9.1,3-12c0.6-1.4,2.1-3.6,5-8c0,0,3.4-5.1,6-8c1.3-1.4,2.7-2.8,2.7-2.8C351,553.3,351.1,553.3,351.2,553.2"/>
		<path class="st5" d="M356.4,553.2c0.1,0,0.2,0.2,0,0.2c-2,0.7-6.6,2.8-9.3,4.8c-2.9,2.1-3.8,3.3-5,5c-0.1-0.9,1.9-2.9,3-5
			c1.2-2.3,2.1-3.5,2.8-3.9c0,0,0.1,0,0.2-0.1C349.1,553.7,351,553.2,356.4,553.2z"/>
		<path class="st5" d="M360.2,555.2"/>
		<path class="st8" d="M630.2,428.2c0.7,0.1,1.6,0.3,2,1c0.7,1.1-0.4,2.7,0,3c0.4,0.3,1.6-1.3,3-2s3.8-1.1,8,1c0.1-0.5,0.4-1.3,1-2
			c1.7-2,5.3-2.6,7-1c0.3,0.3,0.8,0.9,1,2c0.5-0.3,1.2-0.6,2-1c2-0.9,3.1-1.3,4-1c1.8,0.6,2,3.8,2,4c0-0.4-0.1-1.9,1-3
			c0.6-0.6,1.4-0.8,2-1c0.8-0.2,1.8-0.5,3,0c1.3,0.5,1.8,1.6,2,2c1-0.6,2-0.9,3-1c1.3-0.1,1.7,0.2,3,0c1.5-0.2,1.8-0.8,3-1
			c0.9-0.1,2.2-0.1,4,1c2.8-1.4,4.8-1.3,6-1c0.7,0.2,2,0.7,3,0c0.5-0.4,0.5-0.8,1-1c0.5-0.2,1.4-0.2,3,1c-4.3,4.3-8.7,8.7-13,13
			c-3,0.7-6,1.3-9,2c-1.3,0.7-2.7,1.3-4,2c-2-0.3-4-0.7-6-1c-1.7,0.7-3.3,1.3-5,2c-0.9-1.2-1.8-2.4-2.7-3.6
			c-0.1-0.1-0.2-0.3-0.3-0.4c-2,1.3-4,2.7-6,4c-1.7-1-3.3-2-5-3c-1.7,1.3-3.3,2.7-5,4c-1-0.7-2-1.3-3-2c-4.3,1.8-7,3-7,3s-1-1.4-3-4
			C626.8,438.9,628.5,433.5,630.2,428.2z"/>
		<path class="st9" d="M608.3,361.1c0.2-1.3-0.6-2.5-1.9-2.9c-1.9-0.6-4-1.6-5.8-3.5c-2-2.1-1.6-3.2-3-4c-0.5-0.3-3.2-2.4-11,1
			c-2.8,1.2-2.9,2.7-4,2c-1-0.6-0.7-1-2-2c-0.1-0.1-1.5-1.4-3-1c-4,1-7,6-8,6c-0.5,0-0.3-0.6-1-1c-0.9-0.5-1.8-0.1-3,0
			c-1,0.1-2-0.3-4-1c-2-0.7-3-1.1-4-2c-1.1-1-1-1.6-2-2c0,0-0.5-0.2-3,0c-0.2-1.4-0.6-1.9-1-2c-1-0.4-2.6,1.4-3,1
			c-0.2-0.2-0.6-2-1-2c-2,0-3,2-4,1c-0.7-0.7-0.3-1.5-1-2c-1.4-0.9-4,0-6,1c-0.1,0.1-0.9-0.4-1-1c-0.1-0.7,0.9-1.1,1-2
			c0.1-0.8-0.4-1.6-1-2c-2.2-1.4-7.4,3.6-8,3c-0.3-0.3,0.9-1.2,1-3c0.1-1.1-0.3-2.4-1-3c-1.4-1.1-4.8-0.2-8,3c0-0.2,0.5-2.6-1-4
			c-0.8-0.7-1.7-0.9-2-1c-0.3-0.1-1.2-0.3-2,0c-1.9,0.6-2.2,3.1-3,3c-0.9-0.1-0.4-2.2-2-3c-0.7-0.3-1.8-0.9-4,0
			c-1.1,0.5-3.4,1.4-6,2c-0.1,0-0.9,0.2-1,0c-0.2-0.4,3-1.5,3-3c0-0.8-1-1.7-2-2c-2.5-0.6-4.8,2.8-6,2c-0.8-0.5-0.1-2.3-1-3
			c-1.1-0.8-3.3,0.6-4,1c-1.6,1-4.7,3.4-7,9c-0.7-1.2-1.5-3-1-5c0.6-2.8,3.5-4.1,3-5c-0.4-0.7-2.4-0.7-4,0c-2.4,1-2.7,3-4,3
			c-1.8,0-2.1-3.7-4-4c-2.5-0.4-4.4,5.5-7,5c-1-0.2-1.1-1.1-4-3c-1.1-0.7-1.6-1-2-1c-2.4,0.1-3.1,6-5,6c-0.7,0-0.7-1.2-2-2
			c-1.1-0.6-2.9-0.8-4,0c-2.1,1.5-0.7,5.5-2,6c-1.3,0.5-3.8-2.8-7-3c-1.5-0.1-2.2-0.2-3,1c-1.6,2.4-0.1,5.6-1,6
			c-0.8,0.3-1.9-2.2-3-2c-2,0.4-3,8-3,10c0,0.8-1.2-0.5-3-1c-2-0.5-4.9-0.5-5,1c-0.6,7.9,4.2,3.4,4,6c-0.1,1.8-2.5,3.4-4,4
			c-2,0.8-3,0-4,1c-0.9,0.9-0.3,1.8-1,5c-0.5,2.3-0.9,2.4-1,4c0,1.1-0.1,3,1,4c1.2,1,2.9,0.5,3,1c0.1,0.6-2.2,1-4,3
			c-1.2,1.3-2.8,4-2,6c0.8,2.1,3.6,2,4,4c0.2,1.3-1,1.6-1,3c-0.1,3.3,4,6,6,8c0.7,0.7-0.9,1-1,2c-0.1,2.1,3,4,5,6
			c1.7,1.7,0.7,3.2,2,4c1.4,0.9,2.5,0,4,1c1.3,0.8,0.9,1.8,2,3c2.3,2.6,6,3,8,3c1.9,0-0.1,2.6,1,4c1.7,2.1,4.9,0,9,2
			c3,1.5,2.4,3.2,5,4c3.4,1,6-1.5,8,0c1.3,1,0.7,2.3,2,3c2,1.1,4.7-1.9,6-1c1.7,1.1-1.3,9.3,0,8c5-5,23.7-10,23-17c-0.3-3-5-6-10-1
			c-0.7,0.7-0.8-2.7-2-3c-1.3-0.3-5,2-5-1c0-2.8-5-2-7-2c-2.4,0-5.7-2-8-2c-3.3,0-5.6-4-9-4c-3,0-3.5-2.8-6-5c-1.7-1.5-5-1.6-5-4
			c0-1-4-4-10-14c-1.2-2-1.9-5.6-2-8c-0.1-2.3,1.3-4.6,2-7c0.5-1.7,1.2-3.2,2-4.6c1-1.8,1.6-5,3-6.4c0.8-0.8,3.5,0,3-1
			c-4-9.2,3.2-3.4,5-4c2.3-0.8,3-7,4-6s4.4-2.7,5-3c1.6-0.8,5.4,1.6,7,1c1.9-0.7,2.1-1.5,4-1c4,1,10.3-0.7,15.4-0.8
			c1.4,0,3.3,1.7,4.6,1.8c1.1,0,1.7-1.7,2.8-1.6c0.9,0.1,1.5,2.1,2.2,1.6c3-2,4.1,0.7,6,1c2.2,0.4,4.6-2.4,6-1c1.3,1.3,2,3.8,3,4
			c1.1,0.3,4.1-2.3,5-2c2.4,0.7,2.9,1.6,4,2c5.3,1.9,9.3,2.6,13,4c1.3,0.5,6,1,6,1c1,3,4.6,0.6,6,2c1,1,1.9,4,3,5c1,0.9,4.8,1.6,9,2
			c3.2,0.3,3.7,0.9,7,0c4-1.1,8-0.4,16,1c6.9,1.2,12.2,3,15,4c4.2,1.5,9.3,3.7,15,7C606.6,374.8,607.4,368,608.3,361.1z"/>
		<path class="st10" d="M542.7,375.7c-6.6,4.5-16,12.1-24,24c-5.9,8.9-22.9,34.1-13,62c9.8,27.6,38.3,36.6,43,38
			c5.7,1.7,26.3,7.8,45-3c12.2-7,17.5-17.7,25-33c8.9-18,9.8-31.7,10-36c0.2-5.3,0.4-11.5-2-19c-3.5-10.8-10.2-17.4-14-21
			c-11.4-10.9-24.3-14.6-31-16c-10.7,0-21.3,0-32,0C547.3,373,545,374.4,542.7,375.7z"/>
		<path class="st11" d="M350.7,554.7c-6.3,4.1-18.9,13.5-25,30c-1.1,2.8-4.2,12-2,35c3.2,33.2,4.7,49.8,18,58c14.6,9,37,4.3,49-7
			c7-6.7,9.9-15.1,15-30c1.9-5.7,4.2-12.6,5-22c0.7-8.8-0.2-15.9-1-22c-1-7.6-1.4-11.5-3-16c-2.9-8.1-7.7-13.7-11-17
			c-6-2.6-11.1-4.6-15-6c-12.9-4.8-17.3-5.5-22-5C355.2,553.1,352.4,554,350.7,554.7z"/>
		<path class="st12" d="M338.2,662.2c-0.9-2.7-2.5-3.2-3.5-5.5c-1.5-3.4-2.3-8.5-3-12c-1.9-9.5-1.1-19.1-1.5-25.5
			c-0.5-8.7,1.8-16.2,2.5-22.5c1.7-15.8,3.9-24.5,5.5-27.5c2.9-5.7,8.4-16.1,17-17c2.7-0.3,3.2,0.7,14,3c10.4,2.3,10.2,1.5,15,3
			c9,2.9,9.8,6,15,6c4,0,7.4-2.3,14-7c7.3-5.2,9.2-7.8,20-17c4-3.4,7.2-6,11-9c8.6-6.9,9.1-7,14-11c8.9-7.3,8.5-8.1,17-15
			c6.6-5.4,9.9-8.1,15-11c5.9-3.4,11.3-6.4,19-8c6.4-1.3,10.1-0.8,11-3c1-2.4-2.7-4.4-6-11c-1.9-3.9-2.6-7.2-4-14c-1-5.1-2-9.7-2-16
			c0-4.6,0.6-8.1,1-11c0.2-1.2,1-6.4,3-13c0.9-2.9,2-6.5,4-11c2.2-4.8,4.4-8.4,6-11c1.5-2.5,3-4.5,4-6c-10.9,3.1-15.7,8.1-18,12
			c-4,6.6-2.1,12-8,21c-2.7,4.2-5.6,6.8-8,9c-6.5,5.9-12.2,8.4-19,12c-7.6,3.9-12.5,7-22,13c-12.5,7.8-12.5,9.3-31,22
			c-8.9,6.1-8.5,5.5-21,14c-2.8,1.9-11.5,7.8-23,16c-18.1,12.9-27.2,19.3-34,25c-12.5,10.4-20.7,17.2-29,29c-5.5,7.8-11.9,17-15,31
			c-3.9,17.8,0,31.9,1,35c2.1,7,4.8,15.7,13,23C322.1,661,333.9,662,338.2,662.2z"/>
		<path class="st5" d="M296.2,618.2c0,0,1.3,6.2,5,14c3.5,7.4,6.9,11.7,8,13c1.2,1.5,3.5,4.2,7,7c4.8,3.8,9,5.6,15,8
			c8.8,3.6,15,4.7,17,5c9.3,1.5,12.4,0.1,14-1c2.6-1.8,3.7-4.3,4-5c1.7-4.2,1.4-8.1,1-9c0.2,0.2-0.4,0.6,0,1c0.6,0.6,1.1,2.6,1,3
			c-0.4,1.6,2.5,7.6,4,10c2,3.2,5.5,6.7,6,7c2.1,1.4,4.8,0.6,7,0c3.7-1,6.1-3.1,7-4c1.1-1.1,2-2.2,4-6c2-3.7,3.5-6.6,5-11
			c1.2-3.6,2.6-7.6,3-13c0.3-4.6,2-16,2-19c0,5,0.2,10,0,15c-0.2,3.7-2.1,16.7-4,21c-2.1,4.7-5.7,12.5-14,19c-4.9,3.9-9.8,5.9-13,7
			c-10.5,3.5-19.4,2-25,1c-12.9-2.3-21.6-8.3-24-10c-10.7-7.7-15.8-17-20-25C298.3,631.5,296.2,618.2,296.2,618.2z"/>
		<path class="st13" d="M607.2,383.2c-5.1-3.4-26.6-17-54-12c-27.2,5-49.7,26.4-58,55c-42,29.3-84,58.7-126,88
			c-5.5,3.8-13.6,9.5-23,17c-20.2,16.2-31.5,25.4-40,41c-2.9,5.4-8.6,16-10,31c-2.8,30.5,14.7,52.2,17,55c4.9,5.9,16,19.2,35,23
			c15.9,3.2,37.2-0.2,48.5-14.5c3.7-4.6,5.1-10.1,8-21c4.5-17.2,10.5-40.7,1-65c-2.1-5.5-4.5-9.7-6-12c25.7-21.3,51.3-42.7,77-64
			c3.9-3.9,12.2-11.2,25-15c9.1-2.7,17-2.5,22-2c2.5,2,6.2,4.6,11,7c6,3,25,11,51,5c27.8-6.4,35.7-38.3,39-49c3-9.7,9.1-29.6-1-49
			C618.8,392.4,611.8,386.5,607.2,383.2z"/>
		<path d="M505.1,437.8c-21.2,15-43,28.9-65.3,42.2c-5.6,3.3-11.1,6.7-16.4,10.4c-5.3,3.7-10.4,7.5-15.6,11.4
			c-9.3,7-18.6,14-27.5,21.6c-10,8.6-19.3,17.9-27,28.6c-1.1,1.6,1.5,3.1,2.6,1.5c13.7-18.9,32.4-33.4,50.9-47.3
			c10.1-7.6,20.2-15,31-21.5c11-6.6,22-13.2,32.7-20c12.2-7.8,24.2-15.9,36.1-24.2C508.2,439.2,506.7,436.6,505.1,437.8L505.1,437.8
			z"/>
		<g>
			<path d="M564.8,417.2c1.9,0,1.9-3,0-3S562.9,417.2,564.8,417.2L564.8,417.2z"/>
		</g>
		<g>
			<path d="M570.6,407c-0.2,0.4-0.3,0.9-0.5,1.3c-0.1,0.2-0.1,0.4,0,0.6c0,0.2,0.1,0.4,0.2,0.6c0.1,0.2,0.2,0.3,0.4,0.4
				c0.1,0.1,0.3,0.2,0.5,0.3c0.1,0,0.3,0,0.4,0c0.3,0,0.5-0.1,0.8-0.2c0.1-0.1,0.2-0.2,0.3-0.2c0.2-0.2,0.3-0.4,0.4-0.7
				c0.2-0.4,0.3-0.9,0.5-1.3c0.1-0.2,0.1-0.4,0-0.6c0-0.2-0.1-0.4-0.2-0.6c-0.1-0.2-0.2-0.3-0.4-0.4c-0.1-0.1-0.3-0.2-0.5-0.3
				c-0.1,0-0.3,0-0.4,0c-0.3,0-0.5,0.1-0.8,0.2c-0.1,0.1-0.2,0.2-0.3,0.2C570.8,406.5,570.7,406.7,570.6,407L570.6,407z"/>
		</g>
		<g>
			<path d="M579.3,402.7c-0.1,0.1-0.2,0.2-0.3,0.3c-0.2,0.1-0.2,0.3-0.3,0.5c-0.1,0.2-0.1,0.4-0.1,0.6c0,0.2,0,0.4,0.1,0.6
				c0.1,0.2,0.2,0.4,0.3,0.5c0.1,0.1,0.2,0.2,0.3,0.2c0.2,0.1,0.5,0.2,0.8,0.2c0.1,0,0.3,0,0.4,0c0.2-0.1,0.5-0.2,0.7-0.4
				c0.1-0.1,0.2-0.2,0.3-0.3c0.1-0.1,0.2-0.3,0.3-0.5c0.1-0.2,0.1-0.4,0.1-0.6c0-0.2,0-0.4-0.1-0.6c-0.1-0.2-0.2-0.4-0.3-0.5
				c-0.1-0.1-0.2-0.2-0.3-0.2c-0.2-0.1-0.5-0.2-0.8-0.2c-0.1,0-0.3,0-0.4,0C579.7,402.4,579.5,402.5,579.3,402.7L579.3,402.7z"/>
		</g>
		<g>
			<path d="M592,404.3c0-0.3,0-0.5,0-0.8c0-0.2,0-0.4-0.1-0.6c-0.1-0.2-0.2-0.4-0.3-0.5c-0.1-0.1-0.3-0.2-0.5-0.3
				c-0.2-0.1-0.4-0.1-0.6-0.1c-0.1,0-0.3,0-0.4,0c-0.2,0.1-0.5,0.2-0.7,0.4c-0.1,0.1-0.2,0.2-0.2,0.3c-0.1,0.2-0.2,0.5-0.2,0.8
				c0,0.3,0,0.5,0,0.8c0,0.2,0,0.4,0.1,0.6c0.1,0.2,0.2,0.4,0.3,0.5c0.1,0.1,0.3,0.2,0.5,0.3c0.2,0.1,0.4,0.1,0.6,0.1
				c0.1,0,0.3,0,0.4,0c0.2-0.1,0.5-0.2,0.7-0.4c0.1-0.1,0.2-0.2,0.2-0.3C592,404.8,592,404.5,592,404.3L592,404.3z"/>
		</g>
		<g>
			<path d="M558.6,423.2C558.6,423.2,558.6,423.2,558.6,423.2c0.1-0.1,0.1-0.2,0.2-0.3c0,0,0,0-0.1,0.1c0.1-0.1,0.2-0.2,0.3-0.2
				c0,0-0.1,0-0.1,0.1c0.1,0,0.2-0.1,0.4-0.1c0,0-0.1,0-0.1,0c0.1,0,0.3,0,0.4,0c-0.1,0-0.1,0-0.2,0c0.1,0,0.3,0,0.4,0
				c-0.1,0-0.1,0-0.2,0c0.1,0,0.2,0.1,0.4,0.1c0,0-0.1,0-0.1-0.1c0.1,0.1,0.2,0.2,0.3,0.2c0,0-0.1-0.1-0.1-0.1
				c0.1,0.1,0.2,0.2,0.2,0.3c0,0,0-0.1-0.1-0.1c0,0.1,0.1,0.2,0.1,0.4c0,0,0-0.1,0-0.1c0,0.1,0,0.3,0,0.4v0c0-0.2,0-0.4-0.1-0.6
				c-0.1-0.2-0.2-0.4-0.3-0.5c-0.1-0.1-0.3-0.2-0.5-0.3c-0.2-0.1-0.4-0.1-0.6-0.1c-0.1,0-0.3,0-0.4,0c-0.2,0.1-0.5,0.2-0.7,0.4
				c-0.1,0.1-0.2,0.2-0.2,0.3c-0.1,0.2-0.2,0.5-0.2,0.8c0,0.1,0,0.3,0.1,0.4c0,0,0,0,0,0c0,0,0,0,0,0.1c0,0.1,0.1,0.3,0.2,0.4
				c0,0,0,0,0,0c0,0,0,0,0,0c0.1,0.1,0.2,0.2,0.2,0.3c0,0,0,0,0,0c0,0,0,0,0,0c0.1,0.1,0.2,0.2,0.3,0.2c0,0,0,0,0,0c0,0,0,0,0.1,0
				c0.1,0.1,0.3,0.1,0.4,0.2c0,0,0,0,0.1,0c0,0,0,0,0.1,0c0.1,0,0.3,0,0.5,0.1c0,0,0.1,0,0.1,0c0.1,0,0.3,0,0.4-0.1c0,0,0,0,0,0
				c0,0,0,0,0.1,0c0.1,0,0.3-0.1,0.4-0.2c0,0,0,0,0,0c0,0,0,0,0.1,0c0.1-0.1,0.2-0.2,0.3-0.2c0,0,0,0,0,0c0,0,0,0,0,0
				c0.1-0.1,0.2-0.2,0.2-0.3c0.1-0.2,0.2-0.4,0.2-0.6c0-0.2,0-0.4,0-0.6c0-0.2-0.1-0.4-0.3-0.5c-0.1-0.2-0.2-0.3-0.4-0.4
				c-0.1,0-0.2-0.1-0.4-0.1c-0.3-0.1-0.5-0.1-0.8,0c-0.1,0-0.2,0.1-0.4,0.1C558.9,422.8,558.7,423,558.6,423.2L558.6,423.2z"/>
		</g>
		<g>
			<path d="M556.7,434C556.7,434,556.7,434,556.7,434c0,0-0.2,0-0.3,0C556.5,434,556.6,434,556.7,434c-0.1,0-0.2,0-0.4,0
				C556.4,434,556.5,434,556.7,434c-0.2,0-0.3,0-0.4-0.1c0.1,0,0.2,0.1,0.3,0.2c-0.1-0.1-0.2-0.2-0.3-0.2c0.1,0.1,0.1,0.1,0.2,0.2
				c-0.1-0.1-0.2-0.2-0.2-0.3c0,0,0,0,0,0.1c0.1,0.2,0.2,0.3,0.4,0.4c0.1,0.1,0.3,0.2,0.5,0.3c0.2,0.1,0.4,0.1,0.6,0
				c0.2,0,0.4-0.1,0.6-0.2c0.1-0.1,0.2-0.2,0.3-0.2c0.2-0.2,0.3-0.4,0.4-0.7c0-0.1,0-0.3,0-0.4c0-0.3-0.1-0.5-0.2-0.8
				c-0.1-0.2-0.3-0.4-0.5-0.6c-0.1-0.1-0.3-0.2-0.5-0.3c-0.2-0.1-0.3-0.2-0.5-0.2c-0.1,0-0.1,0-0.2-0.1c-0.2,0-0.4-0.1-0.6-0.1
				c-0.1,0-0.1,0-0.2,0c-0.2,0-0.4,0-0.6,0.1c-0.2,0-0.4,0.1-0.5,0.3c-0.2,0.1-0.3,0.2-0.4,0.4c-0.1,0.2-0.2,0.4-0.2,0.6
				c0,0.2,0,0.4,0,0.6c0,0.1,0.1,0.2,0.2,0.4c0.1,0.2,0.3,0.4,0.5,0.5c0.1,0,0.2,0.1,0.4,0.1C556.1,434.1,556.4,434.1,556.7,434
				L556.7,434z"/>
		</g>
		<g>
			<path d="M553.9,443.9c0.4,0,0.7,0,1,0c0.2,0,0.4,0,0.6-0.1c0.2-0.1,0.4-0.2,0.5-0.3c0.1-0.1,0.2-0.3,0.3-0.5
				c0.1-0.2,0.1-0.4,0.1-0.6c0-0.1,0-0.3,0-0.4c-0.1-0.2-0.2-0.5-0.4-0.7c-0.1-0.1-0.2-0.2-0.3-0.2c-0.2-0.1-0.5-0.2-0.8-0.2
				c-0.4,0-0.7,0-1,0c-0.2,0-0.4,0-0.6,0.1c-0.2,0.1-0.4,0.2-0.5,0.3c-0.1,0.1-0.2,0.3-0.3,0.5c-0.1,0.2-0.1,0.4-0.1,0.6
				c0,0.1,0,0.3,0,0.4c0.1,0.2,0.2,0.5,0.4,0.7c0.1,0.1,0.2,0.2,0.3,0.2C553.4,443.8,553.7,443.9,553.9,443.9L553.9,443.9z"/>
		</g>
		<g>
			<path d="M558.9,453.5L558.9,453.5c-0.1,0-0.3,0-0.4,0c0,0,0,0,0,0c-0.1,0-0.2-0.1-0.4-0.1c0,0,0,0,0,0c-0.1-0.1-0.2-0.2-0.3-0.2
				c0,0,0,0,0,0c-0.1-0.1-0.2-0.2-0.2-0.3c0,0,0,0,0,0c0-0.1-0.1-0.2-0.1-0.4c0,0,0,0,0,0.1c0-0.1,0-0.3,0-0.4c0,0,0,0.1,0,0.1
				c0-0.1,0-0.3,0-0.4c0,0,0,0,0,0.1c0-0.1,0.1-0.2,0.1-0.4c0,0,0,0,0,0c0.1-0.1,0.2-0.2,0.2-0.3c0,0,0,0,0,0
				c0.1-0.1,0.2-0.2,0.3-0.2c0,0,0,0,0,0c0.1,0,0.2-0.1,0.4-0.1c0,0,0,0,0,0c0.1,0,0.3,0,0.4,0c0,0,0,0,0,0c-0.2,0-0.4,0-0.6,0.1
				c-0.2,0.1-0.3,0.2-0.5,0.3c-0.2,0.1-0.2,0.3-0.3,0.5c-0.1,0.2-0.1,0.4-0.1,0.6c0,0.1,0,0.3,0,0.4c0.1,0.2,0.2,0.5,0.4,0.7
				c0.1,0.1,0.2,0.2,0.3,0.2c0.2,0.1,0.5,0.2,0.8,0.2c0.1,0,0.3,0,0.4-0.1c0,0,0,0,0,0c0,0,0,0,0,0c0,0,0,0,0,0
				c0.1,0,0.2-0.1,0.4-0.1c0,0,0,0,0,0c0,0,0,0,0,0c0,0,0.3-0.2,0.3-0.2l0,0l0,0c0,0,0,0,0,0c0,0,0.2-0.2,0.2-0.3c0,0,0,0,0,0
				c0,0,0,0,0,0c0-0.1,0.1-0.3,0.2-0.4c0,0,0,0,0,0s0,0,0,0c0-0.1,0.1-0.3,0.1-0.5c0,0,0,0,0,0s0,0,0,0c0-0.1,0-0.3,0-0.4v0
				c0,0,0,0,0,0c0-0.1-0.1-0.3-0.2-0.4c0,0,0,0,0,0l0,0c0,0,0,0,0,0c-0.1-0.1-0.2-0.2-0.2-0.3l0,0c0,0,0,0,0,0c0,0-0.3-0.2-0.3-0.2
				c0,0,0,0,0,0l0,0c0,0,0,0,0,0c0,0,0,0,0,0c-0.1,0-0.2-0.1-0.4-0.1c0,0,0,0,0,0c-0.1,0-0.3,0-0.4-0.1c-0.2,0-0.4,0-0.6,0.1
				c-0.2,0.1-0.3,0.2-0.5,0.3c-0.2,0.1-0.2,0.3-0.3,0.5c-0.1,0.2-0.1,0.4-0.1,0.6c0,0.1,0,0.3,0,0.4c0.1,0.2,0.2,0.5,0.4,0.7
				c0.1,0.1,0.2,0.2,0.3,0.2C558.3,453.5,558.6,453.5,558.9,453.5L558.9,453.5z"/>
		</g>
		<g>
			<path d="M561.8,459.8c0,0.3,0,0.5,0,0.8c0,0.2,0,0.4,0.1,0.6c0.1,0.2,0.2,0.4,0.3,0.5c0.1,0.1,0.3,0.2,0.5,0.3
				c0.2,0.1,0.4,0.1,0.6,0.1c0.1,0,0.3,0,0.4,0c0.2-0.1,0.5-0.2,0.7-0.4c0.1-0.1,0.2-0.2,0.2-0.3c0.1-0.2,0.2-0.5,0.2-0.8
				c0-0.3,0-0.5,0-0.8c0-0.2,0-0.4-0.1-0.6c-0.1-0.2-0.2-0.4-0.3-0.5c-0.1-0.1-0.3-0.2-0.5-0.3c-0.2-0.1-0.4-0.1-0.6-0.1
				c-0.1,0-0.3,0-0.4,0c-0.2,0.1-0.5,0.2-0.7,0.4c-0.1,0.1-0.2,0.2-0.2,0.3C561.8,459.3,561.8,459.5,561.8,459.8L561.8,459.8z"/>
		</g>
		<g>
			<path d="M571.5,467.3c0-0.1,0-0.2,0-0.3c0-0.2,0-0.4-0.1-0.6c-0.1-0.2-0.2-0.4-0.3-0.5c-0.1-0.1-0.3-0.2-0.5-0.3
				c-0.2-0.1-0.4-0.1-0.6-0.1c-0.1,0-0.3,0-0.4,0c-0.2,0.1-0.5,0.2-0.7,0.4c-0.1,0.1-0.2,0.2-0.2,0.3c-0.1,0.2-0.2,0.5-0.2,0.8
				c0,0.1,0,0.2,0,0.3c0,0.2,0,0.4,0.1,0.6c0.1,0.2,0.2,0.4,0.3,0.5c0.1,0.1,0.3,0.2,0.5,0.3c0.2,0.1,0.4,0.1,0.6,0.1
				c0.1,0,0.3,0,0.4,0c0.2-0.1,0.5-0.2,0.7-0.4c0.1-0.1,0.2-0.2,0.2-0.3C571.5,467.8,571.5,467.6,571.5,467.3L571.5,467.3z"/>
		</g>
		<g>
			<path d="M575.5,471.9c0.3,0,0.7,0,1,0c0.2,0,0.4,0,0.6-0.1c0.2-0.1,0.3-0.2,0.5-0.3c0.2-0.1,0.2-0.3,0.3-0.5
				c0.1-0.2,0.1-0.4,0.1-0.6c0-0.1,0-0.3,0-0.4c-0.1-0.2-0.2-0.5-0.4-0.7c-0.1-0.1-0.2-0.2-0.3-0.2c-0.2-0.1-0.5-0.2-0.8-0.2
				c-0.3,0-0.7,0-1,0c-0.2,0-0.4,0-0.6,0.1c-0.2,0.1-0.3,0.2-0.5,0.3c-0.2,0.1-0.2,0.3-0.3,0.5c-0.1,0.2-0.1,0.4-0.1,0.6
				c0,0.1,0,0.3,0,0.4c0.1,0.2,0.2,0.5,0.4,0.7c0.1,0.1,0.2,0.2,0.3,0.2C574.9,471.9,575.2,471.9,575.5,471.9L575.5,471.9z"/>
		</g>
		<g>
			<path d="M583.8,471.4c0.3,0.2,0.5,0.4,0.8,0.5c0.2,0.1,0.4,0.2,0.6,0.2c0.2,0,0.4,0,0.6,0c0.2,0,0.4-0.1,0.5-0.3
				c0.2-0.1,0.3-0.2,0.4-0.4c0-0.1,0.1-0.2,0.2-0.4c0.1-0.3,0.1-0.5,0-0.8c0-0.1-0.1-0.2-0.2-0.4c-0.1-0.2-0.3-0.4-0.5-0.5
				c-0.3-0.2-0.5-0.4-0.8-0.5c-0.2-0.1-0.4-0.2-0.6-0.2c-0.2,0-0.4,0-0.6,0c-0.2,0-0.4,0.1-0.5,0.3c-0.2,0.1-0.3,0.2-0.4,0.4
				c0,0.1-0.1,0.2-0.2,0.4c-0.1,0.3-0.1,0.5,0,0.8c0,0.1,0.1,0.2,0.2,0.4C583.4,471.1,583.6,471.3,583.8,471.4L583.8,471.4z"/>
		</g>
		<g>
			<path d="M594.2,470.1c1.9,0,1.9-3,0-3S592.2,470.1,594.2,470.1L594.2,470.1z"/>
		</g>
		<g>
			<path d="M601.8,463.8c-0.1,0-0.1,0-0.2,0c0.1,0,0.3,0,0.4,0C601.9,463.8,601.9,463.8,601.8,463.8c0.1,0,0.3,0,0.4,0
				c-0.1,0-0.2,0-0.2-0.1c0.1,0,0.2,0.1,0.4,0.1c-0.1,0-0.2-0.1-0.2-0.1c0.1,0.1,0.2,0.2,0.3,0.2c-0.1,0-0.1-0.1-0.2-0.2
				c0.1,0.1,0.2,0.2,0.2,0.3c0-0.1-0.1-0.1-0.1-0.2c0,0.1,0.1,0.2,0.2,0.4c0-0.1,0-0.1-0.1-0.2c0-0.2-0.1-0.4-0.3-0.5
				c-0.1-0.2-0.2-0.3-0.4-0.4c-0.2-0.1-0.4-0.2-0.6-0.2c-0.2,0-0.4,0-0.6,0c-0.1,0-0.2,0.1-0.4,0.1c-0.2,0.1-0.4,0.3-0.5,0.5
				c0,0.1-0.1,0.2-0.2,0.4c-0.1,0.3-0.1,0.5,0,0.8c0,0.2,0.1,0.4,0.2,0.6c0,0.1,0.1,0.1,0.1,0.2c0.1,0.1,0.2,0.3,0.4,0.5
				c0.1,0.1,0.3,0.2,0.5,0.4c0,0,0.1,0,0.1,0c0.2,0.1,0.3,0.1,0.5,0.2c0.1,0,0.3,0.1,0.4,0.1c0.1,0,0.3,0,0.4,0c0.2,0,0.3,0,0.5-0.1
				c0,0,0.1,0,0.1,0c0.2,0,0.4-0.1,0.5-0.3c0.2-0.1,0.3-0.2,0.4-0.4c0.1-0.2,0.2-0.4,0.2-0.6c0-0.2,0-0.4,0-0.6
				c0-0.1-0.1-0.2-0.2-0.4c-0.1-0.2-0.3-0.4-0.5-0.5c-0.1,0-0.2-0.1-0.4-0.1C602.3,463.7,602.1,463.7,601.8,463.8L601.8,463.8z"/>
		</g>
		<g>
			<path d="M606.1,456.2c-0.3,0.3-0.7,0.5-1,0.8c-0.2,0.1-0.3,0.2-0.4,0.4c-0.1,0.1-0.2,0.3-0.3,0.5c-0.1,0.2-0.1,0.4,0,0.6
				c0,0.2,0.1,0.4,0.2,0.6c0.1,0.1,0.2,0.2,0.2,0.3c0.2,0.2,0.4,0.3,0.7,0.4c0.1,0,0.3,0,0.4,0c0.3,0,0.5-0.1,0.8-0.2
				c0.3-0.3,0.7-0.5,1-0.8c0.2-0.1,0.3-0.2,0.4-0.4c0.1-0.1,0.2-0.3,0.3-0.5c0.1-0.2,0.1-0.4,0-0.6c0-0.2-0.1-0.4-0.2-0.6
				c-0.1-0.1-0.2-0.2-0.2-0.3c-0.2-0.2-0.4-0.3-0.7-0.4c-0.1,0-0.3,0-0.4,0C606.6,456,606.3,456,606.1,456.2L606.1,456.2z"/>
		</g>
		<g>
			<path d="M610.5,452.5c1.9,0,1.9-3,0-3C608.6,449.5,608.6,452.5,610.5,452.5L610.5,452.5z"/>
		</g>
		<g>
			<path d="M612.8,445c0.1-0.1,0.2-0.1,0.3-0.2C613,444.9,612.9,444.9,612.8,445c0.1-0.1,0.2-0.1,0.3-0.1
				C613,444.9,612.9,444.9,612.8,445c0.1-0.1,0.2-0.1,0.3-0.1c-0.1,0-0.3,0-0.4,0c0.1,0,0.1,0,0.2,0c0.2,0.1,0.4,0.1,0.6,0
				c0.2,0,0.4-0.1,0.6-0.2c0.2-0.1,0.3-0.2,0.4-0.4c0.1-0.1,0.2-0.3,0.3-0.5c0-0.1,0-0.3,0-0.4c0-0.3-0.1-0.5-0.2-0.8
				c-0.1-0.1-0.2-0.2-0.2-0.3c-0.2-0.2-0.4-0.3-0.7-0.4c-0.1,0-0.1,0-0.2,0c-0.2,0-0.4-0.1-0.6-0.1c-0.1,0-0.1,0-0.2,0
				c-0.2,0-0.4,0-0.6,0.1c-0.1,0-0.2,0-0.3,0.1c-0.2,0.1-0.5,0.2-0.7,0.3c-0.2,0.1-0.3,0.2-0.4,0.4c-0.1,0.1-0.2,0.3-0.3,0.5
				c-0.1,0.2-0.1,0.4,0,0.6c0,0.2,0.1,0.4,0.2,0.6c0.1,0.1,0.2,0.2,0.2,0.3c0.2,0.2,0.4,0.3,0.7,0.4c0.1,0,0.3,0,0.4,0
				C612.3,445.2,612.6,445.1,612.8,445L612.8,445z"/>
		</g>
		<g>
			<path d="M612.3,432.3C612.3,432.3,612.3,432.3,612.3,432.3c-0.1,0.2-0.2,0.3-0.3,0.4c0,0-0.1,0.1-0.1,0.1
				c-0.1,0.1-0.1,0.3-0.2,0.5c0,0,0,0.1,0,0.1c0,0.2-0.1,0.4-0.1,0.5c0,0,0,0.1,0,0.1c0,0.2,0,0.4,0.1,0.5c0,0,0,0.1,0,0.1
				c0,0.2,0.1,0.4,0.3,0.5c0.1,0.2,0.2,0.3,0.4,0.4c0.2,0.1,0.4,0.2,0.6,0.2c0.2,0,0.4,0,0.6,0c0.1,0,0.2-0.1,0.4-0.1
				c0.2-0.1,0.4-0.3,0.5-0.5c0-0.1,0.1-0.2,0.2-0.4c0.1-0.3,0.1-0.5,0-0.8c0,0,0-0.1,0-0.2c0,0.1,0,0.3,0,0.4c0-0.1,0-0.2,0-0.3
				c0,0.1,0,0.3,0,0.4c0-0.1,0-0.2,0.1-0.3c0,0.1-0.1,0.2-0.2,0.4c0-0.1,0.1-0.2,0.1-0.2c-0.1,0.1-0.2,0.2-0.2,0.3c0,0,0,0,0.1-0.1
				c0.2-0.1,0.2-0.3,0.3-0.5c0.1-0.2,0.1-0.4,0.1-0.6c0-0.2,0-0.4-0.1-0.6c-0.1-0.2-0.2-0.4-0.3-0.5c-0.1-0.1-0.2-0.2-0.3-0.2
				c-0.2-0.1-0.5-0.2-0.8-0.2c-0.1,0-0.3,0-0.4,0C612.7,432,612.5,432.1,612.3,432.3L612.3,432.3z"/>
		</g>
		<g>
			<path d="M613.6,427.3c1.9,0,1.9-3,0-3S611.7,427.3,613.6,427.3L613.6,427.3z"/>
		</g>
		<g>
			<path d="M611.1,415c-0.2,0-0.5,0.1-0.7,0.2c-0.2,0.1-0.4,0.3-0.6,0.4c-0.1,0.1-0.2,0.1-0.2,0.2c-0.1,0.1-0.2,0.3-0.3,0.4
				s-0.2,0.3-0.2,0.5c-0.1,0.2-0.1,0.4,0,0.6c0,0.2,0.1,0.4,0.2,0.6c0.1,0.2,0.2,0.3,0.4,0.4c0.1,0.1,0.3,0.2,0.5,0.3
				c0.1,0,0.3,0,0.4,0c0.3,0,0.5-0.1,0.8-0.2c0.1-0.1,0.2-0.2,0.3-0.2c0.2-0.2,0.3-0.4,0.4-0.7c0,0,0,0,0,0c0,0.1-0.1,0.2-0.2,0.4
				c0-0.1,0.1-0.2,0.2-0.3c-0.1,0.1-0.2,0.2-0.2,0.3c0.1-0.1,0.2-0.2,0.2-0.2c-0.1,0.1-0.2,0.2-0.3,0.2c0.1-0.1,0.2-0.1,0.3-0.2
				c-0.1,0-0.2,0.1-0.4,0.1c0.1,0,0.2-0.1,0.3-0.1c0.2,0,0.4-0.1,0.5-0.3c0.2-0.1,0.3-0.2,0.4-0.4c0.1-0.2,0.2-0.4,0.2-0.6
				c0-0.2,0-0.4,0-0.6c0-0.1-0.1-0.2-0.2-0.4c-0.1-0.2-0.3-0.4-0.5-0.5c-0.1,0-0.2-0.1-0.4-0.1C611.7,414.9,611.4,414.9,611.1,415
				L611.1,415z"/>
		</g>
		<g>
			<path d="M603.2,411.6c0.3,0.3,0.5,0.7,0.8,1c0.1,0.2,0.2,0.3,0.4,0.4c0.1,0.1,0.3,0.2,0.5,0.3c0.2,0.1,0.4,0.1,0.6,0
				c0.2,0,0.4-0.1,0.6-0.2c0.1-0.1,0.2-0.2,0.3-0.2c0.2-0.2,0.3-0.4,0.4-0.7c0-0.1,0-0.3,0-0.4c0-0.3-0.1-0.5-0.2-0.8
				c-0.3-0.3-0.5-0.7-0.8-1c-0.1-0.2-0.2-0.3-0.4-0.4c-0.1-0.1-0.3-0.2-0.5-0.3c-0.2-0.1-0.4-0.1-0.6,0c-0.2,0-0.4,0.1-0.6,0.2
				c-0.1,0.1-0.2,0.2-0.3,0.2c-0.2,0.2-0.3,0.4-0.4,0.7c0,0.1,0,0.3,0,0.4C603,411.1,603.1,411.3,603.2,411.6L603.2,411.6z"/>
		</g>
		<g>
			<path d="M596.9,405.7c-0.1,0.3-0.2,0.5-0.3,0.8c-0.1,0.2-0.1,0.4,0,0.6c0,0.2,0.1,0.4,0.2,0.6c0.1,0.2,0.2,0.3,0.4,0.4
				c0.1,0.1,0.3,0.2,0.5,0.3c0.1,0,0.3,0,0.4,0c0.3,0,0.5-0.1,0.8-0.2c0.1-0.1,0.2-0.2,0.3-0.2c0.2-0.2,0.3-0.4,0.4-0.7
				c0.1-0.3,0.2-0.5,0.3-0.8c0.1-0.2,0.1-0.4,0-0.6c0-0.2-0.1-0.4-0.2-0.6c-0.1-0.2-0.2-0.3-0.4-0.4c-0.1-0.1-0.3-0.2-0.5-0.3
				c-0.1,0-0.3,0-0.4,0c-0.3,0-0.5,0.1-0.8,0.2c-0.1,0.1-0.2,0.2-0.3,0.2C597.1,405.2,597,405.5,596.9,405.7L596.9,405.7z"/>
		</g>
		<g>
			<path d="M590.5,414.9c0-0.3,0-0.5,0-0.8c0-0.2,0-0.4-0.1-0.6c-0.1-0.2-0.2-0.4-0.3-0.5c-0.1-0.1-0.3-0.2-0.5-0.3
				c-0.2-0.1-0.4-0.1-0.6-0.1c-0.1,0-0.3,0-0.4,0c-0.2,0.1-0.5,0.2-0.7,0.4c-0.1,0.1-0.2,0.2-0.2,0.3c-0.1,0.2-0.2,0.5-0.2,0.8
				c0,0.3,0,0.5,0,0.8c0,0.2,0,0.4,0.1,0.6c0.1,0.2,0.2,0.4,0.3,0.5c0.1,0.1,0.3,0.2,0.5,0.3c0.2,0.1,0.4,0.1,0.6,0.1
				c0.1,0,0.3,0,0.4,0c0.2-0.1,0.5-0.2,0.7-0.4c0.1-0.1,0.2-0.2,0.2-0.3C590.4,415.4,590.5,415.2,590.5,414.9L590.5,414.9z"/>
		</g>
		<g>
			<path d="M579.6,416.7c-0.1-0.1-0.2-0.2-0.3-0.3c-0.1-0.1-0.3-0.2-0.5-0.3c-0.2-0.1-0.4-0.1-0.6-0.1c-0.2,0-0.4,0-0.6,0.1
				c-0.2,0.1-0.3,0.2-0.5,0.3c-0.1,0.1-0.2,0.2-0.2,0.3c-0.1,0.2-0.2,0.5-0.2,0.8c0,0.1,0,0.3,0,0.4c0.1,0.2,0.2,0.5,0.4,0.7
				c0.1,0.1,0.2,0.2,0.3,0.3c0.1,0.1,0.3,0.2,0.5,0.3c0.2,0.1,0.4,0.1,0.6,0.1c0.2,0,0.4,0,0.6-0.1c0.2-0.1,0.3-0.2,0.5-0.3
				c0.1-0.1,0.2-0.2,0.2-0.3c0.1-0.2,0.2-0.5,0.2-0.8c0-0.1,0-0.3,0-0.4C580,417.1,579.8,416.9,579.6,416.7L579.6,416.7z"/>
		</g>
		<g>
			<path d="M572,424.8c0-0.3,0-0.5,0-0.8c0-0.2,0-0.4-0.1-0.6c-0.1-0.2-0.2-0.4-0.3-0.5c-0.1-0.1-0.3-0.2-0.5-0.3
				c-0.2-0.1-0.4-0.1-0.6-0.1c-0.1,0-0.3,0-0.4,0c-0.2,0.1-0.5,0.2-0.7,0.4c-0.1,0.1-0.2,0.2-0.2,0.3c-0.1,0.2-0.2,0.5-0.2,0.8
				c0,0.3,0,0.5,0,0.8c0,0.2,0,0.4,0.1,0.6c0.1,0.2,0.2,0.4,0.3,0.5c0.1,0.1,0.3,0.2,0.5,0.3c0.2,0.1,0.4,0.1,0.6,0.1
				c0.1,0,0.3,0,0.4,0c0.2-0.1,0.5-0.2,0.7-0.4c0.1-0.1,0.2-0.2,0.2-0.3C572,425.3,572,425,572,424.8L572,424.8z"/>
		</g>
		<g>
			<path d="M566.1,434.9c0.2-0.1,0.3-0.2,0.5-0.3c0.2-0.1,0.3-0.2,0.4-0.4c0.1-0.1,0.2-0.3,0.3-0.5c0.1-0.2,0.1-0.4,0-0.6
				c0-0.2-0.1-0.4-0.2-0.6c-0.1-0.1-0.2-0.2-0.2-0.3c-0.2-0.2-0.4-0.3-0.7-0.4c-0.1,0-0.3,0-0.4,0c-0.3,0-0.5,0.1-0.8,0.2
				c-0.2,0.1-0.3,0.2-0.5,0.3c-0.2,0.1-0.3,0.2-0.4,0.4c-0.1,0.1-0.2,0.3-0.3,0.5c-0.1,0.2-0.1,0.4,0,0.6c0,0.2,0.1,0.4,0.2,0.6
				c0.1,0.1,0.2,0.2,0.2,0.3c0.2,0.2,0.4,0.3,0.7,0.4c0.1,0,0.3,0,0.4,0C565.6,435.1,565.9,435,566.1,434.9L566.1,434.9z"/>
		</g>
		<g>
			<path d="M565.3,442.3c0,0,0-0.1,0-0.1c0,0.1,0,0.3,0,0.4c0-0.1,0-0.3,0-0.5c0,0.1,0,0.3,0,0.4c0-0.1,0.1-0.3,0.1-0.4
				c0,0.1-0.1,0.2-0.2,0.4c0-0.1,0.1-0.2,0.2-0.3c0.1-0.2,0.2-0.4,0.2-0.6c0-0.2,0-0.4,0-0.6c0-0.2-0.1-0.4-0.3-0.5
				c-0.1-0.2-0.2-0.3-0.4-0.4c-0.1,0-0.2-0.1-0.4-0.1c-0.3-0.1-0.5-0.1-0.8,0c-0.1,0-0.2,0.1-0.4,0.1c-0.2,0.1-0.4,0.3-0.5,0.5
				c-0.1,0.2-0.2,0.4-0.3,0.6c0,0.1-0.1,0.2-0.1,0.4c0,0.2-0.1,0.4-0.1,0.5c0,0.1,0,0.1,0,0.2c0,0.2,0,0.5,0.1,0.7
				c0,0.2,0.1,0.4,0.3,0.5c0.1,0.2,0.2,0.3,0.4,0.4c0.2,0.1,0.4,0.2,0.6,0.2c0.2,0,0.4,0,0.6,0c0.1,0,0.2-0.1,0.4-0.1
				c0.2-0.1,0.4-0.3,0.5-0.5c0-0.1,0.1-0.2,0.1-0.4C565.3,442.8,565.3,442.5,565.3,442.3L565.3,442.3z"/>
		</g>
		<g>
			<path d="M567,448.5c-0.1,0.4-0.2,0.7-0.3,1c-0.1,0.2-0.1,0.4,0,0.6c0,0.2,0.1,0.4,0.2,0.6c0.1,0.2,0.2,0.3,0.4,0.4
				c0.1,0.1,0.3,0.2,0.5,0.3c0.1,0,0.3,0,0.4,0c0.3,0,0.5-0.1,0.8-0.2c0.1-0.1,0.2-0.2,0.3-0.2c0.2-0.2,0.3-0.4,0.4-0.7
				c0.1-0.4,0.2-0.7,0.3-1c0.1-0.2,0.1-0.4,0-0.6c0-0.2-0.1-0.4-0.2-0.6c-0.1-0.2-0.2-0.3-0.4-0.4c-0.1-0.1-0.3-0.2-0.5-0.3
				c-0.1,0-0.3,0-0.4,0c-0.3,0-0.5,0.1-0.8,0.2c-0.1,0.1-0.2,0.2-0.3,0.2C567.2,448,567.1,448.3,567,448.5L567,448.5z"/>
		</g>
		<g>
			<path d="M571.1,458.7c0.2,0,0.4,0,0.5,0c0.2,0,0.4,0,0.6-0.1c0.2-0.1,0.4-0.2,0.5-0.3c0.1-0.1,0.2-0.3,0.3-0.5
				c0.1-0.2,0.1-0.4,0.1-0.6c0-0.1,0-0.3,0-0.4c-0.1-0.2-0.2-0.5-0.4-0.7c-0.1-0.1-0.2-0.2-0.3-0.2c-0.2-0.1-0.5-0.2-0.8-0.2
				c-0.2,0-0.4,0-0.5,0c-0.2,0-0.4,0-0.6,0.1c-0.2,0.1-0.4,0.2-0.5,0.3c-0.1,0.1-0.2,0.3-0.3,0.5c-0.1,0.2-0.1,0.4-0.1,0.6
				c0,0.1,0,0.3,0,0.4c0.1,0.2,0.2,0.5,0.4,0.7c0.1,0.1,0.2,0.2,0.3,0.2C570.5,458.6,570.8,458.7,571.1,458.7L571.1,458.7z"/>
		</g>
		<g>
			<path d="M578.8,458.3c-0.1,0-0.2,0-0.3,0c-0.2,0-0.4,0-0.6,0.1c-0.2,0.1-0.3,0.2-0.5,0.3c-0.2,0.1-0.2,0.3-0.3,0.5
				c-0.1,0.2-0.1,0.4-0.1,0.6c0,0.1,0,0.3,0,0.4c0.1,0.2,0.2,0.5,0.4,0.7c0.1,0.1,0.2,0.2,0.3,0.2c0.2,0.1,0.5,0.2,0.8,0.2
				c0.1,0,0.2,0,0.3,0c0.2,0,0.4,0,0.6-0.1c0.2-0.1,0.4-0.2,0.5-0.3c0.1-0.1,0.2-0.3,0.3-0.5c0.1-0.2,0.1-0.4,0.1-0.6
				c0-0.1,0-0.3,0-0.4c-0.1-0.2-0.2-0.5-0.4-0.7c-0.1-0.1-0.2-0.2-0.3-0.2C579.4,458.4,579.1,458.3,578.8,458.3L578.8,458.3z"/>
		</g>
		<g>
			<path d="M585.1,464.4c0.4,0,0.9,0,1.3,0c0.2,0,0.4,0,0.6-0.1c0.2-0.1,0.3-0.2,0.5-0.3c0.2-0.1,0.2-0.3,0.3-0.5
				c0.1-0.2,0.1-0.4,0.1-0.6c0-0.1,0-0.3,0-0.4c-0.1-0.2-0.2-0.5-0.4-0.7c-0.1-0.1-0.2-0.2-0.3-0.2c-0.2-0.1-0.5-0.2-0.8-0.2
				c-0.4,0-0.9,0-1.3,0c-0.2,0-0.4,0-0.6,0.1c-0.2,0.1-0.4,0.2-0.5,0.3c-0.1,0.1-0.2,0.3-0.3,0.5c-0.1,0.2-0.1,0.4-0.1,0.6
				c0,0.1,0,0.3,0,0.4c0.1,0.2,0.2,0.5,0.4,0.7c0.1,0.1,0.2,0.2,0.3,0.2C584.5,464.3,584.8,464.4,585.1,464.4L585.1,464.4z"/>
		</g>
		<g>
			<path d="M592.3,458c-0.1,0.2-0.2,0.4-0.3,0.5c-0.1,0.2-0.2,0.4-0.2,0.6c0,0.2,0,0.4,0,0.6c0,0.2,0.1,0.4,0.3,0.5
				c0.1,0.2,0.2,0.3,0.4,0.4c0.1,0,0.2,0.1,0.4,0.1c0.3,0.1,0.5,0.1,0.8,0c0.1,0,0.2-0.1,0.4-0.1c0.2-0.1,0.4-0.3,0.5-0.5
				c0.1-0.2,0.2-0.4,0.3-0.5c0.1-0.2,0.2-0.4,0.2-0.6c0-0.2,0-0.4,0-0.6c0-0.2-0.1-0.4-0.3-0.5c-0.1-0.2-0.2-0.3-0.4-0.4
				c-0.1,0-0.2-0.1-0.4-0.1c-0.3-0.1-0.5-0.1-0.8,0c-0.1,0-0.2,0.1-0.4,0.1C592.6,457.6,592.4,457.8,592.3,458L592.3,458z"/>
		</g>
		<g>
			<path d="M600.9,455.1c1.9,0,1.9-3,0-3S599,455.1,600.9,455.1L600.9,455.1z"/>
		</g>
		<g>
			<path d="M604.7,444c0-0.1,0-0.2,0-0.3c0-0.2,0-0.4-0.1-0.6c-0.1-0.2-0.2-0.4-0.3-0.5c-0.1-0.1-0.3-0.2-0.5-0.3
				c-0.2-0.1-0.4-0.1-0.6-0.1c-0.1,0-0.3,0-0.4,0c-0.2,0.1-0.5,0.2-0.7,0.4c-0.1,0.1-0.2,0.2-0.2,0.3c-0.1,0.2-0.2,0.5-0.2,0.8
				c0,0.1,0,0.2,0,0.3c0,0.2,0,0.4,0.1,0.6c0.1,0.2,0.2,0.4,0.3,0.5c0.1,0.1,0.3,0.2,0.5,0.3c0.2,0.1,0.4,0.1,0.6,0.1
				c0.1,0,0.3,0,0.4,0c0.2-0.1,0.5-0.2,0.7-0.4c0.1-0.1,0.2-0.2,0.2-0.3C604.7,444.5,604.7,444.2,604.7,444L604.7,444z"/>
		</g>
		<g>
			<path d="M604.3,436.9c1.9,0,1.9-3,0-3S602.3,436.9,604.3,436.9L604.3,436.9z"/>
		</g>
		<g>
			<path d="M603.2,427.3c1.9,0,1.9-3,0-3S601.3,427.3,603.2,427.3L603.2,427.3z"/>
		</g>
		<g>
			<path d="M598.7,418.9c0.1-0.3,0.2-0.5,0.2-0.8c0.1-0.2,0.1-0.4,0-0.6c0-0.2-0.1-0.4-0.2-0.6c-0.1-0.2-0.2-0.3-0.4-0.4
				c-0.1-0.1-0.3-0.2-0.5-0.3c-0.1,0-0.3,0-0.4,0c-0.3,0-0.5,0.1-0.8,0.2c-0.1,0.1-0.2,0.2-0.3,0.2c-0.2,0.2-0.3,0.4-0.4,0.7
				c-0.1,0.3-0.2,0.5-0.2,0.8c-0.1,0.2-0.1,0.4,0,0.6c0,0.2,0.1,0.4,0.2,0.6c0.1,0.2,0.2,0.3,0.4,0.4c0.1,0.1,0.3,0.2,0.5,0.3
				c0.1,0,0.3,0,0.4,0c0.3,0,0.5-0.1,0.8-0.2c0.1-0.1,0.2-0.2,0.3-0.2C598.5,419.4,598.6,419.2,598.7,418.9L598.7,418.9z"/>
		</g>
		<g>
			<path d="M593.9,428.2c-0.3,0-0.5,0-0.8,0c-0.2,0-0.4,0-0.6,0.1c-0.2,0.1-0.3,0.2-0.5,0.3c-0.2,0.1-0.2,0.3-0.3,0.5
				c-0.1,0.2-0.1,0.4-0.1,0.6c0,0.1,0,0.3,0,0.4c0.1,0.2,0.2,0.5,0.4,0.7c0.1,0.1,0.2,0.2,0.3,0.2c0.2,0.1,0.5,0.2,0.8,0.2
				c0.3,0,0.5,0,0.8,0c0.2,0,0.4,0,0.6-0.1c0.2-0.1,0.3-0.2,0.5-0.3c0.2-0.1,0.2-0.3,0.3-0.5c0.1-0.2,0.1-0.4,0.1-0.6
				c0-0.1,0-0.3,0-0.4c-0.1-0.2-0.2-0.5-0.4-0.7c-0.1-0.1-0.2-0.2-0.3-0.2C594.4,428.3,594.2,428.2,593.9,428.2L593.9,428.2z"/>
		</g>
		<g>
			<path d="M596.1,439.2c0.2-0.1,0.4-0.2,0.6-0.3c0.1,0,0.2-0.1,0.3-0.1c0.3-0.2,0.5-0.4,0.8-0.6c0.2-0.2,0.5-0.5,0.6-0.8
				c0.1-0.2,0.2-0.4,0.3-0.6c0.1-0.2,0.2-0.4,0.2-0.6c0-0.2,0-0.4,0-0.6c0-0.2-0.1-0.4-0.3-0.5c-0.1-0.2-0.2-0.3-0.4-0.4
				c-0.3-0.2-0.8-0.3-1.2-0.1c-0.1,0-0.2,0.1-0.4,0.1c-0.2,0.1-0.4,0.3-0.5,0.5c-0.1,0.2-0.2,0.4-0.4,0.6c0.1-0.1,0.2-0.2,0.2-0.3
				c-0.2,0.2-0.3,0.4-0.5,0.5c0.1-0.1,0.2-0.2,0.3-0.2c-0.2,0.1-0.4,0.3-0.7,0.4c0.1,0,0.2-0.1,0.4-0.1c-0.1,0-0.2,0.1-0.2,0.1
				c-0.4,0.1-0.7,0.4-0.9,0.7c-0.1,0.2-0.2,0.4-0.2,0.6c0,0.2,0,0.4,0,0.6c0.1,0.4,0.3,0.7,0.7,0.9
				C595.3,439.3,595.7,439.4,596.1,439.2L596.1,439.2z"/>
		</g>
		<g>
			<path d="M594.4,443.7c-0.3,0.4-0.5,0.9-0.8,1.3c-0.1,0.2-0.2,0.4-0.2,0.6c0,0.2,0,0.4,0,0.6c0,0.2,0.1,0.4,0.3,0.5
				c0.1,0.2,0.2,0.3,0.4,0.4c0.1,0,0.2,0.1,0.4,0.1c0.3,0.1,0.5,0.1,0.8,0c0.1,0,0.2-0.1,0.4-0.1c0.2-0.1,0.4-0.3,0.5-0.5
				c0.3-0.4,0.5-0.9,0.8-1.3c0.1-0.2,0.2-0.4,0.2-0.6c0-0.2,0-0.4,0-0.6c0-0.2-0.1-0.4-0.3-0.5c-0.1-0.2-0.2-0.3-0.4-0.4
				c-0.1,0-0.2-0.1-0.4-0.1c-0.3-0.1-0.5-0.1-0.8,0c-0.1,0-0.2,0.1-0.4,0.1C594.7,443.3,594.5,443.5,594.4,443.7L594.4,443.7z"/>
		</g>
		<g>
			<path d="M587.8,449.8c-0.4,0.2-0.9,0.3-1.3,0.5c-0.2,0-0.4,0.1-0.5,0.3c-0.2,0.1-0.3,0.2-0.4,0.4c-0.1,0.2-0.2,0.4-0.2,0.6
				c0,0.2,0,0.4,0,0.6c0,0.1,0.1,0.2,0.2,0.4c0.1,0.2,0.3,0.4,0.5,0.5c0.1,0,0.2,0.1,0.4,0.1c0.3,0.1,0.5,0.1,0.8,0
				c0.4-0.2,0.9-0.3,1.3-0.5c0.2,0,0.4-0.1,0.5-0.3c0.2-0.1,0.3-0.2,0.4-0.4c0.1-0.2,0.2-0.4,0.2-0.6c0-0.2,0-0.4,0-0.6
				c0-0.1-0.1-0.2-0.2-0.4c-0.1-0.2-0.3-0.4-0.5-0.5c-0.1,0-0.2-0.1-0.4-0.1C588.3,449.7,588.1,449.7,587.8,449.8L587.8,449.8z"/>
		</g>
		<g>
			<path d="M578.1,449.6c0.2,0,0.4,0,0.5,0c0.2,0,0.4,0,0.6-0.1c0.2-0.1,0.4-0.2,0.5-0.3c0.1-0.1,0.2-0.3,0.3-0.5
				c0.1-0.2,0.1-0.4,0.1-0.6c0-0.1,0-0.3,0-0.4c-0.1-0.2-0.2-0.5-0.4-0.7c-0.1-0.1-0.2-0.2-0.3-0.2c-0.2-0.1-0.5-0.2-0.8-0.2
				c-0.2,0-0.4,0-0.5,0c-0.2,0-0.4,0-0.6,0.1c-0.2,0.1-0.4,0.2-0.5,0.3c-0.1,0.1-0.2,0.3-0.3,0.5c-0.1,0.2-0.1,0.4-0.1,0.6
				c0,0.1,0,0.3,0,0.4c0.1,0.2,0.2,0.5,0.4,0.7c0.1,0.1,0.2,0.2,0.3,0.2C577.5,449.6,577.8,449.6,578.1,449.6L578.1,449.6z"/>
		</g>
		<g>
			<path d="M577.5,441.1c0-0.1,0-0.2,0-0.3c0-0.2,0-0.4-0.1-0.6c-0.1-0.2-0.2-0.4-0.3-0.5c-0.1-0.1-0.3-0.2-0.5-0.3
				c-0.2-0.1-0.4-0.1-0.6-0.1c-0.1,0-0.3,0-0.4,0c-0.2,0.1-0.5,0.2-0.7,0.4c-0.1,0.1-0.2,0.2-0.2,0.3c-0.1,0.2-0.2,0.5-0.2,0.8
				c0,0.1,0,0.2,0,0.3c0,0.2,0,0.4,0.1,0.6c0.1,0.2,0.2,0.4,0.3,0.5c0.1,0.1,0.3,0.2,0.5,0.3c0.2,0.1,0.4,0.1,0.6,0.1
				c0.1,0,0.3,0,0.4,0c0.2-0.1,0.5-0.2,0.7-0.4c0.1-0.1,0.2-0.2,0.2-0.3C577.4,441.6,577.5,441.4,577.5,441.1L577.5,441.1z"/>
		</g>
		<g>
			<path d="M577.8,430.5c-0.1,0-0.2,0-0.3,0c-0.2,0-0.4,0-0.6,0.1c-0.2,0.1-0.4,0.2-0.5,0.3c-0.1,0.1-0.2,0.3-0.3,0.5
				c-0.1,0.2-0.1,0.4-0.1,0.6c0,0.1,0,0.3,0,0.4c0.1,0.2,0.2,0.5,0.4,0.7c0.1,0.1,0.2,0.2,0.3,0.2c0.2,0.1,0.5,0.2,0.8,0.2
				c0.1,0,0.2,0,0.3,0c0.2,0,0.4,0,0.6-0.1c0.2-0.1,0.3-0.2,0.5-0.3c0.2-0.1,0.2-0.3,0.3-0.5c0.1-0.2,0.1-0.4,0.1-0.6
				c0-0.1,0-0.3,0-0.4c-0.1-0.2-0.2-0.5-0.4-0.7c-0.1-0.1-0.2-0.2-0.3-0.2C578.3,430.6,578.1,430.5,577.8,430.5L577.8,430.5z"/>
		</g>
		<g>
			<path d="M586.1,440.8c0.1,0,0.1-0.1,0.2-0.1c-0.1,0-0.2,0.1-0.4,0.1c0.2-0.1,0.3-0.1,0.5-0.1
				C586.3,440.8,586.1,440.8,586.1,440.8c0.1-0.1,0.3-0.1,0.5,0C586.4,440.8,586.2,440.7,586.1,440.8c0.2-0.1,0.3-0.1,0.4,0
				c-0.1-0.9-0.2-1.8-0.4-2.7c-0.2,0.2-0.5,0.3-0.7,0.5c-0.2,0.1-0.3,0.2-0.4,0.4c-0.1,0.1-0.2,0.3-0.3,0.5c-0.1,0.2-0.1,0.4,0,0.6
				c0,0.2,0.1,0.4,0.2,0.6c0.2,0.3,0.5,0.6,0.9,0.7c0.1,0,0.3,0,0.4,0c0.3,0,0.5-0.1,0.8-0.2c0.2-0.2,0.5-0.3,0.7-0.5
				c0.1-0.1,0.2-0.2,0.3-0.2c0.1-0.1,0.2-0.2,0.2-0.3c0-0.1,0.1-0.2,0.1-0.4c0.1-0.2,0.1-0.4,0-0.6c0-0.1,0-0.3-0.1-0.4
				c0-0.1-0.1-0.2-0.2-0.3c-0.1-0.1-0.2-0.2-0.3-0.3c-0.1-0.1-0.3-0.2-0.5-0.3c-0.2-0.1-0.5-0.1-0.8-0.1c-0.1,0-0.3,0-0.4,0
				c-0.3,0-0.5,0-0.8,0.1c-0.2,0.1-0.3,0.1-0.5,0.2c-0.1,0-0.1,0.1-0.2,0.1c-0.2,0.1-0.3,0.2-0.4,0.4c-0.1,0.1-0.2,0.3-0.3,0.5
				c-0.1,0.2-0.1,0.4,0,0.6c0,0.2,0.1,0.4,0.2,0.6c0.2,0.3,0.5,0.6,0.9,0.7c0.1,0,0.3,0,0.4,0C585.6,441,585.8,441,586.1,440.8
				L586.1,440.8z"/>
		</g>
		<g>
			<path d="M587.1,428.6c0.2-0.4,0.3-0.7,0.5-1c0.1-0.2,0.2-0.4,0.2-0.6c0-0.2,0-0.4,0-0.6c0-0.2-0.1-0.4-0.3-0.5
				c-0.1-0.2-0.2-0.3-0.4-0.4c-0.1,0-0.2-0.1-0.4-0.1c-0.3-0.1-0.5-0.1-0.8,0c-0.1,0-0.2,0.1-0.4,0.1c-0.2,0.1-0.4,0.3-0.5,0.5
				c-0.2,0.4-0.3,0.7-0.5,1c-0.1,0.2-0.2,0.4-0.2,0.6c0,0.2,0,0.4,0,0.6c0,0.2,0.1,0.4,0.3,0.5c0.1,0.2,0.2,0.3,0.4,0.4
				c0.1,0,0.2,0.1,0.4,0.1c0.3,0.1,0.5,0.1,0.8,0c0.1,0,0.2-0.1,0.4-0.1C586.8,429.1,587,428.9,587.1,428.6L587.1,428.6z"/>
		</g>
		<path class="st14" d="M549.3,477.1c-16.6-28.4-8.6-65.4,16.4-86.4c11-9,26-13,39-5c24,17,26,49,17,74c-1,2-2,4-3,7
			c-6,12-14,24-27,29c-13,4-27-1-36-10"/>
		<path class="st15" d="M544.7,373.7c-6.2,4.3-17.9,14.2-26,29c-2.7,5-11,21.2-10,43c0.4,9.4,0.8,18.3,7,27c7,9.8,17.4,13.6,24,16
			c9,3.3,16.9,3.9,22,4"/>
		<path class="st16" d="M502.9,462.9c0,1,1.4,7-0.9,14.8c-2.7,9.1-8.3,13.9-9.3,14.9c-0.8,0.8,6.2-4.4,15-6
			c7.7-1.4,14.8,0.4,13.8-0.6c-0.9-0.9-5.9-3-11.2-9.3C504.7,470.2,502.9,461.1,502.9,462.9z"/>
		<path class="st5" d="M455.2,454.2c0.3,0.5,7.4-3.1,11-5c5.5-2.9,9.4-5.2,14-8c6.3-3.8,9.5-5.8,12-8c3.6-3.2,5.8-6.1,8-9
			c7.1-9.5,6.8-13.3,13-21c0.9-1.2,3.6-3.8,9-9c15.3-14.9,18.4-17.4,18-18c-0.7-1-11,4.3-20,12c-7.9,6.7-12.6,13.3-15,17
			c-4.4,6.9-6.5,12.5-7,14c-1,2.8-1.6,5.2-2,7c-1.8,1.5-4.5,3.6-8,6c-5.5,3.8-9,5.7-13,8C464.8,446.3,454.8,453.6,455.2,454.2z"/>
		<path class="st16" d="M513.7,469.7c0.4,1.4,1.5,4.3,2.5,6.8c0.6,1.5-1,2.9-2.4,2.2l-3.1-1c1.1,2.1,3.9,4.9,7,7c2.9,2,5.5,2.4,8,3
			c7.7,1.9,7.3,3.6,15,6c6.7,2.1,17.8,5.5,26,3c1.1-0.4,4.2-1.5,6,0c0.9,0.7,1.4,2.1,1,3c-0.6,1.4-3.4,2.1-7,1c-4-0.7-8-1.3-12-2
			c-3.9-0.9-10.3-2.3-14.2-3.2l-2.8-0.8c-3.7-1.7-7.3-3.3-11-5"/>
		<path class="st16" d="M530.7,485.7c0,1,0,2,0,3c-1.4,0-4.2-0.2-7-2c-5.1-3.3-5.9-9.1-6-10C522,479.7,526.3,482.7,530.7,485.7z"/>
		<path class="st4" d="M403.2,589.2c-1,2-0.9-13.9-10-23c-1-1-2.3-2.8-6-3c-5.5-0.3-9.6,4.3-12,7c-2.8,3.2-6.4,8.5-9,21
			c-1.1,5.2-3,16.2-2,31c0.8,12.4,2,23,2,23c1,8.8,1.6,12.8-1,16c-3.3,4-9.6,4-14,4c-1.9,0-6.4-0.2-19-5c-7.3-2.8-10.9-4.2-14-6
			c-9.6-5.7-15.4-14.1-18-19c-10.4-19.8-0.7-46.6,13-62c1.8-2.1,17.9-19.6,38-20c5-0.1,11.6,0.8,13,1c8.6,1.2,16.8,2.3,23,6
			C401.5,568.8,403.7,588,403.2,589.2z"/>
		<path class="st3" d="M403.2,588.2c-0.3,0.2-1.6-2.2-5-7c-3.4-4.8-5.2-7.2-7-8c-4.8-2-10.5,2-12,3c-5.9,4.1-7.9,10.8-9,15
			c-4.9,18.8-4.4,42.2-4,51c0,0.3-2.1-15.1-2-33c0-3.4,0.1-7.6,1-13c1.1-7,2.9-12.1,4-15c1.7-4.3,3.2-6.7,4-8c1.3-2,2.6-4.1,5-6
			c2.2-1.8,4.6-3.9,8-4c2.9-0.1,5.1,1.4,6,2c2.5,1.7,3.7,3.9,7,12C402,584.2,403.6,588,403.2,588.2z"/>
		<g>
			<path d="M382.9,606.4c-0.1,0.2-0.2,0.5-0.3,0.7c0,0.1-0.1,0.3-0.1,0.4c0,0.3-0.1,0.5-0.1,0.8c0,0.2,0,0.4,0.1,0.6
				c0,0.1,0,0.2,0,0.2c0,0.2,0.1,0.4,0.3,0.5c0.1,0.2,0.2,0.3,0.4,0.4c0.2,0.1,0.4,0.2,0.6,0.2c0.2,0,0.4,0,0.6,0
				c0.1,0,0.2-0.1,0.4-0.2c0.2-0.1,0.4-0.3,0.5-0.5c0-0.1,0.1-0.2,0.1-0.4c0.1-0.3,0.1-0.5,0-0.8c0-0.1,0-0.2,0-0.2
				c0,0.1,0,0.3,0,0.4c0-0.2,0-0.4,0-0.5c0,0.1,0,0.3,0,0.4c0-0.2,0.1-0.4,0.1-0.5c0,0.1-0.1,0.2-0.1,0.4c0-0.1,0.1-0.2,0.1-0.2
				c0.1-0.2,0.2-0.4,0.2-0.6c0-0.2,0-0.4,0-0.6c0-0.2-0.1-0.4-0.3-0.5c-0.1-0.2-0.2-0.3-0.4-0.4c-0.4-0.2-0.8-0.3-1.2-0.2
				C383.5,605.8,383.1,606.1,382.9,606.4L382.9,606.4z"/>
		</g>
		<g>
			<path d="M388.4,612.6c-0.3,0.3-0.5,0.5-0.8,0.8c-0.1,0.1-0.2,0.3-0.3,0.5c-0.1,0.2-0.1,0.4-0.1,0.6c0,0.2,0,0.4,0.1,0.6
				c0.1,0.2,0.2,0.3,0.3,0.5c0.1,0.1,0.2,0.2,0.3,0.2c0.2,0.1,0.5,0.2,0.8,0.2c0.1,0,0.3,0,0.4,0c0.2-0.1,0.5-0.2,0.7-0.4
				c0.3-0.3,0.5-0.5,0.8-0.8c0.1-0.1,0.2-0.3,0.3-0.5c0.1-0.2,0.1-0.4,0.1-0.6c0-0.2,0-0.4-0.1-0.6c-0.1-0.2-0.2-0.3-0.3-0.5
				c-0.1-0.1-0.2-0.2-0.3-0.2c-0.2-0.1-0.5-0.2-0.8-0.2c-0.1,0-0.3,0-0.4,0C388.8,612.3,388.6,612.4,388.4,612.6L388.4,612.6z"/>
		</g>
		<g>
			<path d="M387.9,626.9c-0.2,0.2-0.4,0.3-0.5,0.5c-0.1,0.1-0.2,0.3-0.3,0.5c-0.1,0.2-0.1,0.4-0.1,0.6c0,0.2,0,0.4,0.1,0.6
				c0.1,0.2,0.2,0.3,0.3,0.5c0.1,0.1,0.2,0.2,0.3,0.2c0.2,0.1,0.5,0.2,0.8,0.2c0.1,0,0.3,0,0.4,0c0.2-0.1,0.5-0.2,0.7-0.4
				c0.2-0.2,0.4-0.3,0.5-0.5c0.1-0.1,0.2-0.3,0.3-0.5c0.1-0.2,0.1-0.4,0.1-0.6c0-0.2,0-0.4-0.1-0.6c-0.1-0.2-0.2-0.3-0.3-0.5
				c-0.1-0.1-0.2-0.2-0.3-0.2c-0.2-0.1-0.5-0.2-0.8-0.2c-0.1,0-0.3,0-0.4,0C388.3,626.6,388,626.7,387.9,626.9L387.9,626.9z"/>
		</g>
		<g>
			<path d="M388.7,620.4c0,0.4,0,0.9,0,1.3c0,0.2,0,0.4,0.1,0.6c0.1,0.2,0.2,0.3,0.3,0.5c0.1,0.2,0.3,0.2,0.5,0.3
				c0.2,0.1,0.4,0.1,0.6,0.1c0.1,0,0.3,0,0.4,0c0.2-0.1,0.5-0.2,0.7-0.4c0.1-0.1,0.2-0.2,0.2-0.3c0.1-0.2,0.2-0.5,0.2-0.8
				c0-0.4,0-0.9,0-1.3c0-0.2,0-0.4-0.1-0.6c-0.1-0.2-0.2-0.3-0.3-0.5c-0.1-0.2-0.3-0.2-0.5-0.3c-0.2-0.1-0.4-0.1-0.6-0.1
				c-0.1,0-0.3,0-0.4,0c-0.2,0.1-0.5,0.2-0.7,0.4c-0.1,0.1-0.2,0.2-0.2,0.3C388.8,619.9,388.7,620.1,388.7,620.4L388.7,620.4z"/>
		</g>
		<g>
			<path d="M378.5,609.7c-0.1,0.2-0.2,0.3-0.3,0.5c-0.1,0.1-0.1,0.3-0.2,0.4c-0.1,0.1-0.1,0.3-0.2,0.4c-0.1,0.2-0.1,0.4-0.1,0.6
				c0,0.1,0,0.2,0,0.3c0,0,0,0.1,0,0.1c0,0.2,0,0.3,0.1,0.5c0,0.2,0.1,0.4,0.2,0.6c0.1,0.2,0.2,0.3,0.4,0.4c0.1,0.1,0.3,0.2,0.5,0.3
				c0.2,0.1,0.4,0.1,0.6,0c0.2,0,0.4-0.1,0.6-0.2c0.3-0.2,0.6-0.5,0.7-0.9c0-0.1,0-0.3,0-0.4c0-0.3-0.1-0.5-0.2-0.8c0,0,0,0,0-0.1
				c0,0.1,0.1,0.2,0.1,0.4c0-0.1-0.1-0.2-0.1-0.3c0,0.1,0,0.3,0,0.4c0-0.1,0-0.3,0-0.4c0,0.1,0,0.3,0,0.4c0-0.2,0.1-0.3,0.1-0.5
				c0,0.1-0.1,0.2-0.1,0.4c0.1-0.2,0.3-0.5,0.4-0.7c0.1-0.2,0.2-0.4,0.2-0.6c0-0.2,0-0.4,0-0.6c0-0.2-0.1-0.4-0.3-0.5
				c-0.1-0.2-0.2-0.3-0.4-0.4c-0.4-0.2-0.8-0.3-1.2-0.2C379,609.1,378.7,609.3,378.5,609.7L378.5,609.7z"/>
		</g>
		<g>
			<path d="M375.9,615.9c-0.1,0.2-0.1,0.4-0.2,0.7c-0.1,0.3-0.1,0.7-0.1,1c0,0.2,0,0.4,0.1,0.6c0.1,0.2,0.2,0.3,0.3,0.5
				c0.1,0.2,0.3,0.2,0.5,0.3c0.2,0.1,0.4,0.1,0.6,0.1c0.1,0,0.3,0,0.4,0c0.2-0.1,0.5-0.2,0.7-0.4c0.1-0.1,0.2-0.2,0.2-0.3
				c0.1-0.2,0.2-0.5,0.2-0.8c0-0.2,0-0.4,0-0.5c0,0.1,0,0.3,0,0.4c0-0.3,0.1-0.5,0.2-0.8c0.1-0.2,0.1-0.4,0-0.6
				c0-0.2-0.1-0.4-0.2-0.6c-0.1-0.2-0.2-0.3-0.4-0.4c-0.1-0.1-0.3-0.2-0.5-0.3c-0.1,0-0.3,0-0.4,0c-0.3,0-0.5,0.1-0.8,0.2
				c-0.1,0.1-0.2,0.2-0.3,0.2C376.1,615.5,375.9,615.7,375.9,615.9L375.9,615.9z"/>
		</g>
		<g>
			<path d="M382.4,617.2c-0.1,0.5-0.1,0.9-0.1,1.4s0.1,1,0.2,1.4c0,0.2,0.1,0.4,0.3,0.5c0.1,0.2,0.2,0.3,0.4,0.4
				c0.2,0.1,0.4,0.2,0.6,0.2c0.2,0,0.4,0,0.6,0c0.4-0.1,0.7-0.3,0.9-0.7c0-0.1,0.1-0.2,0.1-0.4c0.1-0.3,0.1-0.5,0-0.8
				c0-0.1,0-0.2-0.1-0.3c0,0.1,0,0.3,0,0.4c-0.1-0.5-0.1-1,0-1.6c0,0.1,0,0.3,0,0.4c0,0,0-0.1,0-0.1c0.1-0.2,0.1-0.4,0-0.6
				c0-0.2-0.1-0.4-0.2-0.6c-0.1-0.2-0.2-0.3-0.4-0.4c-0.1-0.1-0.3-0.2-0.5-0.3c-0.4-0.1-0.8-0.1-1.2,0.2c-0.1,0.1-0.2,0.2-0.3,0.2
				C382.6,616.7,382.5,617,382.4,617.2L382.4,617.2z"/>
		</g>
		<g>
			<path d="M378.4,624.7c0,0,0.1,0.1,0.1,0.2c-0.1-0.1-0.2-0.2-0.2-0.3c0.1,0.1,0.2,0.3,0.3,0.5
				C378.5,624.9,378.4,624.8,378.4,624.7c0.1,0.1,0.2,0.3,0.2,0.5c0-0.1,0-0.3,0-0.4c0,0.1,0,0.2,0,0.3c0,0.2,0,0.4,0.1,0.6
				c0.1,0.2,0.2,0.3,0.3,0.5c0.1,0.2,0.3,0.2,0.5,0.3c0.2,0.1,0.4,0.1,0.6,0.1c0.1,0,0.3,0,0.4,0c0.2-0.1,0.5-0.2,0.7-0.4
				c0.1-0.1,0.2-0.2,0.2-0.3c0.1-0.2,0.2-0.5,0.2-0.8c0-0.3,0-0.5-0.1-0.8c0-0.2-0.1-0.3-0.1-0.4c-0.1-0.2-0.2-0.5-0.3-0.7
				c-0.1-0.1-0.1-0.2-0.2-0.3c-0.1-0.1-0.2-0.2-0.3-0.3c-0.1-0.2-0.3-0.2-0.5-0.3c-0.2-0.1-0.4-0.1-0.6-0.1c-0.2,0-0.4,0-0.6,0.1
				c-0.2,0.1-0.4,0.2-0.5,0.3c-0.3,0.3-0.5,0.7-0.4,1.1c0,0.1,0,0.3,0,0.4C378,624.3,378.2,624.5,378.4,624.7L378.4,624.7z"/>
		</g>
		<g>
			<path d="M380.2,629.8c0,0.4,0.1,0.7,0.1,1.1c0,0.2,0,0.4,0.1,0.6c0.1,0.2,0.2,0.3,0.3,0.5c0.1,0.2,0.3,0.2,0.5,0.3
				c0.2,0.1,0.4,0.1,0.6,0.1c0.1,0,0.3,0,0.4,0c0.2-0.1,0.5-0.2,0.7-0.4c0.1-0.1,0.2-0.2,0.2-0.3c0.1-0.2,0.2-0.5,0.2-0.8
				c0-0.4-0.1-0.7-0.1-1.1c0-0.2,0-0.4-0.1-0.6c-0.1-0.2-0.2-0.3-0.3-0.5c-0.1-0.2-0.3-0.2-0.5-0.3c-0.2-0.1-0.4-0.1-0.6-0.1
				c-0.1,0-0.3,0-0.4,0c-0.2,0.1-0.5,0.2-0.7,0.4c-0.1,0.1-0.2,0.2-0.2,0.3C380.3,629.3,380.2,629.5,380.2,629.8L380.2,629.8z"/>
		</g>
		<path class="st4" d="M366.2,640.2c0,4.1,0.6,9.8,3,16c0.8,2.1,2.6,6.6,5,10c1.9,2.7,4.4,4.7,5,5c4,2,9.2-1.5,10-2
			c3.4-2.2,5-5.2,6-7c5.4-10.1,7.5-19.7,8-22c1.1-5.1,2.5-11.8,3-21c0.5-9.5,0.3-8,0-27c0-2.9-1.1-6.4-2-11c-1-5.2-2.7-9.3-4-12"/>
		<path class="st5" d="M445.2,479.2c-8.5,5.7-20.6,14.1-34,24c-7.2,5.3-38.9,32.6-43,41c-1.2,2.5-2,5-1,7c0.8,1.5,2.2,2,5,3
			c7.6,2.6,14,4.4,16,5c6.1,1.8,5.6,1.9,7,2c6,0.5,10.8-2.2,14-4c6.9-4,18.9-14.9,22-17c0,0,4.6-3.2,9.1-6.7
			c5-3.9,36.9-29.3,36.9-29.3c0,0.8-8,7.3-11,10c-23.2,20.7-37.3,28-49,39c-4.5,4.2-10.4,7-14,12c-0.6,0.8-2.2,3.2-4,3
			c-1.2-0.2-3-3-7-5c-2.9-1.5-6.4-3.4-13-5c-5.3-1.3-6.4-1.3-13-3c-2.2-0.5-10.6-1.9-11-3c-1-2.5,3.7-6.3,9-11
			c11.4-10.3,8.5-9.9,18-18c7-6,7.1-4.9,19-14c11.5-8.8,12.5-10.6,20-16C426.4,489.5,434.3,484.3,445.2,479.2z"/>
		<path class="st17" d="M425.7,603.7c27.7-5,55.3-10,83-15"/>
		<path class="st17" d="M431.7,626.7c35.3-0.3,70.7-0.7,106-1"/>
		<path class="st17" d="M423.7,653.7c26.7,8.7,53.3,17.3,80,26"/>
		<path class="st10" d="M644.7,425.7"/>
		<path class="st4" d="M629.7,427.7c0.5,0.1,1.3,0.3,2,1c1.3,1.3,1.1,3.1,1,4c-0.3,3.5-3.3,5.5-4,6"/>
		<path class="st4" d="M632.2,448.2c3-5,6-10,9-15c0.2-0.1,2.2-1.2,2-2c-0.1-0.6-1.5-0.8-3-1c-2.1-0.3-3.5-0.4-5,0
			c-1.4,0.4-2.5,1.4-5,5c-4.1,6-6.2,9-5,11c0.7,1.3,2.4,1.8,3,2C630,448.8,631.6,448.4,632.2,448.2z"/>
		<path class="st4" d="M633.2,445.2c0.6,0.8,1.5,2,3,3c0.8,0.6,1.4,0.9,2,1c2.2,0.2,4.1-3.5,5-5c1.8-3.2,4.5-7.5,9-13
			c0-0.2,0.2-1.9-1-3c-1.5-1.4-4.1-0.4-5,0c-3,1.2-4.5,3.9-5,5"/>
		<path class="st4" d="M643.2,431.2"/>
		<path class="st4" d="M656.4,428.4c-0.8,0.2-3.6,1-6.3,2.8c-1.3,0.9-6.2,4.1-7,9c-0.2,1.5-0.1,2.7,0,3c0.1,0.8,0.6,3.2,2,4
			c2.3,1.4,5.4-1.9,8-4c1.9-1.5,4.3-4.5,6-8c0.4-0.9,0.7-4.6,0-6C658.4,427.6,656.6,428.4,656.4,428.4z"/>
		<path class="st4" d="M656.3,440.1c-1.7,1.1-2.2,3.5-1,5.2c0.2,0.3,0.5,0.6,0.9,0.9c1.7,1.3,3.6,1,4,1c4.9-0.7,7.3-8.1,8-12
			c0.3-2,0.9-5.3-1-7c-1.1-1-2.6-1-3-1c-0.2,0-0.3,0-0.5,0c-1.9,0.2-3.3,2-3.1,4c0.1,1.1,0.1,2.5-0.4,4
			C659.3,437.7,657.6,439.2,656.3,440.1z"/>
		<path class="st18" d="M666.7,427.7c0,0.4,0,1.9,0,3c0,2.4-0.5,5.7-1,7c-0.4,1.1-2.3,6.3-6,7c-1.9,0.3-4.7-0.6-5,0
			c-0.2,0.4,4.2,2.1,4.5,2.5c0,0,2.8-0.5,4-2c1.7-2.2,2.6-3.2,3-4c0.6-1,2.5-5.8,2.5-10.5C668.7,428.7,667.3,428,666.7,427.7z"/>
		<path class="st18" d="M668.7,429.7c-0.1,0,0.9-1,2-1c1,0,2-0.1,3,1c0.5,0.5,0.9,1.3,1,3c0.3,4.2-1.7,6.5-2,7c-0.8,1.4-3.2,5.1-6,5
			c-0.8,0-1.7-0.4-2,0c-0.3,0.4,0.2,1.5,1,2c1.3,0.9,3.1,0.3,4,0c0.6-0.2,2.7-0.9,4-3c0.3-0.5,1.6-6.1,2-9c0.2-1.7,0.4-2.7,0-4
			c-0.2-0.6-0.4-1.4-1-2c-1-1-2.8-1.6-4-1C669.1,428.4,668.7,429.7,668.7,429.7z"/>
		<path class="st18" d="M674.7,428.7c0.3-0.3,1.7-2,4-2c0.5,0,1.1,0,2,1c0.8,0.9,1.4,2.1,1,5c-0.2,1.6-0.8,5.4-1,9
			c-0.1,2.1-0.1,3.4-1,4c-0.8,0.5-1.9,0.3-3,0c-0.7-0.2-3.5-0.6-4-2c0-0.1,0.7-0.7,1-1c0.3-0.4,1,0.1,2,0c0.8-0.1,1.4-0.5,2-1
			c0.2-0.2,1.4-1.2,2-3c0.6-1.9,0.7-5.1,1-8c0.2-1.8-0.9-1.9-1-2c-0.6-0.3-2.4-0.4-3,0c-0.6,0.4-1.6,2-2,2
			C674.3,430.7,675,429.3,674.7,428.7z"/>
		<path class="st4" d="M680.2,429.2c1-0.4,3.8-1.3,5.5-1.5c1.1-0.2,1.7-0.2,2,0c0.9,0.7,0.1,2.7,0,7c0,0.9,0,1.6,0,2"/>
		<path class="st19" d="M688.2,429.2c0.2-0.4,0.7-1.5,2-2c1.2-0.5,2.3-0.2,3,0c0.9,0.3,1.6,0.7,2,1"/>
		<path class="st20" d="M627.2,446.2c0.1,0.3,0.4,0.7,1,1c0.8,0.4,1.5,0.1,2,0c0.9-0.3,2.4-0.7,4-2c-0.7,2.2-0.7,2.5-1,3
			c-1,1.6-4.3,2.3-6,2c-0.6-0.1-1.7-0.3-2-1C624.8,448.4,625.6,447.1,627.2,446.2z"/>
		<path class="st20" d="M635.2,443.2c-0.2,0.1-1.4,1.5-1,3c0.2,0.9,1,1.3,2,2s2,1.3,3,1c0.3-0.1,0.5-0.2,2-2c1.5-1.9,1.8-2.4,2-3
			c0.2-0.6,0.4-1.8,0-2c-0.4-0.2,0,0.7-2,2c-1,0.6-2.5,2-3,2C636.7,446.3,635.6,443.8,635.2,443.2z"/>
		<path class="st20" d="M644.2,442.2c0,2.1,0.8,2.8,1,3c1.5,1.2,6,0.3,9-3c-0.2,0.5-1.5,1.2-2,2c-0.4,0.6-1.7,2.4-4,3
			c-0.8,0.2-1.9,0.5-3,0c-1.5-0.7-2.6-2.7-2-4C643.4,442.7,643.8,442.4,644.2,442.2z"/>
		<path class="st13" d="M481.7,434.7c0.9-2.9,0-6.7,2-8c0.3-0.2,0.8-0.4,1-1c0.4-1-0.1-2.5-1-3c-1.1-0.7-2.6,0.2-4,1
			c-2.8,1.6-4.4,3.9-5,5c-1.6,2.7-1.9,5.1-2,6c-0.2,1.7-0.5,5.2,1,6C475.5,441.7,480.4,438.7,481.7,434.7z"/>
		<path class="st13" d="M494.7,425.7c-0.3-0.7-1.2-2.6-3-3c-2.6-0.6-5.1,2.6-6,5c-1,2.6-0.3,5.1,0,6"/>
		<path class="st13" d="M484.7,425.7c-0.3,2.7-0.7,5.3-1,8"/>
		<path class="st13" d="M478.7,423.7c-0.1-0.7-0.3-3-2-4c-2.5-1.5-5.9,1.2-7,2c-3.1,2.3-5.7,6.6-5,11c0.2,1.1,0.7,4.4,3,5
			c1.7,0.4,3.8-0.8,5-3"/>
		<path class="st3" d="M460.2,433.2c-0.2-0.6-1.5-4.8,1-8c2.1-2.8,6.2-3.9,7-3c0.4,0.5-0.1,1.7-1,3c-0.9,0.2-2.5,0.7-4,2
			C460.6,429.4,460.2,432.4,460.2,433.2z"/>
		<path class="st3" d="M470.2,419.2c2.4,2-4-1.9-7-2c-5-0.2-8.8,4.5-9,5c-0.6,1.3-2.9,5.6-1,8.4c1.7,2.6,6.4,3,11,0
			c0.4,0.5,1.4,2,1,3.4c-0.6,2.1-4,2.2-5,2.2c-0.8,0-6.6,0.2-9-4.5c-2.2-4.2,0.8-7.8,3-10.5C457.9,416.6,464.2,414.2,470.2,419.2z"
			/>
		<path class="st13" d="M460.2,417.2c-0.4-0.7-2-3.3-5-4c-2.7-0.6-4.9,0.7-7,2c-2.5,1.5-5.7,3.5-6,7c-0.2,2.6,1.2,5.9,4,7
			c1.7,0.6,3.3,0.2,4,0"/>
		<path class="st2" d="M450.7,430.7c-0.7,0.2-4,0.9-7-1c-0.5-0.3-2.7-2-2-6c0.4-2.3,1.4-5.3,4-6c-0.3,0.4-4.1,4.8-3,8
			c0.6,1.7,2.2,2.8,4,4C448.2,430.8,449.7,430.4,450.7,430.7z"/>
		<path class="st13" d="M451.7,412.7c-0.3-0.8-1.3-3.5-4-5c-3.1-1.7-6.4-0.6-8,0c-1.6,0.6-5.6,2-7,6c-0.9,2.5-1,6.6,2,9
			c2.1,1.8,5.2,2.1,8,1"/>
		<path class="st13" d="M444.7,405.7c-0.4-0.7-2-3.2-5-4c-2.3-0.6-4.1,0.2-6,1c-1.6,0.7-5.2,2.2-7,6c-0.7,1.5-1.9,3.7-1,6
			c0.9,2.4,3.7,4,7,4"/>
		<path class="st13" d="M439.7,400.7c0.1-1,0.1-2.8-1-4c-2-2-5.9-0.7-8,0c-1.7,0.6-5.8,1.9-8,6c-0.8,1.4-2.4,4.3-1,7
			c1.1,2.1,3.3,2.8,4,3"/>
		<path class="st13" d="M435.7,394.7c0-0.9-0.2-2.1-1-3c-0.9-1-2.4-1.4-7-1c-6.3,0.5-9.5,0.8-11,3c-1.5,2.1-1.1,4.6-1,5
			c0.5,2.8,2.9,5.1,6,6"/>
		<path class="st13" d="M432.7,390.7c0.3-0.9,0.7-2.9,0-5c-1.1-3.4-4.3-5.4-7-6c-5.5-1.1-9.7,3.5-11,5c-1,1.1-2,2.3-2,4
			c0.1,3,3.7,4.9,4,5"/>
		<path class="st15" d="M418.7,389.7c0.8-0.4,1.8-0.8,3-1c3.2-0.6,5.8,0.5,7,1"/>
		<path class="st15" d="M426.7,408.7c-0.2,0.5-0.2,4.1,1,7c1.2,2.7,3,1.3,3.5,1.5"/>
		<path class="st15" d="M418.7,380.7c-1.8-0.2-3.4-1.4-4-3c-0.8-2.1,0-4.6,2-6c4.6,1.4,8.4,2.3,11,3c3.1,0.8,4.9,1.2,5,2
			c0.1,1.1-3.5,2.3-6,3"/>
		<path class="st16" d="M433.1,377.1c0.2-0.1,0.5,0,0.5,0.3c-0.5,3.4-1.3,4.2-1.9,4.3c-1.1,0.2-3-2-3-2l0,0
			C428.7,379.7,430.4,378.7,433.1,377.1z"/>
		<path class="st15" d="M417.6,372.8c-0.6,0-1.2-0.4-1.5-1c-0.4-0.8-0.8-1.9-0.4-3.1c0.8-2.5,4.4-2.9,5-3c3.9-0.4,4.5,2.4,10,3
			c1.1,0.1,2.3,0.1,3,1c0.9,1,0.9,2.9,0,4c-0.5,0.6-1.2,0.9-3,1c-3,0.2-5.1-0.5-7-1C422.2,373.3,420.2,372.9,417.6,372.8z"/>
		<path class="st15" d="M433.7,377.7"/>
		<path class="st15" d="M433.7,376.7c0-1,0-2,0-3"/>
		<path class="st21" d="M428.3,355.8l-2.7-1.5c-0.6-0.4-1.4-0.4-2,0l-2.1,1.1c-0.7,0.4-1.1,1.1-1.1,1.8v0.5c0,0.6,0.3,1.2,0.7,1.5
			l5.1,4.5c0.1,0.1,0.3,0.2,0.5,0.3l5.3,2.5c0.9,0.4,1.9,0.2,2.5-0.5l0,0c0.6-0.8,0.6-1.9,0-2.6l-5.7-7.1
			C428.7,356.1,428.5,355.9,428.3,355.8z"/>
		<path class="st22" d="M423.7,361.7c-0.8,2.2-0.4,3.4,0,4c1.5,2.2,5.4,0.2,9,3c0.6,0.4,1.1,1,2,1c1.3,0,2.9-1.4,3-3
			c0.1-1.7-1.4-3.2-2-3c-0.6,0.2,0,2.2-1,3c-1.1,0.8-3.1-0.1-5-1C428.1,365,426,363.8,423.7,361.7z"/>
		<path class="st21" d="M431.6,346.3c-0.7-0.3-1.4,0.8-1.9,1.4c-1.8,2.2-1.2,5-1,6c0.2,0.8,0.5,1.6,2,4c2.8,4.4,4.2,6.6,6,7
			c1.8,0.4,4.1-0.4,5-2c0.7-1.3-4.6-8.8-5-10C435.2,348.2,432.7,346.7,431.6,346.3z"/>
		<path class="st21" d="M440.7,340.7c-1.1-0.8-2.9-0.7-4,0c-1.5,0.9-1.8,2.8-2,4c-0.6,4.5,1.7,9.1,5,12c1.8,1.6,4.4,4,7,3
			c2.3-0.9,3.8-4,3-6c-1-2.5-4.9-1.2-7-4C440.3,346.6,443,342.4,440.7,340.7z"/>
		<path class="st21" d="M451.7,337.7c-1-0.9-2.8-0.7-4,0c-1.7,1-1.9,3-2,4c-0.3,2.9,1.1,5.1,3,8c1.7,2.6,2.7,4.1,4,4
			c1.5-0.1,2.9-2.1,3-4c0.1-2.4-2-2.7-3-6C451.7,340.6,453,338.8,451.7,337.7z"/>
		<path class="st22" d="M442.7,341.7C443.5,341.8,442.7,341.7,442.7,341.7c3.3,2.1,5,8,6,10c0.8,1.5-2.3-0.4-4-2
			C442.6,347.7,440.4,344.8,442.7,341.7z"/>
		<path class="st21" d="M459.7,333.7c-1.9-0.5-5.3,3.1-6,7c-0.8,4.5,1.9,9.7,6,11c2.1,0.7,5.1,0.5,6-1c0.9-1.5-1.1-3.2-3-8
			C460.4,337,461.2,334.1,459.7,333.7z"/>
		<path class="st22" d="M461.7,334.7c1.3,1,2.7,2,4,3c-0.3,3-0.7,6-1,9C463.7,342.7,462.7,338.7,461.7,334.7z"/>
		<path class="st21" d="M471.7,332.7c-1.6-0.7-4.5,1.5-6,4c-3.1,5.2-0.9,13.8,3,15c2,0.6,4.7-0.6,5-2c0.3-1.6-2.8-2.4-3-5
			c-0.2-1.8,1.2-2.3,2-5C473.4,337.1,473.2,333.4,471.7,332.7z"/>
		<path class="st21" d="M483.7,333.7c-0.6-0.9-2.7-0.5-4,0c-2.9,1.1-4.1,3.9-5,6c-1.3,3-2.9,6.5-1,9c1.1,1.5,3.2,2.1,5,2
			c0.4,0,3.1-0.2,4-2c1.1-2.3-2.3-4.2-2-8C480.9,336.9,484.5,334.9,483.7,333.7z"/>
		<path class="st21" d="M492.7,333.7c-1.6-1.1-4.6,0.9-6,2c-4.7,3.9-7,12.1-4,15c1.9,1.8,5.9,1.6,7,0c0.8-1.1-0.4-2.2,0-5
			c0.3-2,1.2-3.6,2-5c1.2-2.1,1.9-2.6,2-4C493.7,336.5,493.8,334.5,492.7,333.7z"/>
		<path class="st21" d="M501.7,335.7c-0.7-1.3-5.1-1.2-8,1c-5.2,4-4.5,13.9-2,15c1.2,0.5,2.9-0.9,3-1c1.7-1.5,1.4-3.5,2-6
			C498,339,502.5,337.2,501.7,335.7z"/>
		<path class="st21" d="M473.7,334.7c1.3,0.2,2.3,0.7,2,1c-2,2-0.5,5.8-4,9C472.3,341.7,473,337.7,473.7,334.7z"/>
		<path class="st23" d="M509.2,337.2c-1.5,0-5.6,0.1-9,3c-4.3,3.7-5.9,10.5-4,12c1.6,1.3,5.7-1.4,8-3c2.3-1.5,7.7-5.2,7-9
			C510.9,338.9,510,337.9,509.2,337.2z"/>
		<path class="st23" d="M516.2,337.2c-2.6-0.4-4.8,4.1-8,8c-2.5,2.9-4.2,3.1-4,6c0,0.4,0.2,3.1,2,4c2.1,1,4.9-1.3,7-3
			c2.9-2.3,7.2-7.6,6-12C518.7,338.4,518.1,337.5,516.2,337.2z"/>
		<path class="st5" d="M505.2,338.2c-5.5,6.9-8.5,9.4-9,9c-0.6-0.4,1.2-3.6,2-5C500.3,338.6,504.7,338.2,505.2,338.2z"/>
		<path class="st5" d="M496.2,352.2c0.1,0.6,1.3,1.6,2,2c2,1,6.3-3.5,6-4c-0.2-0.3-2,0.6-3,1c-1,0.5-1.8,1.9-3,2
			C497.7,353.2,496.4,352.2,496.2,352.2z"/>
		<path class="st23" d="M512.2,353.2c0,0.6,0.3,2.8,2,4c2.2,1.5,5.1,0.4,6,0c4.9-2,6.4-7.4,8-13c0.5-1.8,0.7-3.2,0-4
			c-1.3-1.4-4.6-0.2-5,0c-1.8,0.7-2.8,1.8-4,3c-1.2,1.2-1.8,2.2-3,4C515.3,348.5,513.9,350.5,512.2,353.2z"/>
		<path class="st5" d="M514.2,352.2c-1.4,0.2-1.6-0.1-2,1c-0.5,1.5,0.8,3.3,2,4c2.9,1.7,8.1-0.2,10-3c2-3,4-9,4-9
			c-0.3-0.2-1.8,5.7-6,8c-0.9,0.5-4.3,3.4-6,2C515.2,354.4,514.1,353,514.2,352.2z"/>
		<path class="st5" d="M527.2,347.2c1-2,7.4-4.2,8-4c1.1,0.5,1.2,0.6,1,2c-0.1,0.6-3.3,4.5-5,7c-0.5,0.7-4.1,4.9-5,5
			c-1.3,0.1-2.5-0.6-3-1c-0.2,0-1.6,0.1-2,1c-0.4,1,0.8,2.5,2,3c2,0.9,4.2-0.5,5-1c1.3-0.8,2-1.7,3-3c2.1-2.8,3.5-4.7,5-8
			c1.9-4.1,1.1-4.8,0-6c-1.2-1.3-3.3-0.2-4,0C529.3,343.2,527.7,346.3,527.2,347.2z"/>
		<path class="st23" d="M528.2,359.2c1.9,1,4.5,2.1,6,1c1.6-1.1,0.4-3.3,2-6c2.2-3.7,6.9-3.5,7-6c0-0.8-0.4-1.6-1-2
			c-1.3-0.9-3.8-0.2-6,2"/>
		<path class="st23" d="M535.2,359.2c-0.2,0.5-1.1,3,0,4c1.2,1.1,4.4,0,6-2c1.8-2.1,0.3-3.6,2-6c1.7-2.4,4.1-2.3,5-5
			c0.1-0.4,0.5-1.5,0-2c-0.7-0.7-2.6-0.3-5,1"/>
		<path class="st5" d="M543.2,349.2c-1.4,1.3-3.3,3.3-5,6c-1.9,2.9-2.6,5.1-3,5c-0.4-0.1-0.1-2.7,1-5c0.8-1.7,1.8-2.7,2-3
			C540,350.3,542,349.5,543.2,349.2z"/>
		<path class="st23" d="M542.2,359.2c-0.9,0.8-1.3,2.9-1,4c0.4,1.4,1.9,2.3,3,2c0.6-0.2,1.1-0.7,2-3c1.7-4.2,1-4.4,2-6
			c1.4-2.4,3.2-2.4,4-5c0.5-1.4,0.1-1.9,0-2c-0.5-0.6-2.7,0.4-4,1"/>
		<path class="st5" d="M541.2,362.2c-0.2,0.8-0.5,1.9,0,3c0.5,1.2,1.5,1.5,4,3c3.5,2.1,3.4,2.7,5,3c2.4,0.5,5-0.3,5-1
			c0-0.4-1.3-1-4-2c-2.7-1-3.4-1.1-4-2c-0.9-1.3-0.7-3-1-3c-0.3,0-0.1,1.4-1,2c-0.8,0.5-1.8,0.1-2,0
			C541.5,364.5,541.2,362.4,541.2,362.2z"/>
		<path class="st5" d="M546.2,362.2c0,0.8,0,1.7,0,2.5"/>
		<path class="st5" d="M535.2,360.2c0.2,1.3,0.6,1.8,1,2c0.4,0.2,0.7,0.1,2,0c1.3-0.1,2-0.1,2,0c0.1,0.3-2.5,2-4,1
			C535.3,362.7,535,361.5,535.2,360.2z"/>
		<path class="st23" d="M552.2,352.2c0.3-1,1.1-1.8,2-2c1.5-0.3,2.9,0.9,3,2c0.1,1.3-1.9,1.5-4,4c-1.7,2-2.4,4.1-3,6
			c-0.7,2.2-1,4.3-1,6"/>
		<path class="st23" d="M553.2,369.2c-0.3-1.2-0.7-3.5,0-6c0.9-3.1,2.8-5,4-6c1.9-1.7,3.8-2.5,5-3c-1.7-0.7-3.3-1.3-5-2"/>
		<path class="st23" d="M556.2,370.2c-0.1-0.5-0.5-3,1-5c1.1-1.4,2.5-1.9,3-2c0.5-0.1,0.8-0.2,1,0c0.3,0.3,0.2,0.9,0,2
			c-0.2,1.6-0.3,2.5,0,3c0.1,0.2,0.6,0.8,2,1"/>
		<path class="st23" d="M561.2,354.2c1.9,0.3,3.8,0.9,4,2c0.1,0.5-0.2,0.6-1,2c-1.1,2-0.9,2.7-2,4c-0.6,0.7-0.8,0.6-1,1
			c-0.5,0.9-0.5,2.5,2,6"/>
		<path d="M560.4,363.9c0,0.8,0,1.6,0,2.4c0,0.5,0,0.9,0.1,1.4c0.1,0.4,0.2,0.8,0.2,1.1c0-0.1,0-0.3,0-0.4c0,0.2,0,0.5,0,0.7
			c0,0.8,0.7,1.5,1.5,1.5c0.8,0,1.5-0.7,1.5-1.5c0-0.8-0.2-1.5-0.3-2.3c0,0.1,0,0.3,0,0.4c-0.1-0.5,0-1.1,0-1.6c0-0.6,0-1.1,0-1.7
			c0-0.8-0.7-1.5-1.5-1.5C561.1,362.4,560.4,363,560.4,363.9L560.4,363.9z"/>
		<path d="M561.2,362.1c-0.1,0.1-0.2,0.3-0.3,0.4c0,0,0,0.1,0,0.1c-0.1,0.1-0.1,0.3-0.2,0.4c-0.1,0.2-0.1,0.5-0.1,0.7
			c0,0.2,0,0.5,0,0.7c0-0.1,0-0.3,0-0.4c0,0.1,0,0.2,0,0.2c-0.1,0.2-0.1,0.4,0,0.6c0,0.2,0.1,0.4,0.2,0.6c0.1,0.2,0.2,0.3,0.4,0.4
			c0.1,0.1,0.3,0.2,0.5,0.3c0.1,0,0.3,0,0.4,0c0.3,0,0.5-0.1,0.8-0.2c0.1-0.1,0.2-0.2,0.3-0.2c0.2-0.2,0.3-0.4,0.4-0.7
			c0.1-0.2,0.1-0.4,0.1-0.6c0-0.1,0-0.2,0-0.3c0-0.2,0-0.4,0-0.5c0,0.1,0,0.3,0,0.4c0-0.1,0-0.2,0.1-0.2c0,0.1-0.1,0.2-0.1,0.4
			c0-0.1,0-0.1,0.1-0.2c-0.1,0.1-0.2,0.2-0.2,0.3c0,0,0,0,0,0c0.2-0.1,0.2-0.3,0.3-0.5c0.1-0.2,0.1-0.4,0.1-0.6c0-0.2,0-0.4-0.1-0.6
			c-0.1-0.2-0.2-0.4-0.3-0.5c-0.3-0.3-0.7-0.5-1.1-0.4c-0.1,0-0.3,0-0.4,0C561.6,361.8,561.4,361.9,561.2,362.1L561.2,362.1z"/>
		<path d="M560.8,363.3c0.1,2.1,0.2,4.2,0.5,6.3c0,0.4,0.4,0.7,0.7,0.9c0.3,0.2,0.8,0.3,1.2,0.1c0.4-0.1,0.7-0.3,0.9-0.7
			c0.2-0.4,0.2-0.7,0.2-1.2c0,0-0.1-0.5,0-0.3c0,0.2,0-0.1,0-0.2c0-0.2,0-0.5-0.1-0.8c0-0.5-0.1-1-0.1-1.4c0-1-0.1-1.9-0.1-2.9
			c0-0.8-0.7-1.5-1.5-1.5C561.5,361.8,560.7,362.4,560.8,363.3L560.8,363.3z"/>
		<path class="st23" d="M565.2,356.2c0.9-0.3,2.6-0.7,4,0c0.3,0.1,1,0.5,1,1c0,0.5-0.6,0.7-1,1c-1.6,1.1-1.3,4.3-1,7
			c0.1,1.2,0.4,3,1,5"/>
		<path class="st23" d="M570.2,356.2c0.8-1.1,2.1-2.6,4-4c2-1.4,3.4-2.4,5-2c1.8,0.5,3.2,2.4,3,4c-0.2,1.2-1.2,1.4-4,4
			c-1.7,1.5-2.6,2.3-3,3c-1.9,3.1,0.8,8,2,10"/>
		<path class="st5" d="M582.2,355.2c-0.7,0.2-4.5,2.2-6,5c-0.3,0.5-1,2-1,4c0,1,0.3,2,1,4c0.1,0.4,0.4,1.1,1,2c0.1,0.2,0.8,1.1,1,1
			c0.3-0.1-0.8-1.8-1-4c-0.2-2,0.5-3.7,2-7C579.9,358.5,581.6,356.2,582.2,355.2z"/>
		<path class="st23" d="M582.2,354.2c0.7-0.6,1.7-1.3,3-2c1.1-0.6,2.8-1.5,5-2c1.6-0.3,5.2-1.1,8,1c0.4,0.3,2.3,1.7,2,3
			c-0.4,1.6-3.7,0.9-8,3c-1.2,0.6-4.2,2-6,5c-2.4,4-1.4,8.5-1,10"/>
		<path class="st23" d="M595.2,356.2"/>
		<path class="st5" d="M599.2,355.2c-5,2.2-8.2,5.1-10,7c-2.1,2.2-4.7,5-4,8c0.2,0.9,0.6,1.5,1,2c-0.5-1.1-1.2-3.3-1-6
			c0,0,0.2-2.1,1-4C587.8,358.5,592.9,355.7,599.2,355.2z"/>
		<path class="st5" d="M599.2,355.2c1.5,0.4,4.1,0.5,6,3c2.4,3.2,2.1,7.1,2,9c-0.4,5.5-3.1,8.2-2,13c0.1,0.5,0.5,2,1,2
			c0.4,0,0.9-0.9,2-5s1.7-6.1,2-9c0.4-3.5,0.6-5.2,0-7c-1-2.9-3.3-4.5-4-5C603.2,354.2,600.2,355.2,599.2,355.2z"/>
		<path class="st24" d="M589.7,373.7c0.2-2.5,0.6-4.5,1-6c0.6-2.6,1-3.9,2-5c1.7-1.8,4.2-2,5-2c0.7,0,4.4-0.3,6,2
			c0.6,0.8,0.4,1.3,0,6c-0.3,4.3-0.4,6.7-2,9c-0.5,0.7-0.8,0.9-1,1c-1.8,0.8-5-1-7-3c-0.6-0.7-1.5-1.8-3-2
			C590.2,373.6,589.9,373.7,589.7,373.7z"/>
		<path class="st25" d="M597.2,362.2c-0.9,0.5-2.4,2.2-3.5,4.5c-0.9,1.9-1.9,5.5,0,7c1.1,0.8,2.3,0.2,3.5-0.5
			c1.4-0.9,1.2-3.9,1.5-5.5C598.8,366.8,597.4,362.4,597.2,362.2z"/>
		<path class="st3" d="M967.4,503.4c-1.5-1.5-4.1-0.4-4,1.7c0.3,12.4,0.1,22.9-0.2,31c-0.8,22-2.4,28.3-5,34
			c-4.7,10.3-11.9,19.1-17,23c8-6,13.8-10.8,16-13c6-6,8.2-10.7,8.9-13.8c0-0.2,0.1-0.3,0.1-0.5c0.7-20.2,1.3-40.5,2-60.7
			C968.1,504.6,967.9,503.9,967.4,503.4C967.4,503.5,967.4,503.4,967.4,503.4z"/>
		<path d="M962.9,501.1c0,0.1,0,0.2,0.1,0.4c0,0.1,0,0.1,0-0.1c0,0,0,0.1,0,0.2c0,0.2,0,0.5,0,0.7c0,0.5,0,0.9,0,1.4
			c0,0.9,0,1.8-0.1,2.8c0,0.8,0.7,1.5,1.5,1.5c0.8,0,1.5-0.7,1.5-1.5c0-1,0.1-1.9,0.1-2.9c0-1,0-2.1-0.2-3.1c-0.2-0.8-1.1-1.3-1.8-1
			C963.2,499.5,962.7,500.3,962.9,501.1L962.9,501.1z"/>
		<path d="M963.1,501.9C963.1,501.9,963.1,502,963.1,501.9c0-0.1-0.1-0.2-0.2-0.3c0,0,0,0.1,0.1,0.1c0-0.1-0.1-0.2-0.2-0.4
			c0,0,0,0.1,0,0.1c0-0.1,0-0.3,0-0.4c0.1,0.7,0.1,1.4,0.1,2.1c0,0.7,0,1.5,0,2.2c0,0.8,0.7,1.5,1.5,1.5c0.8,0,1.5-0.7,1.5-1.5
			s0-1.7,0-2.5c0-0.4,0-0.8,0-1.2c0-0.6-0.1-1.4-0.6-1.8c-0.3-0.3-0.7-0.4-1.1-0.4c-0.4,0-0.8,0.2-1.1,0.4
			C962.6,500.4,962.5,501.4,963.1,501.9L963.1,501.9z"/>
		<path class="st20" d="M933.2,480.2c2.6,1.1,5.3,2.5,8,4c9.4,5.3,16.6,11.4,22,17c0.3-0.7,0.7-1.3,1-2c-7.7-6-15.3-12-23-18
			c-2-2-4-4-6-6C934.5,476.9,933.8,478.5,933.2,480.2z"/>
		<path class="st26" d="M829.7,355.7c-11.9-0.4-30.5,0.3-51,8c-19.5,7.3-33,19.2-60,43c-21.6,19.1-44.8,39.5-55,59
			c-1.1,2.1-4,8-10,14c-9.1,9.2-19.2,12.6-23,14c-18.4,6.8-46.2,24.6-57,44c-3.7,6.6-12.4,26,0,61c8.1,8.2,19.2,19.1,33,31
			c11,9.5,25.7,22.2,44,34c15.7,10.2,39.5,23.2,72,33c6.4,3.2,15.9,7,28,8c3.8,0.3,21.2,1.4,40-8c4.3-2.2,7.7-4.4,10-6
			c51.3-35.7,102.7-71.3,154-107c3.7-11,7.3-22,11-33c0.3-15.3,0.7-30.7,1-46c-2.7-3.3-5.3-6.7-8-10c-8-5.7-16-11.3-24-17
			c1-12.3,2-24.7,3-37c-0.7-9-1.3-18-2-27c-1-3-2-6-3-9c-3.7-4.3-7.3-8.7-11-13c-11-5.3-22-10.7-33-16c-11-4.3-22-8.7-33-13
			c-5-1.7-10-3.3-15-5C837,357,833.3,356.4,829.7,355.7z"/>
		<path class="st13" d="M968.1,506.4c-0.6,20.2-1.3,40.3-1.9,60.5c-2.7,4.9-5,9.1-7.6,14c-55.5,38.4-110.9,76.8-166.3,115.2
			c-5.2,3.8-19.9,13.3-31.5,10.5c-86-21-113-38-184-104c-10-9.3-10.7-31.7-9-61c2.5-4.5,9-12.5,14-16c24-16.8,48.5-30.7,72.5-47.5
			c24.7-34.7,54.4-63.7,73.5-79.5c34.5-28.5,54-41,86-44c9.3-0.9,17.4,0.1,36.5,5.5c41.5,15.5,71.3,25.4,82.5,45.5
			c15,27,6,55.6,1.5,68.5c10.5,9,21,17.9,31.5,26.9C967.3,502.4,968.1,504.4,968.1,506.4z"/>
		<path class="st3" d="M604.2,511.2c-9.2,7.3-16.2,14-21,19c-4.3,4.5-6.9,7.7-7,12c-0.1,4,2,9.2,6,12c4.1,2.9,8.8,2.5,10,6
			c0.1,0.2,0.5,1.5,0,2c-0.8,0.8-3.4-1.1-8-3c-4.2-1.8-6.3-2.7-8-2c-1,0.4-2.9,1.6-4,9c-1.7,11.5,1.3,21,2,23
			c3.4,10.2,7.9,15.3,7,16c-0.9,0.7-6.8-3.5-10-10c-0.8-1.5-1.7-3.9-3-17c-0.5-5.3-0.8-7.9-1-12c-0.5-10-0.7-15.3,1-22
			c0.8-2.9,1.4-5.2,3-8c3.5-5.8,8.4-8.3,13-11C589.2,522.3,596.1,517.8,604.2,511.2z"/>
		<path class="st3" d="M965.2,514.2c-5.9,4.8-15.2,12.3-27,21c-8.3,6.1-14.2,10.2-48,33c-27.5,18.5-32.5,21.8-39,26
			c-23.3,15-33.5,20.6-38,23c-12.7,6.8-23.5,11.8-31,15c-0.4,0.7-0.8,1.7-1,3c-0.3,1.7-0.2,3.1,0,4c0.4,1.4,0.3,2.4,0,3
			c-0.4,0.9-0.9,1.2-1,2c-0.1,0.8,0.4,1.9,1,2c0.9,0.1,1.5-1.9,3-4c1.1-1.6,2.4-2.8,5-5c3.3-2.8,10.3-7.7,20-13
			c10-6.3,20-12.7,30-19c26.7-15.7,53.3-31.3,80-47c15.3-9.3,30.7-18.7,46-28C965.2,524.9,965.2,519.5,965.2,514.2z"/>
		<path d="M653.8,480c-3,3.9-7.3,9.2-13,14.9c-9.2,9.3-13.8,13.9-20.9,17.9c-4.4,2.4-9.4,6.3-17,11.9c-4,3-3.4,5.3-3,6
			c0.7,1.2,3.1,1,4,1c17-1.1,58.8-58.7,58.8-58.7c6-8.3,15.7-21.5,27.9-37.8"/>
		<path class="st27" d="M881.2,420.2c0.5-1.9-2.8-3.9-3-4c-4-2-12.2-1.2-13,2c-0.3,1.4,0.8,2.8,1,3c0.3,0.4,1.5,1.7,5,2
			C874.5,423.5,880.5,423,881.2,420.2z"/>
		<path class="st28" d="M870.2,423.2c1.2,0.7,2.9,1.9,4,4c1.4,2.7,1.4,6.3,0,9c-0.7,1.2-1.5,2-2,4c-0.3,1.1-0.5,2.1,0,3
			c0.9,1.5,3.6,1.1,5,1c2.1-0.2,5.8-1.2,6-3c0.1-0.7-0.4-1.3-1-2c-1-1.3-2.4-1.8-3-2c0.3-5,0.7-10,1-15c-1.3,0.4-3,0.8-5,1
			C873.2,423.4,871.5,423.3,870.2,423.2z"/>
		<path class="st28" d="M863.2,437.2c-0.8,0.1-1.8,0.4-2,1c-0.3,1,2,2.4,3,3c1.9,1.2,5.1,2.6,10,3c0-2-0.5-2.7-1-3
			c-0.9-0.6-1.8,0.3-4,0c-0.3,0-1.6-0.2-3-1C864.6,439.3,863.6,438,863.2,437.2z"/>
		<path class="st28" d="M864.2,419.2"/>
		<path class="st28" d="M865.2,419.2"/>
		<path class="st29" d="M842.2,461.2c-0.5,8.1-3.5,16.5-10,28c-10.1,17.8-25.6,26.3-38,33c-10.7,5.8-20,10-33,12
			c-23.5,3.6-41.1-7.5-49-12c-8-4.6-14.5-8.3-20-16c-14-19.5-7.4-43.9-6-49c5.6-20.7,19.5-32.5,26-38c20.3-17.2,42.6-20.3,51-21
			c12-1,34-1,53,12c11,7.5,18.2,18.2,22,28C842.2,448.7,841.9,458.6,842.2,461.2z"/>
		<path class="st20" d="M865.2,439.2h-2v-18.7c0-0.2,0.1-0.3,0.3-0.3h1.7V439.2z"/>
		<path class="st20" d="M841.2,359.2c-6.4,0.5-11.5,1.9-15,3c-6.6,2.1-11.2,3.6-15,8c-1.1,1.2-4.4,5.2-5,11c-0.6,6.5,2.3,11.8,5,15
			c10,12,22.3,17.5,30,20c4.8,1.6,12.3,3.6,22,4c-16.2-1.9-29.2-8.1-35-12c-7.2-4.9-16.6-11.3-17-21c-0.2-6.1,4.2-11.9,5-13
			c0.9-1.2,5.6-5,17-8c13.8-3.7,24.8-1,25-2C858.2,363.7,855.1,362.4,841.2,359.2z"/>
		<path class="st20" d="M935.2,412.2c-9.7,7-8.6,6.9-24,18c-18,13-49.8,40.2-72,66c-20.9,24.3-37.1,48.5-44,60c-7.2,12-5,11.7-11,18
			c-3.8,4-10.8,17.4-14,22c-0.4,0.6-1.5,3.2-1,4c0.5,0.8,1.7,0.6,3,0c3.5-1.5,5.4-7.5,6-10c0.8-3.2,1.7-7,12-21
			c7.4-10,12.5-21.1,20-31c21-27.9,18-22.9,29-37c14.8-19,25.9-26.8,33-34c0,0,7.6-7.7,28-22c5-3.5,13.5-8.2,21-8c2,0,4.8-0.8,9,4
			c3.6,4.1,4.4,11.4,4,22c-0.2,5.7-1.2,12.9-1.3,13.7c-0.3,1.9-0.3,1.7-0.7,4.3c-1.8,11.9-1.7,16.2-1,20c0.7,3.8,1.7,5.2,3,6
			c1.7,1,3.3,2.1,4,1c1.1-1.6-1.9-5-4-11c-1.6-4.5-1.9-8.8-1-14c0.6-3.8,1.5-6.5,2-8c3.5-11.1,4.5-21.4,5-27c0.7-7.1,1.2-13.1,0-21
			C939,419.9,936.9,416.1,935.2,412.2z"/>
		<path class="st20" d="M897.2,379.2c0-0.1,6.3,2.5,10,7c1,1.2,4.1,5.4,4,11c-0.2,6.9-5.2,11.5-8,14c-8.2,7.4-23,8-22,8
			c0.5,0.1,0,1,0,1c1.2,0.2,4.4-0.1,6,0c10.5,0.5,24.5-5.3,28-17c0.6-2,1.9-7.5-1-15C901.3,381.9,897.1,379.3,897.2,379.2z"/>
		<path class="st20" d="M856.2,364.2c8,2,17.2,4.9,27,9c8.4,3.5,15.7,7.3,22,11"/>
		<path class="st30" d="M725.2,410.2c-5,2.6-22.6,12.2-33,33c-3.8,7.5-12.2,24.4-6,43c6,18.1,22.1,26.4,29,30
			c25.3,13.1,50.9,6.2,58,4c0.3-8,0.7-16,1-24c0.3-1.3,0.7-2.7,1-4c1.3-0.3,2.7-0.7,4-1c4.7,7.7,9.3,15.3,14,23
			c5.5-2.2,12.2-5.7,19-11c14.3-11.2,21-24.7,25-33c2.3-4.7,3.4-7,4-10c3-14.6-5.9-27.5-9-32C814.6,402.8,762.9,390.3,725.2,410.2z"
			/>
		<path class="st20" d="M672.8,518.8c-1.7-0.4-3.5-0.3-5.2,0.4c-18.3,6.9-32.2,14.9-41.5,21c-17.4,11.5-21.7,18.1-24,23
			c-1.1,2.3-5,15-1,29c1.3,4.4,5,8.4,7,10c21.1,17.3,31.5,26.3,37,29c16,8,20,10.8,53,17c2.2,0.4,18,2.1,21,0c5.1-3.4,1.9-10.3,6-14
			c3.3-3,10-4,33,3c9.7,3,15.7,4.3,17,2c0.9-1.6-1-4.2-3-5c-5-2-7.8-2.7-18-5c-8.6-1.9-11.6-6.2-21-8c-5.6-1.1-10.1,3.2-9,1
			c2-4,5.8-11,7-13c10-17,11.5-40.7,11-46C740.5,544.2,710.5,527.6,672.8,518.8z"/>
		<path class="st20" d="M827.2,453.9c-5.9-1.1-10.2,3.1-11,3.9c-0.9,0.9-4,4-4,8.8c0,0.8,0.1,6.2,4,8.8c4.9,3.3,12.3-0.2,16-3.9
			c1.3-1.3,4.5-4.5,4-8.8C835.7,458.2,831.5,454.7,827.2,453.9z"/>
		<path class="st29" d="M828.9,460.1c-4.7-0.8-7.3-1.3-10.1,0c-2.6,1.2-5.1,3.7-5.6,7.1c-0.4,2.9,0.7,6.3,3.4,8.1
			c5,3.3,13.5-0.2,16.9-5.1c1.4-2,1.8-4.8,0-7.1C832.5,461.9,832,460.6,828.9,460.1z"/>
		<text transform="matrix(0.5951 0.3585 -0.5349 0.8449 815.7103 474.9039)" class="st31 st32">1</text>
		<path class="st10" d="M820.2,457.8c-0.2-1.1,1.5-2.4,3-2.9c1.7-0.6,3.8-0.2,5,1c0.5,0.5,1.3,1.5,1,2c-0.3,0.6-0.4,0.9-1.5,0.5
			c-1.2-0.5-2.3-1-3-1c-1.4,0-2.4,1.6-3.5,1.5C820.7,458.7,820.2,458.2,820.2,457.8z"/>
		<path class="st20" d="M826.1,428.9c-5.5-1.1-9.6,3.1-10.3,3.9c-0.9,0.9-5.6,4-5.6,8.8c0,0.8,1.9,6.1,5.6,8.8
			c4.6,3.3,11.6-0.2,15-3.9c1.2-1.3,4.2-4.5,3.8-8.8C834.2,433.2,830.2,429.7,826.1,428.9z"/>
		<path class="st29" d="M827.8,435c-4.4-0.8-6.8-1.3-9.5,0c-2.5,1.2-4.8,3.7-5.3,7.1c-0.4,2.9,0.6,6.3,3.2,8.1
			c4.7,3.3,12.7-0.2,15.9-5.1c1.3-2,1.7-4.8,0-7.1C831.1,436.9,830.7,435.6,827.8,435z"/>
		<text transform="matrix(0.5698 0.3644 -0.5121 0.8589 814.384 446.8944)" class="st31 st33">2</text>
		<path class="st10" d="M819.6,432.8c-0.2-1.1,1.4-2.4,2.8-2.9c1.6-0.6,3.5-0.2,4.7,1c0.5,0.5,1.2,1.5,0.9,2
			c-0.3,0.6-0.4,0.9-1.4,0.5c-1.2-0.5-2.2-1-2.8-1c-1.3,0-2.2,1.6-3.3,1.5C820,433.7,819.6,433.2,819.6,432.8z"/>
		<path class="st20" d="M807.9,410.9c-6.3-1-11,2.9-11.9,3.7c-1,0.8-4.3,3.7-4.3,8.2c0,0.7,0.1,5.8,4.3,8.2
			c5.3,3.1,13.3-0.2,17.3-3.7c1.4-1.2,4.8-4.2,4.3-8.2C817.1,414.9,812.5,411.6,807.9,410.9z"/>
		<path class="st29" d="M809.8,416.7c-5.1-0.8-7.9-1.2-11,0c-2.8,1.1-5.5,3.5-6.1,6.7c-0.5,2.8,0.7,6,3.7,7.6
			c5.4,3.1,14.6-0.2,18.3-4.8c1.5-1.9,2-4.5,0-6.7C813.6,418.4,813.1,417.2,809.8,416.7z"/>
		<text transform="matrix(0.655 0.343 -0.5887 0.8083 795.4959 428.7515)" class="st31 st34">3</text>
		<path class="st10" d="M800.3,414.5c-0.2-1,1.6-2.3,3.2-2.8c1.9-0.5,4.1-0.2,5.4,0.9c0.6,0.5,1.4,1.4,1.1,1.8
			c-0.3,0.5-0.4,0.8-1.6,0.5c-1.3-0.4-2.5-0.9-3.2-0.9c-1.5,0-2.6,1.5-3.8,1.4C800.9,415.4,800.4,414.9,800.3,414.5z"/>
		<path class="st20" d="M737.2,497.2c-6.5-1.1-11.3,3.2-12.1,4c-1,0.9-4.4,4.1-4.4,9c0,0.8,0.1,6.3,4.4,9c5.4,3.3,13.6-0.2,17.7-4
			c1.4-1.3,4.9-4.6,4.4-9C746.6,501.6,742,498,737.2,497.2z"/>
		<path class="st29" d="M739.2,503.5c-5.2-0.9-8-1.3-11.2,0c-2.9,1.2-5.7,3.8-6.2,7.3c-0.5,3,0.8,6.5,3.7,8.3
			c5.5,3.4,15-0.3,18.6-5.2c1.6-2.1,2-5,0-7.3C743.1,505.4,742.6,504.1,739.2,503.5z"/>
		<text transform="matrix(0.719 0.1982 -0.3185 0.9479 726.8602 517.5206)" class="st31 st35">0</text>
		<path class="st10" d="M729.5,501.2c-0.3-1.1,1.7-2.5,3.3-3c1.9-0.6,4.1-0.2,5.5,1c0.6,0.5,1.4,1.5,1.1,2c-0.4,0.6-0.4,0.9-1.7,0.5
			c-1.4-0.5-2.5-1-3.3-1c-1.5,0-2.6,1.6-3.9,1.5C730,502.1,729.6,501.7,729.5,501.2z"/>
		<path class="st20" d="M713.7,481.9c-6.5-1.2-11.2,3.5-12.1,4.3c-1,1-4.4,4.4-4.4,9.8c0,0.8,0.1,6.8,4.4,9.8
			c5.4,3.6,13.5-0.2,17.6-4.3c1.4-1.4,4.9-5,4.4-9.8C723.1,486.6,718.4,482.8,713.7,481.9z"/>
		<path class="st29" d="M715.6,488.8c-5.2-0.9-8-1.4-11.2,0c-2.9,1.3-5.7,4.1-6.2,7.9c-0.5,3.2,0.8,7,3.7,9
			c5.5,3.7,14.9-0.3,18.6-5.6c1.6-2.3,2-5.4,0-7.9C719.5,490.8,719.1,489.4,715.6,488.8z"/>
		<text transform="matrix(0.5919 0.3593 -0.532 0.8467 700.9874 503.0718)" class="st31 st36">9</text>
		<path class="st10" d="M706,486.2c-0.3-1.2,1.7-2.7,3.3-3.2c1.9-0.6,4.1-0.2,5.5,1.1c0.6,0.6,1.4,1.6,1.1,2.2
			c-0.3,0.6-0.4,1-1.7,0.5c-1.4-0.5-2.5-1.1-3.3-1.1c-1.5,0-2.6,1.8-3.9,1.6C706.5,487.2,706.1,486.7,706,486.2z"/>
		<path class="st20" d="M705.1,461.9c-6.8-1-11.9,3-12.8,3.8c-1.1,0.9-4.6,3.8-4.7,8.4c0,0.7,0.1,5.9,4.7,8.4
			c5.7,3.1,14.3-0.2,18.6-3.8c1.5-1.2,5.2-4.3,4.7-8.4C715,466,710.1,462.6,705.1,461.9z"/>
		<path class="st29" d="M707.2,467.8c-5.5-0.8-8.5-1.2-11.8,0c-3,1.1-6,3.6-6.5,6.8c-0.5,2.8,0.8,6.1,3.9,7.8
			c5.8,3.2,15.8-0.2,19.7-4.9c1.7-2,2.2-4.6,0-6.8C711.3,469.6,710.8,468.3,707.2,467.8z"/>
		<text transform="matrix(0.6768 0.3368 -0.6083 0.7937 691.7151 480.1977)" class="st31 st37">8</text>
		<path class="st10" d="M697,466c-0.3-0.6,1.7-1.4,3.5-1.6c2-0.3,4.4-0.1,5.8,0.5c0.6,0.3,1.5,0.8,1.2,1.1c-0.4,0.3-0.5,0.5-1.8,0.3
			c-1.4-0.2-2.7-0.6-3.5-0.5c-1.6,0-2.8,0.9-4.1,0.8C697.6,466.5,697.1,466.3,697,466z"/>
		<path class="st20" d="M728.2,417.9c-5.9-1-10.2,2.8-11,3.5c-0.9,0.8-4,3.5-4,7.8c0,0.7,0.1,5.5,4,7.8c4.9,2.9,12.3-0.2,16-3.5
			c1.3-1.1,4.5-4,4-7.8C736.7,421.7,732.5,418.6,728.2,417.9z"/>
		<path class="st29" d="M729.9,423.3c-4.7-0.7-7.3-1.1-10.1,0c-2.6,1-5.1,3.3-5.6,6.3c-0.4,2.6,0.7,5.6,3.4,7.2
			c5,2.9,13.5-0.2,16.9-4.5c1.4-1.8,1.8-4.3,0-6.3C733.5,425,733,423.8,729.9,423.3z"/>
		<text transform="matrix(0.5597 0.4217 -0.7097 0.7045 716.1793 433.7121)" class="st31 st38">6</text>
		<path class="st10" d="M721.2,421.3c-0.2-1,1.5-2.2,3-2.6c1.7-0.5,3.8-0.1,5,0.9c0.5,0.4,1.3,1.3,1,1.7c-0.3,0.5-0.4,0.8-1.5,0.4
			c-1.2-0.4-2.3-0.9-3-0.9c-1.4,0-2.4,1.4-3.5,1.3C721.7,422.1,721.2,421.7,721.2,421.3z"/>
		<path class="st20" d="M711.5,436.2c-6.6-1.1-11.5,3.2-12.3,4c-1,0.9-4.5,4.1-4.5,9c0,0.8,0.1,6.3,4.5,9c5.5,3.4,13.8-0.2,18-4
			c1.4-1.3,5-4.6,4.5-9C721.1,440.6,716.3,437,711.5,436.2z"/>
		<path class="st29" d="M713.5,442.5c-5.2-0.9-8.2-1.3-11.4,0c-2.9,1.2-5.8,3.8-6.3,7.3c-0.5,3,0.8,6.5,3.8,8.3
			c5.6,3.4,15.2-0.3,19-5.2c1.6-2.1,2.1-5,0-7.3C717.5,444.4,717,443.1,713.5,442.5z"/>
		<text transform="matrix(0.634 0.3487 -0.5698 0.8218 698.6223 456.7608)" class="st31 st39">7</text>
		<path class="st10" d="M703.6,440.2c-0.3-1.1,1.7-2.5,3.4-3c2-0.6,4.2-0.2,5.6,1c0.6,0.5,1.4,1.5,1.1,2c-0.4,0.6-0.4,0.9-1.7,0.5
			c-1.4-0.5-2.6-1-3.4-1c-1.5,0-2.7,1.6-3.9,1.5C704.2,441.1,703.7,440.7,703.6,440.2z"/>
		<path class="st20" d="M752.2,402.9c-5.9-1-10.2,3-11,3.7c-0.9,0.9-4,3.8-4,8.4c0,0.7,0.1,5.9,4,8.4c4.9,3.1,12.3-0.2,16-3.7
			c1.3-1.2,4.5-4.3,4-8.4C760.7,407,756.5,403.6,752.2,402.9z"/>
		<path class="st29" d="M753.9,408.8c-4.7-0.8-7.3-1.2-10.1,0c-2.6,1.1-5.1,3.5-5.6,6.8c-0.4,2.8,0.7,6.1,3.4,7.8
			c5,3.2,13.5-0.2,16.9-4.9c1.4-2,1.8-4.6,0-6.8C757.5,410.6,757,409.3,753.9,408.8z"/>
		<text transform="matrix(0.5205 0.4535 -0.7062 0.708 740.3638 419.984)" class="st31 st40">5</text>
		<path class="st10" d="M745.2,406.6c-0.2-1,1.5-2.3,3-2.8c1.7-0.5,3.8-0.2,5,0.9c0.5,0.5,1.3,1.4,1,1.9c-0.3,0.5-0.4,0.9-1.5,0.5
			c-1.2-0.4-2.3-1-3-0.9c-1.4,0-2.4,1.5-3.5,1.4C745.7,407.5,745.2,407,745.2,406.6z"/>
		<path class="st20" d="M783.2,401.9c-5.9-1-10.2,2.9-11,3.6c-0.9,0.8-4,3.7-4,8.1c0,0.7,0.1,5.7,4,8.1c4.9,3,12.3-0.2,16-3.6
			c1.3-1.2,4.5-4.1,4-8.1C791.7,405.8,787.5,402.6,783.2,401.9z"/>
		<path class="st29" d="M784.9,407.6c-4.7-0.8-7.3-1.2-10.1,0c-2.6,1.1-5.1,3.4-5.6,6.5c-0.4,2.7,0.7,5.8,3.4,7.5
			c5,3.1,13.5-0.2,16.9-4.7c1.4-1.9,1.8-4.5,0-6.5C788.5,409.3,788,408.1,784.9,407.6z"/>
		<text transform="matrix(0.6303 0.3496 -0.5665 0.8241 770.4332 418.7861)" class="st31 st41">4</text>
		<path class="st10" d="M776.1,405.6c-0.2-0.8,1.1-1.9,2.2-2.2c1.2-0.4,2.7-0.1,3.6,0.7c0.4,0.4,0.9,1.1,0.7,1.5
			c-0.2,0.4-0.3,0.7-1.1,0.4c-0.9-0.3-1.7-0.8-2.2-0.7c-1,0-1.7,1.2-2.5,1.1C776.5,406.3,776.2,406,776.1,405.6z"/>
		<path class="st4" d="M775.7,424.7c-11-1.4-19.6,1.5-24,3c-5.4,1.9-15.3,5.4-23,15c-2.6,3.3-7,8.8-8,17c-1.4,11.8,5.4,20.8,7,23
			c9.2,12.4,27.2,17.5,46,14c0-1.3,0-2.7,0-4c1.3-0.3,2.7-0.7,4-1c1.3,0.7,2.7,1.3,4,2c2.3-0.5,5.5-1.3,9-3c2.5-1.2,11.6-5.7,17-16
			c1-1.9,4.5-21.5,1.5-28.5C802.5,430.8,780.3,425.3,775.7,424.7z"/>
		<path class="st20" d="M732.3,442.3l-2.1-1.3l-2.8,4.5l2.1,1.3c0.9,0.6,2.2,0.3,2.8-0.6l0.7-1.1
			C733.5,444.1,733.2,442.9,732.3,442.3z"/>
		<path class="st20" d="M802.4,478.3l2.2,1.2l2.5-4.6l-2.2-1.2c-1-0.5-2.2-0.2-2.7,0.8l-0.6,1.1
			C801.1,476.6,801.5,477.8,802.4,478.3z"/>
		<path class="st30" d="M774.2,492.7c0,0.8,0,1.7,0,2.5"/>
		<path class="st20" d="M776.2,521.1c-0.7,2.6-1.3,5.3-2,7.9c-0.6,0.6-1.6,1.4-3,2c-1.6,0.7-3.1,0.9-4,1c0.4,2.3,1.3,3.4,2,4
			c0,0,5.6,4.6,27.9-9.9c0,0,0,0,0.1-0.1c0.7-0.6-0.3-2.5-0.8-3.5c-0.1-0.2-0.2-0.3-0.2-0.4c-0.7-1-2.3-1-3-1c0-2.3,0-4.6,0-6.9
			c-1.8,1.3-4.2,2.7-7,4C782.3,519.9,778.9,520.7,776.2,521.1z"/>
		<path class="st20" d="M774.2,496.2c0.7,8.3,1.3,16.7,2,25"/>
		<path class="st20" d="M773.2,532.7c0-4.2,0-8.3,0-12.5"/>
		<path class="st30" d="M841.2,460.2c-1.6,7.3-5.5,20.7-16,34c-11.5,14.7-25,21.9-32,25"/>
		<path class="st30" d="M773.2,527.2c-3.9,0.8-9.4,1.8-16,2c-6.7,0.2-23.1,0.9-39-7c-21.2-10.5-30.3-32.4-33-39"/>
		<path class="st42" d="M601.7,587.7c-0.1-2.1,0.3-6.6,15-19c9-7.6,15.6-11.7,26-18c9.2-5.6,11.8-6.6,15-7c2.7-0.3,6.9-0.5,20,5
			c8.8,3.6,9.5,4.8,32,18c3.3,2,8.7,5.9,11.5,12.5c0.5,1.2,2.1,14.4,2,17c-0.5,20.5,0,37-8.5,44.5c-1.8,1.6-4.7,1.5-10,2
			c-11.1,1-20-1.3-26-3c-17.3-5.1-30.2-12.3-42-19c0,0-14.6-8.3-30-24C604.6,594.6,601.9,591.7,601.7,587.7z"/>
		<path class="st12" d="M631.2,555.1c-0.4,0.3-0.6-2-0.5-2.5c1.8-4.7,6.3-13.9,16.5-21.1c10.7-7.6,21.5-8.6,25.9-8.8
			c0.1,0,0.2,0,0.3,0c1.4,0.2,3.8,0.5,6.9,1c10.9,1.9,44.2,8.8,56,32.5c2,4,2.7,6.3,3,7.7c3,15.6-5.5,29-9.8,34.8
			c-0.7,0.9-2,1.1-2.9,0.3c-0.5-0.4-0.9-0.9-1.3-1.8c-1.4-3.4-0.9-12.6-1-13.7c-1-8.8-5-11.8-9-16.7c-6.3-7.8-15.3-10.9-22-14.7
			c-15.1-8.6-27.8-9.8-30.9-9.8c-0.1,0-0.2,0-0.2,0C644.2,544.3,636.6,551,631.2,555.1z"/>
		<path class="st20" d="M658.2,550.2c-1,2-2,4-3,6c-3.7,3-7.3,6-11,9c-2,1.3-4,2.7-6,4c2.3,0.3,4.7,0.7,7,1
			c16.3,9.3,32.7,18.7,49,28c4.7-6.7,9.3-13.3,14-20C691.5,568.9,674.8,559.5,658.2,550.2z"/>
		<path class="st30" d="M652.2,579.2c-4.3-3.3-8.7-6.7-13-10"/>
		<path class="st30" d="M684.2,598.2c3.3,2,6.7,4,10,6c-0.7-2.3-1.3-4.7-2-7"/>
		<path class="st20" d="M694.2,602.2c0-2,0-2,0-4c-0.7-0.3-1.3-0.7-2-1C692.8,599.5,694.2,607.2,694.2,602.2z"/>
		<path class="st20" d="M708.2,578.2c1.3,0.3,2.7,0.7,4,1c-0.7,0.7-1.3,1.3-2,2c-1.3,0-2.7,0-4,0
			C706.8,580.2,707.5,579.2,708.2,578.2z"/>
		<path class="st29" d="M663.2,559.2c-4.3,3.3-8.7,6.7-13,10c13.3,8,26.7,16,40,24c4-4.3,8-8.7,12-13
			C689.2,573.2,676.2,566.2,663.2,559.2z"/>
		<path class="st28" d="M711.2,580.2c-2,2.7-4,5.3-6,8"/>
		<path class="st43" d="M658.7,556.7c-4.3,3.7-8.7,7.3-13,11"/>
		<path class="st44" d="M665.7,557.7c3.3,1.2,7,2.8,11,5c3,1.7,5.7,3.3,8,5"/>
	</g>
</g>
</svg>
